<svg width="233" height="13" viewBox="0 0 233 13" fill="none" xmlns="http://www.w3.org/2000/svg">
<path d="M0.00346598 12.2597V12.2305L0.194201 11.8713C0.384935 11.469 0.570463 11.0874 0.743858 10.6852C0.884307 10.362 1.08025 10.0595 1.17561 9.72083C1.22763 9.53346 1.30392 9.40625 1.39582 9.23436C1.45478 9.12434 1.50506 8.95245 1.56055 8.82868L1.71834 8.48833L1.99924 7.9056L2.53849 6.692L2.85753 6.01645L3.19045 5.27214C3.27542 5.08305 3.38292 4.90944 3.45055 4.70832C3.48869 4.59315 3.55285 4.47626 3.5962 4.36796C3.75572 3.97776 3.92218 3.60818 4.10251 3.21969L4.32618 2.73838L4.77355 1.78607L5.03884 1.22053L5.28159 0.582795C5.31974 0.484813 5.42204 0.347296 5.49139 0.249314C5.55382 0.161647 6.29768 0.19087 6.70863 0.196027C7.03981 0.201184 7.37099 0.159928 7.70911 0.204621C8.13046 0.261347 8.74774 0.142739 9.40837 0.20806C9.55229 0.221811 9.71008 0.214935 9.8592 0.211497L10.2753 0.199464L10.903 0.196027L11.3296 0.20634C11.4302 0.208059 11.6348 0.163365 11.7267 0.22181C11.9191 0.347295 11.9434 0.577637 12.0266 0.759848L12.2711 1.30476L12.5104 1.85139L12.8832 2.67478L12.989 2.89137L13.2369 3.42081L13.5074 4.0276C13.6409 4.32499 13.738 4.64643 13.8941 4.92663L14.0588 5.22057L14.4888 6.19866L14.7454 6.73326C14.8408 6.93094 14.9622 7.13722 15.0246 7.34349C15.0697 7.49132 15.0992 7.61165 15.1807 7.73542C15.2882 7.897 15.3506 8.06374 15.4252 8.24079L15.8378 9.22748L16.1014 9.78959L16.2887 10.1471L16.5678 10.7642C16.7204 11.0994 16.7984 11.4071 16.9926 11.7165C17.0932 11.8747 17.1348 12.0414 17.2198 12.2477L16.6025 12.2546L16.228 12.2683H15.5604L14.9761 12.2597L14.2287 12.2374C13.9218 12.2752 13.6149 12.289 13.3149 12.234C13.0392 12.2752 12.7896 12.2924 12.5121 12.2477L12.2798 11.6873L12.1255 11.3418L11.9677 11.0032L11.5983 10.2503C11.3487 10.1609 11.0504 10.2296 10.7851 10.2296H10.1956L9.3789 10.2125L8.11312 10.2331L7.69524 10.2365L7.01033 10.2296H6.03238L5.62491 10.2537C5.44111 10.3809 5.44805 10.6216 5.37002 10.7969L5.06138 11.4845C4.97122 11.6873 4.86371 11.8678 4.79435 12.081C4.75447 12.2013 4.6643 12.2683 4.53773 12.2666L3.73144 12.2546C3.35518 12.2494 3.00145 12.2752 2.62172 12.2494C2.41885 12.2357 2.19691 12.2271 1.99924 12.2391L1.53974 12.2649C1.17388 12.2855 0.828822 12.2426 0.457758 12.258L0 12.2718L0.00346598 12.2597ZM8.17728 2.53038C8.19288 2.55961 8.30212 2.5046 8.28651 2.47366L8.23276 2.36193C8.19981 2.29317 8.08191 2.19519 8.00735 2.17456C7.91892 2.15049 7.7698 2.20722 7.71084 2.29317C7.68484 2.3327 7.69524 2.45303 7.73338 2.4771C7.76459 2.49772 7.86343 2.49601 7.89464 2.47194L8.0715 2.33442L8.17728 2.53038ZM9.53842 2.32583C9.53842 2.25191 9.47773 2.19003 9.40144 2.19003C9.32515 2.19003 9.26446 2.25019 9.26446 2.32583C9.26446 2.40146 9.32515 2.46163 9.40144 2.46163C9.47773 2.46163 9.53842 2.40146 9.53842 2.32583ZM8.52407 2.56476C8.62637 2.54414 8.70092 2.50288 8.71653 2.45991C8.72867 2.42553 8.70092 2.30176 8.66624 2.28973C8.61249 2.27082 8.50499 2.32583 8.47551 2.37224C8.4391 2.42553 8.46511 2.5768 8.52579 2.56476H8.52407ZM11.0192 3.45347C11.0192 3.36752 10.9481 3.29704 10.8614 3.29704C10.7747 3.29704 10.7036 3.36752 10.7036 3.45347C10.7036 3.53942 10.7747 3.6099 10.8614 3.6099C10.9481 3.6099 11.0192 3.53942 11.0192 3.45347ZM6.05146 3.98463C6.11388 3.92103 6.07747 3.68553 5.98904 3.65287C5.85032 3.6013 5.71334 3.76117 5.72894 3.89009C5.74455 4.01901 5.92141 4.11355 6.05146 3.98463ZM8.50845 6.72123L9.36502 6.74014H10.1765L9.90775 6.17975L9.70488 5.82221L9.42918 5.26698L9.16215 4.70316L8.84658 4.0276C8.78936 3.90384 8.69052 3.76116 8.62983 3.64771C8.36974 3.97088 8.32119 4.26826 8.10791 4.66362L7.79061 5.25151L7.60854 5.60906L7.43515 5.97004L7.08836 6.72982C7.34325 6.75904 7.61028 6.72982 7.86863 6.72982L8.50672 6.72467L8.50845 6.72123ZM6.38264 4.88537C6.41212 4.85271 6.43293 4.71175 6.40345 4.6705C6.37918 4.63612 6.28901 4.58799 6.23699 4.57252C6.17631 4.55361 6.11388 4.75989 6.16417 4.79942C6.20578 4.8338 6.29421 4.86818 6.38264 4.88537ZM11.3278 4.85959C11.2741 4.80286 11.0955 4.72894 11.0365 4.7427C10.962 4.85443 11.0903 4.96272 11.1805 4.97819L11.307 5.00054C11.3331 5.0057 11.3487 4.87849 11.3278 4.85787V4.85959ZM6.13816 5.96832L5.99251 6.36712L6.13296 6.41697L6.27861 6.01817L6.13816 5.96832ZM6.5439 6.77623C6.52136 6.73498 6.39131 6.70748 6.3445 6.71091C6.29768 6.71435 6.20925 6.80718 6.21792 6.85874C6.23179 6.94125 6.35837 6.9722 6.42946 6.95844C6.48494 6.94641 6.57858 6.83812 6.5439 6.77623ZM5.02496 7.49132L4.96081 7.10112C4.85851 7.15269 4.75794 7.23864 4.68511 7.34521L5.02496 7.49132ZM3.6222 8.27689C3.7037 8.26314 3.75051 8.08437 3.69676 8.00873C3.65168 7.94341 3.51123 7.90731 3.46789 7.95888C3.38466 8.07577 3.41413 8.31471 3.6222 8.27861V8.27689ZM12.6092 8.08781C12.5867 8.02249 12.4341 7.92622 12.3717 7.95545C12.2763 8.00014 12.311 8.17032 12.3838 8.18235C12.4341 8.19094 12.5225 8.14969 12.6092 8.08781ZM13.2334 9.12434C13.2959 9.08825 13.2439 8.9301 13.1866 8.89572C13.1242 8.85619 12.9734 8.85447 12.9595 8.91119C12.9352 9.03152 13.0687 9.21889 13.2317 9.12606L13.2334 9.12434Z" fill="#2C1F00"/>
<path d="M21.8354 0L21.8755 0.668408L21.8668 1.51958V2.25414L21.8633 3.302L21.8668 3.80157L21.8616 4.80418L21.8685 5.34552V6.60053V7.10183L21.872 8.2141L23.4253 8.1967H24.1592L25.0573 8.2141L25.681 8.1967H26.9006L27.5715 8.18451L28.4836 8.19496L29.2489 8.18974L30.7567 8.2141L30.7672 8.8947V10.4404L30.7585 11.3159L30.776 12.2245C30.5034 12.2698 30.2763 12.2785 30.0019 12.2715L29.2908 12.2559L28.8715 12.2524L28.4906 12.2559H27.5488L26.8115 12.2507L26.1895 12.2576L25.3683 12.2437L24.0526 12.2594H23.5302H22.4207H21.7026L20.9058 12.2628L20.151 12.2715L19.5238 12.2646L18.8336 12.2594L17.7695 12.2698C17.801 11.7285 17.7922 11.2167 17.7887 10.6876L17.7835 9.56833V9.0148L17.7887 8.76241L17.8027 7.47955L17.787 6.10096V5.62402L17.7905 4.50131L17.787 3.0618L17.7922 2.26458V1.47259L17.7957 0.919062L17.7887 0.419496L17.7975 0.00174102H21.8319L21.8354 0ZM20.13 6.54831L19.8225 6.47868C19.6862 6.5309 19.6653 6.77285 19.7422 6.83029L19.9361 6.70148C20.0008 6.65797 20.0689 6.86859 20.2069 6.83551C20.345 6.80244 20.1091 6.71367 20.13 6.54831ZM20.3764 7.10183C20.3205 7.07746 20.1667 7.06876 20.1038 7.08443C20.0479 7.10009 20.0025 7.2376 20.0217 7.29156C20.0409 7.34552 20.1807 7.40296 20.2349 7.38208C20.3065 7.35423 20.3747 7.31593 20.4079 7.2846C20.4358 7.26023 20.4114 7.11576 20.3764 7.10183ZM20.3467 7.67973C20.2017 7.57703 20.0794 7.52307 19.9047 7.58747L20.0829 7.79983C20.1056 7.82768 20.2227 7.83638 20.2454 7.80853L20.3467 7.67799V7.67973ZM20.9198 8.96432C20.8237 8.86859 20.7695 8.81811 20.7224 8.82507C20.6857 8.83029 20.621 8.88425 20.5966 8.91384C20.5721 8.94344 20.628 9.0618 20.6664 9.06702C20.7398 9.07746 20.8709 9.01306 20.9198 8.96606V8.96432ZM20.621 10.3742C20.6332 10.4334 20.8307 10.4474 20.8779 10.4038C20.925 10.3603 20.9443 10.2437 20.925 10.1776C20.9111 10.1288 20.7922 10.0818 20.7311 10.0853L20.6193 10.3725L20.621 10.3742Z" fill="#2C1F00"/>
<path d="M35.6949 0.00522115L35.738 0.715326L35.7329 1.42543V2.21734L35.7277 3.34515L35.7346 3.80115L35.7225 4.76536L35.7346 5.32057V6.64505V7.10279L35.7311 8.2132L36.9764 8.20276L37.5938 8.19754L38.4217 8.20624H39.3875L40.6983 8.19928L41.3606 8.18709L42.2609 8.19754H43.056L44.5048 8.21842L44.5151 8.89894L44.5186 10.4532L44.5082 11.3199L44.5151 12.2389L43.7183 12.2737L43.0577 12.258L42.6455 12.2545L42.2678 12.2598H41.3434L40.6086 12.2545L39.9946 12.2615L39.184 12.2458L37.8836 12.258H36.6263L35.8588 12.2615L35.3759 12.258L34.8153 12.2632L34.034 12.2702L33.4149 12.2632L31.6953 12.2685L31.7177 11.071L31.7022 10.6133L31.7057 9.60556L31.697 9.25051L31.7091 8.73012L31.7212 7.53442L31.7074 6.062L31.7039 5.63211L31.7091 4.50603V3.00054L31.7126 2.2974V1.49505V0.694442L31.7074 0.174045L31.7143 0H35.6966L35.6949 0.00522115ZM34.4462 5.57815C34.4462 5.49635 34.3807 5.42847 34.2979 5.42847C34.2151 5.42847 34.1496 5.49461 34.1496 5.57815C34.1496 5.6617 34.2151 5.72783 34.2979 5.72783C34.3807 5.72783 34.4462 5.6617 34.4462 5.57815ZM33.0354 6.37528C33.1044 6.41879 33.2476 6.31437 33.2527 6.24649C33.2596 6.16295 33.1337 6.02545 33.0354 6.06896C32.9613 6.10029 32.9561 6.32655 33.0354 6.37702V6.37528ZM34.9723 9.49069C35.0982 9.45066 35.1758 9.17045 35.0533 9.06602C34.9809 9.00511 34.8119 9.11475 34.7826 9.1983C34.7446 9.30795 34.7912 9.54639 34.9723 9.48895V9.49069ZM34.6929 9.61775C34.6204 9.52724 34.4859 9.43152 34.4014 9.40889C34.3514 9.39497 34.241 9.46981 34.2358 9.51854C34.2306 9.56727 34.2531 9.6891 34.2841 9.73262C34.3393 9.81094 34.4635 9.87185 34.5376 9.85619C34.6066 9.84227 34.7394 9.67692 34.6929 9.61601V9.61775ZM35.9105 10.1051C35.9105 10.0146 35.8381 9.94147 35.7484 9.94147C35.6587 9.94147 35.5863 10.0146 35.5863 10.1051C35.5863 10.1956 35.6587 10.2687 35.7484 10.2687C35.8381 10.2687 35.9105 10.1956 35.9105 10.1051Z" fill="#2C1F00"/>
<path d="M148.754 8.36953V8.9972L148.716 9.28394L148.608 9.90462L148.478 10.3522C148.431 10.5113 148.303 10.6757 148.207 10.8295C148.127 10.9571 147.968 11.069 147.857 11.1792C147.694 11.3418 147.524 11.431 147.314 11.5184C146.97 11.6617 146.642 11.8174 146.269 11.882L145.349 12.0411L144.77 12.0936L144.268 12.1548L143.229 12.2177L142.446 12.2352L141.65 12.2544L140.9 12.2737L140.317 12.2614H139.975L139.441 12.251L138.216 12.2265L137.652 12.1828L136.486 12.0586L135.604 11.9013C135.453 11.875 135.306 11.8488 135.169 11.7911L134.593 11.5533L134.095 11.2316C133.808 11.0463 133.652 10.6879 133.513 10.3907C133.366 10.076 133.3 9.79796 133.267 9.45878C133.218 8.96923 133.144 8.53213 133.192 8.03209L133.572 8.02685H134.258L134.613 8.04608H135.155L135.943 8.04958L136.763 8.04608L137.397 8.02335C137.376 8.24365 137.378 8.5094 137.579 8.60731C137.697 8.66501 137.917 8.78914 138.044 8.79789L139.399 8.90629L139.809 8.92902L140.362 8.93951L140.954 8.943H142.063L142.618 8.92902C143.031 8.92027 143.456 8.9465 143.857 8.76991C144.036 8.69123 144.062 8.34156 143.949 8.18945C143.593 8.05482 143.215 8.0251 142.838 7.99887L142.318 7.9639L141.206 7.89222L140.147 7.78557L139.123 7.71563L138.329 7.63346C137.61 7.60024 136.939 7.46736 136.241 7.32574L135.708 7.21909L134.528 6.80822L134.169 6.55471C134.042 6.46554 133.89 6.40434 133.805 6.29769L133.597 6.03368C133.208 5.54064 133.038 4.90772 133.012 4.28005L133.06 3.2485L133.137 2.67853C133.241 1.91274 133.659 1.17142 134.376 0.826986L134.886 0.582213C135.266 0.400381 135.693 0.286736 136.116 0.232536L136.854 0.138124L137.364 0.0961618L137.74 0.0664396L139.325 0H139.993H140.629H141.199L141.946 0.0174849L142.785 0.0594445L143.357 0.0839218L144.296 0.171341L145.086 0.319955L145.54 0.407375C145.804 0.458078 146.035 0.529763 146.276 0.643408L146.843 0.914406C147.208 1.17317 147.534 1.47214 147.808 1.82532C147.968 2.02988 148.077 2.33235 148.131 2.57013L148.219 2.96527C148.296 3.30795 148.311 3.64364 148.32 3.99332L148.33 4.43916C148.207 4.45489 148.034 4.46538 147.917 4.46538L147.312 4.45839L146.823 4.46189L145.24 4.45489L144.853 4.46363L144.003 4.4514C144.119 3.76778 143.3 3.55097 142.623 3.52125L142.236 3.50552L141.37 3.45307C141.164 3.44083 141.003 3.44083 140.806 3.44258L139.739 3.45656L139.122 3.47404L138.45 3.50202L138.016 3.54398C137.758 3.57021 137.428 3.63665 137.296 3.86918C137.254 3.94261 137.293 4.14717 137.341 4.20662C137.492 4.3902 138.242 4.44091 138.672 4.4514L138.981 4.51783L139.618 4.57028L140.163 4.607L140.616 4.63323L141.738 4.72414L142.439 4.78709L143.116 4.83604L143.906 4.92521L144.504 5.00039L145.15 5.07557L145.891 5.19446L146.526 5.35881L147.154 5.54763C147.576 5.67352 148.072 6.00571 148.301 6.37287C148.559 6.78724 148.691 7.21734 148.723 7.70864L148.766 8.36428L148.754 8.36953Z" fill="#2C1F00"/>
<path d="M50.7595 12.262V12.2287L51.058 11.5908L51.2644 11.2325L51.49 10.7012L51.6375 10.3447L51.9619 9.5862L52.2031 9.06713L52.6819 7.99578L52.9734 7.36836L53.5633 6.03485L53.7646 5.57171L53.9901 5.0404L54.259 4.43569L54.5939 3.71913C54.7466 3.39231 54.8368 3.03578 55.0294 2.72818C55.1925 2.46777 55.2653 2.18115 55.3954 1.91025L55.6505 1.3737L55.8413 0.903567C55.9663 0.594222 56.1207 0.349542 56.2196 0.0157288L56.4451 0.00524292L57.0836 0.0174782L57.8956 0.0104858L58.6503 0L59.1899 0.00349617L59.5889 0.0087391H60.1112L61.3569 0.00524292L61.9364 0.0122353L62.5263 0.0174782L62.7466 0.524314L63.1057 1.33875C63.163 1.46808 63.2636 1.58343 63.2983 1.72674C63.3486 1.93647 63.4684 2.11124 63.5534 2.29824L63.7945 2.81906L64.2283 3.82225L64.5649 4.57726L65.0333 5.59268L65.2641 6.1135L65.4653 6.54693L65.6891 7.08697L65.8488 7.46448L66.312 8.50961L66.6399 9.22792C66.77 9.51455 66.9349 9.75573 67.0129 10.0686L67.2368 10.5335L67.4831 11.0962L67.6618 11.4528L67.9776 12.241C67.8423 12.2585 67.6809 12.2864 67.5681 12.2672C67.353 12.2305 67.1951 12.2585 66.9852 12.2602L66.4977 12.2654L64.9136 12.255L64.584 12.262L63.3087 12.2462L63.1075 11.7726L62.7293 10.9424L62.5349 10.5544L62.3753 10.1996C62.1949 10.1577 62.0144 10.1699 61.8305 10.2049C61.6674 10.2364 61.5252 10.1909 61.3621 10.1892L60.7999 10.1822L60.3037 10.2031L59.6843 10.2084L59.0389 10.2014H58.6711L58.0344 10.2136H57.5937L57.0003 10.1962L56.367 10.2066C56.3081 10.4566 56.2022 10.5737 56.1103 10.7746L55.8465 11.3444L55.6089 11.8967L55.4718 12.2427C55.0606 12.2899 54.6754 12.2602 54.2556 12.2602H53.5217L52.8953 12.2707L52.0886 12.262L51.424 12.2515L50.7578 12.2602L50.7595 12.262ZM59.6687 1.8683C59.6653 1.79141 59.5768 1.66907 59.5282 1.6446L59.2836 1.80014C59.3165 1.86656 59.3877 1.95394 59.4519 1.98365C59.5091 2.00987 59.6739 1.93297 59.6705 1.8683H59.6687ZM61.7299 3.52164C61.7993 3.50591 61.8722 3.32764 61.8687 3.24375C61.8652 3.17734 61.8062 3.06898 61.7577 3.04976C61.7178 3.03403 61.6206 3.04626 61.5824 3.07248L61.3413 3.23676C61.3846 3.3993 61.5304 3.56883 61.7299 3.52164ZM59.8995 6.64131L60.5449 6.63432H60.937L60.7427 6.28827C60.7011 6.06456 60.5883 5.92824 60.4894 5.73424L60.2517 5.2676L59.5455 3.79778L59.3911 3.4797L59.065 4.10712L58.5687 5.07536L58.1628 5.92475L58.0222 6.24633L57.8227 6.66053C58.0292 6.67976 58.1818 6.67451 58.371 6.63781C58.5306 6.60635 58.6885 6.66228 58.8446 6.65878L59.8995 6.64305V6.64131ZM56.7574 4.20325C56.7366 4.14033 56.5492 4.13858 56.5006 4.18228C56.4521 4.22597 56.426 4.36229 56.4538 4.4322C56.4746 4.48463 56.6082 4.52657 56.6672 4.49686C56.7331 4.46366 56.7852 4.28889 56.7574 4.20325ZM56.924 5.68706C56.9188 5.65385 56.7956 5.66259 56.7956 5.69405L56.7921 5.81289C56.7921 5.84784 56.8077 5.94047 56.8199 5.97543C56.832 6.01038 56.9014 6.01213 56.976 6.01213L56.924 5.6888V5.68706ZM56.1328 6.61859L56.0773 6.4141L55.8032 6.56441C55.7494 6.59412 55.7789 6.77413 55.8275 6.79511C55.9576 6.85103 56.1432 6.65354 56.1328 6.61859ZM61.14 7.31942C61.1001 7.30893 61.0133 7.3334 60.9734 7.3701C60.9162 7.42079 60.885 7.5606 60.8954 7.63051C60.904 7.68819 61.0307 7.78256 61.088 7.76683C61.2458 7.57459 61.2562 7.34913 61.1417 7.32117L61.14 7.31942ZM63.8102 7.61653L64.1485 7.54138C64.0947 7.33865 63.883 7.32466 63.739 7.43477C63.6991 7.46623 63.6488 7.51866 63.6297 7.55012C63.6106 7.58158 63.7668 7.62527 63.8102 7.61653ZM57.179 8.0622C57.2207 8.02025 57.2241 7.85772 57.179 7.83499C57.1339 7.81227 57.0367 7.78256 56.9899 7.77732L56.983 8.02025C56.983 8.06394 57.146 8.09191 57.1773 8.06045L57.179 8.0622Z" fill="#2C1F00"/>
<path d="M128.311 12.0955L127.805 12.1549L126.77 12.2178L125.98 12.2352L125.19 12.2545L124.405 12.2737L123.714 12.2597L123.268 12.2527L122.645 12.2405L121.69 12.2213L121.19 12.1846L119.988 12.0535L119.175 11.905L118.851 11.8544L118.094 11.5416C117.958 11.4857 117.762 11.332 117.627 11.2359C117.335 11.028 117.173 10.6803 117.026 10.3728C116.887 10.0828 116.828 9.81894 116.793 9.50446C116.739 9.00652 116.668 8.56275 116.706 8.04384L117.142 8.02637L117.977 8.04035L118.394 8.04734H119.474H120.266L120.922 8.02463C120.891 8.25175 120.903 8.51383 121.11 8.61167C121.216 8.66233 121.426 8.78463 121.54 8.79337L122.935 8.90693L123.372 8.93314L123.895 8.93838L124.482 8.94362H125.597L126.149 8.92965C126.56 8.92091 126.994 8.95411 127.383 8.76716C127.559 8.6833 127.587 8.35134 127.474 8.19934C127.392 8.14693 127.22 8.1015 127.116 8.08927L126.404 8.00541L125.81 7.96697L124.866 7.91456L124.268 7.84991L123.183 7.7678L122.301 7.66646L121.784 7.64025C121.092 7.60356 120.445 7.46904 119.766 7.33276L119.236 7.22618L118.054 6.8156L117.668 6.54654C117.552 6.46443 117.404 6.40502 117.326 6.30718L117.099 6.0224C116.406 5.15232 116.472 3.86992 116.635 2.78145C116.757 1.97078 117.151 1.19155 117.899 0.833385L118.41 0.588786C118.79 0.407083 119.217 0.291772 119.641 0.239358L120.351 0.153747L120.882 0.101335L121.23 0.0751259L122.228 0.0524122L122.928 0L123.523 0.0122286H124.157L124.725 0.0104824L125.475 0.0297011L126.314 0.0716308L126.887 0.0960907L127.826 0.185197L128.648 0.344187L129.542 0.546854L130.316 0.906768C130.669 1.071 130.924 1.41169 131.2 1.6825C131.492 1.96903 131.601 2.36214 131.69 2.74826C131.789 3.17805 131.867 3.56417 131.836 4.01144L131.849 4.45521L131.443 4.47618L130.839 4.46919L130.351 4.47268L128.726 4.4657L128.378 4.47443L127.519 4.4622C127.63 3.78256 126.821 3.56068 126.145 3.53272L125.763 3.517L124.892 3.46458C124.675 3.45061 124.504 3.44886 124.3 3.45235L123.258 3.46633L122.601 3.48555L121.961 3.5135L121.533 3.55194C121.276 3.57465 120.98 3.62707 120.815 3.85594C120.761 3.93282 120.785 4.14946 120.849 4.22284C120.908 4.28749 121.052 4.34514 121.167 4.35912L121.886 4.44473L122.469 4.51462L123.133 4.58101L123.643 4.6142L124.135 4.64216L125.218 4.72951L125.958 4.79591L126.637 4.84483L127.387 4.92869L128.028 5.00906L128.67 5.08593L129.38 5.19775L130.007 5.36023L130.643 5.54718C131.066 5.67123 131.57 5.99794 131.797 6.36134C132.025 6.72475 132.188 7.12485 132.219 7.57212L132.263 8.19934C132.297 8.70077 132.292 9.17599 132.179 9.66869L132.08 10.1037C131.98 10.5405 131.73 10.8637 131.408 11.159C131.214 11.3372 131.021 11.4333 130.783 11.5416C130.347 11.7391 129.945 11.8998 129.457 11.9242L128.887 12.0448L128.298 12.0955H128.311Z" fill="#2C1F00"/>
<path d="M109.685 7.7606L109.077 7.75189L108.571 7.7606H107.486H106.73L106.322 7.75014L106.334 8.83963L107.184 8.84834L107.61 8.85183H108.207L109.159 8.8466L109.665 8.85532L111.754 8.87275L112.13 8.85357L112.847 8.8588L113.393 8.85183L114.557 8.86055H115.321H115.784L115.794 9.25625V9.8437V10.3475L115.789 11.0674L115.773 12.2597L115.36 12.2475L114.526 12.2597H113.349H112.744L111.418 12.2737L111.004 12.265L110.374 12.2528H109.824L109.044 12.251L108.35 12.2562H107.779H106.774L106.187 12.251L105.481 12.2475L104.734 12.251L102.27 12.244L102.256 11.3045L102.261 10.5113L102.264 8.40209V7.70656L102.254 6.5735L102.264 6.13597L102.256 5.47008L102.259 3.10633L102.254 1.64207L102.238 0L103.085 0.0156879L104.575 0.00174222L105.264 0.0122008L105.809 0.0156879L106.228 0.019175L107.779 0.00348709L108.446 0.0139457H109.034L109.62 0.0104586H110.33L111.212 0.019175L111.74 0.00697152L112.761 0.0122008L114.389 0.00348709L115.231 0.0156879H115.779L115.793 0.45671L115.789 1.06159L115.793 1.56188V3.28588C115.791 3.35561 115.716 3.43579 115.651 3.43405L114.834 3.41836H112.5L111.596 3.41313H110.955L110.374 3.40616L109.882 3.4201L109.315 3.42359H108.343H106.91L106.317 3.41487L106.343 4.1104L106.32 4.50436L107.001 4.49913L107.596 4.49564L108.111 4.48344H109.198L109.912 4.48693L110.643 4.47647L113.437 4.47995L114.014 4.5061L115.196 4.47647L115.19 5.1441L115.183 6.03138L115.173 7.38931L115.177 7.77281L114.138 7.75538L113.719 7.7606L113.128 7.76758H112.505L111.669 7.75886L110.449 7.75363L109.679 7.75886L109.685 7.7606ZM103.807 4.02324C103.886 4.06159 104.008 3.98315 104.044 3.91342C104.074 3.8559 104.013 3.68681 103.948 3.7025C103.866 3.72167 103.781 3.76525 103.746 3.8036C103.711 3.84195 103.757 3.99884 103.805 4.02324H103.807ZM105.324 4.44335C105.334 4.20279 105.21 4.0581 104.934 4.00232C104.87 4.12609 104.873 4.32307 104.952 4.47995C105.015 4.6072 105.24 4.70134 105.386 4.6717C105.425 4.66473 105.475 4.53574 105.444 4.51656L105.325 4.4416L105.324 4.44335ZM104.69 4.57757C104.779 4.55665 104.826 4.43289 104.811 4.38408C104.795 4.33527 104.695 4.24114 104.633 4.2516C104.578 4.26031 104.53 4.405 104.542 4.45729C104.552 4.50087 104.641 4.58803 104.69 4.57757ZM105.95 5.83789C105.982 5.77862 105.959 5.64788 105.926 5.6165C105.734 5.7821 105.638 5.93202 105.776 6.16909L105.95 5.83789ZM105.498 6.02615C105.446 5.97734 105.301 5.95642 105.231 5.99651C105.17 6.03138 105.128 6.23881 105.182 6.28239L105.373 6.43928C105.411 6.47066 105.533 6.48809 105.582 6.47763C105.619 6.46891 105.629 6.14817 105.5 6.02789L105.498 6.02615ZM104.643 8.12667C104.847 8.04474 104.964 7.85125 104.983 7.66473C104.99 7.60198 104.922 7.47472 104.868 7.47647C104.823 7.47821 104.727 7.5183 104.692 7.54794C104.573 7.65078 104.582 7.78152 104.594 7.91923C104.599 7.96978 104.591 8.12144 104.643 8.12493V8.12667Z" fill="#2C1F00"/>
<path d="M97.3379 7.20122L98.8075 7.19605L99.2593 7.19259L99.8441 7.18396H100.501H101.122V7.70536C101.119 7.9229 101.088 8.17497 101.02 8.38388L100.741 9.24885L100.443 9.75644L100.213 10.1104L99.7975 10.5161C99.6164 10.6922 99.4473 10.8562 99.2283 10.9823L98.7609 11.2481L98.0123 11.5883L97.5121 11.7575L96.6187 11.9819L96.1996 12.0561L95.5804 12.1442L94.6662 12.2461L94.166 12.2668L92.474 12.2737H91.8548L91.0338 12.2253L90.4801 12.1874L89.4763 12.0285C89.1555 11.9784 88.8726 11.9163 88.5674 11.8231C88.1017 11.6815 87.6584 11.5658 87.2341 11.331L86.8615 11.1238C86.6063 10.9823 86.3958 10.8251 86.1975 10.6197L85.9336 10.3452C85.6732 10.0741 85.4489 9.78407 85.304 9.43877L84.9953 8.70846C84.8384 8.33553 84.7935 7.9816 84.7487 7.5707L84.6883 7.03375C84.6366 6.57105 84.6383 5.68881 84.709 5.271L84.8142 4.64256L84.9591 4.01584L85.0902 3.65845L85.3454 3.05417L85.6507 2.51378L85.9301 2.19265C86.125 1.96993 86.2924 1.7524 86.5321 1.58838L87.0495 1.23272L87.6377 0.909863L88.2241 0.666429C88.8037 0.426445 89.3953 0.283144 90.0283 0.205451L91.1028 0.0725126L92.1015 0.0379832L92.6327 0L93.5882 0.0034511L94.0436 0.0379832L95.0785 0.131213L96.3134 0.296958C96.5514 0.385009 96.8015 0.435077 97.0568 0.460975L97.488 0.614633C98.3676 0.928856 99.2248 1.28969 99.8596 2.00101L100.213 2.39638C100.789 3.04036 101.048 3.96577 101.101 4.83592L101.139 5.46264L100.715 5.48681L100.122 5.47818L99.6336 5.48508L97.9968 5.47991L97.6777 5.48508L97.0137 5.47473L96.8464 5.06037C96.5842 4.5476 96.1254 4.19712 95.6114 3.97613L95.2647 3.85354C94.9974 3.76031 94.7076 3.62392 94.4247 3.60666C93.9849 3.58076 93.6969 3.46163 93.2243 3.47026L92.7638 3.48062L92.1825 3.49789L91.5374 3.55659L91.1373 3.61701L90.5198 3.78621L90.1111 3.95713C89.7299 4.1177 89.2952 4.45264 89.1452 4.81175L88.9209 5.34697C88.8468 5.52652 88.8157 5.83039 88.8244 6.02893L88.8502 6.58314C88.8709 7.01994 89.1917 7.58278 89.4936 7.93326C89.7281 8.20432 90.3266 8.51682 90.7027 8.60314L91.4409 8.77061L92.1808 8.86039L92.7621 8.86902L93.5417 8.84485L94.1626 8.82068L95.2251 8.59624L95.8149 8.39424C96.3548 8.2095 96.874 7.76752 97.0171 7.2064L97.3397 7.19605L97.3379 7.20122Z" fill="#2C1F00"/>
<path d="M79.5742 7.18553L79.9229 7.19589L81.3895 7.18725L81.8446 7.1838L82.434 7.17516L83.0199 7.17862L83.714 7.1838C83.7087 7.61746 83.7331 7.98028 83.6128 8.36729L83.3443 9.23115L83.1315 9.57843L82.924 9.91706C82.8054 10.1106 82.6607 10.2505 82.4898 10.406L81.9928 10.8587L81.3302 11.2353L80.5821 11.5774L80.0467 11.7605L79.1382 11.98L78.7528 12.0491L78.0885 12.1441L77.1625 12.246L76.6934 12.265L74.9479 12.2737H74.3236L73.5249 12.2253L72.9372 12.1838L71.9171 12.0249C71.6067 11.9765 71.3329 11.9143 71.0365 11.8245C70.5761 11.6845 70.1315 11.5774 69.7095 11.3476L69.3066 11.1299C69.0381 10.9848 68.8201 10.8189 68.6178 10.6082L68.3493 10.33C68.1243 10.0967 67.9151 9.85141 67.786 9.55769L67.4059 8.68865C67.2769 8.39148 67.2001 8.10986 67.1966 7.77295L67.1129 7.30992L67.1025 6.87626C67.0414 6.45124 67.0711 6.05041 67.0955 5.62885C67.1025 5.49408 67.0885 5.35241 67.1339 5.21938C67.1966 5.03278 67.1897 4.82027 67.2315 4.63713L67.3745 4.01515L67.514 3.64369L67.7599 3.05454L68.0703 2.53276L68.6231 1.88141C68.787 1.68963 69.0189 1.51167 69.2369 1.3821L69.7862 1.05037L70.468 0.737654L70.9947 0.54415C71.6957 0.284991 72.4193 0.19515 73.1622 0.120858C73.5057 0.0863031 73.8458 0.0327441 74.1893 0.0241054L74.9426 0.00510034C75.6698 -0.0121769 76.3621 0.0154666 77.077 0.0724815L77.6228 0.117401L78.8714 0.290174C79.1121 0.37656 79.3649 0.418024 79.6213 0.450851L80.0537 0.606348L80.7774 0.879329C81.4174 1.12121 81.9527 1.4944 82.4305 1.97816L82.8996 2.51203L83.1542 2.88176C83.3111 3.11155 83.3948 3.36898 83.4873 3.63159C83.6198 4.01342 83.6721 4.38834 83.6965 4.7909L83.7366 5.45607C83.5675 5.47508 83.4332 5.48026 83.285 5.47853L82.7235 5.47162L82.1916 5.47853L80.5681 5.47162L80.2176 5.47853L79.5463 5.46126C79.4242 4.82718 78.7528 4.18447 78.1861 3.98405L77.7798 3.84065C77.5182 3.74908 77.2357 3.61604 76.9602 3.59877C76.5086 3.57112 76.2191 3.45364 75.7919 3.46055L75.2827 3.46919L74.6549 3.48647L74.212 3.52448L73.8248 3.57113L73.3558 3.66442L72.6757 3.9063C72.2467 4.05834 71.823 4.33478 71.6311 4.76671L71.3853 5.32131C71.3033 5.5079 71.2737 5.81199 71.2824 6.01586L71.3085 6.57737C71.3138 6.68794 71.3696 6.88663 71.4079 7.00757C71.4986 7.29265 71.6747 7.53107 71.8352 7.78505C72.0374 8.10295 72.7454 8.4986 73.1622 8.5919L73.9434 8.7664L74.6549 8.85278L75.2827 8.86142L76.036 8.83723L76.6899 8.80959L77.7379 8.59362L78.3326 8.39321C78.9168 8.19797 79.412 7.78505 79.5777 7.18207L79.5742 7.18553Z" fill="#2C1F00"/>
<path d="M172.4 12.2737H169.237C169.258 12.2615 169.168 12.2338 169.145 12.2338L168.558 12.2268C168.499 12.0256 168.519 11.8244 168.519 11.6059V11.1913L168.523 10.5617L168.504 10.187L168.507 9.32147L168.519 8.73346L168.537 8.05352L168.533 6.92606C168.459 7.00758 168.369 7.11339 168.331 7.18624L168.041 7.7413L167.803 8.1229L167.578 8.48369L167.261 9.0318L166.961 9.57125L166.787 9.85224L166.304 10.6657L165.634 11.8695L165.414 12.2685H162.331C162.17 12.2043 162.033 12.2754 161.955 12.0621C161.862 11.8019 161.74 11.5816 161.565 11.3665L161.35 10.9502L161.09 10.4663L160.651 9.68746L160.317 9.11159L160.013 8.58256L159.784 8.19055L159.377 7.42387L159.081 6.96248L159.067 7.27123L159.079 8.73172L159.068 9.13935L159.058 9.52962L159.087 10.3813C159.093 10.5079 159.056 10.6501 159.094 10.7768L159.077 11.8106L159.086 12.2667H157.088C156.915 12.2147 156.714 12.206 156.509 12.2182L156.131 12.2667H155.674C155.694 12.2546 155.603 12.2268 155.578 12.2268L155.051 12.2234L155.048 11.7377C155.048 11.7117 155.02 11.6215 155.008 11.6423V1.81781C155.095 1.68252 155.056 1.5264 155.056 1.36335L155.051 0.0398966C155.19 0.0242856 155.337 0.00346825 155.448 0.0208138C155.665 0.0520357 155.833 0.0468331 156.052 0.0381603L156.617 0.0121431L157.248 0.0190775L158.463 0.0520344L159.008 0.0242809L159.873 0L159.999 0.274057C160.109 0.513425 160.242 0.716368 160.381 0.931453L160.577 1.24367L161.352 2.58795L161.844 3.4292L162.115 3.91661L162.37 4.36066L162.659 4.82205L163.188 5.71361L163.601 6.4612L163.814 6.78903L164.097 6.23918L164.325 5.89573L164.735 5.17243L164.91 4.84633L165.14 4.463L165.416 4.02936L165.971 3.05454C166.08 2.86027 166.13 2.69202 166.286 2.51856L166.555 2.00688C166.649 1.82995 166.789 1.712 166.878 1.53161L167.141 0.999103L167.41 0.572399C167.516 0.405883 167.588 0.199471 167.748 0.0676447C167.822 0.0052009 168.05 0.0485691 168.15 0.0451L168.54 0.0346878L169.435 0.0294844L170.278 0.0138741L170.902 0.02255L171.779 0.0503034L172.545 0.0416275L172.558 0.447512V0.855132L172.571 1.60446V2.48561L172.573 3.02679L172.594 3.58705L172.566 4.1924L172.556 5.39966L172.577 5.85411C172.594 6.20969 172.528 6.53578 172.577 6.8983L172.566 7.21053L172.561 8.54092V8.90171L172.577 9.43595V9.96672L172.554 10.3709C172.545 10.5218 172.554 10.6016 172.558 10.7473L172.575 11.4116L172.57 11.8123L172.532 12.1817L172.403 12.2667L172.4 12.2737ZM171.117 1.81781C171.099 1.7571 171.079 1.68078 171.049 1.68772C171.028 1.69119 170.975 1.70333 170.973 1.72414L170.962 1.84209C170.957 1.90107 171.066 2.00514 171.129 2.00514C171.179 2.00514 171.257 1.93229 171.278 1.88719C171.203 1.86811 171.125 1.8525 171.117 1.81954V1.81781ZM168.648 2.19767C168.712 2.19767 168.833 2.16298 168.852 2.11442C168.871 2.06585 168.878 1.93056 168.856 1.88199L168.802 1.76403C168.802 1.76403 168.627 1.83342 168.561 2.01381C168.544 2.06064 168.599 2.19767 168.648 2.19767ZM171.08 2.9019C171.115 3.03373 171.243 3.05281 171.309 3.00424C171.368 2.96088 171.424 2.86721 171.418 2.80997C171.413 2.75273 171.301 2.65386 171.245 2.66947C171.176 2.68855 171.063 2.83599 171.08 2.90364V2.9019ZM159.58 3.10311C159.578 3.03373 159.452 2.93659 159.398 2.95567C159.247 3.01292 159.23 3.33554 159.356 3.509C159.516 3.42574 159.585 3.28697 159.58 3.10311ZM160.081 3.13954C160.097 3.11178 159.975 2.98863 159.951 3.00945C159.904 3.05107 159.842 3.13954 159.831 3.1881C159.823 3.22973 159.876 3.30952 159.928 3.36329C159.96 3.3286 160.043 3.20545 160.081 3.1378V3.13954ZM170.751 3.64082C170.85 3.68939 171.009 3.54542 170.982 3.43961C170.959 3.35462 170.867 3.228 170.756 3.26095C170.694 3.28003 170.631 3.40666 170.64 3.4639C170.647 3.51246 170.704 3.61827 170.751 3.64082ZM160.757 3.8507C160.729 3.72408 160.686 3.63388 160.617 3.58878C160.558 3.55236 160.397 3.57144 160.358 3.63388C160.244 3.81601 160.348 4.13343 160.537 4.1872C160.726 4.24097 160.794 4.00334 160.759 3.84897L160.757 3.8507ZM169.745 3.96692C169.797 3.98426 169.907 3.8958 169.905 3.84376C169.903 3.78826 169.851 3.67551 169.799 3.67898C169.756 3.68245 169.66 3.72581 169.626 3.7553C169.594 3.78132 169.549 3.90274 169.588 3.91488L169.744 3.96692H169.745ZM170.033 4.0467C170.07 4.17506 170.196 4.24791 170.252 4.20455C170.291 4.17333 170.323 4.05017 170.309 3.98426C170.241 3.94784 170.059 3.99294 170.035 4.04497L170.033 4.0467ZM168.481 4.64859L168.632 4.07273C168.63 4.01028 168.405 3.9964 168.379 4.05364C168.358 4.10048 168.346 4.17159 168.337 4.25138C168.317 4.42657 168.129 4.53238 168.272 4.67982C168.31 4.71971 168.466 4.70236 168.481 4.64859ZM169.53 4.40402C169.562 4.37627 169.607 4.27046 169.61 4.22016C169.614 4.16812 169.497 4.07446 169.445 4.09874C169.327 4.15425 169.373 4.35719 169.53 4.40402ZM169.787 4.39535C169.823 4.4682 169.967 4.41443 170.004 4.35372C170.028 4.30862 169.99 4.20108 169.931 4.16986C169.863 4.182 169.752 4.3277 169.787 4.39535ZM156.343 4.59135C156.391 4.58789 156.469 4.47861 156.45 4.43525C156.435 4.40056 156.336 4.35372 156.3 4.36586C156.204 4.39708 156.102 4.51156 156.059 4.61043L156.341 4.59135H156.343ZM158.786 4.6989C158.685 4.68155 158.553 4.81858 158.576 4.92612C158.593 5.01111 158.69 5.09611 158.8 5.11866C158.852 5.12907 158.978 5.0857 158.99 5.03887C159.016 4.92612 158.9 4.71971 158.786 4.6989ZM168.887 5.39792C169.005 5.28344 169.04 5.10651 168.955 5.00591C168.882 4.92092 168.705 4.87756 168.604 4.92265C168.58 5.15508 168.669 5.32507 168.887 5.39966V5.39792ZM171.143 5.88706C171.198 5.86105 171.269 5.75871 171.273 5.71361C171.275 5.67545 171.217 5.59219 171.176 5.56097C171.131 5.52801 171.027 5.65637 171.018 5.71361C171.009 5.77085 171.091 5.90961 171.143 5.88533V5.88706ZM166.697 6.08133C166.765 6.04317 166.787 5.91482 166.774 5.85411C166.758 5.77779 166.609 5.71534 166.531 5.77779C166.489 5.81248 166.484 5.93737 166.508 5.9842C166.533 6.03103 166.652 6.10735 166.697 6.08133ZM157.955 6.20796L158.037 5.88012L157.629 5.90267L157.763 6.21836C157.775 6.24438 157.83 6.28948 157.856 6.29815C157.882 6.30682 157.948 6.24091 157.957 6.20969L157.955 6.20796ZM170.406 6.29121C170.29 6.2201 170.146 6.41957 170.154 6.42651L170.257 6.50456L170.338 6.56527C170.338 6.56527 170.503 6.34846 170.408 6.28948L170.406 6.29121ZM167.195 7.08911C167.266 6.85841 167.155 6.64159 166.931 6.62251V7.14982C166.93 7.19665 167.049 7.25389 167.086 7.23307C167.122 7.21226 167.179 7.13941 167.197 7.08737L167.195 7.08911ZM162.99 7.1186C162.945 6.95555 162.77 6.87923 162.631 6.91565L162.598 6.72485C162.593 6.69536 162.472 6.70057 162.465 6.72832L162.436 6.85668L162.418 7.09084C162.411 7.17583 162.602 7.25216 162.687 7.25909C162.787 7.26603 162.945 7.20185 162.99 7.1186ZM161.022 6.98503L160.823 6.79943C160.787 6.83412 160.722 6.92259 160.742 6.95901L160.842 7.15155L161.022 6.98503ZM157.756 8.06739L157.839 7.82629C157.954 7.77425 158.052 7.72048 158.117 7.60253C157.917 7.59386 157.799 7.68406 157.692 7.80894C157.626 7.88526 157.661 8.00842 157.756 8.06739ZM169.619 7.9928C169.669 7.78639 169.601 7.73956 169.549 7.67885C169.518 7.64243 169.405 7.61988 169.379 7.64937C169.353 7.67885 169.34 7.78986 169.371 7.81415L169.619 7.99454V7.9928ZM164.641 7.81415C164.648 7.76384 164.528 7.68232 164.478 7.68926C164.428 7.6962 164.312 7.79333 164.346 7.83149L164.471 7.97199C164.494 7.99627 164.589 8.04831 164.599 8.01709C164.61 7.98587 164.627 7.90608 164.641 7.81415ZM170.302 8.03617C170.302 7.99454 170.207 7.90434 170.174 7.91822L170.024 7.9824C169.988 7.99801 169.894 8.10382 169.927 8.1281L170.052 8.2235C170.096 8.25646 170.198 8.27727 170.241 8.25126C170.276 8.23044 170.304 8.11076 170.302 8.03444V8.03617ZM163.443 8.25299C163.467 8.19575 163.49 8.07607 163.453 8.06219L163.318 8.01189C163.271 7.99454 163.174 7.99801 163.129 8.01883C163.093 8.03617 163.06 8.168 163.084 8.19228L163.443 8.25299ZM157.355 8.5045C157.491 8.39696 157.42 8.19748 157.34 8.1281C157.26 8.05872 157.078 8.01362 157.003 8.11249C156.929 8.21136 156.986 8.34318 157.059 8.41083C157.118 8.4646 157.295 8.55307 157.355 8.5045ZM163.96 9.41514C164.041 9.403 164.05 9.19138 164.012 9.12547C163.965 9.04047 163.876 8.98844 163.788 8.98844C163.699 8.98844 163.538 9.10812 163.568 9.18097C163.634 9.31106 163.812 9.43769 163.96 9.41514ZM162.444 9.70481L162.406 9.3631C162.293 9.3631 162.21 9.44463 162.234 9.54003C162.259 9.63543 162.342 9.70654 162.444 9.70654V9.70481ZM164.166 10.187L164.194 9.93377C164.199 9.89387 164.064 9.83316 164.032 9.85918C163.991 9.89387 163.968 10.0344 163.996 10.0829C164.018 10.1228 164.114 10.1731 164.166 10.187Z" fill="#2C1F00"/>
<path d="M185.183 12.2545L184.263 12.2737L184.217 12.2319H180.876L180.83 12.2737H178.403L178.322 12.2319H176.726L176.646 12.2737L174.431 12.2563L173.713 12.225L173.702 11.8058V10.9813L173.711 10.3759L173.704 9.52184L173.709 9.06958V8.46425L173.702 7.84847V7.39099L173.708 6.99961V6.1438L173.704 5.57673L173.711 4.59219L173.708 3.97121L173.704 3.08755L173.695 1.67511L173.702 1.16023L173.72 0.0295733L174.219 0.0208728L174.932 0.0104364L175.556 0L176.011 0.0104364L176.447 0.0191369H176.993L178.094 0.0104364L178.997 0.0226139L179.997 0.00174117L180.549 0.00521819L181.341 0.0121775H182.311H182.923L183.64 0.00870052L185.379 0.0208728L186.661 0.0139187L187.238 0.0243551L187.234 1.2559L187.222 1.66815L187.217 2.87186L187.241 3.4024L186.856 3.40936L185.356 3.41457H184.894L183.26 3.40066H181.856L180.956 3.41283L180.464 3.41632H179.268L178.587 3.41457L177.775 3.41979L177.78 4.08253L177.759 4.48783L178.825 4.47739L180.422 4.48956H181.125L181.558 4.48609L182.866 4.47913L183.436 4.47565L184.017 4.46347L184.603 4.4913H186.627L186.626 5.55064L186.64 6.34558L186.626 7.34403L186.645 7.74585L186.045 7.73541L184.772 7.74063H184.011L183.413 7.75628H182.464L181.341 7.73367L180.748 7.75455L179.663 7.75106L178.823 7.74237L178.444 7.75455L177.787 7.76846L177.782 8.8365H179.006L179.452 8.84171L180.044 8.8365L180.583 8.82258L182.321 8.84171L183.253 8.83823L184.224 8.84693L184.685 8.83475L185.11 8.8278L185.647 8.84519H187.074L187.222 8.82432C187.299 8.81388 187.194 9.24875 187.241 9.68361C187.257 9.82451 187.219 9.93931 187.222 10.0767L187.247 11.1778L187.236 11.6022L187.212 12.2285L185.187 12.2545H185.183ZM175.851 5.41148C175.851 5.33321 175.788 5.27059 175.71 5.27059C175.631 5.27059 175.568 5.33321 175.568 5.41148C175.568 5.48976 175.631 5.55238 175.71 5.55238C175.788 5.55238 175.851 5.48976 175.851 5.41148ZM176.44 6.79958C176.402 6.63085 176.186 6.61694 176.097 6.74392C176.055 6.8048 176.17 6.91786 176.254 6.95439C176.317 6.98048 176.456 6.87089 176.44 6.79958ZM176.386 9.46096C176.432 9.41922 176.423 9.25744 176.383 9.22092L176.029 9.36181C176.093 9.52532 176.303 9.53402 176.386 9.46096Z" fill="#2C1F00"/>
<path d="M218.997 12.2737H217.87C217.811 12.2318 217.717 12.2266 217.619 12.2266H216.336L215.636 12.2214C215.587 12.2214 215.473 12.2475 215.448 12.2737H214.78L214.425 12.2318L214.196 11.6846L213.83 10.8829L213.535 10.1578L212.698 10.1909L211.936 10.163L211.029 10.1909L210.633 10.1944L209.895 10.1805L209.352 10.1909L208.74 10.1805L208.046 10.1909L207.493 10.17C207.44 10.3373 207.372 10.4193 207.312 10.5604L206.917 11.4998L206.574 12.2214L204.801 12.2301L204.718 12.2702H201.962C201.896 12.2423 201.889 12.1098 201.939 12.0419C202.126 11.7961 202.199 11.5504 202.312 11.2733L202.515 10.7731L202.745 10.2938L202.914 9.9539L203.178 9.38746L203.345 8.97092L203.653 8.27028L204.117 7.2507L204.394 6.64592L204.86 5.64376L205.182 4.86295L205.473 4.23551L205.659 3.75622L205.937 3.15841L206.44 2.11268L206.677 1.51488L207.077 0.620778L207.371 0.0717719C207.407 0.026457 207.55 -0.015373 207.613 0.00554157C207.726 0.0403992 207.842 0.00554157 207.957 0.00554157L209.516 0.0142538L210.812 0.017743L211.353 0.0281999L211.938 0.0194823L212.416 0.00205773L213.675 0.0212269L213.924 0.601609L214.244 1.3005L214.688 2.31834L214.869 2.69307L215.034 3.02595L215.231 3.53836L215.812 4.79672C215.904 4.99715 216.012 5.15401 216.071 5.38233L216.339 5.92088C216.402 6.04811 216.402 6.198 216.463 6.30954L216.671 6.6982L216.99 7.38315L217.261 8.0315L217.426 8.40623L217.59 8.75306L217.967 9.58267L218.312 10.3234L218.554 10.8776L218.856 11.6201L219.126 12.2057L218.997 12.2667V12.2737ZM211.591 2.66866C211.527 2.51877 211.463 2.44906 211.379 2.4142C211.343 2.39852 211.242 2.42641 211.231 2.46475C211.198 2.58152 211.452 2.73141 211.593 2.66866H211.591ZM211.233 6.64069L211.682 6.63546L212.052 6.61629L211.927 6.34963C211.852 6.18928 211.795 6.01151 211.692 5.87208C211.565 5.70128 211.515 5.52176 211.428 5.33353L211.203 4.85075L210.798 4.03334L210.502 3.44948L210.233 4.02288L210.057 4.39586L209.662 5.13135L209.277 5.94877L208.903 6.65812L209.645 6.6372L210.553 6.65637L211.233 6.6372V6.64069ZM213.881 5.88253L213.789 5.32656C213.775 5.24115 213.589 5.12787 213.547 5.19061C213.442 5.3649 213.595 5.53222 213.752 5.55487L213.738 5.83722C213.738 5.8651 213.846 5.89125 213.883 5.88253H213.881ZM214.443 5.53919C214.363 5.45204 214.312 5.3893 214.281 5.33178C214.262 5.29867 214.14 5.2673 214.138 5.30564L214.131 5.46598C214.13 5.52524 214.237 5.67164 214.288 5.64027L214.444 5.53919H214.443ZM214.15 6.11782C214.079 6.03765 213.9 6.04985 213.851 6.13525C213.82 6.19103 213.858 6.3444 213.898 6.39494C213.931 6.43851 214.058 6.48731 214.107 6.46291C214.197 6.4176 214.225 6.20323 214.15 6.11782ZM212.574 7.74393C212.677 7.75439 212.79 7.74045 212.821 7.68642C212.853 7.63239 212.839 7.47204 212.799 7.42672C212.764 7.38664 212.656 7.37618 212.579 7.39187C212.522 7.40233 212.44 7.51562 212.437 7.57313C212.433 7.63065 212.519 7.74045 212.576 7.74567L212.574 7.74393ZM207.418 7.51736C207.418 7.4825 207.317 7.3849 207.287 7.40581L207.16 7.4947C207.08 7.55047 207.072 7.76659 207.185 7.79099C207.298 7.81539 207.423 7.67073 207.419 7.51736H207.418ZM207.623 8.47943C207.75 8.26854 207.78 8.12388 207.708 7.92519C207.682 7.85373 207.51 7.89731 207.475 7.96005L207.326 8.23542L207.623 8.47943ZM213.942 8.41146C214.023 8.50209 214.21 8.4254 214.232 8.35045C214.255 8.27202 214.253 8.14479 214.224 8.08205C214.194 8.01931 214.004 7.99491 213.952 8.04545C213.877 8.11691 213.867 8.32605 213.943 8.40971L213.942 8.41146ZM214.451 8.90469C214.524 8.82452 214.457 8.62757 214.359 8.59271C214.232 8.5474 214.053 8.67115 214.072 8.8036C214.091 8.93606 214.333 9.03541 214.451 8.90643V8.90469ZM214.883 8.94652L214.803 9.10163C214.777 9.15392 214.831 9.30032 214.885 9.31775C214.939 9.33518 215.057 9.28813 215.086 9.23932C215.161 9.11732 214.907 8.89946 214.883 8.94652Z" fill="#2C1F00"/>
<path d="M197.568 12.265L194.581 12.2737L194.276 12.2407L194.295 11.2819L194.276 10.7487V10.0123V8.86766L194.279 8.24064L194.293 7.15683L194.284 6.6566V5.86111L194.262 5.3001L194.251 4.6974L194.276 4.06691H193.407L192.814 4.09123H191.774L190.92 4.08081L190.534 4.0947L188.971 4.08949L188.189 4.07386L188.178 3.56148L188.194 3.02999L188.184 2.39603L188.173 2.0035L188.168 1.24796L188.196 0.0286621C188.473 0.0720841 188.757 0.0078214 189.043 0.0251902L189.491 0.052981L190.334 0.0425601L190.696 0.0269235L191.443 0.0512424L192.844 0.0408215C193.062 0.0408215 193.237 0.004347 193.467 0.0408215C193.621 0.0668747 193.888 -0.0269173 194.044 0.00782034L194.305 0.0651351L195.342 0.0199798L195.765 0.0321392L196.407 0.0460319H196.852L197.247 0.0425601L198.15 0.0373497L198.964 0.0234516L199.596 0.0338725L200.608 0.0599247L201.443 0.052981L201.913 0.0442934L202.379 0.052981L203.767 0.0286621L204.317 0.0338725C204.358 0.0338725 204.447 0.0442938 204.46 0.0772946C204.481 0.136349 204.453 0.511519 204.454 0.90058L204.46 1.53801L204.447 2.07819V3.00047L204.456 3.66222L204.472 4.08428L203.874 4.09817L202.969 4.09296L202.042 4.08602L200.487 4.09296L199.682 4.07039L198.764 4.09817C198.643 4.10165 198.501 4.05823 198.375 4.12597L198.364 5.12294L198.361 5.35741C198.405 5.57452 198.357 5.74474 198.361 5.96532L198.373 6.45339L198.361 7.21067L198.357 7.70915L198.366 9.24803L198.357 10.2797L198.361 11.2003L198.357 11.671L198.378 12.2424L197.568 12.2719V12.265ZM195.21 1.94618C195.303 1.89929 195.324 1.74297 195.279 1.69781C195.239 1.65786 195.103 1.65959 195.07 1.70649C195.002 1.80376 195.119 1.99134 195.21 1.94444V1.94618ZM195.633 3.57017C195.705 3.41732 195.533 3.29053 195.426 3.33221C195.398 3.38258 195.391 3.47985 195.419 3.52153C195.451 3.57017 195.612 3.61533 195.633 3.57017ZM196.426 4.51329C196.438 4.3865 196.324 4.31355 196.245 4.3066C196.177 4.30139 196.017 4.36913 196.021 4.44034C196.026 4.5324 196.14 4.61577 196.209 4.63314C196.268 4.64703 196.419 4.58103 196.426 4.51329ZM197.417 4.94577L197.412 4.49939C197.261 4.52892 197.163 4.5845 197.107 4.68177C197.054 4.77209 197.04 4.95793 197.098 5.02915C197.178 5.12641 197.419 5.05346 197.419 4.94577H197.417Z" fill="#2C1F00"/>
<path d="M232.088 12.2563L232.007 12.2737L231.928 12.232H230.597L230.518 12.2737H230.394L230.347 12.2337L227.084 12.2285L227.001 12.2737H226.422C226.446 12.2615 226.35 12.232 226.329 12.232H225.191C225.171 12.232 225.074 12.2633 225.098 12.2737H223.154C223.132 12.2476 223.007 12.2199 222.956 12.2216L222.256 12.2355C222.23 12.2355 222.14 12.2598 222.161 12.2737L221.866 12.2511L219.696 12.2303L219.693 11.8136L219.689 11.2737V10.3866L219.684 9.76339L219.672 9.18529L219.699 8.64192L219.703 6.31391L219.693 5.682V4.99801L219.689 3.73939L219.694 3.0988L219.703 1.98948L219.698 1.52944L219.694 0.772532L219.687 0L220.706 0.0329848H221.832L223.69 0.0399304L223.712 0.439213L223.719 0.855858L223.714 2.4096L223.711 3.75675L223.707 4.19249L223.711 4.84524L223.728 5.7688L223.711 6.67674L223.707 7.14373V7.83467L223.716 8.18708H224.783L225.126 8.17667L225.886 8.19403L227.251 8.18534H227.872L228.579 8.18187L229.697 8.17493L230.601 8.18534H231.595L232.495 8.18013L232.481 8.93704L232.485 9.71999L232.476 11.1453L232.483 11.8084L232.488 12.2233L232.087 12.2528L232.088 12.2563ZM222.425 9.48562C222.597 9.51513 222.651 9.36931 222.635 9.24779C222.625 9.16446 222.473 9.0846 222.356 9.11238C222.301 9.12453 222.27 9.26515 222.28 9.32417C222.289 9.37452 222.368 9.47521 222.426 9.48562H222.425Z" fill="#2C1F00"/>
</svg>
