<svg width="32" height="32" viewBox="0 0 32 32" fill="none" xmlns="http://www.w3.org/2000/svg">
<path d="M21.9428 29.3032L21.3247 28.7144L20.5095 27.8716L18.3456 25.7302L17.5477 24.94L16.014 23.4565L15.5438 23.8732L14.4968 24.9227L13.9617 25.4579L13.4664 25.9705L12.4272 27.0105L11.5956 27.8275L10.151 29.2816L9.72911 29.6922L8.62601 30.7789L7.56094 31.9027C7.5229 31.9425 7.29467 31.8794 7.3085 31.8336L7.38199 31.5967L7.39323 30.3432L7.38631 28.7914L7.35346 27.0788L7.3742 26.2558L7.36729 25.0792C7.36729 24.9997 7.38717 24.8043 7.33357 24.7628C7.26701 24.7101 7.08201 24.6513 6.99383 24.6522L6.23393 24.6617L5.39277 24.672L4.82392 24.6755L4.03117 24.6807L2.44914 24.6841L0 24.6703L1.76272 22.8868L2.84248 21.801L4.16431 20.4792L5.5795 19.0778L5.99446 18.662L6.93763 17.6998L7.90501 16.7523C8.14448 16.518 8.37617 16.2794 8.56117 16.0045L7.38112 14.783L7.05002 14.4355L6.23739 13.6635C6.21145 13.6384 6.25381 13.4456 6.27802 13.4179C6.30222 13.3903 6.15612 13.4447 6.06535 13.4793L5.18615 12.5742L4.68906 12.084L3.97412 11.3691L1.38061 8.76951L0.910321 8.31911L0.012967 7.3915L1.40222 7.3768H2.44482L4.98818 7.38112L7.33531 7.39063L7.35087 6.32297L7.3742 4.84121L7.3474 1.44545L7.34568 0L8.23179 0.909457L9.2692 1.95032L12.8171 5.4576L13.8424 6.50365L14.4968 7.18661L14.9559 7.62405L15.6181 8.21364C15.7556 8.3364 15.8628 8.46867 15.9699 8.64157L16.2855 8.3632L16.5742 8.09001L17.7024 6.9653L18.4493 6.2175L19.2775 5.39104L19.9008 4.77119L20.8604 3.82024L21.4284 3.2367L22.0059 2.64451L23.0986 1.58204L23.5145 1.16794L23.9502 0.696789C24.1672 0.461644 24.3357 0.271454 24.6617 0.0821277V2.10247L24.672 2.89781L24.6591 6.29963L24.6694 7.37939L25.9437 7.38112L28.7196 7.37939L31.9771 7.39928C31.7929 7.71741 31.5664 7.86351 31.346 8.08828L30.5247 8.92685L29.6109 9.82853L28.7387 10.712L28.0617 11.3483L27.5759 11.8731L23.7617 15.6829C23.6839 15.7599 23.5136 15.8688 23.4833 15.9518C23.4531 16.0348 23.562 16.2077 23.6407 16.2846L25.4388 18.0534L26.7901 19.4392L27.365 20.0262L28.8718 21.5166L29.2686 22.0085C29.6619 22.2419 29.9273 22.5575 30.2377 22.8825L30.721 23.3891L31.4186 24.0963L31.9996 24.6798L30.7668 24.6833L27.8249 24.6729L27.3589 24.7057L25.4631 24.6954L24.6738 24.7032L24.6582 30.2204L24.6504 31.9996L22.8998 30.3017L21.9437 29.3066L21.9428 29.3032ZM22.6647 2.89435L22.7598 3.02403C22.7788 3.04996 22.8946 3.00415 22.8842 2.97475L22.8419 2.85199C22.8315 2.82174 22.6465 2.86928 22.6647 2.89522V2.89435ZM10.5296 4.39945C10.5296 4.33116 10.4743 4.27583 10.406 4.27583C10.3377 4.27583 10.2824 4.33116 10.2824 4.39945C10.2824 4.46775 10.3377 4.52308 10.406 4.52308C10.4743 4.52308 10.5296 4.46775 10.5296 4.39945ZM22.0094 4.8464L22.0076 4.90086V4.95706L22.0094 5.01152L22.0111 4.95706V4.90086L22.0094 4.8464ZM22.5056 26.248L22.49 24.3513L22.4918 21.6056L22.4961 20.0374L22.4918 19.3355L22.4788 18.2989C22.4762 18.0966 22.0906 17.8053 21.9445 17.6601L20.9815 16.7048L20.3582 16.0616L20.9261 15.4262L21.4708 14.8781L22.2722 14.1268C22.5358 13.8796 22.4624 13.7854 22.4658 13.4802L22.4814 12.1506L22.484 11.2299L22.5021 10.6325L23.4609 10.6221L24.6781 10.6092L24.6686 11.6691L25.8296 10.5296L26.7745 9.54324L25.2824 9.56918L24.1257 9.5614L23.3805 9.58474L19.9683 9.5467L18.2687 9.5346L17.2797 10.4328L16.4895 11.2411L16.0391 11.7477L14.3559 10.0645C14.2971 10.0058 14.1908 9.91584 14.1995 9.85792L14.2375 9.61586L13.3981 9.57523L12.6511 9.55967L11.6466 9.55016L10.6334 9.53892L10.604 8.32948L10.6204 7.40965L11.6327 7.36815L10.8167 6.53996L10.2504 5.96507L9.53459 5.23888L9.54238 7.3232L9.52941 10.3239L9.54843 12.0728C9.55448 12.6503 9.48359 13.2935 9.60203 13.8364C9.70663 14.3162 10.3023 14.585 10.5919 14.8764L11.7192 16.0106L9.54929 18.2168L9.51039 20.3426L9.57177 21.4241L8.92253 21.4155L7.39582 21.4405L7.38804 20.7351C7.38804 20.6685 7.36988 20.4507 7.3111 20.4801C7.26182 20.5051 7.17278 20.5682 7.12782 20.6132L5.78179 21.935C5.61581 22.0984 5.47922 22.2843 5.33398 22.535L7.67765 22.4969L8.96229 22.4935L9.99538 22.5065L11.2247 22.4995L12.1782 22.5021L13.864 22.4944C13.9678 22.3854 14.0905 22.3076 14.1787 22.2947C14.3637 21.9826 14.662 21.6757 14.949 21.3895L16.0261 20.3175L16.4921 20.8604L16.9883 21.3679L18.2133 22.484L19.1159 22.5168L19.734 22.4987L21.3541 22.5229C21.4414 22.7961 21.431 23.1808 21.431 23.5283V24.3159C21.431 24.3963 21.3714 24.602 21.3022 24.6193L21.0792 24.6755L20.4394 24.7343C20.5432 24.8778 20.7031 25.0593 20.8561 25.2037L21.3852 25.7017L21.7915 26.1529C22.0232 26.4097 22.152 26.4702 22.4382 26.7892C22.4753 26.65 22.5099 26.4183 22.5082 26.2506L22.5056 26.248ZM21.7224 5.30977C21.7345 5.35213 21.8382 5.54751 21.846 5.50602L21.8875 5.29335C21.8927 5.26568 21.7146 5.28211 21.7224 5.30977ZM21.3039 7.39409L22.4987 7.35778L22.4883 6.34285L22.4788 5.21727L21.2201 6.49674L20.4083 7.32234L21.3031 7.39323L21.3039 7.39409ZM8.07186 5.42648L8.07013 5.48095V5.53714L8.07186 5.5916L8.07359 5.53714V5.48095L8.07186 5.42648ZM20.0668 6.71113C20.0815 6.79845 20.1481 6.97481 20.1602 6.93158L20.2069 6.76214C20.2147 6.73361 20.0616 6.6826 20.0668 6.712V6.71113ZM13.845 7.12091C13.845 7.05261 13.7897 6.99728 13.7214 6.99728C13.6531 6.99728 13.5978 7.05261 13.5978 7.12091C13.5978 7.1892 13.6531 7.24453 13.7214 7.24453C13.7897 7.24453 13.845 7.1892 13.845 7.12091ZM20.0539 7.17969L20.002 7.35346C19.9899 7.39409 20.1533 7.43904 20.1645 7.39755L20.2069 7.23761C20.2147 7.20995 20.0616 7.15203 20.0539 7.17969ZM23.683 7.78139L23.3364 7.86611L23.3943 8.10385L23.741 8.01912L23.683 7.78139ZM8.47818 8.25513L8.3511 8.45138C8.33726 8.47299 8.4263 8.47299 8.44446 8.45483L8.52659 8.37271C8.54474 8.35455 8.49201 8.23266 8.47818 8.25513ZM14.0006 8.51881C14.0006 8.45224 13.947 8.39864 13.8804 8.39864C13.8139 8.39864 13.7603 8.45224 13.7603 8.51881C13.7603 8.58537 13.8139 8.63897 13.8804 8.63897C13.947 8.63897 14.0006 8.58537 14.0006 8.51881ZM15.7115 8.73925L15.517 8.89919L15.6829 9.10148L15.8775 8.94155L15.7115 8.73925ZM3.47789 9.32452C3.47789 9.2156 3.38971 9.12655 3.27992 9.12655C3.17013 9.12655 3.08195 9.21473 3.08195 9.32452C3.08195 9.43431 3.17013 9.52249 3.27992 9.52249C3.38971 9.52249 3.47789 9.43431 3.47789 9.32452ZM7.32752 11.6647L7.401 10.7639L7.33963 9.55102L5.32966 9.54756C5.43859 9.95388 5.76969 10.0931 6.01521 10.3403L7.32752 11.6639V11.6647ZM8.45829 9.62969C8.42112 9.67724 8.35196 9.81815 8.38654 9.84582C8.42112 9.87348 8.55598 9.94783 8.56722 9.9046L8.61649 9.71009C8.62773 9.666 8.48596 9.59511 8.45829 9.62969ZM27.8162 9.74121L27.8145 9.79568V9.85187L27.8162 9.90633L27.818 9.85187V9.79568L27.8162 9.74121ZM28.079 9.78098L28.0246 9.78271L28.079 9.78444H28.1352L28.1897 9.78271L28.1352 9.78098H28.079ZM24.8588 13.6073C24.8588 13.5407 24.8052 13.4862 24.7377 13.4862C24.6703 13.4862 24.6167 13.5407 24.6167 13.6073C24.6167 13.6738 24.6703 13.7283 24.7377 13.7283C24.8052 13.7283 24.8588 13.6738 24.8588 13.6073ZM9.58992 15.9509L9.45593 16.2215L9.66168 16.3235L9.79568 16.0529L9.58992 15.9509ZM22.1658 16.2526L22.2618 16.3823C22.2808 16.4083 22.3958 16.365 22.3863 16.3348L22.3439 16.2111C22.3336 16.1809 22.1468 16.2276 22.1658 16.2535V16.2526ZM9.0669 17.0428L9.06517 17.0973V17.1535L9.0669 17.2079L9.06863 17.1535V17.0973L9.0669 17.0428ZM24.6556 17.6436L24.7438 17.7889C24.7576 17.8113 24.8804 17.7707 24.8631 17.7508L24.787 17.6635C24.7697 17.6436 24.6435 17.6229 24.6556 17.6428V17.6436ZM23.5248 18.5038C23.5248 18.4329 23.4678 18.3759 23.3969 18.3759C23.326 18.3759 23.2689 18.4329 23.2689 18.5038C23.2689 18.5747 23.326 18.6318 23.3969 18.6318C23.4678 18.6318 23.5248 18.5747 23.5248 18.5038ZM24.6323 18.5358C24.6323 18.4848 24.5908 18.4433 24.5398 18.4433C24.4888 18.4433 24.4473 18.4848 24.4473 18.5358C24.4473 18.5868 24.4888 18.6283 24.5398 18.6283C24.5908 18.6283 24.6323 18.5868 24.6323 18.5358ZM8.19894 20.0003C8.21018 20.0668 8.25081 20.2086 8.26724 20.1758L8.33899 20.0262C8.34937 20.0046 8.19548 19.9787 8.19894 20.0003ZM24.4153 20.1956L24.4135 20.2501V20.3063L24.4153 20.3608L24.417 20.3063V20.2501L24.4153 20.1956ZM26.7788 22.4987L25.7812 21.5114L25.087 20.8181L24.6893 20.4204L24.6547 22.5056L25.2253 22.5246L26.1088 22.4978H26.7797L26.7788 22.4987ZM25.6152 20.4126L25.5158 20.5924L25.7691 20.7316L25.8685 20.5518L25.6152 20.4126ZM4.3934 21.7924L4.45132 21.9903C4.46429 22.0327 4.59743 21.9869 4.59483 21.9419L4.58359 21.7604C4.58186 21.731 4.38476 21.763 4.39254 21.7915L4.3934 21.7924ZM5.33398 21.8555L5.33225 21.91V21.9661L5.33398 22.0206L5.33571 21.9661V21.91L5.33398 21.8555ZM23.8343 22.4364L23.8326 22.4909V22.5471L23.8343 22.6016L23.8361 22.5471V22.4909L23.8343 22.4364ZM26.9042 22.7684L26.9024 22.8229V22.8791L26.9042 22.9335L26.9059 22.8791V22.8229L26.9042 22.7684ZM27.4843 23.0995L27.4825 23.154V23.2102L27.4843 23.2646L27.486 23.2102V23.154L27.4843 23.0995ZM12.4108 23.5153C12.4151 23.3182 12.2975 23.2465 12.1713 23.281L12.4108 23.5153ZM19.4816 23.4929L19.5991 23.6856C19.6147 23.7107 19.7366 23.6666 19.7262 23.6381L19.6631 23.4565C19.6536 23.4289 19.4669 23.4686 19.4816 23.4929ZM8.7064 23.7902C8.70727 23.8317 8.73493 23.9355 8.76087 23.9044L8.85337 23.7946C8.87066 23.7738 8.70554 23.7626 8.7064 23.7902ZM19.4504 23.8862L19.396 23.8879L19.4504 23.8897H19.5066L19.5611 23.8879L19.5066 23.8862H19.4504ZM9.14989 24.5104L9.14816 24.5648V24.621L9.14989 24.6755L9.15162 24.621V24.5648L9.14989 24.5104ZM9.56659 26.8238L10.5746 25.808L11.1806 25.1769L11.7002 24.647L10.8815 24.6919L9.53546 24.6755L9.51903 25.0948L9.52855 26.2446C9.53028 26.4296 9.42654 26.682 9.56659 26.8238ZM23.3796 24.8985C23.3796 24.8078 23.3061 24.7343 23.2153 24.7343C23.1246 24.7343 23.0511 24.8078 23.0511 24.8985C23.0511 24.9893 23.1246 25.0628 23.2153 25.0628C23.3061 25.0628 23.3796 24.9893 23.3796 24.8985ZM20.5933 26.0328C20.6106 26.0622 20.6832 26.1979 20.6901 26.1668L20.7187 26.0379C20.7256 26.0077 20.5778 26.006 20.5933 26.0328ZM23.7453 26.3319C23.7807 26.2887 23.7747 25.9965 23.7384 25.9965C23.5741 26.0181 23.5793 26.3336 23.7453 26.3319ZM9.14989 26.2532L9.14816 26.3077V26.3639L9.14989 26.4183L9.15162 26.3639V26.3077L9.14989 26.2532ZM21.1933 26.4581L21.1388 26.4598L21.1933 26.4616H21.2495L21.3039 26.4598L21.2495 26.4581H21.1933ZM8.7868 26.8445C8.7868 26.7996 8.75049 26.7633 8.70554 26.7633C8.66059 26.7633 8.62428 26.7996 8.62428 26.8445C8.62428 26.8895 8.66059 26.9258 8.70554 26.9258C8.75049 26.9258 8.7868 26.8895 8.7868 26.8445ZM9.75159 27.939L9.57523 27.8517C9.52855 27.8283 9.45333 27.9649 9.46976 28.0151L9.55016 28.2623L9.75159 27.939ZM22.5557 28.3773L22.6776 28.5709C22.6975 28.6021 22.6897 28.4421 22.6819 28.4067C22.6768 28.3825 22.5436 28.3574 22.5557 28.3782V28.3773Z" fill="#2C1F00"/>
</svg>
