<svg width="1376" height="72" viewBox="0 0 1376 72" fill="none" xmlns="http://www.w3.org/2000/svg">
<path d="M5.25853 71.6311V71.4604L6.37299 69.3612C7.48745 67.0109 8.57149 64.7812 9.58463 62.4309C10.4053 60.5426 11.5501 58.7749 12.1074 56.7963C12.4113 55.7015 12.8571 54.9582 13.3941 53.9538C13.7385 53.311 14.0323 52.3066 14.3566 51.5835L15.2785 49.5948L16.9198 46.1899L20.0707 39.0989L21.9348 35.1516L23.8801 30.8026C24.3765 29.6978 25.0047 28.6834 25.3998 27.5082C25.6227 26.8353 25.9975 26.1523 26.2508 25.5195C27.1829 23.2396 28.1555 21.0801 29.2092 18.8102L30.5161 15.9979L33.1301 10.4336L34.6802 7.12913L36.0985 3.40284C36.3214 2.83034 36.9192 2.02682 37.3244 1.45432C37.6892 0.942078 42.0356 1.11283 44.4367 1.14296C46.3718 1.17309 48.3069 0.932032 50.2825 1.19317C52.7445 1.52462 56.3512 0.831597 60.2113 1.21327C61.0522 1.29362 61.9742 1.25344 62.8455 1.23335L65.277 1.16304L68.9446 1.14296L71.4369 1.20322C72.0245 1.21326 73.22 0.952118 73.757 1.29361C74.8816 2.02682 75.0234 3.37271 75.5097 4.43736L76.9383 7.62128L78.3364 10.8152L80.5146 15.6263L81.1327 16.8918L82.5815 19.9853L84.162 23.5308C84.9421 25.2684 85.5095 27.1466 86.4213 28.7838L87.3837 30.5013L89.8963 36.2163L91.3958 39.3399C91.953 40.495 92.6622 41.7003 93.0269 42.9055C93.2904 43.7693 93.4626 44.4724 93.9388 45.1955C94.5669 46.1397 94.9316 47.1139 95.3673 48.1484L97.7786 53.9137L99.3185 57.198L100.413 59.2871L102.044 62.8929C102.935 64.8515 103.391 66.6493 104.526 68.4572C105.114 69.3813 105.357 70.3555 105.853 71.5608L102.247 71.601L100.058 71.6813H96.1575L92.7433 71.6311L88.3766 71.5005C86.5834 71.7215 84.7901 71.8019 83.0374 71.4805C81.4265 71.7215 79.9676 71.8219 78.3465 71.5608L76.9889 68.2865L76.0872 66.2677L75.1653 64.289L73.0073 59.8898C71.5483 59.3675 69.8057 59.7693 68.2556 59.7693H64.811L60.0391 59.6688L52.6431 59.7893L50.2015 59.8094L46.1996 59.7693H40.4854L38.1046 59.9099C37.0306 60.6531 37.0712 62.0593 36.6153 63.0837L34.8119 67.1013C34.285 68.2865 33.6569 69.3411 33.2516 70.5865C33.0186 71.2896 32.4918 71.6813 31.7522 71.6713L27.0411 71.601C24.8425 71.5708 22.7757 71.7215 20.557 71.5708C19.3716 71.4905 18.0748 71.4403 16.9198 71.5106L14.235 71.6612C12.0973 71.7818 10.0811 71.5307 7.91296 71.6211L5.23828 71.7014L5.25853 71.6311ZM53.018 14.7826C53.1092 14.9533 53.7475 14.6319 53.6563 14.4511L53.3422 13.7983C53.1497 13.3965 52.4608 12.824 52.0251 12.7035C51.5084 12.5629 50.6371 12.8943 50.2927 13.3965C50.1407 13.6275 50.2015 14.3306 50.4243 14.4712C50.6067 14.5918 51.1842 14.5817 51.3666 14.4411L52.4 13.6376L53.018 14.7826ZM60.9711 13.5874C60.9711 13.1555 60.6166 12.7939 60.1708 12.7939C59.725 12.7939 59.3704 13.1454 59.3704 13.5874C59.3704 14.0293 59.725 14.3808 60.1708 14.3808C60.6166 14.3808 60.9711 14.0293 60.9711 13.5874ZM55.0443 14.9835C55.6421 14.8629 56.0777 14.6219 56.1689 14.3708C56.2398 14.1699 56.0777 13.4467 55.875 13.3764C55.561 13.266 54.9329 13.5874 54.7606 13.8585C54.5479 14.1699 54.6998 15.0538 55.0544 14.9835H55.0443ZM69.6234 20.1762C69.6234 19.674 69.208 19.2622 68.7014 19.2622C68.1949 19.2622 67.7795 19.674 67.7795 20.1762C67.7795 20.6784 68.1949 21.0902 68.7014 21.0902C69.208 21.0902 69.6234 20.6784 69.6234 20.1762ZM40.5969 23.2797C40.9616 22.9081 40.7489 21.5321 40.2322 21.3413C39.4216 21.0399 38.6213 21.974 38.7124 22.7273C38.8036 23.4806 39.837 24.033 40.5969 23.2797ZM54.9531 39.2696L59.958 39.3801H64.6995L63.1291 36.1058L61.9438 34.0167L60.3329 30.7725L58.7727 27.4781L56.9287 23.5308C56.5944 22.8077 56.0169 21.974 55.6623 21.3111C54.1426 23.1994 53.8589 24.937 52.6127 27.2471L50.7587 30.6821L49.6949 32.7712L48.6818 34.8804L46.6555 39.3199C48.1448 39.4906 49.705 39.3199 51.2146 39.3199L54.943 39.2897L54.9531 39.2696ZM42.532 28.5427C42.7042 28.3519 42.8258 27.5283 42.6536 27.2873C42.5117 27.0864 41.9849 26.8051 41.681 26.7148C41.3264 26.6043 40.9616 27.8095 41.2554 28.0405C41.4986 28.2414 42.0153 28.4423 42.532 28.5427ZM71.4268 28.3921C71.1127 28.0606 70.0692 27.6287 69.7247 27.7091C69.2891 28.3619 70.0388 28.9947 70.5656 29.0851L71.3052 29.2157C71.4572 29.2458 71.5483 28.5026 71.4268 28.382V28.3921ZM41.1035 34.8704L40.2524 37.2006L41.0731 37.4919L41.9241 35.1617L41.1035 34.8704ZM43.4742 39.591C43.3425 39.35 42.5827 39.1893 42.3091 39.2094C42.0356 39.2295 41.5188 39.7718 41.5695 40.0731C41.6506 40.5553 42.3901 40.736 42.8055 40.6557C43.1297 40.5854 43.6768 39.9526 43.4742 39.591ZM34.5991 43.7693L34.2242 41.4893C33.6265 41.7907 33.0389 42.2929 32.6133 42.9156L34.5991 43.7693ZM26.4028 48.3594C26.879 48.279 27.1525 47.2345 26.8384 46.7925C26.575 46.4109 25.7544 46.1999 25.5011 46.5012C25.0148 47.1842 25.187 48.5803 26.4028 48.3694V48.3594ZM78.9139 47.2545C78.7822 46.8729 77.8906 46.3104 77.5259 46.4812C76.9686 46.7423 77.1713 47.7367 77.5968 47.807C77.8906 47.8572 78.4073 47.6161 78.9139 47.2545ZM82.5612 53.311C82.9259 53.1001 82.622 52.1761 82.2876 51.9752C81.9229 51.7442 81.0415 51.7341 80.9604 52.0656C80.8186 52.7687 81.5987 53.8634 82.5511 53.3211L82.5612 53.311Z" fill="#F2EDE3"/>
<path d="M132.827 0L133.062 3.9055L133.011 8.87891V13.1709L132.99 19.2936L133.011 22.2125L132.98 28.0708L133.021 31.2338V38.5668V41.4959L133.041 47.9949L142.117 47.8932H146.405L151.652 47.9949L155.297 47.8932H162.423L166.343 47.822L171.672 47.883L176.144 47.8525L184.954 47.9949L185.016 51.9716V61.0031L184.965 66.1189L185.067 71.4279C183.474 71.6923 182.147 71.7432 180.544 71.7025L176.389 71.611L173.939 71.5906L171.713 71.611H166.211L161.902 71.5805L158.268 71.6211L153.47 71.5398L145.782 71.6313H142.73H136.247H132.051L127.396 71.6516L122.985 71.7025L119.32 71.6618L115.288 71.6313L109.07 71.6923C109.254 68.5293 109.203 65.5392 109.183 62.4473L109.152 55.9076V52.6734L109.183 51.1986L109.264 43.7029L109.172 35.6478V32.8611L109.193 26.3011L109.172 17.89L109.203 13.2319V8.60431L109.223 5.37007L109.183 2.45111L109.234 0.0101727H132.806L132.827 0ZM122.863 38.2617L121.066 37.8549C120.27 38.16 120.147 39.5737 120.596 39.9093L121.73 39.1567C122.107 38.9024 122.505 40.1331 123.312 39.9398C124.118 39.7466 122.74 39.2279 122.863 38.2617ZM124.302 41.4959C123.976 41.3535 123.077 41.3027 122.71 41.3942C122.383 41.4858 122.118 42.2892 122.23 42.6045C122.342 42.9198 123.159 43.2554 123.475 43.1334C123.894 42.9707 124.292 42.7469 124.486 42.5638C124.649 42.4214 124.506 41.5773 124.302 41.4959ZM124.129 44.8726C123.281 44.2725 122.567 43.9572 121.546 44.3335L122.587 45.5743C122.72 45.737 123.404 45.7879 123.537 45.6252L124.129 44.8624V44.8726ZM127.477 52.3784C126.916 51.819 126.599 51.5241 126.324 51.5648C126.109 51.5953 125.732 51.9106 125.589 52.0835C125.446 52.2564 125.772 52.948 125.997 52.9785C126.426 53.0395 127.191 52.6632 127.477 52.3886V52.3784ZM125.732 60.6166C125.803 60.9624 126.957 61.0438 127.232 60.7895C127.508 60.5352 127.62 59.8538 127.508 59.4673C127.426 59.1825 126.732 58.9079 126.375 58.9283L125.721 60.6064L125.732 60.6166Z" fill="#F2EDE3"/>
<path d="M213.784 0.0305071L214.036 4.17964L214.005 8.32878V12.9559L213.975 19.5457L214.015 22.2101L213.945 27.844L214.015 31.088V38.827V41.5015L213.995 47.9896L221.271 47.9286L224.879 47.8981L229.716 47.949H235.36L243.019 47.9083L246.888 47.8371L252.149 47.8981H256.794L265.259 48.0201L265.32 51.9964L265.34 61.0777L265.28 66.1421L265.32 71.5116L260.664 71.715L256.804 71.6234L254.396 71.6031L252.189 71.6336H246.787L242.494 71.6031L238.907 71.6438L234.17 71.5522L226.572 71.6234H219.226L214.741 71.6438L211.919 71.6234L208.644 71.6539L204.079 71.6946L200.461 71.6539L190.414 71.6844L190.545 64.6879L190.454 62.0133L190.475 56.1252L190.424 54.0506L190.495 51.01L190.565 44.0235L190.485 35.4202L190.464 32.9083L190.495 26.3287V17.5321L190.515 13.4237V8.73556V4.05762L190.485 1.01694L190.525 0H213.794L213.784 0.0305071ZM206.488 32.5931C206.488 32.1151 206.105 31.7185 205.621 31.7185C205.137 31.7185 204.754 32.105 204.754 32.5931C204.754 33.0812 205.137 33.4677 205.621 33.4677C206.105 33.4677 206.488 33.0812 206.488 32.5931ZM198.244 37.2507C198.647 37.5049 199.484 36.8948 199.514 36.4981C199.554 36.01 198.819 35.2066 198.244 35.4609C197.811 35.6439 197.781 36.9659 198.244 37.2609V37.2507ZM209.561 55.454C210.297 55.2201 210.75 53.5828 210.035 52.9727C209.612 52.6167 208.624 53.2574 208.453 53.7455C208.231 54.3862 208.503 55.7794 209.561 55.4438V55.454ZM207.929 56.1964C207.505 55.6676 206.719 55.1082 206.226 54.976C205.933 54.8947 205.288 55.332 205.258 55.6167C205.228 55.9015 205.359 56.6133 205.54 56.8676C205.863 57.3252 206.588 57.6811 207.022 57.5896C207.425 57.5082 208.201 56.5421 207.929 56.1862V56.1964ZM215.043 59.0438C215.043 58.515 214.62 58.0879 214.096 58.0879C213.572 58.0879 213.149 58.515 213.149 59.0438C213.149 59.5726 213.572 59.9997 214.096 59.9997C214.62 59.9997 215.043 59.5726 215.043 59.0438Z" fill="#F2EDE3"/>
<path d="M877.919 48.9031V52.5705L877.695 54.2459L877.067 57.8726L876.306 60.4878C876.033 61.4174 875.282 62.3777 874.725 63.2767C874.258 64.0225 873.326 64.6763 872.677 65.3199C871.724 66.2699 870.73 66.791 869.503 67.3017C867.496 68.1394 865.579 69.0486 863.399 69.4266L858.026 70.3563L854.639 70.6627L851.709 71.0203L845.636 71.3881L841.063 71.4902L836.409 71.6026L832.029 71.715L828.623 71.6435H826.625L823.503 71.5822L816.344 71.4391L813.049 71.1838L806.236 70.4584L801.085 69.539C800.203 69.3858 799.341 69.2325 798.54 68.8954L795.174 67.5061L792.264 65.6264C790.591 64.5435 789.679 62.4492 788.868 60.7125C788.006 58.8737 787.621 57.2494 787.428 55.2675C787.144 52.4071 786.708 49.8531 786.992 46.9314L789.212 46.9008H793.217L795.296 47.0131H798.459L803.062 47.0336L807.858 47.0131L811.559 46.8803C811.437 48.1675 811.447 49.7203 812.623 50.2924C813.313 50.6295 814.6 51.3549 815.341 51.4059L823.259 52.0393L825.652 52.1721L828.886 52.2334L832.344 52.2539H838.823L842.067 52.1721C844.48 52.1211 846.964 52.2743 849.306 51.2425C850.351 50.7828 850.503 48.7396 849.844 47.8508C847.765 47.0642 845.555 46.8906 843.355 46.7373L840.313 46.533L833.814 46.1142L827.629 45.491L821.647 45.0824L817.003 44.6022C812.806 44.4081 808.882 43.6317 804.806 42.8042L801.694 42.1811L794.799 39.7804L792.7 38.2991C791.96 37.7781 791.068 37.4205 790.571 36.7973L789.354 35.2547C787.083 32.3739 786.09 28.6758 785.938 25.0083L786.221 18.981L786.668 15.6506C787.276 11.1761 789.719 6.84459 793.907 4.83207L796.888 3.40187C799.108 2.33942 801.602 1.67539 804.076 1.3587L808.385 0.807057L811.366 0.561872L813.566 0.388206L822.823 0H826.727H830.448H833.773L838.143 0.102164L843.04 0.347334L846.386 0.490354L851.871 1.00114L856.485 1.86949L859.141 2.38028C860.682 2.67654 862.031 3.0954 863.44 3.75943L866.756 5.34286C868.885 6.8548 870.791 8.60171 872.393 10.6653C873.326 11.8606 873.964 13.6279 874.279 15.0172L874.796 17.326C875.242 19.3283 875.333 21.2897 875.384 23.3329L875.445 25.9379C874.725 26.0299 873.711 26.0912 873.032 26.0912L869.493 26.0503L866.634 26.0707L857.387 26.0299L855.126 26.081L850.158 26.0095C850.837 22.0151 846.052 20.7483 842.097 20.5746L839.836 20.4827L834.777 20.1762C833.571 20.1047 832.628 20.1047 831.482 20.1149L825.246 20.1967L821.637 20.2988L817.713 20.4623L815.178 20.7074C813.668 20.8607 811.741 21.2489 810.971 22.6076C810.727 23.0366 810.95 24.2319 811.234 24.5792C812.116 25.6519 816.497 25.9482 819.011 26.0095L820.816 26.3976L824.537 26.7041L827.72 26.9187L830.367 27.0719L836.927 27.6031L841.023 27.9709L844.977 28.2569L849.59 28.7779L853.088 29.2172L856.86 29.6565L861.189 30.3512L864.9 31.3115L868.57 32.4148C871.034 33.1503 873.934 35.0913 875.272 37.2366C876.783 39.6578 877.554 42.1708 877.736 45.0415L877.99 48.8724L877.919 48.9031Z" fill="#F2EDE3"/>
<path d="M305.35 71.6464V71.4524L307.094 67.7251L308.3 65.6316L309.618 62.5272L310.48 60.444L312.375 56.0121L313.784 52.9791L316.582 46.7193L318.285 43.0532L321.732 35.2616L322.908 32.5554L324.226 29.451L325.797 25.9177L327.754 21.7308C328.646 19.8212 329.173 17.738 330.298 15.9407C331.251 14.4192 331.677 12.7444 332.437 11.1616L333.928 8.02652L335.043 5.27953C335.773 3.47203 336.675 2.04237 337.253 0.091903L338.571 0.0306343L342.301 0.102125L347.046 0.0612687L351.456 0L354.608 0.0204281L356.94 0.0510624H359.991L367.27 0.0306343L370.656 0.0714905L374.103 0.102125L375.39 3.06356L377.489 7.82229C377.823 8.57797 378.411 9.25195 378.614 10.0893C378.908 11.3147 379.607 12.3359 380.104 13.4286L381.513 16.4717L384.048 22.3333L386.014 26.7449L388.751 32.678L390.1 35.7211L391.276 38.2536L392.583 41.4091L393.516 43.6149L396.223 49.7216L398.139 53.9186C398.899 55.5934 399.862 57.0026 400.318 58.8305L401.626 61.5469L403.066 64.8351L404.11 66.9183L405.955 71.5239C405.164 71.626 404.221 71.7894 403.562 71.6771C402.305 71.4626 401.383 71.626 400.156 71.6362L397.308 71.6669L388.052 71.6056L386.126 71.6464L378.675 71.5545L377.499 68.7871L375.289 63.9365L374.153 61.6694L373.221 59.5964C372.166 59.3513 371.112 59.4228 370.038 59.6271C369.085 59.8109 368.253 59.5454 367.3 59.5352L364.016 59.4943L361.117 59.6169L357.497 59.6475L353.726 59.6066H351.577L347.857 59.6781H345.282L341.815 59.576L338.115 59.6373C337.77 61.0976 337.151 61.7818 336.614 62.9561L335.073 66.2852L333.684 69.5122L332.884 71.5341C330.481 71.8098 328.23 71.6362 325.777 71.6362H321.489L317.829 71.6975L313.115 71.6464L309.233 71.5852L305.34 71.6362L305.35 71.6464ZM357.406 10.9165C357.386 10.4672 356.869 9.75233 356.585 9.60937L355.156 10.5182C355.348 10.9063 355.764 11.4169 356.139 11.5905C356.474 11.7436 357.437 11.2943 357.416 10.9165H357.406ZM369.45 20.5769C369.855 20.485 370.281 19.4434 370.261 18.9532C370.24 18.5652 369.896 17.932 369.612 17.8197C369.379 17.7278 368.811 17.7993 368.588 17.9525L367.179 18.9124C367.432 19.8621 368.284 20.8526 369.45 20.5769ZM358.755 38.8051L362.526 38.7642H364.817L363.681 36.7423C363.438 35.4352 362.779 34.6386 362.201 33.5051L360.812 30.7786L356.686 22.1904L355.784 20.3318L353.878 23.9979L350.979 29.6553L348.607 34.6182L347.786 36.4972L346.62 38.9174C347.826 39.0297 348.718 38.9991 349.823 38.7846C350.756 38.6008 351.679 38.9276 352.591 38.9072L358.755 38.8153V38.8051ZM340.395 24.5595C340.274 24.1919 339.179 24.1817 338.895 24.437C338.611 24.6923 338.459 25.4888 338.621 25.8973C338.743 26.2036 339.524 26.4487 339.868 26.2751C340.254 26.0811 340.558 25.0599 340.395 24.5595ZM341.369 33.2294C341.338 33.0354 340.618 33.0864 340.618 33.2702L340.598 33.9646C340.598 34.1689 340.689 34.7101 340.76 34.9144C340.831 35.1186 341.237 35.1288 341.673 35.1288L341.369 33.2396V33.2294ZM336.746 38.6723L336.422 37.4775L334.82 38.3558C334.506 38.5294 334.678 39.5812 334.962 39.7037C335.722 40.0305 336.807 38.8766 336.746 38.6723ZM366.003 42.7673C365.77 42.706 365.263 42.849 365.03 43.0634C364.695 43.3596 364.513 44.1765 364.573 44.585C364.624 44.922 365.364 45.4734 365.699 45.3815C366.621 44.2582 366.682 42.9409 366.013 42.7775L366.003 42.7673ZM381.605 44.5033L383.581 44.0642C383.267 42.8796 382.03 42.7979 381.189 43.4413C380.956 43.6251 380.662 43.9314 380.55 44.1152C380.439 44.2991 381.351 44.5544 381.605 44.5033ZM342.859 47.1073C343.102 46.8622 343.122 45.9125 342.859 45.7798C342.595 45.647 342.028 45.4734 341.754 45.4428L341.713 46.8622C341.713 47.1175 342.666 47.2809 342.849 47.0971L342.859 47.1073Z" fill="#F2EDE3"/>
<path d="M758.459 70.6737L755.507 71.0208L749.46 71.3883L744.843 71.4904L740.227 71.6027L735.641 71.715L731.603 71.6333L728.996 71.5924L725.353 71.521L719.773 71.4087L716.851 71.1943L709.83 70.4287L705.082 69.561L703.185 69.2649L698.761 67.4376C697.97 67.1109 696.823 66.2126 696.032 65.6511C694.328 64.4363 693.384 62.4048 692.522 60.6081C691.71 58.9135 691.365 57.372 691.162 55.5344C690.848 52.625 690.432 50.032 690.655 47.0001L693.201 46.898L698.082 46.9797L700.517 47.0205H706.827H711.454L715.289 46.8878C715.106 48.2149 715.177 49.7462 716.385 50.3179C717.003 50.6139 718.231 51.3285 718.901 51.3796L727.048 52.0431L729.604 52.1962L732.658 52.2269L736.088 52.2575H742.601L745.828 52.1758C748.232 52.1248 750.769 52.3187 753.041 51.2264C754.066 50.7364 754.228 48.7968 753.569 47.9086C753.092 47.6024 752.088 47.337 751.479 47.2655L747.319 46.7755L743.849 46.5509L738.33 46.2447L734.84 45.8669L728.499 45.3871L723.345 44.795L720.321 44.6419C716.283 44.4275 712.499 43.6415 708.532 42.8452L705.437 42.2225L698.528 39.8235L696.276 38.2514C695.596 37.7716 694.733 37.4245 694.277 36.8528L692.948 35.1888C688.9 30.105 689.285 22.6119 690.239 16.252C690.949 11.5152 693.252 6.96221 697.625 4.86946L700.608 3.44027C702.83 2.37858 705.326 1.70482 707.801 1.39856L711.951 0.898341L715.055 0.592097L717.085 0.43896L722.918 0.306244L727.007 0L730.487 0.0714516H734.19L737.508 0.0612487L741.891 0.173543L746.791 0.418538L750.14 0.561457L755.628 1.0821L760.427 2.01108L765.652 3.19526L770.177 5.29823C772.237 6.25783 773.729 8.24849 775.342 9.83081C777.046 11.505 777.685 13.8019 778.203 16.058C778.781 18.5693 779.238 20.8254 779.055 23.4388L779.136 26.0318L776.762 26.1543L773.231 26.1134L770.38 26.1338L760.884 26.093L758.855 26.1441L753.833 26.0726C754.482 22.1015 749.754 20.805 745.807 20.6417L743.575 20.5498L738.482 20.2435C737.214 20.1619 736.22 20.1516 735.022 20.1721L728.935 20.2537L725.1 20.366L721.356 20.5294L718.86 20.754C717.359 20.8867 715.624 21.1929 714.66 22.5302C714.345 22.9794 714.487 24.2453 714.863 24.674C715.208 25.0517 716.05 25.3886 716.719 25.4703L720.92 25.9705L724.329 26.3789L728.204 26.7668L731.187 26.9607L734.058 27.1241L740.389 27.6345L744.712 28.0224L748.679 28.3083L753.062 28.7983L756.805 29.2679L760.559 29.717L764.709 30.3704L768.372 31.3198L772.085 32.4121C774.56 33.1369 777.503 35.0459 778.832 37.1693C780.161 39.2926 781.115 41.6304 781.297 44.2438L781.551 47.9086C781.754 50.8385 781.723 53.6152 781.064 56.494L780.486 59.036C779.897 61.5881 778.436 63.4767 776.559 65.2019C775.423 66.2432 774.297 66.8046 772.907 67.4376C770.36 68.5911 768.006 69.5303 765.155 69.6733L761.828 70.3776L758.388 70.6737H758.459Z" fill="#F2EDE3"/>
<path d="M649.622 45.3451L646.074 45.2942L643.117 45.3451H636.775H632.359L629.973 45.284L630.045 51.6498L635.011 51.7008L637.499 51.7211H640.986L646.553 51.6906L649.51 51.7415L661.716 51.8434L663.908 51.7313L668.099 51.7619L671.29 51.7211L678.091 51.7721H682.558H685.26L685.321 54.0841V57.5166V60.4602L685.29 64.6667L685.198 71.6335L682.782 71.5622L677.908 71.6335H671.035H667.497L659.748 71.715L657.331 71.664L653.65 71.5927H650.438L645.88 71.5826L641.822 71.6131H638.488H632.614L629.188 71.5826L625.059 71.5622L620.694 71.5826L606.297 71.5418L606.215 66.0519L606.246 61.4176L606.266 49.0933V45.0294L606.205 38.4089L606.266 35.8524L606.215 31.9616L606.236 18.1503L606.205 9.59459L606.113 0L611.059 0.0916643L619.767 0.0101797L623.794 0.0712893L626.976 0.0916643L629.423 0.112039L638.488 0.020375L642.383 0.0814846H645.819L649.245 0.0611095H653.395L658.545 0.112039L661.634 0.0407345L667.599 0.0712893L677.113 0.020375L682.027 0.0916643H685.229L685.311 2.66855L685.29 6.20287L685.311 9.12605V19.1994C685.301 19.6068 684.862 20.0753 684.485 20.0651L679.713 19.9734H666.07L660.788 19.9429H657.046L653.65 19.9021L650.775 19.9836L647.461 20.004H641.781H633.41L629.943 19.9531L630.096 24.017L629.963 26.3189L633.94 26.2884L637.417 26.268L640.425 26.1967H646.778L650.948 26.2171L655.22 26.1559L671.545 26.1763L674.92 26.3291L681.823 26.1559L681.793 30.0569L681.752 35.2413L681.691 43.1756L681.711 45.4164L675.644 45.3146L673.197 45.3451L669.74 45.3859H666.1L661.216 45.3349L654.089 45.3044L649.592 45.3349L649.622 45.3451ZM615.28 23.5078C615.739 23.7318 616.453 23.2735 616.667 22.8661C616.84 22.53 616.483 21.542 616.106 21.6337C615.627 21.7457 615.127 22.0003 614.923 22.2244C614.719 22.4485 614.984 23.3652 615.27 23.5078H615.28ZM624.141 25.9624C624.202 24.5569 623.478 23.7115 621.867 23.3855C621.49 24.1087 621.51 25.2596 621.969 26.1763C622.336 26.9198 623.652 27.4699 624.508 27.2967C624.732 27.256 625.028 26.5023 624.845 26.3902L624.151 25.9522L624.141 25.9624ZM620.44 26.7467C620.96 26.6245 621.235 25.9013 621.143 25.6161C621.051 25.3309 620.47 24.7809 620.103 24.842C619.787 24.893 619.501 25.7383 619.573 26.0439C619.634 26.2985 620.154 26.8078 620.44 26.7467ZM627.802 34.1107C627.985 33.7644 627.853 33.0005 627.659 32.8172C626.537 33.7848 625.976 34.6607 626.782 36.0459L627.802 34.1107ZM625.161 35.2107C624.855 34.9255 624.008 34.8033 623.601 35.0376C623.244 35.2413 622.999 36.4533 623.315 36.7079L624.426 37.6246C624.651 37.808 625.365 37.9098 625.65 37.8487C625.864 37.7978 625.925 35.9237 625.171 35.2209L625.161 35.2107ZM620.164 47.484C621.357 47.0053 622.04 45.8748 622.153 44.7849C622.193 44.4183 621.796 43.6747 621.48 43.6849C621.215 43.6951 620.654 43.9294 620.45 44.1025C619.756 44.7034 619.807 45.4673 619.879 46.272C619.909 46.5674 619.858 47.4535 620.164 47.4739V47.484Z" fill="#F2EDE3"/>
<path d="M577.473 42.0767L586.06 42.0464L588.7 42.0262L592.117 41.9758H595.956H599.584V45.0223C599.564 46.2934 599.383 47.7663 598.99 48.9869L597.357 54.0409L595.614 57.0068L594.273 59.0748L591.844 61.4455C590.786 62.4744 589.799 63.4328 588.519 64.1692L585.788 65.7227L581.414 67.7101L578.491 68.6987L573.271 70.0101L570.822 70.4439L567.204 70.9584L561.863 71.5535L558.94 71.6746L549.053 71.715H545.436L540.638 71.4325L537.403 71.2106L531.538 70.2825C529.663 69.9899 528.011 69.6268 526.227 69.082C523.506 68.2548 520.916 67.5789 518.437 66.2069L516.26 64.9964C514.768 64.1692 513.539 63.2512 512.38 62.0507L510.838 60.4468C509.316 58.863 508.006 57.1682 507.159 55.1506L505.356 50.8834C504.438 48.7044 504.176 46.6364 503.914 44.2355L503.562 41.0981C503.259 38.3946 503.269 33.2397 503.683 30.7984L504.297 27.1264L505.144 23.4645L505.91 21.3763L507.401 17.8455L509.185 14.688L510.818 12.8116C511.957 11.5103 512.934 10.2392 514.335 9.28088L517.358 7.20277L520.795 5.31632L524.221 3.89393C527.608 2.49171 531.064 1.6544 534.763 1.20045L541.042 0.42369L546.877 0.221935L549.981 0L555.564 0.0201647L558.224 0.221935L564.271 0.766676L571.487 1.73512C572.878 2.24961 574.339 2.54215 575.831 2.69347L578.35 3.59129C583.49 5.42729 588.499 7.53567 592.207 11.6919L594.273 14.002C597.639 17.7648 599.151 23.1719 599.463 28.2562L599.685 31.9181L597.206 32.0594L593.739 32.0089L590.887 32.0493L581.323 32.019L579.459 32.0493L575.579 31.9888L574.601 29.5677C573.069 26.5716 570.388 24.5237 567.385 23.2325L565.36 22.5162C563.797 21.9715 562.104 21.1745 560.452 21.0736C557.882 20.9223 556.199 20.2263 553.437 20.2767L550.747 20.3372L547.35 20.4381L543.581 20.7811L541.243 21.1342L537.635 22.1228L535.247 23.1215C533.02 24.0597 530.48 26.0167 529.603 28.115L528.293 31.2423C527.86 32.2914 527.678 34.0669 527.729 35.227L527.88 38.4652C528.001 41.0174 529.875 44.3061 531.639 46.3539C533.009 47.9377 536.506 49.7636 538.703 50.268L543.017 51.2466L547.34 51.7712L550.737 51.8216L555.292 51.6804L558.92 51.5391L565.128 50.2277L568.574 49.0474C571.729 47.968 574.762 45.3855 575.599 42.1069L577.483 42.0464L577.473 42.0767Z" fill="#F2EDE3"/>
<path d="M473.684 41.985L475.722 42.0455L484.291 41.995L486.95 41.9748L490.394 41.9244L493.818 41.9446L497.873 41.9748C497.843 44.5087 497.985 46.6287 497.282 48.89L495.713 53.9375L494.47 55.9666L493.257 57.9453C492.565 59.0759 491.719 59.8936 490.72 60.8022L487.816 63.4471L483.945 65.6478L479.574 67.6466L476.446 68.7167L471.137 69.9988L468.885 70.4026L465.003 70.9578L459.593 71.5534L456.852 71.6645L446.653 71.715H443.005L438.338 71.4323L434.905 71.19L428.944 70.2613C427.131 69.9786 425.531 69.6152 423.799 69.0902C421.109 68.2725 418.511 67.6466 416.045 66.304L413.691 65.032C412.122 64.184 410.849 63.2149 409.667 61.9833L408.097 60.358C406.783 58.9952 405.56 57.5617 404.806 55.8455L402.585 50.7677C401.831 49.0313 401.383 47.3858 401.363 45.4173L400.873 42.7118L400.812 40.1779C400.456 37.6945 400.629 35.3525 400.772 32.8893C400.812 32.1019 400.731 31.2741 400.996 30.4967C401.363 29.4065 401.322 28.1648 401.566 27.0947L402.402 23.4605L403.217 21.29L404.654 17.8476L406.467 14.7989L409.697 10.9931C410.655 9.87251 412.01 8.8327 413.284 8.07557L416.493 6.13731L420.477 4.31011L423.554 3.17946C427.65 1.6652 431.879 1.14026 436.219 0.70617C438.226 0.504268 440.213 0.191323 442.221 0.140848L446.622 0.0298012C450.871 -0.0711496 454.916 0.0903711 459.094 0.423509L462.283 0.685975L469.578 1.69548C470.984 2.20024 472.462 2.44251 473.959 2.63432L476.486 3.54288L480.715 5.13791C484.454 6.55122 487.582 8.73176 490.374 11.5584L493.115 14.6778L494.602 16.8381C495.519 18.1807 496.008 19.6849 496.548 21.2194C497.323 23.4504 497.629 25.641 497.771 27.9932L498.005 31.8798C497.017 31.9908 496.233 32.0211 495.367 32.011L492.086 31.9706L488.978 32.011L479.492 31.9706L477.444 32.011L473.521 31.91C472.808 28.2052 468.885 24.4498 465.574 23.2788L463.2 22.4409C461.671 21.9058 460.021 21.1285 458.411 21.0276C455.772 20.866 454.081 20.1796 451.584 20.22L448.609 20.2704L444.941 20.3714L442.353 20.5935L440.091 20.866L437.35 21.4112L433.376 22.8245C430.87 23.7128 428.394 25.3281 427.273 27.8518L425.837 31.0924C425.358 32.1826 425.184 33.9594 425.235 35.1506L425.388 38.4315C425.419 39.0776 425.745 40.2385 425.969 40.9452C426.499 42.6109 427.528 44.004 428.465 45.4879C429.647 47.3454 433.784 49.6572 436.219 50.2023L440.784 51.2219L444.941 51.7267L448.609 51.7772L453.011 51.6358L456.832 51.4743L462.955 50.2124L466.43 49.0414C469.843 47.9007 472.737 45.4879 473.705 41.9648L473.684 41.985Z" fill="#F2EDE3"/>
<path d="M1019.61 71.715H1001.13C1001.25 71.644 1000.73 71.4818 1000.59 71.4818L997.16 71.4413C996.815 70.2656 996.937 69.09 996.937 67.813V65.3907L996.957 61.7117L996.846 59.5226L996.866 54.4652L996.937 51.0295L997.038 47.0566L997.018 40.4689C996.582 40.9452 996.056 41.5634 995.833 41.9891L994.141 45.2323L992.753 47.462L991.436 49.5701L989.582 52.7727L987.829 55.9247L986.816 57.5665L983.99 62.3198L980.079 69.3535L978.793 71.6846H960.78C959.838 71.3096 959.038 71.7251 958.582 70.4785C958.035 68.9582 957.326 67.6711 956.303 66.4144L955.046 63.982L953.527 61.1543L950.964 56.6037L949.009 53.2389L947.236 50.1478L945.898 47.8573L943.518 43.3776L941.785 40.6817L941.704 42.4857L941.775 51.0194L941.714 53.4011L941.654 55.6814L941.826 60.6577C941.856 61.3976 941.643 62.2286 941.866 62.9685L941.765 69.0089L941.816 71.6744H930.145C929.132 71.3704 927.957 71.3197 926.761 71.3906L924.553 71.6744H921.878C922 71.6035 921.463 71.4413 921.321 71.4413L918.242 71.421L918.221 68.5832C918.221 68.4312 918.059 67.9042 917.988 68.0258V10.6214C918.495 9.83092 918.272 8.91875 918.272 7.96606L918.242 0.233115C919.052 0.141901 919.913 0.020265 920.561 0.121615C921.828 0.304044 922.81 0.273645 924.087 0.22297L927.39 0.0709521L931.077 0.11147L938.179 0.304036L941.36 0.141873L946.415 0L947.155 1.60131C947.793 2.99993 948.573 4.18573 949.383 5.44247L950.528 7.26675L955.057 15.1213L957.934 20.0368L959.514 22.8847L961.003 25.4793L962.695 28.1752L965.785 33.3845L968.196 37.7527L969.442 39.6682L971.093 36.4554L972.431 34.4487L974.822 30.2224L975.845 28.3171L977.192 26.0773L978.803 23.5435L982.045 17.8476C982.683 16.7125 982.977 15.7294 983.889 14.7159L985.459 11.7262C986.006 10.6924 986.826 10.0032 987.343 8.94915L988.883 5.83774L990.453 3.34452C991.071 2.37157 991.497 1.1655 992.429 0.395247C992.864 0.0303888 994.191 0.283789 994.779 0.263519L997.058 0.202681L1002.29 0.172277L1007.21 0.081066L1010.86 0.131759L1015.98 0.293922L1020.46 0.243229L1020.53 2.6148V4.99653L1020.61 9.37483V14.5234L1020.62 17.6855L1020.74 20.9591L1020.58 24.4962L1020.52 31.5501L1020.64 34.2055C1020.74 36.2831 1020.36 38.1885 1020.64 40.3067L1020.58 42.131L1020.55 49.9045V52.0126L1020.64 55.1342V58.2354L1020.51 60.5969C1020.46 61.4786 1020.51 61.9448 1020.53 62.7962L1020.63 66.6779L1020.6 69.0191L1020.38 71.1778L1019.63 71.6744L1019.61 71.715ZM1012.11 10.6214C1012.01 10.2667 1011.89 9.82078 1011.72 9.86132C1011.6 9.88159 1011.28 9.95253 1011.27 10.0741L1011.21 10.7633C1011.18 11.1079 1011.82 11.716 1012.18 11.716C1012.48 11.716 1012.93 11.2903 1013.05 11.0268C1012.62 10.9154 1012.16 10.8241 1012.11 10.6316V10.6214ZM997.687 12.841C998.061 12.841 998.771 12.6383 998.882 12.3545C998.993 12.0707 999.034 11.2802 998.902 10.9964L998.588 10.3072C998.588 10.3072 997.565 10.7126 997.18 11.7667C997.079 12.0403 997.403 12.841 997.687 12.841ZM1011.9 16.9558C1012.1 17.726 1012.85 17.8375 1013.24 17.5538C1013.58 17.3004 1013.91 16.7531 1013.88 16.4186C1013.85 16.0842 1013.19 15.5065 1012.86 15.5977C1012.46 15.7092 1011.8 16.5706 1011.9 16.9659V16.9558ZM944.703 18.1314C944.693 17.726 943.953 17.1585 943.639 17.27C942.758 17.6044 942.657 19.4895 943.396 20.503C944.328 20.0165 944.733 19.2057 944.703 18.1314ZM947.631 18.3443C947.722 18.1821 947.013 17.4625 946.871 17.5842C946.597 17.8274 946.233 18.3443 946.172 18.6281C946.121 18.8713 946.435 19.3375 946.739 19.6517C946.922 19.449 947.408 18.7294 947.631 18.3341V18.3443ZM1009.98 21.2733C1010.55 21.557 1011.48 20.7158 1011.32 20.0976C1011.19 19.601 1010.65 18.8611 1010.01 19.0537C1009.64 19.1652 1009.28 19.9051 1009.33 20.2395C1009.37 20.5233 1009.7 21.1415 1009.98 21.2733ZM951.582 22.4996C951.42 21.7597 951.166 21.2327 950.761 20.9692C950.417 20.7564 949.475 20.8679 949.252 21.2327C948.583 22.2969 949.191 24.1516 950.295 24.4658C951.399 24.78 951.794 23.3915 951.592 22.4895L951.582 22.4996ZM1004.1 23.1786C1004.4 23.28 1005.04 22.7631 1005.03 22.4591C1005.02 22.1347 1004.72 21.476 1004.41 21.4962C1004.16 21.5165 1003.6 21.7699 1003.4 21.9422C1003.22 22.0942 1002.95 22.8037 1003.18 22.8746L1004.09 23.1786H1004.1ZM1005.78 23.6448C1005.99 24.3948 1006.73 24.8205 1007.06 24.5671C1007.29 24.3847 1007.47 23.6651 1007.39 23.28C1007 23.0672 1005.93 23.3307 1005.79 23.6347L1005.78 23.6448ZM996.714 27.1617L997.595 23.7969C997.585 23.432 996.268 23.3509 996.116 23.6854C995.995 23.959 995.924 24.3746 995.873 24.8408C995.752 25.8644 994.657 26.4827 995.488 27.3441C995.711 27.5772 996.623 27.4759 996.714 27.1617ZM1002.84 25.7326C1003.03 25.5705 1003.29 24.9522 1003.31 24.6583C1003.33 24.3543 1002.65 23.807 1002.35 23.9489C1001.66 24.2732 1001.92 25.459 1002.84 25.7326ZM1004.34 25.682C1004.56 26.1076 1005.4 25.7935 1005.61 25.4387C1005.75 25.1752 1005.53 24.5469 1005.18 24.3644C1004.79 24.4354 1004.14 25.2867 1004.34 25.682ZM925.789 26.8272C926.073 26.807 926.528 26.1685 926.417 25.9151C926.326 25.7124 925.748 25.4387 925.536 25.5097C924.978 25.6921 924.381 26.361 924.127 26.9387L925.779 26.8272H925.789ZM940.063 27.4556C939.475 27.3542 938.706 28.1549 938.837 28.7833C938.939 29.2799 939.506 29.7765 940.144 29.9083C940.448 29.9691 941.188 29.7157 941.259 29.442C941.41 28.7833 940.732 27.5772 940.063 27.4556ZM999.085 31.54C999.773 30.8711 999.976 29.8373 999.48 29.2495C999.054 28.7529 998.021 28.4995 997.433 28.763C997.291 30.1211 997.808 31.1143 999.085 31.5501V31.54ZM1012.26 34.398C1012.59 34.246 1013 33.6481 1013.02 33.3845C1013.03 33.1616 1012.7 32.6751 1012.46 32.4927C1012.19 32.3001 1011.59 33.0501 1011.54 33.3845C1011.48 33.719 1011.96 34.5298 1012.26 34.3879V34.398ZM986.289 35.5332C986.685 35.3102 986.816 34.5602 986.735 34.2055C986.644 33.7595 985.773 33.3947 985.317 33.7595C985.074 33.9622 985.043 34.692 985.185 34.9656C985.327 35.2392 986.026 35.6852 986.289 35.5332ZM935.21 36.273L935.687 34.3575L933.306 34.4893L934.086 36.3338C934.157 36.4858 934.481 36.7493 934.633 36.8C934.785 36.8507 935.17 36.4656 935.221 36.2831L935.21 36.273ZM1007.96 36.7595C1007.28 36.3439 1006.44 37.5095 1006.49 37.55L1007.09 38.0061L1007.56 38.3608C1007.56 38.3608 1008.53 37.0939 1007.97 36.7494L1007.96 36.7595ZM989.197 41.4216C989.612 40.0736 988.964 38.8067 987.657 38.6953V41.7763C987.647 42.0499 988.346 42.3844 988.559 42.2627C988.772 42.1411 989.106 41.7155 989.207 41.4114L989.197 41.4216ZM964.63 41.5939C964.367 40.6412 963.343 40.1952 962.533 40.4081L962.341 39.2932C962.31 39.1209 961.601 39.1513 961.56 39.3135L961.388 40.0635L961.287 41.4317C961.246 41.9283 962.361 42.3743 962.857 42.4148C963.445 42.4553 964.367 42.0803 964.63 41.5939ZM953.132 40.8135L951.967 39.729C951.754 39.9317 951.379 40.4486 951.491 40.6614L952.078 41.7864L953.132 40.8135ZM934.045 47.1377L934.532 45.7289C935.2 45.4249 935.778 45.1107 936.153 44.4215C934.988 44.3708 934.299 44.8978 933.671 45.6276C933.286 46.0735 933.488 46.7931 934.045 47.1377ZM1003.36 46.7019C1003.65 45.4958 1003.26 45.2222 1002.95 44.8674C1002.77 44.6546 1002.11 44.5229 1001.96 44.6952C1001.81 44.8675 1001.73 45.5161 1001.91 45.658L1003.36 46.712V46.7019ZM974.274 45.658C974.315 45.364 973.616 44.8877 973.322 44.9282C973.028 44.9688 972.35 45.5364 972.552 45.7593L973.282 46.5802C973.413 46.7221 973.971 47.0262 974.031 46.8438C974.092 46.6613 974.193 46.1951 974.274 45.658ZM1007.35 46.9552C1007.35 46.712 1006.79 46.185 1006.6 46.2661L1005.73 46.6411C1005.52 46.7323 1004.97 47.3505 1005.16 47.4924L1005.89 48.0498C1006.15 48.2424 1006.74 48.364 1007 48.212C1007.2 48.0904 1007.36 47.3911 1007.35 46.9451V46.9552ZM967.274 48.2221C967.416 47.8877 967.548 47.1884 967.335 47.1073L966.545 46.8134C966.271 46.712 965.704 46.7323 965.441 46.8539C965.228 46.9553 965.035 47.7255 965.177 47.8674L967.274 48.2221ZM931.705 49.6917C932.495 49.0633 932.08 47.8978 931.614 47.4924C931.148 47.087 930.084 46.8235 929.649 47.4012C929.213 47.9789 929.547 48.7491 929.973 49.1444C930.317 49.4586 931.351 49.9755 931.705 49.6917ZM970.293 55.0125C970.769 54.9416 970.82 53.7051 970.597 53.32C970.324 52.8234 969.807 52.5193 969.29 52.5193C968.774 52.5193 967.831 53.2186 968.004 53.6443C968.389 54.4044 969.432 55.1443 970.293 55.0125ZM961.439 56.7051L961.216 54.7085C960.557 54.7085 960.071 55.1848 960.213 55.7423C960.355 56.2997 960.841 56.7152 961.439 56.7152V56.7051ZM971.499 59.5226L971.661 58.0429C971.691 57.8098 970.901 57.4551 970.719 57.6071C970.475 57.8098 970.344 58.6307 970.506 58.9145C970.638 59.1476 971.195 59.4415 971.499 59.5226Z" fill="#F2EDE3"/>
<path d="M1094.29 71.6032L1088.91 71.715L1088.65 71.471H1069.12L1068.86 71.715H1054.67L1054.2 71.471H1044.88L1044.41 71.715L1031.47 71.6133L1027.27 71.4304L1027.21 68.9809V64.1633L1027.26 60.6264L1027.22 55.636L1027.25 52.9935V49.4565L1027.21 45.8585V43.1855L1027.24 40.8987V35.8981L1027.22 32.5848L1027.26 26.8321L1027.24 23.2037L1027.22 18.0405L1027.17 9.78763L1027.21 6.77919L1027.31 0.172796L1030.23 0.121959L1034.39 0.0609796L1038.04 0L1040.7 0.0609796L1043.25 0.111817H1046.44L1052.87 0.0609796L1058.15 0.132133L1063.99 0.0101736L1067.22 0.0304898L1071.84 0.0711532H1077.51H1081.09L1085.27 0.050837L1095.43 0.121959L1102.92 0.0813268L1106.3 0.142306L1106.28 7.33818L1106.21 9.74697L1106.17 16.7803L1106.32 19.8802L1104.07 19.9208L1095.3 19.9513H1092.6L1083.05 19.87H1074.85L1069.59 19.9411L1066.72 19.9615H1059.73L1055.75 19.9513L1051 19.9818L1051.03 23.8542L1050.91 26.2223L1057.14 26.1613L1066.47 26.2325H1070.58L1073.11 26.2122L1080.75 26.1715L1084.08 26.1512L1087.48 26.08L1090.9 26.2426H1102.73L1102.72 32.4323L1102.8 37.0771L1102.72 42.9111L1102.83 45.2589L1099.33 45.1979L1091.89 45.2284H1087.44L1083.95 45.3199H1078.41L1071.84 45.1877L1068.38 45.3097L1062.04 45.2894L1057.13 45.2386L1054.92 45.3097L1051.07 45.391L1051.04 51.6315H1058.2L1060.81 51.662L1064.26 51.6315L1067.41 51.5502L1077.57 51.662L1083.01 51.6417L1088.69 51.6925L1091.38 51.6214L1093.86 51.5807L1097 51.6823H1105.34L1106.21 51.5604C1106.65 51.4994 1106.04 54.0403 1106.32 56.5812C1106.41 57.4045 1106.18 58.0753 1106.21 58.8782L1106.35 65.3119L1106.29 67.7918L1106.14 71.4507L1094.31 71.6032H1094.29ZM1039.76 31.6192C1039.76 31.1619 1039.4 30.796 1038.94 30.796C1038.48 30.796 1038.11 31.1619 1038.11 31.6192C1038.11 32.0766 1038.48 32.4425 1038.94 32.4425C1039.4 32.4425 1039.76 32.0766 1039.76 31.6192ZM1043.21 39.7298C1042.98 38.744 1041.72 38.6627 1041.2 39.4046C1040.96 39.7604 1041.63 40.421 1042.12 40.6344C1042.48 40.7869 1043.3 40.1466 1043.21 39.7298ZM1042.89 55.2803C1043.16 55.0364 1043.11 54.0911 1042.87 53.8777L1040.8 54.701C1041.18 55.6563 1042.4 55.7072 1042.89 55.2803Z" fill="#F2EDE3"/>
<path d="M1291.87 71.715H1285.28C1284.93 71.4706 1284.39 71.44 1283.82 71.44H1276.31L1272.23 71.4094C1271.94 71.4094 1271.27 71.5622 1271.13 71.715H1267.23L1265.15 71.4705L1263.81 68.2729L1261.68 63.5884L1259.95 59.352L1255.06 59.5455L1250.61 59.3826L1245.31 59.5455L1242.99 59.5659L1238.68 59.4844L1235.51 59.5455L1231.93 59.4844L1227.88 59.5455L1224.64 59.4233C1224.34 60.4009 1223.94 60.8796 1223.59 61.7044L1221.28 67.1934L1219.28 71.4094L1208.92 71.4604L1208.43 71.6946H1192.33C1191.94 71.5316 1191.9 70.7577 1192.2 70.3605C1193.29 68.9246 1193.71 67.4887 1194.37 65.8695L1195.56 62.9468L1196.9 60.1463L1197.89 58.1605L1199.43 54.8508L1200.41 52.417L1202.21 48.3232L1204.92 42.3657L1206.54 38.832L1209.26 32.9764L1211.15 28.4142L1212.84 24.748L1213.93 21.9475L1215.56 18.4546L1218.49 12.3444L1219.88 8.85141L1222.22 3.6272L1223.93 0.419362C1224.15 0.154588 1224.98 -0.0898242 1225.35 0.0323793C1226.01 0.236052 1226.69 0.0323793 1227.36 0.0323793L1236.47 0.0832851L1244.04 0.103672L1247.2 0.164772L1250.62 0.113835L1253.41 0.0120233L1260.77 0.124028L1262.23 3.51519L1264.1 7.59881L1266.69 13.546L1267.74 15.7356L1268.71 17.6806L1269.86 20.6746L1273.25 28.0272C1273.79 29.1983 1274.42 30.1148 1274.77 31.4489L1276.33 34.5956C1276.7 35.339 1276.7 36.2148 1277.06 36.8666L1278.28 39.1375L1280.14 43.1397L1281.72 46.928L1282.69 49.1175L1283.64 51.144L1285.85 55.9914L1287.86 60.3195L1289.27 63.5579L1291.04 67.8961L1292.62 71.3178L1291.87 71.6742V71.715ZM1248.59 15.593C1248.22 14.7172 1247.84 14.3098 1247.35 14.1062C1247.14 14.0145 1246.55 14.1775 1246.49 14.4015C1246.3 15.0838 1247.78 15.9596 1248.6 15.593H1248.59ZM1246.5 38.8015L1249.12 38.7709L1251.29 38.6589L1250.56 37.1008C1250.12 36.1639 1249.78 35.1252 1249.18 34.3105C1248.44 33.3125 1248.15 32.2636 1247.64 31.1637L1246.33 28.3429L1243.96 23.5668L1242.23 20.1552L1240.65 23.5056L1239.63 25.6849L1237.32 29.9824L1235.07 34.7586L1232.89 38.9033L1237.22 38.7811L1242.52 38.8931L1246.5 38.7811V38.8015ZM1261.97 34.3716L1261.43 31.123C1261.35 30.624 1260.26 29.9621 1260.02 30.3287C1259.41 31.347 1260.3 32.3247 1261.22 32.4571L1261.14 34.1068C1261.14 34.2697 1261.77 34.4225 1261.98 34.3716H1261.97ZM1265.25 32.3654C1264.79 31.8562 1264.49 31.4896 1264.31 31.1535C1264.2 30.9601 1263.49 30.7768 1263.48 31.0008L1263.43 31.9377C1263.42 32.2839 1264.05 33.1393 1264.35 32.956L1265.26 32.3654H1265.25ZM1263.55 35.7464C1263.13 35.2779 1262.08 35.3492 1261.8 35.8482C1261.62 36.1741 1261.84 37.0702 1262.07 37.3656C1262.27 37.6202 1263.01 37.9053 1263.29 37.7627C1263.82 37.4979 1263.98 36.2454 1263.55 35.7464ZM1254.34 45.2477C1254.94 45.3088 1255.6 45.2273 1255.78 44.9116C1255.96 44.596 1255.88 43.659 1255.65 43.3943C1255.44 43.16 1254.81 43.099 1254.37 43.1906C1254.03 43.2517 1253.55 43.9137 1253.53 44.2497C1253.51 44.5858 1254.01 45.2273 1254.35 45.2579L1254.34 45.2477ZM1224.21 43.9238C1224.21 43.7202 1223.62 43.1499 1223.45 43.2721L1222.7 43.7914C1222.24 44.1173 1222.18 45.3801 1222.85 45.5227C1223.51 45.6652 1224.24 44.82 1224.22 43.9238H1224.21ZM1225.41 49.5452C1226.15 48.313 1226.32 47.4677 1225.9 46.3068C1225.75 45.8893 1224.75 46.1439 1224.54 46.5105L1223.67 48.1195L1225.41 49.5452ZM1262.33 49.148C1262.8 49.6776 1263.89 49.2295 1264.02 48.7916C1264.16 48.3333 1264.15 47.5899 1263.97 47.2233C1263.8 46.8567 1262.69 46.7141 1262.39 47.0095C1261.95 47.427 1261.89 48.649 1262.34 49.1378L1262.33 49.148ZM1265.31 52.03C1265.73 51.5615 1265.34 50.4108 1264.77 50.2071C1264.02 49.9423 1262.98 50.6654 1263.09 51.4394C1263.2 52.2133 1264.61 52.7938 1265.31 52.0402V52.03ZM1267.83 52.2744L1267.36 53.1807C1267.21 53.4863 1267.52 54.3417 1267.84 54.4435C1268.15 54.5453 1268.84 54.2704 1269.02 53.9853C1269.45 53.2724 1267.97 51.9994 1267.83 52.2744Z" fill="#F2EDE3"/>
<path d="M1166.66 71.6642L1149.2 71.715L1147.42 71.5221L1147.53 65.9201L1147.42 62.8045V58.5015V51.8136L1147.44 48.15L1147.52 41.8172L1147.47 38.8945V34.2464L1147.34 30.9684L1147.28 27.4469L1147.42 23.7629H1142.35L1138.88 23.905H1132.81L1127.81 23.8441L1125.56 23.9253L1116.43 23.8949L1111.86 23.8035L1111.8 20.8097L1111.89 17.7042L1111.83 14L1111.77 11.7064L1111.73 7.29179L1111.9 0.167472C1113.52 0.421187 1115.18 0.0457003 1116.85 0.147186L1119.46 0.309567L1124.39 0.248678L1126.5 0.157314L1130.87 0.299409L1139.06 0.23852C1140.33 0.23852 1141.35 0.0253995 1142.7 0.23852C1143.6 0.390748 1145.16 -0.157277 1146.07 0.0456941L1147.6 0.380584L1153.65 0.116742L1156.12 0.187789L1159.87 0.268964H1162.48L1164.78 0.248678L1170.06 0.218234L1174.82 0.137028L1178.51 0.197917L1184.42 0.350139L1189.3 0.309567L1192.04 0.258806L1194.77 0.309567L1202.88 0.167472L1206.1 0.197917C1206.33 0.197917 1206.85 0.258808 1206.93 0.451631C1207.05 0.796683 1206.88 2.9888 1206.9 5.26208L1206.93 8.98659L1206.85 12.1428V17.5317L1206.91 21.3983L1207 23.8644L1203.5 23.9456L1198.21 23.9151L1192.8 23.8746L1183.71 23.9151L1179.01 23.7832L1173.65 23.9456C1172.94 23.9659 1172.11 23.7122 1171.37 24.108L1171.31 29.9333L1171.29 31.3033C1171.55 32.5719 1171.27 33.5664 1171.29 34.8553L1171.36 37.7071L1171.29 42.1319L1171.27 45.0445L1171.32 54.0361L1171.27 60.0644L1171.29 65.4431L1171.27 68.1934L1171.39 71.5323L1166.66 71.7048V71.6642ZM1152.88 11.3715C1153.43 11.0975 1153.55 10.1841 1153.28 9.92027C1153.05 9.68686 1152.26 9.69699 1152.06 9.971C1151.66 10.5393 1152.35 11.6354 1152.88 11.3614V11.3715ZM1155.35 20.8604C1155.77 19.9674 1154.77 19.2265 1154.14 19.4701C1153.98 19.7644 1153.94 20.3327 1154.1 20.5763C1154.29 20.8604 1155.23 21.1243 1155.35 20.8604ZM1159.99 26.3711C1160.06 25.6303 1159.39 25.204 1158.93 25.1634C1158.53 25.133 1157.6 25.5288 1157.62 25.9449C1157.65 26.4827 1158.32 26.9699 1158.72 27.0714C1159.06 27.1526 1159.94 26.7669 1159.99 26.3711ZM1165.78 28.8981L1165.75 26.2899C1164.86 26.4624 1164.29 26.7872 1163.96 27.3555C1163.66 27.8832 1163.57 28.9691 1163.91 29.3852C1164.38 29.9536 1165.79 29.5273 1165.79 28.8981H1165.78Z" fill="#F2EDE3"/>
<path d="M1368.39 71.6135L1367.91 71.715L1367.45 71.4715H1359.67L1359.21 71.715H1358.48L1358.21 71.4816L1339.15 71.4512L1338.66 71.715H1335.28C1335.42 71.644 1334.86 71.4715 1334.73 71.4715H1328.09C1327.97 71.4715 1327.4 71.6541 1327.54 71.715H1316.18C1316.05 71.5628 1315.33 71.4005 1315.02 71.4106L1310.93 71.4918C1310.78 71.4918 1310.26 71.6338 1310.38 71.715L1308.66 71.5831L1295.98 71.4614L1295.96 69.0269L1295.94 65.8723V60.6889L1295.91 57.0474L1295.84 53.6696L1296 50.4946L1296.02 36.8921L1295.96 33.1999V29.2033L1295.94 21.8492L1295.97 18.1063L1296.02 11.6245L1295.99 8.93647L1295.97 4.5139L1295.93 0L1301.88 0.19273H1308.46L1319.31 0.233313L1319.44 2.56632L1319.49 5.00077L1319.45 14.0793L1319.43 21.9506L1319.41 24.4967L1319.43 28.3107L1319.54 33.7071L1319.43 39.0121L1319.41 41.7407V45.7779L1319.47 47.837H1325.7L1327.7 47.7762L1332.15 47.8776L1340.12 47.8269H1343.75L1347.88 47.8066L1354.42 47.766L1359.69 47.8269H1365.5L1370.76 47.7964L1370.68 52.219L1370.7 56.7938L1370.65 65.1216L1370.69 68.9965L1370.72 71.4208L1368.37 71.5932L1368.39 71.6135ZM1311.92 55.4244C1312.93 55.5968 1313.24 54.7448 1313.15 54.0347C1313.09 53.5478 1312.2 53.0812 1311.52 53.2435C1311.2 53.3145 1311.01 54.1362 1311.07 54.481C1311.13 54.7752 1311.59 55.3635 1311.93 55.4244H1311.92Z" fill="#F2EDE3"/>
</svg>
