<svg width="96" height="24" viewBox="0 0 96 24" fill="none" xmlns="http://www.w3.org/2000/svg">
<g clip-path="url(#clip0_1041_4916)">
<mask id="mask0_1041_4916" style="mask-type:luminance" maskUnits="userSpaceOnUse" x="0" y="0" width="96" height="24">
<path d="M95.7805 0H0V23.1558H95.7805V0Z" fill="white"/>
</mask>
<g mask="url(#mask0_1041_4916)">
<path d="M8.252 18.2969L12.3475 15.6234H7.80538C7.7567 15.6239 7.70952 15.6068 7.67247 15.5753C7.63542 15.5437 7.61106 15.4998 7.60383 15.4517L6.87977 11.1289L4.79718 15.4529C4.77447 15.5008 4.73947 15.5418 4.69577 15.5717C4.65206 15.6017 4.6012 15.6195 4.54837 15.6234H0L3.25452 18.2957C3.29144 18.3282 3.31614 18.3723 3.32452 18.4208C3.33289 18.4692 3.32444 18.5191 3.30055 18.5621L1.21796 22.8922L5.30976 20.22C5.3514 20.1911 5.40089 20.1755 5.45159 20.1755C5.50225 20.1755 5.55174 20.1911 5.59337 20.22L8.84792 22.8922L8.12387 18.5608C8.11668 18.5095 8.12464 18.4572 8.14673 18.4103C8.16883 18.3634 8.20414 18.324 8.24828 18.2969" fill="#D9126F"/>
<path d="M8.252 18.2969L12.3475 15.6234H7.80538C7.7567 15.6239 7.70952 15.6068 7.67247 15.5753C7.63542 15.5437 7.61106 15.4998 7.60383 15.4517L6.87977 11.1289L4.79718 15.4529C4.77447 15.5008 4.73947 15.5418 4.69577 15.5717C4.65206 15.6017 4.6012 15.6195 4.54837 15.6234H0L3.25452 18.2957C3.29144 18.3282 3.31614 18.3723 3.32452 18.4208C3.33289 18.4692 3.32444 18.5191 3.30055 18.5621L1.21796 22.8922L5.30976 20.22C5.3514 20.1911 5.40089 20.1755 5.45159 20.1755C5.50225 20.1755 5.55174 20.1911 5.59337 20.22L8.84792 22.8922L8.12387 18.5608C8.11668 18.5095 8.12464 18.4572 8.14673 18.4103C8.16883 18.3634 8.20414 18.324 8.24828 18.2969" fill="#D9126F"/>
<path d="M8.4375 6.1638L10.0834 1.91699H11.1359L21.0612 22.8896H16.8164L8.4375 6.1638Z" fill="#D9126F"/>
<path d="M34.3949 8.5498V22.6905L31.5336 23.0564V8.98291L34.3949 8.5498ZM22.0586 18.8967V8.98291L24.92 8.5498V18.6602C24.92 20.5272 25.7846 21.4881 27.7814 21.4881C28.8451 21.4881 30.5084 20.7164 31.5398 20.0853V20.3915C30.6689 21.6225 28.4296 23.1186 26.2188 23.1186C23.4246 23.1186 22.0624 21.4222 22.0624 18.893" fill="#0F0912"/>
<path d="M43.5843 8.61684C45.2016 8.61684 46.0028 8.89563 46.9495 9.09853L46.9433 0.399538L49.8048 0V22.7899L46.9433 23.0562V10.0619C46.4929 9.61254 45.6258 8.88318 43.5843 8.88318C41.0414 8.88318 39.1616 11.6438 39.1616 15.404C39.1616 19.662 41.0277 21.692 43.5843 21.692C45.4778 21.692 46.417 20.5718 46.9495 20.0678V20.3341C46.417 21.3647 45.1245 23.1558 42.1884 23.1558C38.6291 23.1558 36.2031 20.527 36.2031 16.1022C36.2031 11.6115 39.8943 8.78361 43.5855 8.61684" fill="#0F0912"/>
<path d="M55.2284 8.65033V22.8918H52.3744V9.08219L55.2284 8.65033ZM52.168 4.55785C52.168 3.59323 52.9008 2.96094 53.7976 2.96094C54.6944 2.96094 55.4271 3.59323 55.4271 4.55785C55.4271 5.52247 54.6958 6.15477 53.7976 6.15477C52.8993 6.15477 52.168 5.52247 52.168 4.55785Z" fill="#0F0912"/>
<path d="M78.1993 10.2473C76.3618 10.2473 75.3439 11.0787 74.4746 11.7409V11.5081C75.3193 10.2311 76.7139 8.61426 79.895 8.61426C82.5559 8.61426 83.952 10.2448 83.952 12.7727V22.8918H81.0595V13.0752C81.0595 11.2081 80.1945 10.2473 78.1978 10.2473H78.1993ZM74.4731 8.61677V22.8918H71.582V8.98268L74.4731 8.61677Z" fill="#0F0912"/>
<path d="M90.6262 8.88307V8.61673C92.8183 8.46983 93.9519 8.84949 94.8164 9.11458V11.0774C93.8521 10.0456 93.0088 8.67771 90.6262 8.88181V8.88307ZM86.2719 22.6217V20.3938C87.5026 21.5924 88.7602 22.8831 90.9272 22.8831V23.1494C87.9092 23.1494 87.3033 22.8831 86.2719 22.6167V22.6217ZM93.6857 20.0291C93.6857 18.5989 92.7536 18.0376 91.4236 17.4016L89.2629 16.4059C87.7698 15.8072 86.2695 14.6758 86.2695 12.6457C86.2695 10.5173 88.1355 8.88683 90.6238 8.62044V8.88683C89.4592 9.11955 88.3955 9.78421 88.3955 11.0824C88.3955 12.3134 89.0275 12.9793 90.2243 13.5108L92.8207 14.677C94.8116 15.5744 95.7808 16.7394 95.7808 18.6027C95.7808 21.2638 93.5858 22.9939 90.9287 23.1606V22.8918C92.1926 22.725 93.6895 21.794 93.6895 20.0291" fill="#0F0912"/>
<path d="M66.8527 13.7398C66.8527 11.0451 66.0538 9.14954 64.7243 8.91552V8.65039C68.0496 8.91552 69.5127 11.3451 69.5127 14.3759H59.9754V14.0771L66.8527 13.7398ZM57.2734 15.6703C57.2734 11.5779 60.5649 8.91552 63.5906 8.65039V8.91552C61.1969 9.54782 60.1993 11.9774 60.1993 14.7717C60.1993 19.0297 62.4275 20.9601 65.3201 20.9601C67.216 20.9601 68.6791 20.3278 69.643 19.4292V19.7952C69.1239 20.8188 68.3284 21.6762 67.3467 22.2702C66.3655 22.8643 65.2366 23.171 64.0894 23.1557C59.8336 23.1557 57.2734 20.0615 57.2734 15.6703Z" fill="#0F0912"/>
<path d="M57.2734 15.6732C57.2734 11.9591 60.0512 8.63086 64.1444 8.63086C68.0148 8.63086 69.5098 11.348 69.5098 14.375L66.8503 13.7427C66.8503 10.8488 66.1151 8.87356 64.1444 8.87356C62.1738 8.87356 60.1993 10.8812 60.1993 14.7721" fill="#0F0912"/>
</g>
</g>
<defs>
<clipPath id="clip0_1041_4916">
<rect width="96" height="23.1558" fill="white"/>
</clipPath>
</defs>
</svg>
