<svg width="96" height="62" viewBox="0 0 96 62" fill="none" xmlns="http://www.w3.org/2000/svg">
<path d="M79.2029 6.0954L66.9049 45.5844C66.7058 46.2255 65.8167 46.2449 65.5898 45.6137L54.9445 15.9998C54.3334 14.2981 53.1073 12.8944 51.5138 12.0723C49.9202 11.2502 48.0778 11.0708 46.3587 11.5704C44.8841 11.9986 43.587 12.901 42.6637 14.1414C41.7405 15.3819 41.241 16.8928 41.241 18.4461V40.2781C41.241 40.9381 40.3785 41.1719 40.0526 40.6005L28.9419 21.1109C28.3153 20.0118 27.3434 19.1565 26.1811 18.6813C25.0188 18.2062 23.7328 18.1384 22.5281 18.4888C21.3561 18.8292 20.3253 19.5464 19.5916 20.5323C18.8579 21.5181 18.4609 22.719 18.4609 23.9534V42.1653H23.9972V26.8474C23.9972 26.1875 24.8598 25.9536 25.1856 26.5249L35.8987 45.3118C36.7389 46.7848 38.1111 47.8701 39.7262 48.3389C43.8685 49.5415 47.9958 46.3932 47.9958 42.0299V21.7199C47.9958 20.999 48.9868 20.822 49.2305 21.4995L59.7728 50.8238C60.1875 51.977 60.8658 53.0145 61.7524 53.8515C62.6389 54.6885 63.7085 55.3011 64.8738 55.6395C66.7986 56.1983 68.8631 55.9741 70.627 55.0144C72.3911 54.0548 73.7152 52.4357 74.3173 50.5021L85.5664 14.3824C85.7852 13.679 86.8103 13.839 86.8103 14.5764V62.0059H96.001V8.71042C96.001 2.92361 90.5273 -1.25267 85.0333 0.342596C83.6677 0.739262 82.4204 1.47229 81.403 2.47617C80.3856 3.48005 79.6298 4.72351 79.2029 6.0954Z" fill="#D19031"/>
<path d="M10.8375 23.9581C12.9584 25.0319 14.1579 26.8527 14.6186 29.187H9.6844C9.47916 28.7119 9.14291 28.3068 8.71596 28.0202C8.29302 27.7354 7.794 27.5887 7.28616 27.6C6.50239 27.6 5.90268 27.9264 5.4419 28.4867C4.97881 29.0939 4.74727 29.8874 4.74727 30.9148C4.74727 31.9421 4.97881 32.7357 5.4419 33.3429C5.90499 33.9032 6.50239 34.2296 7.28616 34.2296C7.794 34.2409 8.29302 34.0942 8.71596 33.8094C9.14265 33.5233 9.47888 33.1188 9.6844 32.6442H14.6186C14.3871 33.858 13.9732 34.8854 13.3278 35.7721C11.99 37.593 10.0531 38.5734 7.37878 38.5734C2.58231 38.5717 0 35.2101 0 30.9148C0 26.3394 2.85901 23.2578 7.37878 23.2578C8.66964 23.2578 9.82255 23.4913 10.8375 23.9581Z" fill="#D19031"/>
</svg>
