<svg width="1716" height="1475" viewBox="0 0 1716 1475" fill="none" xmlns="http://www.w3.org/2000/svg">
<path d="M1623.5 624.872C1445.75 396.975 1168.56 250.422 857.151 250.422C805.623 250.422 755.035 254.434 705.675 262.168C693.179 264.128 680.765 266.324 668.441 268.745L719.787 380.322L728.426 399.097C740.849 397.155 753.363 395.502 765.958 394.119C795.91 390.839 826.332 389.159 857.151 389.159C1146.98 389.159 1402.06 537.889 1550.24 763.193C1443.43 925.575 1281.1 1048.18 1090.24 1104C1079.24 1107.21 1068.14 1110.21 1056.95 1112.98C1016.27 1123.05 974.403 1130.11 931.594 1133.92L995.328 1273.43C1037.44 1267.44 1078.68 1258.74 1118.86 1247.52C1129.78 1244.48 1140.62 1241.25 1151.38 1237.83C1341.39 1177.51 1506.08 1060.32 1625.43 906.249C1659.28 862.581 1689.46 815.95 1715.57 766.807C1688.97 716.733 1658.12 669.262 1623.5 624.872ZM0 764.44H2.68368L1.44574 761.747C0.957829 762.642 0.478871 763.545 0 764.44Z" fill="black"/>
<path d="M728.425 399.098C687.432 405.486 647.442 414.874 608.671 427.045C594.206 431.58 579.912 436.513 565.799 441.808C551.008 447.365 536.407 453.328 522.023 459.698C515.056 462.779 508.136 465.96 501.269 469.23C457.818 489.912 416.454 514.262 377.575 541.901C371.241 546.392 364.972 550.991 358.764 555.662C351.726 560.957 344.777 566.369 337.92 571.889C329.697 578.494 321.611 585.261 313.65 592.173C307.787 597.269 301.995 602.447 296.276 607.706C266.387 635.182 238.522 664.817 212.934 696.378C205.715 705.286 198.677 714.34 191.828 723.547C186.48 730.712 181.257 737.967 176.161 745.313L222.738 846.517L351.219 1125.72L356.325 1136.81C250.458 1074.46 157.449 992.6 82.2481 896.175C62.8222 871.265 44.5798 845.388 27.6115 818.616L2.68325 764.44L1.44531 761.748C27.4218 713.527 57.3466 667.772 90.8043 624.881C95.3129 619.099 99.8847 613.38 104.511 607.706C106.282 605.537 108.062 603.377 109.851 601.227C115.326 594.64 120.892 588.126 126.539 581.684C165.057 537.745 207.477 497.312 253.259 460.936C268.257 449 283.618 437.517 299.321 426.494C344.561 394.689 392.637 366.653 443.108 342.854C464.188 332.897 485.683 323.681 507.566 315.251C521.733 309.767 536.064 304.626 550.547 299.81C588.839 287.079 628.197 276.67 668.44 268.746L719.787 380.323L725.57 392.9L728.425 399.098Z" fill="black"/>
<path d="M668.438 268.746C628.195 276.67 588.837 287.079 550.545 299.809C536.062 304.625 521.732 309.766 507.564 315.251L491.933 281.287L393.955 68.3881L544.762 0L656.024 241.766L668.438 268.746Z" fill="black"/>
<path d="M1191.67 1405.74L1040.87 1474.13L962.412 1303.63L895 1157.13L565.799 441.809C579.912 436.515 594.206 431.582 608.671 427.046C647.442 414.875 687.432 405.488 728.425 399.1L1056.95 1112.98L1062.81 1125.72L1118.86 1247.52L1127.48 1266.25L1191.67 1405.74Z" fill="black"/>
<path d="M894.709 1269.55C879.431 1270.26 864.053 1270.62 848.593 1270.62C800.95 1270.62 754.111 1267.19 708.302 1260.56L653.937 1142.43L636.481 1104.49L377.574 541.901L377.141 540.961C421.395 507.603 469.111 478.581 519.645 454.529L522.021 459.698L821.758 1111.02L831.282 1131.71L886.424 1251.55L894.709 1269.55Z" fill="black"/>
<path d="M634.042 1246.06C563.251 1230.41 495.468 1206.02 431.724 1174L408.286 1119.77L332.643 944.757L223.452 692.104L220.885 686.186C237.582 662.296 255.463 639.401 274.437 617.59L274.455 617.572C288.695 601.2 303.549 585.442 318.981 570.344C324.348 565.086 329.787 559.908 335.299 554.812L336.988 558.716L340.828 567.615L562.772 1081.13L565.898 1088.36L626.633 1228.89L634.051 1246.06H634.042Z" fill="black"/>
<path d="M890.066 1054.95C1049.39 1054.95 1178.55 925.797 1178.55 766.475C1178.55 607.152 1049.39 477.996 890.066 477.996C730.744 477.996 601.588 607.152 601.588 766.475C601.588 925.797 730.744 1054.95 890.066 1054.95Z" fill="black"/>
</svg>
