<svg width="1529" height="1623" viewBox="0 0 1529 1623" fill="none" xmlns="http://www.w3.org/2000/svg">
<path d="M1528.78 114.165L1417.2 0L1124.98 285.614L1236.56 399.779L1528.78 114.165Z" fill="black"/>
<path d="M1262.52 379.327C1186.15 218.417 1022.18 107.172 832.226 107.172C569.298 107.172 356.156 320.306 356.156 583.233C356.156 585.542 356.173 587.842 356.208 590.143H482.994C482.95 587.842 482.924 585.542 482.924 583.233C482.924 390.318 639.311 233.931 832.226 233.931C1025.14 233.931 1173.21 382.137 1181.19 567.97C1181.42 573.029 1181.53 578.122 1181.53 583.242C1181.53 613.267 1177.74 642.401 1170.61 670.204C1169.9 673.015 1169.34 675.004 1168.74 677.226C1162.37 700.316 1152.37 730.696 1136 766.999C1045.32 971.105 954.636 1175.21 863.955 1379.32L863.203 1378.69C849.142 1412.1 825.706 1440.6 796.199 1460.91C765.889 1481.77 729.162 1493.98 689.581 1493.98C607.452 1493.98 537.596 1441.39 511.86 1368.05H380.318C408.553 1513.08 536.281 1622.56 689.581 1622.56C702.405 1622.56 715.049 1621.79 727.475 1620.3C743.042 1618.44 758.253 1615.44 773.04 1611.39C859.043 1587.83 930.353 1528.75 970.228 1450.89C970.237 1450.88 970.245 1450.86 970.254 1450.85L986.616 1412.89C1070.4 1222.18 1154.18 1031.47 1237.96 840.756C1255.86 808.284 1308.92 705.133 1308.3 583.259C1307.92 511.102 1294.01 445.664 1262.53 379.353L1262.52 379.327Z" fill="black"/>
<path d="M1106.86 630.415C1106.86 654.464 1104.17 677.882 1099.06 700.375H965.913C975.037 678.263 980.07 654.031 980.07 628.624C980.07 524.626 895.762 440.318 791.764 440.318C768.908 440.318 747.012 444.392 726.75 451.855V322.042C747.721 317.623 769.479 315.314 791.764 315.314C965.792 315.314 1106.86 456.395 1106.86 630.415Z" fill="black"/>
<path d="M859.201 768.6L747.617 654.436L0.000591541 1385.15L111.584 1499.32L859.201 768.6Z" fill="black"/>
</svg>
