<svg width="1635" height="1357" viewBox="0 0 1635 1357" fill="none" xmlns="http://www.w3.org/2000/svg">
<g clip-path="url(#clip0_948_9)">
<path d="M1185.45 346.34L648.369 68.6C703.129 25.05 767.299 0 835.879 0C1001.62 0 1141.48 146.26 1185.45 346.34Z" fill="#1D1D1B"/>
<path d="M1203.15 590.181L623.9 247.951L645.28 181.311L1209.93 542.521L1203.15 590.181Z" fill="#1D1D1B"/>
<path d="M1221.64 492.169L631.82 146.999L646.48 101.369L1237.74 445.769L1221.64 492.169Z" fill="#1D1D1B"/>
<path d="M474.82 436.919C474.91 443.819 473.09 450.649 469.39 456.469C458.61 473.499 440.93 485.379 419.86 494.899C343.78 529.309 223.44 533.039 223.44 637.479C223.44 638.439 223.44 639.409 223.47 640.389L419.81 560.219C420.41 559.969 421.01 559.839 421.61 559.809C424.91 559.579 427.91 562.319 427.66 565.889V565.909C427.19 572.839 425.95 579.629 424.01 586.179C422.29 592.009 420 597.649 417.2 603.009C411.25 614.399 402.95 624.559 392.71 632.769L219.91 803.029L180 1295.15H0L85.77 823.359C53.66 682.299 59.37 555.469 160.44 464.489C172.24 453.869 187.21 447.409 203.03 446.069L424.74 423.479L451.26 420.779C453.74 420.729 455.95 420.689 457.93 420.689C473.03 420.689 474.53 422.819 474.82 436.919Z" fill="#1D1D1B"/>
<path d="M1133.73 673.421L494.74 264.651L501.75 215.351L502.41 210.721L1157.94 598.011L1147.57 630.301L1133.73 673.421Z" fill="#1D1D1B"/>
<path d="M494.77 513.94C494.75 511.97 494.74 509.99 494.74 508.01C494.74 506.03 494.75 503.92 494.77 501.88V501.64C494.79 500.03 494.81 498.43 494.84 496.82V496.74C494.85 495.94 494.87 495.13 494.89 494.33C494.91 493.2 494.94 492.06 494.97 490.93C494.97 490.42 494.99 489.91 495.01 489.39C495.03 488.62 495.05 487.84 495.09 487.06C495.12 485.7 495.17 484.33 495.23 482.97C495.31 480.9 495.4 478.83 495.5 476.77C495.59 474.85 495.69 472.94 495.81 471.03C495.83 470.59 495.85 470.14 495.89 469.69C495.99 467.93 496.1 466.17 496.22 464.42C496.32 462.94 496.42 461.46 496.54 459.99C496.59 459.26 496.65 458.53 496.71 457.79C496.84 456.1 496.98 454.41 497.12 452.72C497.16 452.26 497.2 451.8 497.25 451.34C497.4 449.58 497.57 447.81 497.74 446.06C497.93 444.08 498.13 442.11 498.34 440.14C498.35 440.06 498.36 439.98 498.37 439.9C498.56 438.16 498.75 436.43 498.95 434.69C498.98 434.43 499.01 434.18 499.04 433.93C499.26 432.07 499.48 430.21 499.72 428.35C499.99 426.2 500.27 424.05 500.57 421.91C500.84 419.92 501.12 417.92 501.42 415.94C501.7 413.98 502 412.03 502.31 410.08C502.31 409.99 502.33 409.9 502.35 409.8C502.65 407.89 502.96 405.98 503.28 404.07C503.55 402.47 503.82 400.87 504.1 399.28C504.51 396.95 504.93 394.63 505.36 392.31C506.09 388.41 506.86 384.53 507.66 380.67C508.06 378.74 508.47 376.81 508.89 374.89C509.73 371.05 510.6 367.22 511.51 363.42C512.02 361.26 512.55 359.11 513.09 356.97C513.44 355.55 513.8 354.13 514.18 352.72C514.72 350.62 515.27 348.53 515.83 346.45C516.84 342.71 517.89 338.99 518.97 335.3C519.51 333.45 520.06 331.61 520.61 329.77C521.72 326.1 522.87 322.45 524.05 318.82L1177.92 738.94C1177.18 740.72 1176.43 742.49 1175.67 744.26C1175.62 744.38 1175.57 744.51 1175.51 744.63C1174.84 746.2 1174.16 747.76 1173.48 749.32C1172.57 751.37 1171.65 753.42 1170.73 755.45C1169.95 757.16 1169.16 758.86 1168.36 760.56C1168.28 760.75 1168.19 760.93 1168.1 761.12C1167.37 762.68 1166.63 764.23 1165.88 765.78C1165.77 766 1165.67 766.22 1165.56 766.43C1164.79 768.04 1164 769.64 1163.21 771.24C1162.15 773.36 1161.09 775.46 1160.01 777.56C1159.26 779.03 1158.5 780.49 1157.73 781.94C1157.6 782.2 1157.46 782.46 1157.32 782.72C1156.57 784.15 1155.81 785.57 1155.05 786.98C1154.96 787.13 1154.88 787.27 1154.81 787.42C1153.01 790.73 1151.18 794.02 1149.32 797.26C1148.36 798.94 1147.39 800.61 1146.42 802.27C1144.35 805.78 1142.25 809.26 1140.12 812.69C1139.23 814.13 1138.33 815.55 1137.42 816.97C1135.37 820.19 1133.3 823.37 1131.19 826.51C1130.19 828.01 1129.17 829.5 1128.15 830.98C1127.91 831.33 1127.66 831.69 1127.42 832.04C1126.54 833.31 1125.66 834.57 1124.77 835.83C1123.94 837.01 1123.1 838.18 1122.25 839.35C1121.2 840.81 1120.14 842.26 1119.07 843.7C1118.57 844.39 1118.06 845.07 1117.55 845.75C1116.55 847.09 1115.54 848.42 1114.52 849.74C1113.49 851.09 1112.45 852.44 1111.4 853.77C1110.46 854.98 1109.51 856.17 1108.56 857.36C1108.26 857.73 1107.96 858.1 1107.66 858.47C1106.6 859.79 1105.53 861.1 1104.45 862.4C1104.36 862.51 1104.27 862.62 1104.18 862.73C1103.13 864 1102.08 865.25 1101.02 866.5C1100.95 866.58 1100.89 866.65 1100.82 866.73C1099.72 868.03 1098.6 869.33 1097.49 870.61C1097.43 870.67 1097.39 870.73 1097.34 870.78C1096.14 872.16 1094.93 873.53 1093.72 874.88C1091.3 877.6 1088.84 880.27 1086.35 882.9C1085.11 884.21 1083.86 885.52 1082.61 886.81C1081.39 888.07 1080.16 889.32 1078.93 890.56L1078.83 890.66C1077.87 891.62 1076.92 892.57 1075.95 893.52C1074.99 894.46 1074.03 895.4 1073.07 896.33C1071.12 898.21 1069.16 900.05 1067.19 901.88C1066.26 902.74 1065.32 903.61 1064.37 904.47C1064.32 904.5 1064.28 904.55 1064.23 904.59C1063.24 905.49 1062.24 906.38 1061.25 907.26C1060.2 908.19 1059.15 909.11 1058.1 910.02C1057.14 910.85 1056.18 911.67 1055.21 912.49C1054.2 913.35 1053.19 914.2 1052.17 915.05C1051.21 915.85 1050.25 916.64 1049.28 917.43C1049.22 917.47 1049.16 917.52 1049.1 917.57C1048.07 918.41 1047.04 919.23 1046.01 920.05C1045.08 920.79 1044.14 921.53 1043.2 922.26C1042.98 922.43 1042.77 922.59 1042.56 922.75C1041.63 923.47 1040.71 924.18 1039.78 924.89C1038.73 925.68 1037.68 926.47 1036.63 927.25C1036.52 927.33 1036.42 927.41 1036.31 927.49C1035.37 928.19 1034.42 928.88 1033.46 929.57C1032.4 930.34 1031.34 931.1 1030.28 931.85C1029.21 932.6 1028.15 933.35 1027.07 934.09C1026 934.83 1024.93 935.56 1023.85 936.29C1022.77 937.01 1021.69 937.73 1020.61 938.44C1019.46 939.2 1018.3 939.95 1017.15 940.69C1016.12 941.34 1015.1 941.99 1014.07 942.63C1012.97 943.32 1011.87 943.99 1010.77 944.66C1009.67 945.33 1008.57 946 1007.46 946.65C1006.46 947.24 1005.46 947.83 1004.46 948.4C1003.23 949.12 1002.01 949.81 1000.78 950.5C999.66 951.13 998.53 951.75 997.41 952.36C996.43 952.89 995.45 953.42 994.47 953.94C992.06 955.23 989.64 956.47 987.21 957.68C984.92 958.82 982.63 959.93 980.33 961C979.17 961.54 978.02 962.08 976.86 962.6C975.7 963.12 974.54 963.64 973.38 964.15C972.22 964.66 971.05 965.16 969.88 965.66C969.81 965.69 969.74 965.72 969.67 965.75C968.57 966.21 967.47 966.67 966.37 967.12C965.2 967.6 964.02 968.07 962.84 968.53C961.66 969 960.48 969.45 959.3 969.9C958.12 970.35 956.93 970.79 955.74 971.22C954.55 971.66 953.36 972.08 952.17 972.5C951.11 972.87 950.06 973.23 949 973.59C948.77 973.67 948.54 973.75 948.3 973.82C947.21 974.19 946.12 974.55 945.03 974.89C944.98 974.91 944.94 974.93 944.89 974.94C943.88 975.27 942.86 975.59 941.85 975.9C941.59 975.98 941.33 976.06 941.08 976.14C939.96 976.48 938.85 976.81 937.74 977.13C935.47 977.8 933.19 978.43 930.9 979.04C929.82 979.33 928.74 979.61 927.65 979.88C926.88 980.08 926.12 980.27 925.35 980.45C924.46 980.68 923.56 980.89 922.67 981.1C921.91 981.28 921.16 981.45 920.4 981.62C919.82 981.75 919.24 981.88 918.65 982.01C916.6 982.46 914.55 982.88 912.48 983.29C911.27 983.52 910.06 983.75 908.84 983.98C908.25 984.08 907.66 984.19 907.07 984.29C906.06 984.47 905.04 984.64 904.02 984.81C903.05 984.97 902.08 985.12 901.11 985.27C900.96 985.29 900.8 985.32 900.64 985.34C898.35 985.69 896.05 986.01 893.74 986.3C893.38 986.35 893.01 986.39 892.64 986.43C891.58 986.57 890.52 986.69 889.45 986.8C888.58 986.9 887.7 987 886.81 987.08C886.05 987.16 885.29 987.24 884.53 987.3C884.27 987.33 884 987.36 883.73 987.38C882.85 987.46 881.98 987.53 881.1 987.6C878.98 987.77 876.86 987.92 874.73 988.04C874.14 988.08 873.55 988.11 872.95 988.13C872.16 988.18 871.36 988.22 870.57 988.25C869.18 988.31 867.78 988.36 866.38 988.39C865.11 988.43 863.85 988.46 862.58 988.47C861.29 988.49 859.99 988.5 858.69 988.5C857.32 988.5 855.95 988.5 854.58 988.47C853.89 988.46 853.21 988.45 852.53 988.42C851.69 988.41 850.84 988.39 850 988.36C849.49 988.35 848.97 988.33 848.46 988.31C847.51 988.28 846.56 988.24 845.62 988.19C845.13 988.17 844.64 988.15 844.15 988.12C842.75 988.05 841.36 987.97 839.96 987.87C838.57 987.78 837.19 987.68 835.8 987.56C835.18 987.51 834.56 987.46 833.95 987.4C833.02 987.32 832.09 987.24 831.16 987.14C830.4 987.07 829.64 986.99 828.88 986.9C828.45 986.87 828.03 986.82 827.62 986.77C826.71 986.67 825.8 986.57 824.9 986.45C824.28 986.38 823.67 986.3 823.06 986.22C822.19 986.12 821.33 986 820.47 985.88C817.45 985.47 814.45 985 811.46 984.49C810.38 984.31 809.3 984.12 808.23 983.92C807.81 983.84 807.4 983.77 807 983.69C806 983.5 805 983.31 804.01 983.1C800.3 982.38 796.62 981.57 792.96 980.68C791.96 980.44 790.96 980.2 789.96 979.94C788.86 979.67 787.76 979.38 786.66 979.08C785.68 978.83 784.7 978.57 783.73 978.29C783.32 978.19 782.92 978.07 782.53 977.95C781.71 977.73 780.9 977.5 780.08 977.26C774.94 975.77 769.84 974.13 764.79 972.35C763.75 971.99 762.71 971.62 761.68 971.24C760.06 970.65 758.45 970.05 756.84 969.42C756.07 969.13 755.3 968.83 754.54 968.53C753.36 968.07 752.18 967.6 751.01 967.12C750.13 966.76 749.26 966.4 748.39 966.03C747.98 965.87 747.57 965.69 747.17 965.52C746.34 965.17 745.52 964.81 744.7 964.45C744.21 964.25 743.72 964.04 743.24 963.81C742.54 963.51 741.84 963.2 741.15 962.88C737.42 961.21 733.73 959.46 730.06 957.62C729.32 957.25 728.58 956.88 727.84 956.5C726.73 955.95 725.63 955.38 724.53 954.79C723.77 954.4 723.02 954 722.27 953.6C721.58 953.23 720.89 952.86 720.2 952.48C716.74 950.61 713.32 948.67 709.92 946.65C708.9 946.05 707.89 945.44 706.88 944.83C706.72 944.73 706.56 944.64 706.39 944.53C705.36 943.91 704.33 943.27 703.31 942.63C702.26 941.98 701.22 941.32 700.19 940.66C699.92 940.49 699.66 940.32 699.4 940.15C698.52 939.59 697.64 939.02 696.77 938.44C695.68 937.73 694.6 937.01 693.53 936.29C692.81 935.81 692.11 935.33 691.4 934.84C689.75 933.71 688.11 932.57 686.48 931.41C685.81 930.94 685.15 930.46 684.49 929.99C683.61 929.35 682.73 928.71 681.86 928.06C678.97 925.95 676.11 923.78 673.28 921.55C672.38 920.86 671.49 920.15 670.6 919.43C669.99 918.95 669.37 918.45 668.76 917.96C668.44 917.7 668.13 917.45 667.82 917.19C667.04 916.56 666.26 915.92 665.48 915.27C662.29 912.63 659.13 909.92 656 907.15C655.11 906.35 654.22 905.55 653.33 904.75C653.23 904.67 653.14 904.58 653.05 904.5C652.09 903.63 651.14 902.76 650.19 901.88C649.23 901 648.28 900.11 647.33 899.21C647.22 899.11 647.11 899.01 647 898.9C644.15 896.21 641.34 893.46 638.55 890.66C634.45 886.55 630.42 882.32 626.47 877.99C625.29 876.69 624.11 875.39 622.94 874.08C622.65 873.74 622.35 873.41 622.05 873.07C620.91 871.78 619.77 870.48 618.65 869.17C617.36 867.68 616.08 866.18 614.81 864.66C613.54 863.14 612.27 861.62 611.02 860.08C609.55 858.28 608.1 856.47 606.66 854.64C605.63 853.34 604.61 852.02 603.59 850.7C602.46 849.24 601.34 847.77 600.23 846.29C600.02 846.01 599.81 845.73 599.6 845.45C598.64 844.16 597.68 842.87 596.74 841.57C596.51 841.27 596.29 840.96 596.06 840.65C594.98 839.16 593.9 837.65 592.82 836.14C591.65 834.49 590.49 832.82 589.34 831.15C589.32 831.13 589.31 831.1 589.29 831.08C588.17 829.46 587.06 827.82 585.96 826.18C585.9 826.08 585.83 825.99 585.77 825.89C584.69 824.27 583.62 822.65 582.55 821.01C582.53 820.99 582.52 820.96 582.5 820.93C581.39 819.23 580.3 817.52 579.21 815.8C578.18 814.17 577.15 812.53 576.14 810.88C576.03 810.72 575.93 810.55 575.83 810.38C574.79 808.68 573.75 806.98 572.73 805.26C571.7 803.55 570.69 801.83 569.68 800.1C569.65 800.03 569.61 799.96 569.57 799.9C568.53 798.1 567.49 796.29 566.47 794.47C565.53 792.8 564.59 791.12 563.67 789.43C563.48 789.08 563.29 788.74 563.1 788.39C562.25 786.84 561.41 785.28 560.58 783.72C560.49 783.54 560.39 783.36 560.3 783.19C559.36 781.42 558.43 779.64 557.51 777.85C555.58 774.09 553.68 770.3 551.83 766.48C550.93 764.61 550.03 762.74 549.15 760.86C549.07 760.69 548.99 760.53 548.92 760.36C548.16 758.75 547.42 757.14 546.68 755.52C546.46 755.04 546.24 754.56 546.03 754.08C545.44 752.79 544.86 751.49 544.29 750.19C543.99 749.54 543.71 748.89 543.43 748.24C542.67 746.53 541.93 744.81 541.2 743.08C540.35 741.1 539.51 739.1 538.69 737.1C538.69 737.08 538.67 737.06 538.66 737.04C537.85 735.06 537.04 733.06 536.25 731.06C535.47 729.11 534.71 727.16 533.95 725.19C533.92 725.12 533.9 725.05 533.87 724.98C533.43 723.84 533 722.7 532.57 721.56C531.46 718.61 530.37 715.64 529.31 712.66C528.94 711.62 528.57 710.59 528.21 709.55C527.76 708.28 527.32 707.02 526.89 705.75C526.28 703.98 525.68 702.2 525.09 700.41C523.89 696.79 522.73 693.15 521.59 689.49C521.21 688.24 520.83 687 520.45 685.75C519.98 684.18 519.51 682.6 519.05 681.02C518.81 680.2 518.57 679.38 518.33 678.56C517.97 677.32 517.62 676.08 517.28 674.83C517.25 674.74 517.22 674.65 517.2 674.56C516.93 673.59 516.66 672.62 516.39 671.65C515.93 669.98 515.48 668.3 515.04 666.62C514.66 665.2 514.29 663.78 513.92 662.35C513.85 662.07 513.78 661.78 513.7 661.5C513.28 659.85 512.86 658.19 512.46 656.52C512.11 655.13 511.78 653.74 511.45 652.34L511.27 651.59C511.09 650.86 510.92 650.13 510.76 649.4C510.41 647.92 510.07 646.43 509.73 644.94C509.35 643.26 508.98 641.57 508.62 639.88C508.26 638.2 507.9 636.52 507.55 634.83C507.4 634.12 507.26 633.4 507.11 632.69C506.8 631.17 506.5 629.64 506.2 628.12V628.1C505.87 626.41 505.54 624.71 505.23 623.01C505.13 622.45 505.02 621.89 504.92 621.33C504.63 619.75 504.34 618.15 504.07 616.56C503.72 614.61 503.39 612.66 503.07 610.7C502.81 609.14 502.56 607.58 502.32 606.02C502.02 604.14 501.73 602.25 501.46 600.35C501.3 599.32 501.15 598.29 501.01 597.26C500.84 596.1 500.68 594.94 500.52 593.78C500.37 592.67 500.22 591.56 500.08 590.44C499.92 589.23 499.76 588.02 499.61 586.81C499.4 585.13 499.2 583.44 499 581.75C498.96 581.44 498.93 581.13 498.89 580.82C498.75 579.57 498.61 578.32 498.48 577.07C498.44 576.81 498.41 576.54 498.39 576.28C498.27 575.2 498.15 574.11 498.05 573.03C498.02 572.83 498 572.63 497.99 572.43C497.81 570.72 497.64 569 497.48 567.28C497.37 566.13 497.27 564.97 497.17 563.82C497.12 563.26 497.07 562.7 497.02 562.13C496.89 560.53 496.76 558.94 496.64 557.34C496.62 557.16 496.61 556.97 496.59 556.79C496.49 555.44 496.39 554.09 496.3 552.73C496.23 551.8 496.17 550.88 496.11 549.95C496.01 548.43 495.91 546.9 495.82 545.37C495.7 543.21 495.58 541.04 495.48 538.87C495.39 537.07 495.31 535.27 495.24 533.47C495.22 532.86 495.19 532.25 495.17 531.64C495.11 530.06 495.06 528.48 495.02 526.89C495.02 526.67 495 526.45 495 526.23C494.94 524.3 494.9 522.36 494.86 520.41C494.82 518.4 494.79 516.39 494.77 514.37V513.94Z" fill="#1D1D1B"/>
<path d="M1333.61 1356.25H363.529C513.369 1228.29 606.569 1089.01 566.049 922.99C600.059 961.47 638.429 992.75 680.459 1016.22C707.779 1031.48 736.489 1043.22 765.779 1051.14C796.129 1059.34 827.389 1063.5 858.689 1063.5C942.309 1063.5 1023.5 1033.97 1093.49 978.11C1104.56 969.27 1115.29 959.82 1125.65 949.8C1100.86 1104.1 1191.91 1235.24 1333.61 1356.25Z" fill="#1D1D1B"/>
<path d="M1611.61 802.58L1594.84 1295.15H1414.28L1491.22 755.4L1312.26 600.27C1292.42 583.08 1280.69 558.35 1279.92 532.1C1279.82 527.87 1284.17 524.99 1288.02 526.74L1481.09 614.43C1489.23 477.98 1289.65 502.06 1242.53 421.27C1239.03 415.27 1237.43 408.34 1237.78 401.4C1238.55 388.65 1239.92 385.74 1251.35 385.74C1254.21 385.74 1257.7 385.93 1261.96 386.18L1509.02 421.04C1524.78 422.99 1539.48 430.03 1550.86 441.1C1648.35 535.91 1649.15 662.87 1611.61 802.58Z" fill="#1D1D1B"/>
<path d="M647.001 898.9C644.151 896.21 641.341 893.46 638.551 890.66H1078.83C1077.87 891.62 1076.92 892.57 1075.95 893.52C1074.99 894.46 1074.03 895.4 1073.07 896.33C1071.12 898.21 1069.16 900.05 1067.19 901.88C1066.26 902.74 1065.32 903.61 1064.37 904.47C1064.32 904.5 1064.28 904.55 1064.23 904.59C1063.24 905.49 1062.24 906.38 1061.25 907.26C1060.2 908.19 1059.15 909.11 1058.1 910.02C1057.14 910.85 1056.18 911.67 1055.21 912.49C1054.2 913.35 1053.19 914.2 1052.17 915.05C1051.21 915.85 1050.25 916.64 1049.28 917.43C1049.22 917.47 1049.16 917.52 1049.1 917.57C1048.07 918.41 1047.04 919.23 1046.01 920.05C1045.08 920.79 1044.14 921.53 1043.2 922.26C1042.98 922.43 1042.77 922.59 1042.56 922.75C1041.63 923.47 1040.71 924.18 1039.78 924.89C1038.73 925.68 1037.68 926.47 1036.63 927.25C1036.52 927.33 1036.42 927.41 1036.31 927.49C1035.37 928.19 1034.42 928.88 1033.46 929.57C1032.4 930.34 1031.34 931.1 1030.28 931.85C1029.21 932.6 1028.15 933.35 1027.07 934.09C1026 934.83 1024.93 935.56 1023.85 936.29C1022.77 937.01 1021.69 937.73 1020.61 938.44C1019.46 939.2 1018.3 939.95 1017.15 940.69C1016.12 941.34 1015.1 941.99 1014.07 942.63C1012.97 943.32 1011.87 943.99 1010.77 944.66C1009.67 945.33 1008.57 946 1007.46 946.65C1006.46 947.24 1005.46 947.83 1004.46 948.4C1003.23 949.12 1002.01 949.81 1000.78 950.5C999.661 951.13 998.531 951.75 997.411 952.36C996.431 952.89 995.451 953.42 994.471 953.94C992.061 955.23 989.641 956.47 987.211 957.68C984.921 958.82 982.631 959.93 980.331 961C979.171 961.54 978.021 962.08 976.861 962.6C975.701 963.12 974.541 963.64 973.381 964.15C972.221 964.66 971.051 965.16 969.881 965.66C969.811 965.69 969.741 965.72 969.671 965.75C968.571 966.21 967.471 966.67 966.371 967.12C965.201 967.6 964.021 968.07 962.841 968.53C961.661 969 960.481 969.45 959.301 969.9C958.121 970.35 956.931 970.79 955.741 971.22C954.551 971.66 953.361 972.08 952.171 972.5C951.111 972.87 950.061 973.23 949.001 973.59C948.771 973.67 948.541 973.75 948.301 973.82C947.211 974.19 946.121 974.55 945.031 974.89C944.981 974.91 944.941 974.93 944.891 974.94C943.881 975.27 942.861 975.59 941.851 975.9C941.591 975.98 941.331 976.06 941.081 976.14C939.961 976.48 938.851 976.81 937.741 977.13C935.471 977.8 933.191 978.43 930.901 979.04C929.821 979.33 928.741 979.61 927.651 979.88C926.881 980.08 926.121 980.27 925.351 980.45C924.461 980.68 923.561 980.89 922.671 981.1C921.911 981.28 921.161 981.45 920.401 981.62C919.821 981.75 919.241 981.88 918.651 982.01C916.601 982.46 914.551 982.88 912.481 983.29C911.271 983.52 910.061 983.75 908.841 983.98C908.251 984.08 907.661 984.19 907.071 984.29C906.061 984.47 905.041 984.64 904.021 984.81C903.051 984.97 902.081 985.12 901.111 985.27C900.961 985.29 900.801 985.32 900.641 985.34C898.351 985.69 896.051 986.01 893.741 986.3C893.381 986.35 893.011 986.39 892.641 986.43C891.581 986.57 890.521 986.69 889.451 986.8C888.581 986.9 887.701 987 886.811 987.08C886.051 987.16 885.291 987.24 884.531 987.3C884.271 987.33 884.001 987.36 883.731 987.38C882.851 987.46 881.981 987.53 881.101 987.6C878.981 987.77 876.861 987.92 874.731 988.04C874.141 988.08 873.551 988.11 872.951 988.13C872.161 988.18 871.361 988.22 870.571 988.25C869.181 988.31 867.781 988.36 866.381 988.39C865.111 988.43 863.851 988.46 862.581 988.47C861.291 988.49 859.991 988.5 858.691 988.5C857.321 988.5 855.951 988.5 854.581 988.47C853.891 988.46 853.211 988.45 852.531 988.42C851.691 988.41 850.841 988.39 850.001 988.36C849.491 988.35 848.971 988.33 848.461 988.31C847.511 988.28 846.561 988.24 845.621 988.19C845.131 988.17 844.641 988.15 844.151 988.12C842.751 988.05 841.361 987.97 839.961 987.87C838.571 987.78 837.191 987.68 835.801 987.56C835.181 987.51 834.561 987.46 833.951 987.4C833.021 987.32 832.091 987.24 831.161 987.14C830.401 987.07 829.641 986.99 828.881 986.9C828.451 986.87 828.031 986.82 827.621 986.77C826.711 986.67 825.801 986.57 824.901 986.45C824.281 986.38 823.671 986.3 823.061 986.22C822.191 986.12 821.331 986 820.471 985.88C817.451 985.47 814.451 985 811.461 984.49C810.381 984.31 809.301 984.12 808.231 983.92C807.811 983.84 807.401 983.77 807.001 983.69C806.001 983.5 805.001 983.31 804.011 983.1C800.301 982.38 796.621 981.57 792.961 980.68C791.961 980.44 790.961 980.2 789.961 979.94C788.861 979.67 787.761 979.38 786.661 979.08C785.681 978.83 784.701 978.57 783.731 978.29C783.321 978.19 782.921 978.07 782.531 977.95C781.711 977.73 780.901 977.5 780.081 977.26C774.941 975.77 769.841 974.13 764.791 972.35C763.751 971.99 762.711 971.62 761.681 971.24C760.061 970.65 758.451 970.05 756.841 969.42C756.071 969.13 755.301 968.83 754.541 968.53C753.361 968.07 752.181 967.6 751.011 967.12C750.131 966.76 749.261 966.4 748.391 966.03C747.981 965.87 747.571 965.69 747.171 965.52C746.341 965.17 745.521 964.81 744.701 964.45C744.211 964.25 743.721 964.04 743.241 963.81C742.541 963.51 741.841 963.2 741.151 962.88C737.421 961.21 733.731 959.46 730.061 957.62C729.321 957.25 728.581 956.88 727.841 956.5C726.731 955.95 725.631 955.38 724.531 954.79C723.771 954.4 723.021 954 722.271 953.6C721.581 953.23 720.891 952.86 720.201 952.48C716.741 950.61 713.321 948.67 709.921 946.65C708.901 946.05 707.891 945.44 706.881 944.83C706.721 944.73 706.561 944.64 706.391 944.53C705.361 943.91 704.331 943.27 703.311 942.63C702.261 941.98 701.221 941.32 700.191 940.66C699.921 940.49 699.661 940.32 699.401 940.15C698.521 939.59 697.641 939.02 696.771 938.44C695.681 937.73 694.601 937.01 693.531 936.29C692.811 935.81 692.111 935.33 691.401 934.84C689.751 933.71 688.111 932.57 686.481 931.41C685.811 930.94 685.151 930.46 684.491 929.99C683.611 929.35 682.731 928.71 681.861 928.06C678.971 925.95 676.111 923.78 673.281 921.55C672.381 920.86 671.491 920.15 670.601 919.43C669.991 918.95 669.371 918.45 668.761 917.96C668.441 917.7 668.131 917.45 667.821 917.19C667.041 916.56 666.261 915.92 665.481 915.27C662.291 912.63 659.131 909.92 656.001 907.15C655.111 906.35 654.221 905.55 653.331 904.75C653.231 904.67 653.141 904.58 653.051 904.5C652.091 903.63 651.141 902.76 650.191 901.88C649.231 901 648.281 900.11 647.331 899.21C647.221 899.11 647.111 899.01 647.001 898.9Z" fill="#1D1D1B"/>
<path d="M1333.61 1356.25H363.529C513.369 1228.29 606.569 1089.01 566.049 922.99C600.059 961.47 638.429 992.75 680.459 1016.22C707.779 1031.48 736.489 1043.22 765.779 1051.14C796.129 1059.34 827.389 1063.5 858.689 1063.5C942.309 1063.5 1023.5 1033.97 1093.49 978.11C1104.56 969.27 1115.29 959.82 1125.65 949.8C1100.86 1104.1 1191.91 1235.24 1333.61 1356.25Z" fill="#1D1D1B"/>
<path d="M1177.92 738.94C1177.18 740.72 1176.43 742.49 1175.67 744.26C1175.62 744.38 1175.57 744.51 1175.51 744.63C1174.84 746.2 1174.16 747.76 1173.48 749.32C1172.57 751.37 1171.65 753.42 1170.73 755.45C1169.95 757.16 1169.16 758.86 1168.36 760.56C1168.28 760.75 1168.19 760.93 1168.1 761.12C1167.37 762.68 1166.63 764.23 1165.88 765.78C1165.77 766 1165.67 766.22 1165.56 766.43C1164.79 768.04 1164 769.64 1163.21 771.24C1162.15 773.36 1161.09 775.46 1160.01 777.56C1159.26 779.03 1158.5 780.49 1157.73 781.94C1157.6 782.2 1157.46 782.46 1157.32 782.72C1156.57 784.15 1155.81 785.57 1155.05 786.98C1154.96 787.13 1154.88 787.27 1154.81 787.42C1153.01 790.73 1151.18 794.02 1149.32 797.26C1148.36 798.94 1147.39 800.61 1146.42 802.27C1144.35 805.78 1142.25 809.26 1140.12 812.69C1139.23 814.13 1138.33 815.55 1137.42 816.97C1135.37 820.19 1133.3 823.37 1131.19 826.51C1130.19 828.01 1129.17 829.5 1128.15 830.98C1127.91 831.33 1127.66 831.69 1127.42 832.04C1126.54 833.31 1125.66 834.57 1124.77 835.83C1123.94 837.01 1123.1 838.18 1122.25 839.35C1121.2 840.81 1120.14 842.26 1119.07 843.7C1118.57 844.39 1118.06 845.07 1117.55 845.75C1116.55 847.09 1115.54 848.42 1114.52 849.74C1113.49 851.09 1112.45 852.44 1111.4 853.77C1110.46 854.98 1109.51 856.17 1108.56 857.36C1108.26 857.73 1107.96 858.1 1107.66 858.47C1106.6 859.79 1105.53 861.1 1104.45 862.4C1104.36 862.51 1104.27 862.62 1104.18 862.73C1103.13 864 1102.08 865.25 1101.02 866.5C1100.95 866.58 1100.89 866.65 1100.82 866.73C1099.72 868.03 1098.6 869.33 1097.49 870.61C1097.43 870.67 1097.39 870.73 1097.34 870.78C1096.14 872.16 1094.93 873.53 1093.72 874.88C1091.3 877.6 1088.84 880.27 1086.35 882.9C1085.11 884.21 1083.86 885.52 1082.61 886.81C1081.39 888.07 1080.16 889.32 1078.93 890.56L1078.83 890.66C1077.87 891.62 1076.92 892.57 1075.95 893.52C1074.99 894.46 1074.03 895.4 1073.07 896.33C1071.12 898.21 1069.16 900.05 1067.19 901.88C1066.26 902.74 1065.32 903.61 1064.37 904.47C1064.32 904.5 1064.28 904.55 1064.23 904.59C1063.24 905.49 1062.24 906.38 1061.25 907.26C1060.2 908.19 1059.15 909.11 1058.1 910.02C1057.14 910.85 1056.18 911.67 1055.21 912.49C1054.2 913.35 1053.19 914.2 1052.17 915.05C1051.21 915.85 1050.25 916.64 1049.28 917.43C1049.22 917.47 1049.16 917.52 1049.1 917.57C1048.07 918.41 1047.04 919.23 1046.01 920.05C1045.08 920.79 1044.14 921.53 1043.2 922.26C1042.98 922.43 1042.77 922.59 1042.56 922.75C1041.63 923.47 1040.71 924.18 1039.78 924.89C1038.73 925.68 1037.68 926.47 1036.63 927.25C1036.52 927.33 1036.42 927.41 1036.31 927.49C1035.37 928.19 1034.42 928.88 1033.46 929.57C1032.4 930.34 1031.34 931.1 1030.28 931.85C1029.21 932.6 1028.15 933.35 1027.07 934.09C1026 934.83 1024.93 935.56 1023.85 936.29C1022.77 937.01 1021.69 937.73 1020.61 938.44C1019.46 939.2 1018.3 939.95 1017.15 940.69C1016.12 941.34 1015.1 941.99 1014.07 942.63C1012.97 943.32 1011.87 943.99 1010.77 944.66C1009.67 945.33 1008.57 946 1007.46 946.65C1006.46 947.24 1005.46 947.83 1004.46 948.4C1003.23 949.12 1002.01 949.81 1000.78 950.5C999.66 951.13 998.53 951.75 997.41 952.36C996.43 952.89 995.45 953.42 994.47 953.94C992.06 955.23 989.64 956.47 987.21 957.68C984.92 958.82 982.63 959.93 980.33 961C979.17 961.54 978.02 962.08 976.86 962.6C975.7 963.12 974.54 963.64 973.38 964.15C972.22 964.66 971.05 965.16 969.88 965.66C969.81 965.69 969.74 965.72 969.67 965.75C968.57 966.21 967.47 966.67 966.37 967.12C965.2 967.6 964.02 968.07 962.84 968.53C961.66 969 960.48 969.45 959.3 969.9C958.12 970.35 956.93 970.79 955.74 971.22C954.55 971.66 953.36 972.08 952.17 972.5C951.11 972.87 950.06 973.23 949 973.59C948.77 973.67 948.54 973.75 948.3 973.82C947.21 974.19 946.12 974.55 945.03 974.89C944.98 974.91 944.94 974.93 944.89 974.94C943.88 975.27 942.86 975.59 941.85 975.9C941.59 975.98 941.33 976.06 941.08 976.14C939.96 976.48 938.85 976.81 937.74 977.13C935.47 977.8 933.19 978.43 930.9 979.04C929.82 979.33 928.74 979.61 927.65 979.88C926.88 980.08 926.12 980.27 925.35 980.45C924.46 980.68 923.56 980.89 922.67 981.1C921.91 981.28 921.16 981.45 920.4 981.62C919.82 981.75 919.24 981.88 918.65 982.01C916.6 982.46 914.55 982.88 912.48 983.29C911.27 983.52 910.06 983.75 908.84 983.98C908.25 984.08 907.66 984.19 907.07 984.29C906.06 984.47 905.04 984.64 904.02 984.81C903.05 984.97 902.08 985.12 901.11 985.27C900.96 985.29 900.8 985.32 900.64 985.34C898.35 985.69 896.05 986.01 893.74 986.3C893.38 986.35 893.01 986.39 892.64 986.43C891.58 986.57 890.52 986.69 889.45 986.8C888.58 986.9 887.7 987 886.81 987.08C886.05 987.16 885.29 987.24 884.53 987.3C884.27 987.33 884 987.36 883.73 987.38C882.85 987.46 881.98 987.53 881.1 987.6C878.98 987.77 876.86 987.92 874.73 988.04C874.14 988.08 873.55 988.11 872.95 988.13C872.16 988.18 871.36 988.22 870.57 988.25C869.18 988.31 867.78 988.36 866.38 988.39C865.11 988.43 863.85 988.46 862.58 988.47C861.29 988.49 859.99 988.5 858.69 988.5C857.32 988.5 855.95 988.5 854.58 988.47C853.89 988.46 853.21 988.45 852.53 988.42C851.69 988.41 850.84 988.39 850 988.36C849.49 988.35 848.97 988.33 848.46 988.31C847.51 988.28 846.56 988.24 845.62 988.19C845.13 988.17 844.64 988.15 844.15 988.12C842.75 988.05 841.36 987.97 839.96 987.87C838.57 987.78 837.19 987.68 835.8 987.56C835.18 987.51 834.56 987.46 833.95 987.4C833.02 987.32 832.09 987.24 831.16 987.14C830.4 987.07 829.64 986.99 828.88 986.9C828.45 986.87 828.03 986.82 827.62 986.77C826.71 986.67 825.8 986.57 824.9 986.45C824.28 986.38 823.67 986.3 823.06 986.22C822.19 986.12 821.33 986 820.47 985.88C817.45 985.47 814.45 985 811.46 984.49C810.38 984.31 809.3 984.12 808.23 983.92C807.81 983.84 807.4 983.77 807 983.69C806 983.5 805 983.31 804.01 983.1C800.3 982.38 796.62 981.57 792.96 980.68C791.96 980.44 790.96 980.2 789.96 979.94C788.86 979.67 787.76 979.38 786.66 979.08C785.68 978.83 784.7 978.57 783.73 978.29C783.32 978.19 782.92 978.07 782.53 977.95C781.71 977.73 780.9 977.5 780.08 977.26C774.94 975.77 769.84 974.13 764.79 972.35C763.75 971.99 762.71 971.62 761.68 971.24C760.06 970.65 758.45 970.05 756.84 969.42C756.07 969.13 755.3 968.83 754.54 968.53C753.36 968.07 752.18 967.6 751.01 967.12C750.13 966.76 749.26 966.4 748.39 966.03C747.98 965.87 747.57 965.69 747.17 965.52C746.34 965.17 745.52 964.81 744.7 964.45C744.21 964.25 743.72 964.04 743.24 963.81C742.54 963.51 741.84 963.2 741.15 962.88C737.42 961.21 733.73 959.46 730.06 957.62C729.32 957.25 728.58 956.88 727.84 956.5C726.73 955.95 725.63 955.38 724.53 954.79C723.77 954.4 723.02 954 722.27 953.6C721.58 953.23 720.89 952.86 720.2 952.48C716.74 950.61 713.32 948.67 709.92 946.65C708.9 946.05 707.89 945.44 706.88 944.83C706.72 944.73 706.56 944.64 706.39 944.53C705.36 943.91 704.33 943.27 703.31 942.63C702.26 941.98 701.22 941.32 700.19 940.66C699.92 940.49 699.66 940.32 699.4 940.15C698.52 939.59 697.64 939.02 696.77 938.44C695.68 937.73 694.6 937.01 693.53 936.29C692.81 935.81 692.11 935.33 691.4 934.84C689.75 933.71 688.11 932.57 686.48 931.41C685.81 930.94 685.15 930.46 684.49 929.99C683.61 929.35 682.73 928.71 681.86 928.06C678.97 925.95 676.11 923.78 673.28 921.55C672.38 920.86 671.49 920.15 670.6 919.43C669.99 918.95 669.37 918.45 668.76 917.96C668.44 917.7 668.13 917.45 667.82 917.19C667.04 916.56 666.26 915.92 665.48 915.27C662.29 912.63 659.13 909.92 656 907.15C655.11 906.35 654.22 905.55 653.33 904.75C653.23 904.67 653.14 904.58 653.05 904.5C652.09 903.63 651.14 902.76 650.19 901.88C649.23 901 648.28 900.11 647.33 899.21C647.22 899.11 647.11 899.01 647 898.9C644.15 896.21 641.34 893.46 638.55 890.66C634.45 886.55 630.42 882.32 626.47 877.99C625.29 876.69 624.11 875.39 622.94 874.08C622.65 873.74 622.35 873.41 622.05 873.07C620.91 871.78 619.77 870.48 618.65 869.17C617.36 867.68 616.08 866.18 614.81 864.66C613.54 863.14 612.27 861.62 611.02 860.08C609.55 858.28 608.1 856.47 606.66 854.64C605.63 853.34 604.61 852.02 603.59 850.7C602.46 849.24 601.34 847.77 600.23 846.29C600.02 846.01 599.81 845.73 599.6 845.45C598.64 844.16 597.68 842.87 596.74 841.57C596.51 841.27 596.29 840.96 596.06 840.65C594.98 839.16 593.9 837.65 592.82 836.14C591.65 834.49 590.49 832.82 589.34 831.15C589.32 831.13 589.31 831.1 589.29 831.08C588.17 829.46 587.06 827.82 585.96 826.18C585.9 826.08 585.83 825.99 585.77 825.89C584.69 824.27 583.62 822.65 582.55 821.01C582.53 820.99 582.52 820.96 582.5 820.93C581.39 819.23 580.3 817.52 579.21 815.8C578.18 814.17 577.15 812.53 576.14 810.88C576.03 810.72 575.93 810.55 575.83 810.38C574.79 808.68 573.75 806.98 572.73 805.26C571.7 803.55 570.69 801.83 569.68 800.1C569.65 800.03 569.61 799.96 569.57 799.9C568.53 798.1 567.49 796.29 566.47 794.47C565.53 792.8 564.59 791.12 563.67 789.43C563.48 789.08 563.29 788.74 563.1 788.39C562.25 786.84 561.41 785.28 560.58 783.72C560.49 783.54 560.39 783.36 560.3 783.19C559.36 781.42 558.43 779.64 557.51 777.85C555.58 774.09 553.68 770.3 551.83 766.48C550.93 764.61 550.03 762.74 549.15 760.86C549.07 760.69 548.99 760.53 548.92 760.36C548.16 758.75 547.42 757.14 546.68 755.52C546.46 755.04 546.24 754.56 546.03 754.08C545.44 752.79 544.86 751.49 544.29 750.19C543.99 749.54 543.71 748.89 543.43 748.24C542.67 746.53 541.93 744.81 541.2 743.08C540.35 741.1 539.51 739.1 538.69 737.1C538.69 737.08 538.67 737.06 538.66 737.04C537.85 735.06 537.04 733.06 536.25 731.06C535.47 729.11 534.71 727.16 533.95 725.19C533.92 725.12 533.9 725.05 533.87 724.98C533.43 723.84 533 722.7 532.57 721.56C531.46 718.61 530.37 715.64 529.31 712.66C528.94 711.62 528.57 710.59 528.21 709.55C527.76 708.28 527.32 707.02 526.89 705.75C526.28 703.98 525.68 702.2 525.09 700.41C523.89 696.79 522.73 693.15 521.59 689.49C521.21 688.24 520.83 687 520.45 685.75C519.98 684.18 519.51 682.6 519.05 681.02C518.81 680.2 518.57 679.38 518.33 678.56C517.97 677.32 517.62 676.08 517.28 674.83C517.25 674.74 517.22 674.65 517.2 674.56C516.93 673.59 516.66 672.62 516.39 671.65C515.93 669.98 515.48 668.3 515.04 666.62C514.66 665.2 514.29 663.78 513.92 662.35C513.85 662.07 513.78 661.78 513.7 661.5C513.28 659.85 512.86 658.19 512.46 656.52C512.11 655.13 511.78 653.74 511.45 652.34L511.27 651.59C511.09 650.86 510.92 650.13 510.76 649.4C510.41 647.92 510.07 646.43 509.73 644.94C509.35 643.26 508.98 641.57 508.62 639.88C508.26 638.2 507.9 636.52 507.55 634.83C507.4 634.12 507.26 633.4 507.11 632.69C506.8 631.17 506.5 629.64 506.2 628.12V628.1C505.87 626.41 505.54 624.71 505.23 623.01C505.13 622.45 505.02 621.89 504.92 621.33C504.63 619.75 504.34 618.15 504.07 616.56C503.72 614.61 503.39 612.66 503.07 610.7C502.81 609.14 502.56 607.58 502.32 606.02C502.02 604.14 501.73 602.25 501.46 600.35C501.3 599.32 501.15 598.29 501.01 597.26C500.84 596.1 500.68 594.94 500.52 593.78C500.37 592.67 500.22 591.56 500.08 590.44C499.92 589.23 499.76 588.02 499.61 586.81C499.4 585.13 499.2 583.44 499 581.75C498.96 581.44 498.93 581.13 498.89 580.82C498.75 579.57 498.61 578.32 498.48 577.07C498.44 576.81 498.41 576.54 498.39 576.28C498.27 575.2 498.15 574.11 498.05 573.03C498.02 572.83 498 572.63 497.99 572.43C497.81 570.72 497.64 569 497.48 567.28C497.37 566.13 497.27 564.97 497.17 563.82C497.12 563.26 497.07 562.7 497.02 562.13C496.89 560.53 496.76 558.94 496.64 557.34C496.62 557.16 496.61 556.97 496.59 556.79C496.49 555.44 496.39 554.09 496.3 552.73C496.23 551.8 496.17 550.88 496.11 549.95C496.01 548.43 495.91 546.9 495.82 545.37C495.7 543.21 495.58 541.04 495.48 538.87C495.39 537.07 495.31 535.27 495.24 533.47C495.22 532.86 495.19 532.25 495.17 531.64C495.11 530.06 495.06 528.48 495.02 526.89C495.02 526.67 495 526.45 495 526.23C494.94 524.3 494.9 522.36 494.86 520.41C494.82 518.4 494.79 516.39 494.77 514.37V513.94C494.75 511.97 494.74 509.99 494.74 508.01C494.74 506.03 494.75 503.92 494.77 501.88V501.64C494.79 500.03 494.81 498.43 494.84 496.82V496.74C494.85 495.94 494.87 495.13 494.89 494.33C494.91 493.2 494.94 492.06 494.97 490.93C494.97 490.42 494.99 489.91 495.01 489.39C495.03 488.62 495.05 487.84 495.09 487.06C495.12 485.7 495.17 484.33 495.23 482.97C495.31 480.9 495.4 478.83 495.5 476.77C495.59 474.85 495.69 472.94 495.81 471.03C495.83 470.59 495.85 470.14 495.89 469.69C495.99 467.93 496.1 466.17 496.22 464.42C496.32 462.94 496.42 461.46 496.54 459.99C496.59 459.26 496.65 458.53 496.71 457.79C496.84 456.1 496.98 454.41 497.12 452.72C497.16 452.26 497.2 451.8 497.25 451.34C497.4 449.58 497.57 447.81 497.74 446.06C497.93 444.08 498.13 442.11 498.34 440.14C498.35 440.06 498.36 439.98 498.37 439.9C498.56 438.16 498.75 436.43 498.95 434.69C498.98 434.43 499.01 434.18 499.04 433.93C499.26 432.07 499.48 430.21 499.72 428.35C499.99 426.2 500.27 424.05 500.57 421.91C500.84 419.92 501.12 417.92 501.42 415.94C501.7 413.98 502 412.03 502.31 410.08C502.31 409.99 502.33 409.9 502.35 409.8C502.65 407.89 502.96 405.98 503.28 404.07C503.55 402.47 503.82 400.87 504.1 399.28C504.51 396.95 504.93 394.63 505.36 392.31C506.09 388.41 506.86 384.53 507.66 380.67C508.06 378.74 508.47 376.81 508.89 374.89C509.73 371.05 510.6 367.22 511.51 363.42C512.02 361.26 512.55 359.11 513.09 356.97C513.44 355.55 513.8 354.13 514.18 352.72C514.72 350.62 515.27 348.53 515.83 346.45C516.84 342.71 517.89 338.99 518.97 335.3C519.51 333.45 520.06 331.61 520.61 329.77C521.72 326.1 522.87 322.45 524.05 318.82L1177.92 738.94Z" fill="#1D1D1B"/>
<path d="M564.589 255.72L501.749 215.35L494.739 264.65L1133.73 673.42L1147.57 630.3L564.589 255.72ZM1086.35 882.9C1088.84 880.27 1091.3 877.6 1093.72 874.88C1091.29 877.6 1088.83 880.27 1086.35 882.9ZM520.609 329.77C521.729 326.1 522.869 322.45 524.049 318.82C522.869 322.45 521.719 326.1 520.609 329.77ZM457.929 420.69C455.949 420.69 453.739 420.73 451.259 420.78L424.739 423.48C421.919 447 420.289 470.83 419.859 494.9C440.929 485.38 458.609 473.5 469.389 456.47C473.089 450.65 474.909 443.82 474.819 436.92C474.529 422.82 473.029 420.69 457.929 420.69ZM421.609 559.81C422.239 568.64 423.039 577.43 424.009 586.18C425.949 579.63 427.189 572.84 427.659 565.91V565.89C427.909 562.32 424.909 559.58 421.609 559.81Z" fill="#1D1D1B"/>
<path d="M1185.45 346.34L648.369 68.6C703.129 25.05 767.299 0 835.879 0C1001.62 0 1141.48 146.26 1185.45 346.34Z" fill="#1D1D1B"/>
<path d="M1157.94 598.011L1147.57 630.301L1133.73 673.421L494.74 264.651L501.75 215.351L502.41 210.721L1157.94 598.011Z" fill="#1D1D1B"/>
<path d="M1209.93 542.521L1203.15 590.181L623.9 247.951L645.28 181.311L1209.93 542.521Z" fill="#1D1D1B"/>
<path d="M1237.74 445.769L1221.64 492.169L631.82 146.999L646.48 101.369L1237.74 445.769Z" fill="#1D1D1B"/>
<path d="M474.82 436.919C474.91 443.819 473.09 450.649 469.39 456.469C458.61 473.499 440.93 485.379 419.86 494.899C343.78 529.309 223.44 533.039 223.44 637.479C223.44 638.439 223.44 639.409 223.47 640.389L419.81 560.219C420.41 559.969 421.01 559.839 421.61 559.809C424.91 559.579 427.91 562.319 427.66 565.889V565.909C427.19 572.839 425.95 579.629 424.01 586.179C422.29 592.009 420 597.649 417.2 603.009C411.25 614.399 402.95 624.559 392.71 632.769L219.91 803.029L180 1295.15H0L85.77 823.359C53.66 682.299 59.37 555.469 160.44 464.489C172.24 453.869 187.21 447.409 203.03 446.069L424.74 423.479L451.26 420.779C453.74 420.729 455.95 420.689 457.93 420.689C473.03 420.689 474.53 422.819 474.82 436.919Z" fill="#1D1D1B"/>
<path d="M1611.61 802.58L1594.84 1295.15H1414.28L1491.22 755.4L1312.26 600.27C1292.42 583.08 1280.69 558.35 1279.92 532.1C1279.82 527.87 1284.17 524.99 1288.02 526.74L1481.09 614.43C1489.23 477.98 1289.65 502.06 1242.53 421.27C1239.03 415.27 1237.43 408.34 1237.78 401.4C1238.55 388.65 1239.92 385.74 1251.35 385.74C1254.21 385.74 1257.7 385.93 1261.96 386.18L1509.02 421.04C1524.78 422.99 1539.48 430.03 1550.86 441.1C1648.35 535.91 1649.15 662.87 1611.61 802.58Z" fill="#1D1D1B"/>
</g>
<defs>
<clipPath id="clip0_948_9">
<rect width="1634.59" height="1356.25" fill="white"/>
</clipPath>
</defs>
</svg>
