<svg width="1837" height="2172" viewBox="0 0 1837 2172" fill="none" xmlns="http://www.w3.org/2000/svg">
<path d="M876.041 1038.62H643.586V1914.24H876.041V1038.62Z" fill="black"/>
<path d="M806.416 1226.74L643.059 1037.18L1149.72 622.578L1313.08 812.141L806.416 1226.74Z" fill="black"/>
<path d="M1110.64 1196.24H1313.56V813.784H1110.64V1196.24Z" fill="black"/>
<path d="M1110.37 1195.7L1293.07 1109.17L1432.14 1351.33L1249.43 1437.85L1110.37 1195.7Z" fill="black"/>
<path d="M1449.59 731.697C1546.33 731.697 1624.75 653.243 1624.75 556.465C1624.75 459.687 1546.33 381.232 1449.59 381.232C1352.86 381.232 1274.44 459.687 1274.44 556.465C1274.44 653.243 1352.86 731.697 1449.59 731.697Z" fill="black"/>
<path d="M478.654 534.671L573.454 428.761L675.541 548.797L850.557 365.217L901.606 781.796L792.222 654.707L639.087 788.858L478.654 534.671Z" fill="black"/>
</svg>
