<svg width="1509" height="1832" viewBox="0 0 1509 1832" fill="none" xmlns="http://www.w3.org/2000/svg">
<path d="M828.568 1444.43C772.553 1543 666.607 1609.48 545.136 1609.48C365.223 1609.48 219.362 1463.6 219.362 1283.69C219.362 1103.78 360.801 962.371 536.914 958.016L723.464 771.466C667.593 752.129 607.6 741.635 545.147 741.635C244.062 741.635 0 985.719 0 1286.8C0 1587.89 244.062 1831.95 545.147 1831.95C791.413 1831.95 999.55 1668.67 1067.17 1444.44H828.58L828.568 1444.43Z" fill="black"/>
<path d="M1457.05 1118.18H546.854V1336.03H1457.05V1118.18Z" fill="black"/>
<path d="M1233.73 417.924H354.695V623.379H1233.73V417.924Z" fill="black"/>
<path d="M1457.03 1777.41V1311.1H1246.16V1777.41H1457.03Z" fill="black"/>
<path d="M544.881 1122.04L1102.7 478.438L1231.7 627.268L673.887 1270.87L544.881 1122.04Z" fill="black"/>
<path d="M1316.16 385.246C1422.54 385.246 1508.78 299.006 1508.78 192.623C1508.78 86.2404 1422.54 0 1316.16 0C1209.78 0 1123.54 86.2404 1123.54 192.623C1123.54 299.006 1209.78 385.246 1316.16 385.246Z" fill="black"/>
</svg>
