<svg width="1369" height="1303" viewBox="0 0 1369 1303" fill="none" xmlns="http://www.w3.org/2000/svg">
<path d="M247.548 515.017C306.58 515.017 354.435 467.162 354.435 408.13C354.435 349.097 306.58 301.242 247.548 301.242C188.515 301.242 140.66 349.097 140.66 408.13C140.66 467.162 188.515 515.017 247.548 515.017Z" fill="black"/>
<path d="M838.178 515.017C897.211 515.017 945.066 467.162 945.066 408.13C945.066 349.097 897.211 301.242 838.178 301.242C779.146 301.242 731.291 349.097 731.291 408.13C731.291 467.162 779.146 515.017 838.178 515.017Z" fill="black"/>
<path d="M583.101 4.66262L430.135 28.1914L527.613 661.919L680.579 638.39L583.101 4.66262Z" fill="black"/>
<path d="M679.99 785.996V631.23H398.306V785.996H679.99Z" fill="black"/>
<path d="M577.104 997.169V861.848H295.419V997.169H577.104Z" fill="black"/>
<path d="M677.918 955.831V861.846C713.924 869.11 761.043 882.898 816.411 883.079C873.93 883.268 922.72 869.282 959.603 861.846C959.603 893.171 959.603 924.496 959.603 955.831C927.943 965.462 877.183 984.482 813.719 983.831C755.36 983.235 708.421 965.11 677.918 955.831Z" fill="black"/>
<path d="M422.34 1255.02H577.105V973.333H422.34V1255.02Z" fill="black"/>
<path d="M577.102 1100.25V1255.02C519.891 1273.97 410.275 1303.56 268.14 1300.53C147.872 1297.96 54.5009 1273.11 0 1255.02C0 1203.43 0 1151.84 0 1100.25C65.2258 1121.87 162.256 1145.92 281.54 1146.83C407.781 1147.8 510.051 1122.48 577.111 1100.25H577.102Z" fill="black"/>
<path d="M1205.55 1107.51L1179.14 1270.94C1178.55 1271.1 1177.98 1271.24 1177.38 1271.41C1117.68 1287.31 1037.22 1302.17 941.685 1302.7C821.389 1303.36 727.386 1281.03 672.406 1264.41L668.25 1109.69C734.036 1129.55 831.671 1150.99 950.937 1148.7C983.356 1148.07 1014.17 1145.76 1043.16 1142.25C1106.53 1134.58 1161.28 1121.26 1205.55 1107.5V1107.51Z" fill="black"/>
<path d="M1162.83 332.061L1317.55 327.904C1337.59 368.048 1369.26 445.147 1368.94 546.224C1368.67 631.753 1345.61 698.767 1328.57 737.989C1277 739.372 1225.43 740.763 1173.86 742.146C1190.74 689.967 1205.91 620.594 1204.12 539.014C1202.26 454.778 1182.89 384.267 1162.83 332.061Z" fill="black"/>
<path d="M1169.26 -7.31831e-05L1018.02 32.8594L1101.52 417.164L1252.76 384.304L1169.26 -7.31831e-05Z" fill="black"/>
<path d="M1267.44 724.409L1205.55 1107.51L1179.14 1270.94L1179.03 1271.68L1177.39 1271.41L1026.24 1246.99L1043.16 1142.26L1114.66 699.725L1267.44 724.409Z" fill="black"/>
<path d="M398.19 913.986H533.512V697.528H398.19V913.986Z" fill="black"/>
</svg>
