<svg width="377" height="28" viewBox="0 0 377 28" fill="none" xmlns="http://www.w3.org/2000/svg">
<path d="M19.2002 25.6406L18.6594 25.1255L17.946 24.3879L16.0526 22.5142L15.3544 21.8228L14.0125 20.5248L13.601 20.8894L12.6849 21.8077L12.2167 22.2759L11.7832 22.7245L10.874 23.6345L10.1463 24.3494L8.88224 25.6217L8.51309 25.981L7.54786 26.9319L6.61591 27.9153C6.58263 27.9501 6.38292 27.8949 6.39503 27.8548L6.45933 27.6475L6.46916 26.5506L6.46311 25.1928L6.43436 23.6943L6.45252 22.9741L6.44647 21.9446C6.44647 21.875 6.46387 21.7041 6.41697 21.6678C6.35872 21.6216 6.19684 21.5702 6.11968 21.5709L5.45476 21.5793L4.71874 21.5883L4.22099 21.5914L3.52733 21.5959L2.14302 21.5989L0 21.5868L1.5424 20.0263L2.48721 19.0762L3.64382 17.9195L4.88213 16.6933L5.24523 16.3295L6.07051 15.4876L6.91698 14.6585C7.12652 14.4535 7.32925 14.2447 7.49113 14.0042L6.45857 12.9353L6.16885 12.6312L5.45779 11.9557C5.4351 11.9338 5.47216 11.7651 5.49334 11.7409C5.51452 11.7167 5.38668 11.7643 5.30726 11.7946L4.53794 11.0026L4.10298 10.5737L3.4774 9.94807L1.20805 7.67343L0.796542 7.27932L0.0113463 6.46765L1.22696 6.45479H2.13924L4.36472 6.45857L6.41848 6.46689L6.4321 5.53268L6.45252 4.23612L6.42907 1.26478L6.42756 0L7.20292 0.795785L8.11066 1.70655L11.2151 4.77547L12.1123 5.69077L12.6849 6.28837L13.0866 6.67113L13.666 7.18703C13.7863 7.29445 13.8801 7.41018 13.9739 7.56147L14.25 7.3179L14.5027 7.07886L15.4898 6.09472L16.1434 5.44039L16.8681 4.71722L17.4135 4.17485L18.2531 3.34275L18.7501 2.83215L19.2554 2.31398L20.2116 1.3843L20.5754 1.02196L20.9567 0.609699C21.1466 0.403944 21.2941 0.237525 21.5793 0.0718628V1.83969L21.5883 2.53562L21.577 5.51225L21.5861 6.45706L22.7011 6.45857L25.13 6.45706L27.9803 6.47446C27.8192 6.75283 27.621 6.88067 27.4281 7.07735L26.7095 7.8111L25.9099 8.60008L25.1467 9.37317L24.5544 9.92992L24.1292 10.3891L20.7918 13.7228C20.7237 13.7901 20.5747 13.8854 20.5482 13.958C20.5217 14.0306 20.617 14.1819 20.6859 14.2492L22.2593 15.7969L23.4416 17.0095L23.9447 17.5232L25.2632 18.8273L25.6104 19.2577C25.9546 19.4619 26.1868 19.7381 26.4584 20.0225L26.8812 20.4658L27.4917 21.0845L28 21.5951L26.9213 21.5982L24.3471 21.5891L23.9394 21.6178L22.2805 21.6088L21.5898 21.6156L21.5762 26.4432L21.5694 28L20.0376 26.5143L19.201 25.6437L19.2002 25.6406ZM19.8319 2.53259L19.9151 2.64606C19.9317 2.66876 20.0331 2.62866 20.024 2.60294L19.9869 2.49553C19.9778 2.46905 19.816 2.51066 19.8319 2.53335V2.53259ZM9.21356 3.84957C9.21356 3.78981 9.16515 3.7414 9.10539 3.7414C9.04563 3.7414 8.99722 3.78981 8.99722 3.84957C8.99722 3.90933 9.04563 3.95775 9.10539 3.95775C9.16515 3.95775 9.21356 3.90933 9.21356 3.84957ZM19.2585 4.24066L19.257 4.28832V4.33748L19.2585 4.38514L19.26 4.33748V4.28832L19.2585 4.24066ZM19.6927 22.9673L19.6791 21.3077L19.6806 18.9052L19.6843 17.533L19.6806 16.9188L19.6692 16.0118C19.6669 15.8348 19.3296 15.5798 19.2017 15.4528L18.359 14.6169L17.8136 14.0541L18.3106 13.4981L18.7872 13.0185L19.4884 12.3612C19.7191 12.1448 19.6548 12.0624 19.6579 11.7953L19.6715 10.6319L19.6738 9.82629L19.6896 9.30358L20.5285 9.2945L21.5936 9.28316L21.5853 10.2106L22.6012 9.21356L23.428 8.35045L22.1224 8.37315L21.1103 8.36634L20.4582 8.38676L17.4725 8.35348L15.9853 8.34289L15.1199 9.12884L14.4285 9.83612L14.0344 10.2794L12.5616 8.80659C12.5102 8.75515 12.4171 8.67648 12.4247 8.6258L12.458 8.41399L11.7235 8.37844L11.0699 8.36483L10.1909 8.3565L9.30434 8.34667L9.27862 7.2884L9.29299 6.48353L10.1788 6.44722L9.4647 5.72255L8.96923 5.21951L8.34289 4.58409L8.3497 6.40789L8.33835 9.03353L8.35499 10.5638C8.36029 11.0691 8.29826 11.6319 8.40189 12.107C8.49342 12.5268 9.01462 12.7621 9.26803 13.017L10.2544 14.0095L8.35575 15.9399L8.32171 17.8L8.37542 18.7463L7.80732 18.7388L6.47143 18.7607L6.46462 18.1435C6.46462 18.0852 6.44874 17.8946 6.3973 17.9203C6.35418 17.9422 6.27627 17.9975 6.23693 18.0368L5.05914 19.1934C4.9139 19.3364 4.79438 19.499 4.6673 19.7184L6.71803 19.6851L7.84212 19.6821L8.74608 19.6934L9.82175 19.6874L10.6561 19.6896L12.1312 19.6828C12.222 19.5875 12.3294 19.5194 12.4065 19.5081C12.5684 19.235 12.8294 18.9665 13.0805 18.7161L14.0231 17.7781L14.4308 18.2531L14.865 18.6972L15.9369 19.6738L16.7266 19.7025L17.2675 19.6866L18.6851 19.7078C18.7615 19.9468 18.7524 20.2835 18.7524 20.5875V21.2767C18.7524 21.347 18.7002 21.5271 18.6397 21.5422L18.4445 21.5914L17.8847 21.6428C17.9755 21.7684 18.1155 21.9272 18.2494 22.0535L18.7123 22.4893L19.0678 22.8841C19.2706 23.1088 19.3833 23.1617 19.6337 23.4409C19.6662 23.3191 19.6964 23.1164 19.6949 22.9696L19.6927 22.9673ZM19.0073 4.64612C19.0179 4.68318 19.1087 4.85414 19.1155 4.81783L19.1518 4.63174C19.1563 4.60754 19.0005 4.62191 19.0073 4.64612ZM18.6412 6.46992L19.6866 6.43815L19.6775 5.55007L19.6692 4.56518L18.5678 5.68472L17.8575 6.40713L18.6404 6.46916L18.6412 6.46992ZM7.06297 4.74824L7.06146 4.79589V4.84506L7.06297 4.89272L7.06449 4.84506V4.79589L7.06297 4.74824ZM17.5587 5.87232C17.5716 5.94872 17.6298 6.10304 17.6404 6.06522L17.6813 5.91695C17.6881 5.89199 17.5542 5.84736 17.5587 5.87308V5.87232ZM12.1145 6.23088C12.1145 6.17112 12.0661 6.12271 12.0064 6.12271C11.9466 6.12271 11.8982 6.17112 11.8982 6.23088C11.8982 6.29064 11.9466 6.33905 12.0064 6.33905C12.0661 6.33905 12.1145 6.29064 12.1145 6.23088ZM17.5474 6.28232L17.502 6.43436C17.4914 6.46992 17.6344 6.50925 17.6442 6.47294L17.6813 6.333C17.6881 6.30879 17.5542 6.25811 17.5474 6.28232ZM20.7229 6.80881L20.4196 6.88294L20.4703 7.09096L20.7736 7.01683L20.7229 6.80881ZM7.41851 7.22334L7.30731 7.39506C7.29521 7.41397 7.37312 7.41397 7.389 7.39808L7.46087 7.32622C7.47675 7.31033 7.43061 7.20367 7.41851 7.22334ZM12.2507 7.45406C12.2507 7.39581 12.2038 7.34891 12.1456 7.34891C12.0873 7.34891 12.0404 7.39581 12.0404 7.45406C12.0404 7.51231 12.0873 7.55921 12.1456 7.55921C12.2038 7.55921 12.2507 7.51231 12.2507 7.45406ZM13.7477 7.64695L13.5775 7.7869L13.7228 7.96391L13.893 7.82396L13.7477 7.64695ZM3.0432 8.15907C3.0432 8.06376 2.96604 7.98584 2.86997 7.98584C2.7739 7.98584 2.69675 8.063 2.69675 8.15907C2.69675 8.25514 2.7739 8.3323 2.86997 8.3323C2.96604 8.3323 3.0432 8.25514 3.0432 8.15907ZM6.41167 10.2068L6.47597 9.41856L6.42226 8.35726L4.66352 8.35423C4.75883 8.70977 5.04855 8.83155 5.26338 9.0479L6.41167 10.206V10.2068ZM7.40111 8.4261C7.36858 8.4677 7.30806 8.591 7.33832 8.61521C7.36858 8.63942 7.48659 8.70447 7.49642 8.66665L7.53954 8.49645C7.54937 8.45787 7.42532 8.39584 7.40111 8.4261ZM24.3395 8.52368L24.338 8.57134V8.62051L24.3395 8.66816L24.3411 8.62051V8.57134L24.3395 8.52368ZM24.5695 8.55848L24.5218 8.55999L24.5695 8.5615H24.6187L24.6663 8.55999L24.6187 8.55848H24.5695ZM21.7517 11.9065C21.7517 11.8483 21.7048 11.8006 21.6458 11.8006C21.5868 11.8006 21.5399 11.8483 21.5399 11.9065C21.5399 11.9648 21.5868 12.0124 21.6458 12.0124C21.7048 12.0124 21.7517 11.9648 21.7517 11.9065ZM8.3913 13.9573L8.27405 14.194L8.45409 14.2833L8.57134 14.0465L8.3913 13.9573ZM19.3954 14.2213L19.4793 14.3347C19.496 14.3574 19.5966 14.3196 19.5883 14.2931L19.5512 14.185C19.5421 14.1585 19.3787 14.1993 19.3954 14.222V14.2213ZM7.93365 14.9127L7.93213 14.9603V15.0095L7.93365 15.0571L7.93516 15.0095V14.9603L7.93365 14.9127ZM21.574 15.4384L21.6511 15.5655C21.6632 15.5851 21.7706 15.5496 21.7555 15.5322L21.6889 15.4558C21.6738 15.4384 21.5634 15.4202 21.574 15.4376V15.4384ZM20.5845 16.1911C20.5845 16.129 20.5346 16.0791 20.4726 16.0791C20.4105 16.0791 20.3606 16.129 20.3606 16.1911C20.3606 16.2531 20.4105 16.303 20.4726 16.303C20.5346 16.303 20.5845 16.2531 20.5845 16.1911ZM21.5535 16.219C21.5535 16.1744 21.5172 16.1381 21.4726 16.1381C21.428 16.1381 21.3916 16.1744 21.3916 16.219C21.3916 16.2637 21.428 16.3 21.4726 16.3C21.5172 16.3 21.5535 16.2637 21.5535 16.219ZM7.17417 17.5005C7.18401 17.5587 7.21956 17.6828 7.23393 17.654L7.29672 17.5232C7.3058 17.5043 7.17115 17.4816 7.17417 17.5005ZM21.3637 17.6714L21.3622 17.7191V17.7683L21.3637 17.8159L21.3652 17.7683V17.7191L21.3637 17.6714ZM23.4318 19.6866L22.5589 18.8227L21.9514 18.2161L21.6035 17.8681L21.5732 19.6927L22.0725 19.7093L22.8455 19.6859H23.4326L23.4318 19.6866ZM22.4136 17.8613L22.3266 18.0186L22.5483 18.1404L22.6353 17.9831L22.4136 17.8613ZM3.84428 19.0686L3.89496 19.2418C3.90631 19.2789 4.0228 19.2388 4.02053 19.1995L4.0107 19.0406C4.00919 19.0149 3.83671 19.0429 3.84352 19.0678L3.84428 19.0686ZM4.6673 19.1238L4.66578 19.1715V19.2206L4.6673 19.2683L4.66881 19.2206V19.1715L4.6673 19.1238ZM20.8553 19.6321L20.8538 19.6798V19.729L20.8553 19.7766L20.8568 19.729V19.6798L20.8553 19.6321ZM23.5415 19.9226L23.54 19.9703V20.0195L23.5415 20.0671L23.543 20.0195V19.9703L23.5415 19.9226ZM24.0491 20.2123L24.0476 20.26V20.3092L24.0491 20.3568L24.0506 20.3092V20.26L24.0491 20.2123ZM10.8596 20.5762C10.8634 20.4037 10.7605 20.3409 10.6501 20.3712L10.8596 20.5762ZM17.0466 20.5565L17.1495 20.7252C17.1631 20.7472 17.2698 20.7086 17.2607 20.6836L17.2055 20.5248C17.1971 20.5006 17.0337 20.5354 17.0466 20.5565ZM7.61821 20.8167C7.61897 20.8531 7.64317 20.9438 7.66587 20.9166L7.74681 20.8205C7.76194 20.8024 7.61745 20.7925 7.61821 20.8167ZM17.0194 20.9007L16.9717 20.9022L17.0194 20.9037H17.0685L17.1162 20.9022L17.0685 20.9007H17.0194ZM8.00627 21.4469L8.00476 21.4945V21.5437L8.00627 21.5914L8.00778 21.5437V21.4945L8.00627 21.4469ZM8.37088 23.4711L9.2529 22.5823L9.78317 22.0301L10.2378 21.5664L9.52144 21.6057L8.34364 21.5914L8.32927 21.9582L8.33759 22.9643C8.33911 23.1262 8.24833 23.3471 8.37088 23.4711ZM20.4574 21.7865C20.4574 21.7071 20.3931 21.6428 20.3137 21.6428C20.2343 21.6428 20.17 21.7071 20.17 21.7865C20.17 21.8659 20.2343 21.9302 20.3137 21.9302C20.3931 21.9302 20.4574 21.8659 20.4574 21.7865ZM18.0194 22.779C18.0345 22.8047 18.0981 22.9235 18.1041 22.8962L18.1291 22.7835C18.1351 22.757 18.0058 22.7555 18.0194 22.779ZM20.7774 23.0407C20.8084 23.0029 20.8031 22.7472 20.7714 22.7472C20.6276 22.7661 20.6322 23.0422 20.7774 23.0407ZM8.00627 22.9719L8.00476 23.0195V23.0687L8.00627 23.1164L8.00778 23.0687V23.0195L8.00627 22.9719ZM18.5444 23.1512L18.4967 23.1527L18.5444 23.1542H18.5935L18.6412 23.1527L18.5935 23.1512H18.5444ZM7.68856 23.4893C7.68856 23.45 7.65679 23.4182 7.61745 23.4182C7.57812 23.4182 7.54635 23.45 7.54635 23.4893C7.54635 23.5286 7.57812 23.5604 7.61745 23.5604C7.65679 23.5604 7.68856 23.5286 7.68856 23.4893ZM8.53276 24.447L8.37844 24.3706C8.33759 24.3501 8.27178 24.4696 8.28615 24.5135L8.35651 24.7299L8.53276 24.447ZM19.7365 24.8305L19.8432 24.9999C19.8606 25.0271 19.8538 24.8872 19.847 24.8562C19.8424 24.835 19.726 24.8131 19.7365 24.8312V24.8305Z" fill="#2C1F00"/>
<path d="M36.0052 23.1374V23.0938L36.2899 22.5576C36.5745 21.9572 36.8514 21.3876 37.1102 20.7873C37.3199 20.3049 37.6123 19.8534 37.7546 19.348C37.8323 19.0683 37.9462 18.8785 38.0833 18.6219C38.1713 18.4577 38.2464 18.2011 38.3292 18.0164L38.5647 17.5084L38.9839 16.6387L39.7888 14.8273L40.265 13.819L40.7619 12.7081C40.8887 12.4259 41.0491 12.1668 41.1501 11.8666C41.207 11.6947 41.3028 11.5202 41.3675 11.3586C41.6056 10.7762 41.854 10.2246 42.1232 9.64477L42.457 8.92639L43.1247 7.50504L43.5207 6.66095L43.883 5.7091C43.9399 5.56286 44.0926 5.35761 44.1961 5.21137C44.2893 5.08052 45.3995 5.12414 46.0129 5.13184C46.5072 5.13953 47.0015 5.07796 47.5061 5.14466C48.135 5.22933 49.0563 5.0523 50.0423 5.1498C50.2572 5.17032 50.4927 5.16006 50.7152 5.15493L51.3363 5.13697L52.2732 5.13184L52.9098 5.14723C53.0599 5.1498 53.3653 5.08309 53.5025 5.17032C53.7897 5.35761 53.826 5.70141 53.9502 5.97336L54.3151 6.78666L54.6722 7.60253L55.2287 8.83147L55.3865 9.15474L55.7566 9.94495L56.1603 10.8506C56.3596 11.2945 56.5045 11.7742 56.7374 12.1924L56.9833 12.6312L57.6251 14.091L58.0081 14.8889C58.1505 15.184 58.3316 15.4918 58.4248 15.7997C58.4921 16.0203 58.5361 16.1999 58.6577 16.3847C58.8182 16.6258 58.9113 16.8747 59.0226 17.139L59.6386 18.6116L60.0319 19.4506L60.3114 19.9842L60.7281 20.9053C60.9558 21.4056 61.0723 21.8648 61.3622 22.3267C61.5123 22.5627 61.5744 22.8116 61.7012 23.1194L60.7799 23.1297L60.2209 23.1502H59.2245L58.3523 23.1374L57.2369 23.104C56.7789 23.1605 56.3208 23.181 55.8731 23.0989C55.4616 23.1605 55.0889 23.1861 54.6748 23.1194L54.328 22.283L54.0977 21.7673L53.8622 21.2619L53.311 20.1382C52.9383 20.0048 52.4932 20.1074 52.0972 20.1074H51.2173L49.9984 20.0817L48.1091 20.1125L47.4854 20.1176L46.4632 20.1074H45.0036L44.3954 20.1433C44.1211 20.3332 44.1314 20.6923 44.015 20.954L43.5543 21.9803C43.4197 22.283 43.2593 22.5524 43.1558 22.8706C43.0962 23.0502 42.9616 23.1502 42.7727 23.1476L41.5693 23.1297C41.0077 23.122 40.4798 23.1605 39.913 23.122C39.6102 23.1015 39.279 23.0886 38.9839 23.1066L38.2981 23.1451C37.7521 23.1759 37.237 23.1117 36.6832 23.1348L36 23.1553L36.0052 23.1374ZM48.2049 8.61595C48.2282 8.65957 48.3912 8.57747 48.3679 8.53129L48.2877 8.36452C48.2385 8.2619 48.0626 8.11566 47.9513 8.08487C47.8193 8.04895 47.5967 8.13362 47.5087 8.2619C47.4699 8.32091 47.4854 8.5005 47.5424 8.53642C47.5889 8.56721 47.7365 8.56464 47.7831 8.52872L48.047 8.32347L48.2049 8.61595ZM50.2364 8.31065C50.2364 8.20032 50.1459 8.10796 50.032 8.10796C49.9181 8.10796 49.8276 8.19776 49.8276 8.31065C49.8276 8.42353 49.9181 8.51333 50.032 8.51333C50.1459 8.51333 50.2364 8.42353 50.2364 8.31065ZM48.7225 8.66727C48.8752 8.63648 48.9865 8.57491 49.0098 8.51076C49.0279 8.45945 48.9865 8.27473 48.9347 8.25677C48.8545 8.22855 48.694 8.31065 48.65 8.37992C48.5957 8.45945 48.6345 8.68523 48.7251 8.66727H48.7225ZM52.4466 9.99369C52.4466 9.86541 52.3405 9.76022 52.2111 9.76022C52.0817 9.76022 51.9756 9.86541 51.9756 9.99369C51.9756 10.122 52.0817 10.2272 52.2111 10.2272C52.3405 10.2272 52.4466 10.122 52.4466 9.99369ZM45.032 10.7865C45.1252 10.6915 45.0708 10.3401 44.9389 10.2913C44.7318 10.2143 44.5274 10.4529 44.5507 10.6454C44.574 10.8378 44.8379 10.9789 45.032 10.7865ZM48.6992 14.8709L49.9777 14.8992H51.1888L50.7877 14.0628L50.4849 13.5291L50.0734 12.7004L49.6749 11.8589L49.2038 10.8506C49.1184 10.6659 48.9709 10.4529 48.8804 10.2836C48.4922 10.7659 48.4197 11.2098 48.1014 11.7999L47.6278 12.6773L47.356 13.211L47.0972 13.7498L46.5796 14.8838C46.9601 14.9274 47.3586 14.8838 47.7442 14.8838L48.6966 14.8761L48.6992 14.8709ZM45.5263 12.1309C45.5703 12.0821 45.6014 11.8717 45.5574 11.8102C45.5212 11.7588 45.3866 11.687 45.3089 11.6639C45.2184 11.6357 45.1252 11.9436 45.2002 12.0026C45.2624 12.0539 45.3944 12.1052 45.5263 12.1309ZM52.9072 12.0924C52.827 12.0077 52.5605 11.8974 52.4725 11.9179C52.3612 12.0847 52.5527 12.2463 52.6873 12.2694L52.8762 12.3028C52.915 12.3105 52.9383 12.1206 52.9072 12.0898V12.0924ZM45.1614 13.7472L44.944 14.3424L45.1537 14.4168L45.3711 13.8216L45.1614 13.7472ZM45.767 14.953C45.7334 14.8915 45.5393 14.8504 45.4694 14.8556C45.3995 14.8607 45.2675 14.9992 45.2805 15.0762C45.3012 15.1993 45.4901 15.2455 45.5962 15.225C45.679 15.207 45.8188 15.0454 45.767 14.953ZM43.4999 16.0203L43.4042 15.4379C43.2515 15.5149 43.1014 15.6432 42.9927 15.8023L43.4999 16.0203ZM41.4063 17.1928C41.5279 17.1723 41.5978 16.9055 41.5176 16.7926C41.4503 16.6951 41.2407 16.6412 41.176 16.7182C41.0517 16.8927 41.0957 17.2493 41.4063 17.1954V17.1928ZM54.8198 16.9106C54.7861 16.8131 54.5584 16.6694 54.4652 16.7131C54.3229 16.7798 54.3746 17.0338 54.4833 17.0517C54.5584 17.0646 54.6904 17.003 54.8198 16.9106ZM55.7514 18.4577C55.8446 18.4038 55.767 18.1678 55.6816 18.1165C55.5884 18.0575 55.3632 18.0549 55.3425 18.1396C55.3063 18.3191 55.5056 18.5988 55.7488 18.4603L55.7514 18.4577Z" fill="#2C1F00"/>
<path d="M68.5918 4.84082L68.6518 5.83844L68.6388 7.10886V8.2052L68.6335 9.76919L68.6388 10.5148L68.631 12.0112L68.6414 12.8192V14.6924V15.4406L68.6466 17.1007L70.9649 17.0747H72.0602L73.4006 17.1007L74.3316 17.0747H76.1519L77.1533 17.0565L78.5146 17.0721L79.6568 17.0643L81.9073 17.1007L81.923 18.1165V20.4235L81.91 21.7303L81.936 23.0864C81.5292 23.154 81.1902 23.167 80.7808 23.1566L79.7194 23.1332L79.0935 23.128L78.525 23.1332H77.1194L76.0189 23.1254L75.0905 23.1358L73.8648 23.115L71.9012 23.1384H71.1214H69.4654H68.3936L67.2045 23.1436L66.0779 23.1566L65.1417 23.1462L64.1116 23.1384L62.5234 23.154C62.5704 22.346 62.5573 21.5822 62.5521 20.7924L62.5443 19.1219V18.2957L62.5521 17.919L62.573 16.0043L62.5495 13.9467V13.2349L62.5547 11.5592L62.5495 9.41067L62.5573 8.22079V7.03871L62.5626 6.21255L62.5521 5.46693L62.5652 4.84342H68.5866L68.5918 4.84082ZM66.0466 14.6144L65.5876 14.5105C65.3842 14.5884 65.3529 14.9496 65.4677 15.0353L65.7571 14.843C65.8536 14.7781 65.9553 15.0924 66.1613 15.0431C66.3674 14.9937 66.0153 14.8612 66.0466 14.6144ZM66.4143 15.4406C66.3309 15.4042 66.1014 15.3912 66.0075 15.4146C65.924 15.438 65.8562 15.6432 65.8849 15.7238C65.9136 15.8043 66.1222 15.89 66.2031 15.8588C66.31 15.8173 66.4117 15.7601 66.4612 15.7134C66.503 15.677 66.4665 15.4614 66.4143 15.4406ZM66.37 16.3031C66.1535 16.1498 65.971 16.0693 65.7102 16.1654L65.9762 16.4824C66.0101 16.5239 66.1848 16.5369 66.2187 16.4953L66.37 16.3005V16.3031ZM67.2253 18.2204C67.0819 18.0775 67.0011 18.0022 66.9306 18.0126C66.8759 18.0204 66.7794 18.1009 66.7429 18.1451C66.7064 18.1892 66.7898 18.3659 66.8472 18.3737C66.9567 18.3893 67.1523 18.2932 67.2253 18.223V18.2204ZM66.7794 20.3248C66.7976 20.4131 67.0923 20.4339 67.1627 20.3689C67.2332 20.304 67.2618 20.1299 67.2331 20.0312C67.2123 19.9585 67.035 19.8883 66.9437 19.8935L66.7768 20.3222L66.7794 20.3248Z" fill="#2C1F00"/>
<path d="M89.2703 4.84861L89.3347 5.90847L89.327 6.96833V8.15028L89.3193 9.83359L89.3296 10.5142L89.3115 11.9533L89.3296 12.782V14.7588V15.442L89.3244 17.0993L91.183 17.0837L92.1045 17.076L93.3402 17.0889H94.7817L96.7381 17.0785L97.7266 17.0604L99.0703 17.076H100.257L102.419 17.1071L102.435 18.1228L102.44 20.4426L102.425 21.7362L102.435 23.1078L101.246 23.1597L100.26 23.1364L99.6444 23.1312L99.0806 23.139H97.7009L96.6042 23.1312L95.6878 23.1416L94.4779 23.1182L92.537 23.1364H90.6604L89.5149 23.1416L88.7941 23.1364L87.9575 23.1442L86.7914 23.1546L85.8673 23.1442L83.3008 23.152L83.3342 21.3647L83.3111 20.6815L83.3162 19.1775L83.3034 18.6476L83.3214 17.8708L83.3394 16.0862L83.3188 13.8886L83.3136 13.247L83.3214 11.5662V9.31924L83.3265 8.26978V7.07224V5.8773L83.3188 5.10059L83.3291 4.84082H89.2729L89.2703 4.84861ZM87.4066 13.1664C87.4066 13.0443 87.3088 12.943 87.1853 12.943C87.0617 12.943 86.9639 13.0417 86.9639 13.1664C86.9639 13.2911 87.0617 13.3898 87.1853 13.3898C87.3088 13.3898 87.4066 13.2911 87.4066 13.1664ZM85.3009 14.3562C85.4039 14.4211 85.6176 14.2652 85.6253 14.1639C85.6356 14.0392 85.4477 13.834 85.3009 13.899C85.1902 13.9457 85.1825 14.2834 85.3009 14.3588V14.3562ZM88.1918 19.006C88.3797 18.9463 88.4955 18.5281 88.3128 18.3722C88.2046 18.2813 87.9524 18.4449 87.9086 18.5696C87.852 18.7333 87.9215 19.0892 88.1918 19.0034V19.006ZM87.7747 19.1957C87.6666 19.0606 87.4658 18.9177 87.3397 18.8839C87.265 18.8632 87.1003 18.9749 87.0926 19.0476C87.0849 19.1203 87.1183 19.3022 87.1647 19.3671C87.247 19.484 87.4324 19.5749 87.5431 19.5516C87.646 19.5308 87.8442 19.284 87.7747 19.1931V19.1957ZM89.5921 19.923C89.5921 19.7879 89.484 19.6788 89.3501 19.6788C89.2163 19.6788 89.1082 19.7879 89.1082 19.923C89.1082 20.0581 89.2163 20.1672 89.3501 20.1672C89.484 20.1672 89.5921 20.0581 89.5921 19.923Z" fill="#2C1F00"/>
<path d="M254.625 17.3327V18.2695L254.568 18.6974L254.407 19.6238L254.213 20.2919C254.143 20.5293 253.951 20.7746 253.809 21.0043C253.69 21.1948 253.451 21.3618 253.286 21.5262C253.042 21.7689 252.788 21.902 252.475 22.0324C251.962 22.2464 251.473 22.4787 250.916 22.5752L249.543 22.8127L248.678 22.891L247.93 22.9823L246.378 23.0762L245.21 23.1023L244.022 23.131L242.903 23.1597L242.032 23.1415H241.522L240.725 23.1258L238.896 23.0893L238.054 23.0241L236.314 22.8388L234.998 22.6039C234.773 22.5648 234.553 22.5256 234.348 22.4395L233.488 22.0846L232.745 21.6045C232.318 21.3279 232.085 20.7929 231.877 20.3493C231.657 19.8796 231.559 19.4647 231.51 18.9584C231.437 18.2277 231.326 17.5753 231.398 16.829L231.965 16.8212H232.988L233.519 16.8499H234.327L235.503 16.8551L236.728 16.8499L237.674 16.816C237.643 17.1448 237.645 17.5414 237.946 17.6876C238.122 17.7737 238.451 17.9589 238.64 17.972L240.662 18.1338L241.274 18.1677L242.1 18.1834L242.983 18.1886H244.638L245.467 18.1677C246.083 18.1547 246.718 18.1938 247.316 17.9302C247.583 17.8128 247.621 17.2909 247.453 17.0639C246.922 16.8629 246.358 16.8186 245.796 16.7794L245.019 16.7272L243.358 16.6203L241.779 16.4611L240.251 16.3567L239.064 16.234C237.992 16.1845 236.99 15.9861 235.949 15.7748L235.154 15.6156L233.393 15.0023L232.856 14.624C232.667 14.4909 232.439 14.3995 232.312 14.2404L232.002 13.8463C231.422 13.1104 231.168 12.1658 231.129 11.229L231.201 9.68933L231.315 8.83863C231.471 7.69565 232.095 6.58921 233.165 6.07513L233.926 5.7098C234.493 5.4384 235.13 5.26878 235.762 5.18789L236.863 5.04698L237.624 4.98435L238.186 4.93998L240.551 4.84082H241.548H242.499H243.348L244.464 4.86692L245.715 4.92954L246.57 4.96608L247.971 5.09655L249.15 5.31837L249.828 5.44884C250.222 5.52452 250.566 5.63151 250.926 5.80113L251.773 6.20561C252.317 6.59182 252.804 7.03805 253.213 7.56517C253.451 7.87049 253.615 8.32194 253.695 8.67683L253.827 9.26659C253.941 9.77806 253.964 10.2791 253.977 10.801L253.993 11.4664C253.809 11.4899 253.55 11.5056 253.376 11.5056L252.472 11.4951L251.742 11.5004L249.38 11.4899L248.802 11.503L247.533 11.4847C247.707 10.4644 246.485 10.1408 245.474 10.0964L244.897 10.0729L243.605 9.99465C243.296 9.97638 243.055 9.97638 242.763 9.97899L241.17 9.99987L240.248 10.026L239.246 10.0677L238.598 10.1303C238.212 10.1695 237.72 10.2687 237.523 10.6157C237.461 10.7253 237.518 11.0306 237.591 11.1194C237.816 11.3934 238.935 11.469 239.577 11.4847L240.038 11.5839L240.989 11.6621L241.802 11.7169L242.478 11.7561L244.154 11.8918L245.2 11.9857L246.21 12.0588L247.388 12.1919L248.282 12.3041L249.245 12.4163L250.351 12.5937L251.299 12.839L252.237 13.1209C252.866 13.3088 253.607 13.8046 253.949 14.3526C254.335 14.971 254.531 15.613 254.578 16.3463L254.643 17.3248L254.625 17.3327Z" fill="#2C1F00"/>
<path d="M108.368 23.1422V23.0927L108.813 22.1406L109.121 21.6058L109.458 20.8128L109.678 20.2807L110.162 19.1486L110.522 18.3739L111.237 16.7748L111.672 15.8384L112.553 13.8481L112.853 13.1568L113.19 12.3638L113.591 11.4613L114.091 10.3918C114.319 9.90397 114.453 9.37183 114.741 8.91273C114.984 8.52406 115.093 8.09626 115.287 7.69194L115.668 6.89112L115.953 6.18943C116.139 5.72772 116.37 5.36252 116.517 4.8643L116.854 4.84865L117.807 4.86691L119.019 4.85647L120.145 4.84082L120.95 4.84604L121.546 4.85386H122.325L124.185 4.84865L125.05 4.85908L125.93 4.86691L126.259 5.62338L126.795 6.83895C126.88 7.03198 127.031 7.20415 127.082 7.41805C127.158 7.73107 127.336 7.99192 127.463 8.27103L127.823 9.04837L128.47 10.5457L128.973 11.6726L129.672 13.1881L130.016 13.9654L130.317 14.6124L130.651 15.4184L130.889 15.9818L131.58 17.5417L132.07 18.6138C132.264 19.0416 132.51 19.4016 132.627 19.8685L132.961 20.5624L133.328 21.4024L133.595 21.9345L134.066 23.1109C133.864 23.137 133.624 23.1788 133.455 23.1501C133.134 23.0953 132.899 23.137 132.585 23.1396L131.858 23.1475L129.493 23.1318L129.001 23.1422L127.098 23.1188L126.798 22.4119L126.233 21.1728L125.943 20.5937L125.705 20.0642C125.435 20.0016 125.166 20.0198 124.892 20.072C124.648 20.119 124.436 20.0511 124.193 20.0485L123.353 20.0381L122.613 20.0694L121.688 20.0772L120.725 20.0668H120.176L119.226 20.085H118.568L117.682 20.059L116.737 20.0746C116.649 20.4476 116.491 20.6224 116.354 20.9224L115.96 21.7728L115.606 22.5971L115.401 23.1135C114.787 23.184 114.212 23.1396 113.586 23.1396H112.49L111.556 23.1553L110.351 23.1422L109.36 23.1266L108.365 23.1396L108.368 23.1422ZM121.665 7.62934C121.66 7.51456 121.528 7.33196 121.455 7.29544L121.09 7.5276C121.139 7.62673 121.246 7.75715 121.341 7.8015C121.427 7.84063 121.673 7.72585 121.668 7.62934H121.665ZM124.741 10.097C124.845 10.0735 124.954 9.80745 124.949 9.68224C124.943 9.58312 124.855 9.42139 124.783 9.3927C124.723 9.36922 124.578 9.38748 124.521 9.42661L124.161 9.67181C124.226 9.91441 124.444 10.1674 124.741 10.097ZM122.01 14.7532L122.973 14.7428H123.558L123.268 14.2263C123.206 13.8924 123.038 13.6889 122.89 13.3994L122.535 12.7029L121.481 10.5091L121.251 10.0344L120.764 10.9709L120.023 12.416L119.417 13.6837L119.208 14.1637L118.91 14.7819C119.218 14.8106 119.446 14.8028 119.728 14.748C119.966 14.701 120.202 14.7845 120.435 14.7793L122.01 14.7558V14.7532ZM117.32 11.1143C117.289 11.0204 117.009 11.0178 116.937 11.083C116.864 11.1482 116.825 11.3517 116.867 11.456C116.898 11.5343 117.097 11.5969 117.185 11.5526C117.284 11.503 117.361 11.2421 117.32 11.1143ZM117.568 13.329C117.561 13.2794 117.377 13.2924 117.377 13.3394L117.372 13.5168C117.372 13.5689 117.395 13.7072 117.413 13.7594C117.431 13.8115 117.535 13.8142 117.646 13.8142L117.568 13.3316V13.329ZM116.388 14.7193L116.305 14.4141L115.896 14.6384C115.815 14.6828 115.859 14.9515 115.932 14.9828C116.126 15.0662 116.403 14.7715 116.388 14.7193ZM123.861 15.7653C123.801 15.7497 123.672 15.7862 123.612 15.841C123.527 15.9166 123.48 16.1253 123.496 16.2296C123.509 16.3157 123.698 16.4566 123.783 16.4331C124.019 16.1462 124.035 15.8097 123.864 15.7679L123.861 15.7653ZM127.846 16.2088L128.351 16.0966C128.271 15.794 127.955 15.7732 127.74 15.9375C127.681 15.9844 127.606 16.0627 127.577 16.1097C127.549 16.1566 127.782 16.2218 127.846 16.2088ZM117.949 16.874C118.011 16.8113 118.016 16.5688 117.949 16.5348C117.882 16.5009 117.737 16.4566 117.667 16.4488L117.657 16.8113C117.657 16.8766 117.9 16.9183 117.947 16.8713L117.949 16.874Z" fill="#2C1F00"/>
<path d="M224.11 22.8938L223.356 22.9824L221.812 23.0763L220.632 23.1024L219.453 23.1311L218.282 23.1597L217.25 23.1389L216.584 23.1285L215.654 23.1102L214.229 23.0815L213.482 23.0268L211.689 22.8312L210.476 22.6095L209.991 22.5339L208.861 22.0671C208.659 21.9837 208.366 21.7542 208.164 21.6108C207.729 21.3005 207.488 20.7815 207.267 20.3226C207.06 19.8897 206.972 19.496 206.92 19.0266C206.84 18.2834 206.733 17.621 206.79 16.8466L207.441 16.8205L208.688 16.8413L209.31 16.8518H210.922H212.103L213.083 16.8179C213.036 17.1569 213.055 17.548 213.363 17.6941C213.521 17.7697 213.835 17.9522 214.006 17.9653L216.087 18.1348L216.74 18.1739L217.52 18.1817L218.396 18.1895H220.06L220.884 18.1687C221.498 18.1556 222.146 18.2052 222.727 17.9261C222.988 17.801 223.03 17.3055 222.861 17.0786C222.739 17.0004 222.483 16.9326 222.327 16.9144L221.265 16.7892L220.379 16.7318L218.969 16.6536L218.077 16.5571L216.457 16.4345L215.141 16.2833L214.368 16.2442C213.337 16.1894 212.37 15.9886 211.357 15.7852L210.567 15.6262L208.802 15.0134L208.226 14.6118C208.053 14.4892 207.832 14.4006 207.716 14.2545L207.376 13.8295C206.342 12.5309 206.441 10.6168 206.684 8.99224C206.866 7.78228 207.454 6.61925 208.571 6.08468L209.333 5.71961C209.9 5.44841 210.538 5.2763 211.17 5.19807L212.23 5.07029L213.023 4.99207L213.542 4.95295L215.032 4.91905L216.076 4.84082L216.965 4.85907H217.911L218.759 4.85647L219.878 4.88515L221.13 4.94773L221.985 4.98424L223.387 5.11723L224.613 5.35453L225.948 5.65702L227.104 6.19421C227.63 6.43933 228.011 6.94782 228.423 7.35201C228.858 7.77967 229.022 8.3664 229.154 8.94269C229.302 9.58418 229.418 10.1605 229.372 10.828L229.392 11.4904L228.786 11.5217L227.884 11.5113L227.156 11.5165L224.73 11.506L224.212 11.5191L222.929 11.5008C223.095 10.4864 221.887 10.1553 220.879 10.1135L220.309 10.0901L219.008 10.0118C218.684 9.99098 218.43 9.98837 218.124 9.99359L216.569 10.0145L215.589 10.0431L214.633 10.0849L213.995 10.1422C213.612 10.1761 213.169 10.2544 212.922 10.596C212.842 10.7107 212.878 11.0341 212.974 11.1436C213.062 11.2401 213.277 11.3261 213.448 11.347L214.521 11.4748L215.392 11.5791L216.382 11.6781L217.144 11.7277L217.878 11.7694L219.495 11.8998L220.599 11.9989L221.612 12.0719L222.732 12.1971L223.688 12.317L224.647 12.4318L225.707 12.5987L226.643 12.8412L227.591 13.1202C228.223 13.3053 228.975 13.793 229.314 14.3354C229.654 14.8778 229.898 15.4749 229.944 16.1425L230.009 17.0786C230.061 17.827 230.053 18.5363 229.885 19.2717L229.737 19.921C229.587 20.5729 229.213 21.0554 228.734 21.496C228.444 21.762 228.156 21.9055 227.801 22.0671C227.15 22.3618 226.549 22.6017 225.821 22.6382L224.971 22.8181L224.092 22.8938H224.11Z" fill="#2C1F00"/>
<path d="M196.309 16.4238L195.403 16.4108L194.648 16.4238H193.027H191.9L191.29 16.4082L191.308 18.0343L192.577 18.0473L193.212 18.0525H194.103L195.525 18.0447L196.281 18.0577L199.398 18.0837L199.958 18.0551L201.029 18.0629L201.844 18.0525L203.581 18.0655H204.722H205.413L205.428 18.6561V19.5329V20.2848L205.42 21.3593L205.397 23.1389L204.78 23.1207L203.535 23.1389H201.779H200.875L198.896 23.1597L198.278 23.1467L197.338 23.1285H196.518L195.353 23.1259L194.317 23.1337H193.465H191.965L191.09 23.1259L190.035 23.1207L188.92 23.1259L185.242 23.1155L185.221 21.7132L185.229 20.5294L185.234 17.3813V16.3432L185.219 14.652L185.234 13.999L185.221 13.0051L185.227 9.47714L185.219 7.29167L185.195 4.84082L186.459 4.86424L188.683 4.84342L189.712 4.85903L190.524 4.86424L191.15 4.86944L193.465 4.84602L194.46 4.86163H195.338L196.213 4.85643H197.273L198.588 4.86944L199.378 4.85123L200.901 4.85903L203.331 4.84602L204.587 4.86424H205.405L205.426 5.52248L205.42 6.42529L205.426 7.17199V9.74512C205.423 9.84919 205.311 9.96887 205.215 9.96627L203.996 9.94285H200.511L199.161 9.93505H198.205L197.338 9.92464L196.604 9.94545L195.757 9.95066H194.306H192.168L191.282 9.93765L191.321 10.9757L191.288 11.5637L192.303 11.5559L193.192 11.5507L193.96 11.5325H195.583L196.648 11.5377L197.739 11.5221L201.909 11.5273L202.771 11.5663L204.535 11.5221L204.527 12.5186L204.517 13.8429L204.501 15.8696L204.506 16.442L202.956 16.416L202.331 16.4238L201.448 16.4342H200.518L199.271 16.4212L197.45 16.4134L196.302 16.4212L196.309 16.4238ZM187.537 10.8457C187.654 10.9029 187.836 10.7858 187.891 10.6817C187.935 10.5959 187.844 10.3435 187.748 10.3669C187.625 10.3956 187.498 10.4606 187.446 10.5178C187.394 10.5751 187.461 10.8092 187.534 10.8457H187.537ZM189.8 11.4727C189.816 11.1136 189.631 10.8977 189.219 10.8144C189.123 10.9992 189.128 11.2932 189.246 11.5273C189.339 11.7172 189.675 11.8577 189.894 11.8135C189.951 11.8031 190.027 11.6106 189.98 11.582L189.803 11.4701L189.8 11.4727ZM188.855 11.673C188.988 11.6418 189.058 11.4571 189.035 11.3842C189.011 11.3114 188.863 11.1709 188.769 11.1865C188.688 11.1995 188.615 11.4154 188.633 11.4935C188.649 11.5585 188.782 11.6886 188.855 11.673ZM190.735 13.5541C190.782 13.4656 190.748 13.2705 190.699 13.2237C190.412 13.4708 190.269 13.6946 190.475 14.0484L190.735 13.5541ZM190.061 13.8351C189.983 13.7622 189.766 13.731 189.662 13.7908C189.571 13.8429 189.509 14.1525 189.589 14.2175L189.873 14.4517C189.931 14.4985 190.113 14.5245 190.186 14.5089C190.241 14.4959 190.256 14.0172 190.063 13.8377L190.061 13.8351ZM188.785 16.9702C189.089 16.8479 189.264 16.5591 189.292 16.2807C189.303 16.1871 189.201 15.9971 189.121 15.9997C189.053 16.0023 188.91 16.0622 188.857 16.1064C188.68 16.2599 188.693 16.455 188.712 16.6606C188.719 16.736 188.706 16.9624 188.785 16.9676V16.9702Z" fill="#2C1F00"/>
<path d="M177.879 15.5889L180.072 15.5812L180.747 15.576L181.62 15.5632H182.6H183.527V16.3414C183.522 16.666 183.476 17.0423 183.375 17.3541L182.958 18.6451L182.513 19.4027L182.17 19.9309L181.55 20.5365C181.28 20.7993 181.027 21.0441 180.7 21.2323L180.003 21.6291L178.886 22.1367L178.139 22.3893L176.806 22.7243L176.18 22.8351L175.256 22.9665L173.891 23.1185L173.145 23.1494L170.619 23.1597H169.695L168.47 23.0876L167.644 23.0309L166.145 22.7938C165.666 22.7191 165.244 22.6263 164.789 22.4872C164.094 22.2759 163.432 22.1032 162.799 21.7528L162.243 21.4436C161.862 21.2323 161.548 20.9978 161.252 20.6911L160.858 20.2814C160.469 19.8768 160.134 19.4439 159.918 18.9285L159.457 17.8385C159.223 17.2819 159.156 16.7537 159.089 16.1404L158.999 15.339C158.922 14.6484 158.924 13.3316 159.03 12.708L159.187 11.77L159.403 10.8346L159.599 10.3012L159.98 9.39929L160.435 8.59273L160.852 8.11344C161.143 7.78102 161.393 7.45634 161.751 7.21153L162.523 6.6807L163.401 6.19883L164.276 5.83549C165.141 5.47731 166.024 5.26342 166.969 5.14746L168.573 4.94905L170.063 4.89751L170.856 4.84082L172.282 4.84597L172.962 4.89751L174.507 5.03666L176.35 5.28404C176.705 5.41546 177.078 5.49019 177.459 5.52884L178.103 5.75818C179.416 6.22717 180.695 6.76574 181.643 7.82741L182.17 8.41751C183.03 9.37868 183.416 10.7599 183.496 12.0586L183.553 12.994L182.92 13.0301L182.034 13.0172L181.305 13.0275L178.862 13.0198L178.386 13.0275L177.395 13.0121L177.145 12.3936C176.754 11.6283 176.069 11.1052 175.302 10.7753L174.785 10.5924C174.386 10.4532 173.953 10.2497 173.531 10.2239C172.875 10.1852 172.445 10.0074 171.739 10.0203L171.052 10.0358L170.184 10.0615L169.222 10.1492L168.624 10.2394L167.703 10.4919L167.093 10.747C166.524 10.9866 165.875 11.4866 165.651 12.0225L165.316 12.8214C165.206 13.0894 165.159 13.5429 165.172 13.8392L165.211 14.6664C165.242 15.3183 165.721 16.1584 166.171 16.6815C166.521 17.0861 167.414 17.5525 167.976 17.6813L169.077 17.9313L170.182 18.0653L171.049 18.0782L172.213 18.0421L173.14 18.006L174.725 17.671L175.606 17.3695C176.412 17.0938 177.187 16.4341 177.4 15.5966L177.882 15.5812L177.879 15.5889Z" fill="#2C1F00"/>
<path d="M151.368 15.5655L151.888 15.581L154.077 15.5681L154.756 15.5629L155.636 15.55L156.51 15.5552L157.546 15.5629C157.539 16.2102 157.575 16.7517 157.395 17.3293L156.995 18.6187L156.677 19.137L156.367 19.6424C156.19 19.9312 155.974 20.1401 155.719 20.3722L154.977 21.0478L153.988 21.61L152.872 22.1205L152.073 22.3939L150.717 22.7214L150.142 22.8245L149.15 22.9663L147.768 23.1185L147.068 23.1469L144.463 23.1597H143.531L142.339 23.0875L141.462 23.0257L139.939 22.7884C139.476 22.7162 139.067 22.6234 138.625 22.4893C137.938 22.2804 137.274 22.1205 136.644 21.7776L136.043 21.4527C135.642 21.236 135.317 20.9885 135.015 20.6739L134.614 20.2587C134.278 19.9106 133.966 19.5444 133.773 19.106L133.206 17.809C133.013 17.3654 132.899 16.9451 132.894 16.4422L132.769 15.7512L132.753 15.1039C132.662 14.4695 132.706 13.8713 132.743 13.2421C132.753 13.0409 132.732 12.8295 132.8 12.6309C132.894 12.3524 132.883 12.0353 132.946 11.7619L133.159 10.8336L133.367 10.2792L133.734 9.39983L134.198 8.62106L135.023 7.6489C135.267 7.36266 135.613 7.09705 135.939 6.90365L136.759 6.40854L137.776 5.9418L138.562 5.65298C139.609 5.26618 140.689 5.13209 141.797 5.0212C142.31 4.96963 142.818 4.88969 143.33 4.8768L144.455 4.84843C145.54 4.82265 146.573 4.8639 147.64 4.949L148.455 5.01605L150.319 5.27392C150.678 5.40285 151.055 5.46474 151.438 5.51373L152.083 5.74582L153.163 6.15325C154.119 6.51427 154.918 7.07127 155.631 7.7933L156.331 8.59012L156.711 9.14196C156.945 9.48493 157.07 9.86915 157.208 10.2611C157.406 10.831 157.484 11.3906 157.52 11.9914L157.58 12.9842C157.328 13.0126 157.127 13.0203 156.906 13.0177L156.068 13.0074L155.274 13.0177L152.851 13.0074L152.328 13.0177L151.326 12.992C151.144 12.0456 150.142 11.0863 149.296 10.7872L148.689 10.5731C148.299 10.4365 147.877 10.2379 147.466 10.2121C146.792 10.1709 146.36 9.99551 145.722 10.0058L144.962 10.0187L144.025 10.0445L143.364 10.1012L142.786 10.1709L142.086 10.3101L141.071 10.6711C140.431 10.898 139.799 11.3106 139.512 11.9553L139.145 12.7831C139.023 13.0616 138.979 13.5154 138.992 13.8197L139.031 14.6578C139.039 14.8228 139.122 15.1194 139.179 15.2999C139.314 15.7254 139.577 16.0812 139.817 16.4603C140.119 16.9348 141.175 17.5253 141.797 17.6645L142.963 17.925L144.025 18.0539L144.962 18.0668L146.087 18.0307L147.063 17.9895L148.627 17.6671L149.514 17.368C150.386 17.0766 151.125 16.4603 151.373 15.5603L151.368 15.5655Z" fill="#2C1F00"/>
<path d="M286.525 23.1597H281.804C281.835 23.1416 281.701 23.1002 281.667 23.1002L280.79 23.0898C280.702 22.7895 280.733 22.4892 280.733 22.163V21.5443L280.738 20.6045L280.71 20.0453L280.715 18.7535L280.733 17.8758L280.759 16.861L280.754 15.1782C280.643 15.2999 280.508 15.4578 280.451 15.5666L280.019 16.395L279.664 16.9645L279.328 17.503L278.854 18.3211L278.407 19.1263L278.148 19.5457L277.426 20.7599L276.427 22.5565L276.098 23.152H271.497C271.257 23.0562 271.052 23.1623 270.936 22.8439C270.796 22.4556 270.615 22.1268 270.353 21.8058L270.033 21.1844L269.644 20.4621L268.99 19.2997L268.49 18.4402L268.037 17.6506L267.696 17.0655L267.088 15.9212L266.645 15.2326L266.624 15.6934L266.643 17.8732L266.627 18.4816L266.611 19.0641L266.655 20.3353C266.663 20.5243 266.609 20.7366 266.666 20.9255L266.64 22.4685L266.653 23.1494H263.672C263.413 23.0717 263.113 23.0588 262.807 23.0769L262.243 23.1494H261.56C261.591 23.1313 261.454 23.0898 261.418 23.0898L260.631 23.0847L260.626 22.3598C260.626 22.3209 260.585 22.1863 260.566 22.2174V7.55397C260.696 7.35204 260.639 7.11903 260.639 6.87568L260.631 4.90037C260.838 4.87707 261.058 4.846 261.224 4.87189C261.547 4.91849 261.798 4.91072 262.124 4.89778L262.968 4.85894L263.91 4.86929L265.724 4.91848L266.536 4.87706L267.828 4.84082L268.017 5.24986C268.18 5.60713 268.379 5.91003 268.586 6.23105L268.878 6.69704L270.035 8.70343L270.77 9.95904L271.174 10.6865L271.554 11.3493L271.986 12.0379L272.776 13.3686L273.392 14.4844L273.71 14.9737L274.132 14.153L274.473 13.6404L275.084 12.5609L275.345 12.0742L275.689 11.502L276.101 10.8548L276.929 9.39984C277.092 9.10988 277.167 8.85876 277.4 8.59987L277.801 7.83616C277.941 7.57209 278.15 7.39604 278.282 7.1268L278.676 6.33202L279.077 5.69515C279.235 5.44662 279.343 5.13854 279.582 4.94178C279.693 4.84858 280.032 4.91331 280.182 4.90813L280.764 4.89259L282.099 4.88483L283.357 4.86153L284.289 4.87448L285.598 4.9159L286.742 4.90295L286.76 5.50875V6.11714L286.781 7.23554V8.55068L286.783 9.35841L286.814 10.1946L286.773 11.0981L286.757 12.9L286.789 13.5783C286.814 14.109 286.716 14.5957 286.789 15.1368L286.773 15.6028L286.765 17.5885V18.127L286.789 18.9243V19.7165L286.755 20.3197C286.742 20.545 286.755 20.6641 286.76 20.8815L286.786 21.8731L286.778 22.4711L286.721 23.0225L286.53 23.1494L286.525 23.1597ZM284.61 7.55397C284.584 7.46336 284.553 7.34945 284.509 7.3598C284.478 7.36498 284.397 7.3831 284.395 7.41417L284.379 7.59021C284.372 7.67823 284.535 7.83357 284.628 7.83357C284.703 7.83357 284.819 7.72484 284.85 7.65752C284.739 7.62905 284.623 7.60574 284.61 7.55655V7.55397ZM280.925 8.12093C281.02 8.12093 281.201 8.06916 281.23 7.99667C281.258 7.92418 281.269 7.72225 281.235 7.64976L281.155 7.47371C281.155 7.47371 280.894 7.57726 280.795 7.84651C280.769 7.91641 280.852 8.12093 280.925 8.12093ZM284.555 9.17202C284.607 9.36878 284.799 9.39725 284.897 9.32477C284.985 9.26004 285.068 9.12024 285.06 9.0348C285.052 8.94937 284.884 8.80181 284.801 8.8251C284.698 8.85358 284.529 9.07364 284.555 9.17461V9.17202ZM267.39 9.47233C267.388 9.36877 267.199 9.2238 267.119 9.25228C266.894 9.33771 266.868 9.81924 267.057 10.0781C267.295 9.95386 267.398 9.74675 267.39 9.47233ZM268.138 9.5267C268.162 9.48528 267.98 9.30147 267.944 9.33253C267.874 9.39466 267.781 9.5267 267.766 9.59919C267.753 9.66132 267.833 9.7804 267.911 9.86066C267.957 9.80888 268.081 9.62507 268.138 9.52411V9.5267ZM284.064 10.2749C284.211 10.3474 284.449 10.1325 284.408 9.97457C284.374 9.84771 284.237 9.65873 284.071 9.70791C283.978 9.73639 283.885 9.92538 283.898 10.0108C283.908 10.0833 283.994 10.2412 284.064 10.2749ZM269.148 10.5881C269.106 10.3991 269.041 10.2645 268.938 10.1972C268.85 10.1429 268.609 10.1713 268.552 10.2645C268.382 10.5364 268.537 11.0101 268.819 11.0904C269.101 11.1706 269.202 10.816 269.15 10.5855L269.148 10.5881ZM282.563 10.7616C282.64 10.7875 282.803 10.6554 282.801 10.5778C282.798 10.4949 282.721 10.3267 282.643 10.3318C282.578 10.337 282.436 10.4017 282.384 10.4457C282.338 10.4846 282.27 10.6658 282.327 10.6839L282.56 10.7616H282.563ZM282.992 10.8807C283.047 11.0723 283.235 11.181 283.318 11.1163C283.378 11.0697 283.424 10.8859 283.404 10.7875C283.303 10.7331 283.031 10.8004 282.995 10.8781L282.992 10.8807ZM280.676 11.779L280.901 10.9195C280.899 10.8263 280.562 10.8056 280.523 10.891C280.492 10.9609 280.474 11.0671 280.461 11.1862C280.43 11.4476 280.151 11.6056 280.363 11.8256C280.42 11.8852 280.653 11.8593 280.676 11.779ZM282.242 11.414C282.288 11.3726 282.356 11.2146 282.361 11.1396C282.366 11.0619 282.193 10.9221 282.115 10.9583C281.939 11.0412 282.006 11.3441 282.242 11.414ZM282.625 11.401C282.679 11.5098 282.894 11.4295 282.948 11.3389C282.984 11.2716 282.928 11.1111 282.84 11.0645C282.739 11.0826 282.573 11.3001 282.625 11.401ZM262.559 11.6936C262.631 11.6884 262.748 11.5253 262.719 11.4606C262.696 11.4088 262.549 11.3389 262.494 11.357C262.352 11.4036 262.199 11.5745 262.135 11.7221L262.556 11.6936H262.559ZM266.205 11.8541C266.055 11.8282 265.858 12.0327 265.892 12.1932C265.918 12.3201 266.063 12.447 266.226 12.4806C266.304 12.4961 266.492 12.4314 266.511 12.3615C266.549 12.1932 266.376 11.8852 266.205 11.8541ZM281.282 12.8974C281.458 12.7266 281.509 12.4625 281.383 12.3123C281.274 12.1855 281.01 12.1208 280.86 12.1881C280.824 12.535 280.956 12.7887 281.282 12.9V12.8974ZM284.648 13.6275C284.731 13.5887 284.837 13.4359 284.843 13.3686C284.845 13.3116 284.76 13.1874 284.698 13.1408C284.63 13.0916 284.475 13.2832 284.462 13.3686C284.449 13.454 284.571 13.6611 284.648 13.6249V13.6275ZM278.013 13.9174C278.114 13.8605 278.148 13.6689 278.127 13.5783C278.104 13.4644 277.881 13.3712 277.765 13.4644C277.703 13.5162 277.695 13.7026 277.731 13.7725C277.767 13.8424 277.946 13.9563 278.013 13.9174ZM264.966 14.1064L265.087 13.6171L264.479 13.6508L264.678 14.122C264.697 14.1608 264.779 14.2281 264.818 14.241C264.857 14.254 264.955 14.1556 264.968 14.109L264.966 14.1064ZM283.549 14.2307C283.375 14.1245 283.16 14.4223 283.173 14.4326L283.326 14.5491L283.448 14.6397C283.448 14.6397 283.694 14.3161 283.551 14.2281L283.549 14.2307ZM278.756 15.4216C278.862 15.0773 278.697 14.7536 278.363 14.7252V15.5122C278.36 15.5821 278.539 15.6675 278.593 15.6365C278.647 15.6054 278.733 15.4967 278.759 15.419L278.756 15.4216ZM272.481 15.4656C272.413 15.2222 272.152 15.1083 271.945 15.1627L271.896 14.8779C271.888 14.8339 271.707 14.8417 271.697 14.8831L271.653 15.0747L271.627 15.4242C271.616 15.551 271.901 15.6649 272.028 15.6753C272.178 15.6856 272.413 15.5899 272.481 15.4656ZM269.543 15.2662L269.246 14.9892C269.192 15.041 269.096 15.173 269.124 15.2274L269.274 15.5148L269.543 15.2662ZM264.668 16.8817L264.792 16.5219C264.963 16.4442 265.111 16.3639 265.206 16.1879C264.909 16.1749 264.733 16.3096 264.572 16.496C264.474 16.6099 264.526 16.7937 264.668 16.8817ZM282.374 16.7704C282.449 16.4623 282.348 16.3924 282.27 16.3018C282.224 16.2474 282.055 16.2138 282.017 16.2578C281.978 16.3018 281.957 16.4675 282.004 16.5037L282.374 16.773V16.7704ZM274.944 16.5037C274.955 16.4287 274.776 16.307 274.701 16.3173C274.626 16.3277 274.453 16.4727 274.504 16.5296L274.691 16.7393C274.724 16.7756 274.867 16.8532 274.882 16.8066C274.898 16.76 274.924 16.6409 274.944 16.5037ZM283.393 16.8351C283.393 16.773 283.251 16.6384 283.202 16.6591L282.979 16.7549C282.925 16.7782 282.785 16.9361 282.834 16.9723L283.021 17.1147C283.085 17.1639 283.238 17.195 283.303 17.1561C283.355 17.1251 283.396 16.9464 283.393 16.8325V16.8351ZM273.156 17.1587C273.192 17.0733 273.226 16.8947 273.172 16.8739L272.97 16.7989C272.9 16.773 272.755 16.7782 272.688 16.8092C272.633 16.8351 272.584 17.0319 272.62 17.0681L273.156 17.1587ZM264.07 17.5341C264.272 17.3736 264.166 17.0759 264.047 16.9723C263.928 16.8688 263.656 16.8014 263.545 16.949C263.434 17.0966 263.519 17.2933 263.628 17.3943C263.716 17.4746 263.98 17.6066 264.07 17.5341ZM273.927 18.8933C274.049 18.8751 274.062 18.5593 274.005 18.4609C273.935 18.3341 273.803 18.2564 273.671 18.2564C273.539 18.2564 273.298 18.435 273.342 18.5438C273.441 18.7379 273.707 18.9269 273.927 18.8933ZM271.665 19.3256L271.609 18.8156C271.44 18.8156 271.316 18.9373 271.352 19.0797C271.389 19.2221 271.513 19.3282 271.665 19.3282V19.3256ZM274.235 20.0453L274.277 19.6673C274.284 19.6078 274.082 19.5172 274.036 19.556C273.974 19.6078 273.94 19.8175 273.982 19.89C274.015 19.9495 274.158 20.0246 274.235 20.0453Z" fill="#2C1F00"/>
<path d="M305.601 23.1312L304.227 23.1597L304.159 23.0974H299.172L299.104 23.1597H295.481L295.361 23.0974H292.979L292.859 23.1597L289.554 23.1338L288.481 23.0871L288.465 22.4614V21.2308L288.479 20.3273L288.468 19.0525L288.476 18.3775V17.474L288.465 16.555V15.8722L288.473 15.288V14.0107L288.468 13.1643L288.479 11.6948L288.473 10.768L288.468 9.44911L288.455 7.34098L288.465 6.5725L288.492 4.88496L289.236 4.87197L290.301 4.8564L291.233 4.84082L291.912 4.8564L292.563 4.86938H293.377L295.02 4.8564L296.368 4.87457L297.86 4.84342L298.685 4.84861L299.867 4.859H301.314H302.228L303.298 4.85381L305.893 4.87197L307.806 4.86159L308.668 4.87717L308.663 6.71529L308.644 7.33059L308.637 9.12718L308.673 9.91903L308.098 9.92941L305.859 9.9372H305.169L302.73 9.91644H300.635L299.292 9.9346L298.558 9.9398H296.772L295.757 9.9372L294.544 9.94499L294.551 10.9341L294.52 11.5391L296.111 11.5235L298.495 11.5417H299.544L300.19 11.5365L302.142 11.5261L302.993 11.5209L303.86 11.5027L304.735 11.5443H307.757L307.754 13.1254L307.775 14.3118L307.754 15.8021L307.783 16.4018L306.887 16.3862L304.987 16.394H303.852L302.959 16.4174H301.543L299.867 16.3836L298.982 16.4148L297.363 16.4096L296.108 16.3966L295.543 16.4148L294.562 16.4355L294.554 18.0296H296.381L297.048 18.0374L297.93 18.0296L298.735 18.0088L301.33 18.0374L302.72 18.0322L304.17 18.0452L304.857 18.027L305.492 18.0166L306.294 18.0426H308.423L308.644 18.0114C308.759 17.9959 308.603 18.6449 308.673 19.294C308.697 19.5043 308.639 19.6756 308.644 19.8807L308.681 21.5241L308.665 22.1576L308.629 23.0923L305.607 23.1312H305.601ZM291.672 12.9177C291.672 12.8008 291.579 12.7074 291.462 12.7074C291.344 12.7074 291.251 12.8008 291.251 12.9177C291.251 13.0345 291.344 13.128 291.462 13.128C291.579 13.128 291.672 13.0345 291.672 12.9177ZM292.552 14.9894C292.495 14.7376 292.172 14.7168 292.04 14.9064C291.977 14.9972 292.149 15.166 292.274 15.2205C292.367 15.2595 292.576 15.0959 292.552 14.9894ZM292.472 18.9617C292.539 18.8994 292.526 18.6579 292.466 18.6034L291.938 18.8137C292.034 19.0577 292.347 19.0707 292.472 18.9617Z" fill="#2C1F00"/>
<path d="M356.07 23.1597H354.387C354.299 23.0973 354.158 23.0895 354.013 23.0895H352.097L351.053 23.0817C350.98 23.0817 350.809 23.1207 350.773 23.1597H349.775L349.246 23.0973L348.903 22.2805L348.358 21.0839L347.916 20.0017L346.667 20.0512L345.53 20.0096L344.177 20.0512L343.585 20.0564L342.484 20.0356L341.674 20.0512L340.76 20.0356L339.724 20.0512L338.898 20.02C338.82 20.2697 338.719 20.3919 338.628 20.6027L338.039 22.0048L337.527 23.0817L334.881 23.0947L334.757 23.1545H330.644C330.545 23.1129 330.535 22.9152 330.61 22.8138C330.888 22.447 330.997 22.0802 331.166 21.6666L331.469 20.92L331.812 20.2047L332.064 19.6974L332.459 18.852L332.708 18.2303L333.168 17.1845L333.861 15.6628L334.274 14.7601L334.97 13.2643L335.45 12.099L335.884 11.1625L336.161 10.4471L336.577 9.55487L337.327 7.99408L337.68 7.10183L338.278 5.76736L338.717 4.94794C338.771 4.88031 338.984 4.81788 339.077 4.84909C339.246 4.90112 339.42 4.84909 339.592 4.84909L341.918 4.86209L343.853 4.8673L344.66 4.88291L345.533 4.8699L346.247 4.84389L348.127 4.8725L348.498 5.73874L348.976 6.78187L349.638 8.30103L349.908 8.86032L350.155 9.35717L350.448 10.122L351.315 12.0001C351.453 12.2993 351.614 12.5334 351.702 12.8741L352.102 13.678C352.195 13.8679 352.195 14.0916 352.286 14.258L352.598 14.8381L353.073 15.8605L353.478 16.8281L353.725 17.3874L353.969 17.9051L354.532 19.1433L355.047 20.2489L355.407 21.0761L355.859 22.1843L356.262 23.0583L356.07 23.1493V23.1597ZM345.016 8.8239C344.92 8.60019 344.824 8.49614 344.699 8.44411C344.645 8.4207 344.494 8.46232 344.478 8.51955C344.429 8.69384 344.808 8.91755 345.018 8.8239H345.016ZM344.481 14.7523L345.151 14.7445L345.704 14.7159L345.517 14.3179C345.405 14.0786 345.32 13.8132 345.166 13.6051C344.977 13.3502 344.902 13.0823 344.772 12.8013L344.437 12.0807L343.832 10.8607L343.39 9.98929L342.988 10.8451L342.726 11.4018L342.136 12.4996L341.562 13.7196L341.004 14.7783L342.11 14.7471L343.466 14.7757L344.481 14.7471V14.7523ZM348.433 13.6207L348.295 12.7909C348.275 12.6634 347.997 12.4944 347.934 12.588C347.779 12.8481 348.007 13.0979 348.241 13.1317L348.22 13.5531C348.22 13.5947 348.381 13.6337 348.436 13.6207H348.433ZM349.272 13.1083C349.152 12.9782 349.077 12.8846 349.03 12.7987C349.002 12.7493 348.82 12.7025 348.817 12.7597L348.807 12.999C348.804 13.0875 348.965 13.306 349.041 13.2591L349.274 13.1083H349.272ZM348.835 13.9719C348.729 13.8522 348.462 13.8705 348.389 13.9979C348.342 14.0812 348.399 14.3101 348.459 14.3855C348.508 14.4505 348.698 14.5234 348.771 14.487C348.906 14.4193 348.947 14.0994 348.835 13.9719ZM346.483 16.3989C346.636 16.4145 346.805 16.3937 346.852 16.3131C346.898 16.2324 346.878 15.9931 346.818 15.9255C346.766 15.8657 346.605 15.8501 346.491 15.8735C346.405 15.8891 346.283 16.0582 346.278 16.144C346.273 16.2298 346.4 16.3937 346.486 16.4015L346.483 16.3989ZM338.787 16.0608C338.787 16.0087 338.636 15.8631 338.592 15.8943L338.402 16.0269C338.283 16.1102 338.27 16.4327 338.439 16.4692C338.607 16.5056 338.794 16.2897 338.789 16.0608H338.787ZM339.093 17.4967C339.283 17.1819 339.327 16.966 339.22 16.6695C339.181 16.5628 338.924 16.6278 338.872 16.7215L338.649 17.1325L339.093 17.4967ZM348.524 17.3952C348.646 17.5305 348.924 17.416 348.958 17.3042C348.991 17.1871 348.989 16.9972 348.945 16.9036C348.9 16.8099 348.617 16.7735 348.539 16.849C348.428 16.9556 348.412 17.2678 348.526 17.3926L348.524 17.3952ZM349.285 18.1314C349.394 18.0117 349.292 17.7178 349.147 17.6658C348.957 17.5981 348.69 17.7828 348.719 17.9805C348.747 18.1782 349.108 18.3265 349.285 18.134V18.1314ZM349.929 18.1938L349.809 18.4254C349.77 18.5034 349.851 18.7219 349.931 18.7479C350.012 18.7739 350.188 18.7037 350.232 18.6309C350.344 18.4488 349.965 18.1236 349.929 18.1938Z" fill="#2C1F00"/>
<path d="M324.086 23.1468L319.628 23.1597L319.172 23.1105L319.201 21.6795L319.172 20.8837V19.7845V18.0761L319.178 17.1403L319.199 15.5227L319.186 14.7761V13.5888L319.151 12.7514L319.136 11.8519L319.172 10.9108H317.877L316.992 10.9471H315.439L314.164 10.9316L313.588 10.9523L311.256 10.9445L310.088 10.9212L310.072 10.1565L310.096 9.3632L310.08 8.41699L310.064 7.83111L310.057 6.70344L310.099 4.8836C310.512 4.94841 310.936 4.85249 311.363 4.87842L312.031 4.9199L313.29 4.90434L313.829 4.881L314.944 4.9173L317.036 4.90175C317.361 4.90175 317.623 4.84731 317.966 4.90175C318.196 4.94063 318.594 4.80065 318.827 4.85249L319.217 4.93804L320.764 4.87064L321.395 4.88879L322.353 4.90952H323.018L323.607 4.90434L324.956 4.89657L326.17 4.87582L327.113 4.89138L328.623 4.93026L329.87 4.9199L330.571 4.90693L331.267 4.9199L333.338 4.8836L334.16 4.89138C334.221 4.89138 334.354 4.90693 334.372 4.95619C334.404 5.04433 334.362 5.60428 334.365 6.18497L334.372 7.13636L334.354 7.94259V9.31913L334.367 10.3068L334.391 10.9368L333.498 10.9575L332.147 10.9497L330.765 10.9394L328.443 10.9497L327.241 10.916L325.872 10.9575C325.691 10.9627 325.479 10.8979 325.291 10.999L325.275 12.487L325.27 12.837C325.335 13.161 325.264 13.4151 325.27 13.7443L325.288 14.4727L325.27 15.603L325.264 16.347L325.278 18.6439L325.264 20.1837L325.27 21.5577L325.264 22.2602L325.296 23.1131L324.086 23.1572V23.1468ZM320.568 7.74557C320.707 7.67557 320.738 7.44226 320.67 7.37486C320.61 7.31524 320.408 7.31783 320.358 7.38782C320.256 7.53299 320.432 7.81297 320.568 7.74297V7.74557ZM321.199 10.1694C321.306 9.9413 321.05 9.75206 320.89 9.81428C320.848 9.88945 320.837 10.0346 320.879 10.0968C320.926 10.1694 321.167 10.2368 321.199 10.1694ZM322.382 11.5771C322.4 11.3878 322.23 11.279 322.112 11.2686C322.01 11.2608 321.772 11.3619 321.777 11.4682C321.785 11.6056 321.955 11.73 322.057 11.756C322.146 11.7767 322.372 11.6782 322.382 11.5771ZM323.861 12.2226L323.853 11.5563C323.628 11.6004 323.482 11.6834 323.398 11.8285C323.319 11.9633 323.298 12.2407 323.385 12.347C323.505 12.4922 323.864 12.3833 323.864 12.2226H323.861Z" fill="#2C1F00"/>
<path d="M375.616 23.1338L375.495 23.1597L375.377 23.0976H373.39L373.272 23.1597H373.087L373.017 23.1002L368.147 23.0924L368.024 23.1597H367.159C367.195 23.1416 367.051 23.0976 367.02 23.0976H365.322C365.291 23.0976 365.147 23.1442 365.183 23.1597H362.281C362.248 23.1209 362.062 23.0794 361.985 23.082L360.941 23.1027C360.902 23.1027 360.768 23.139 360.799 23.1597L360.359 23.1261L357.12 23.095L357.115 22.4731L357.11 21.6673V20.3432L357.102 19.413L357.084 18.5502L357.125 17.7392L357.13 14.2646L357.115 13.3214V12.3005L357.11 10.422L357.117 9.4659L357.13 7.81019L357.123 7.12356L357.117 5.99385L357.107 4.84082L358.628 4.89005H360.308L363.081 4.90042L363.115 5.49636L363.125 6.11822L363.117 8.43724L363.112 10.4479L363.107 11.0983L363.112 12.0725L363.138 13.451L363.112 14.8061L363.107 15.5031V16.5344L363.12 17.0603H364.712L365.224 17.0448L366.359 17.0707L368.397 17.0578H369.323L370.378 17.0526L372.047 17.0422L373.396 17.0578H374.88L376.223 17.05L376.203 18.1797L376.208 19.3483L376.195 21.4755L376.205 22.4653L376.213 23.0846L375.613 23.1286L375.616 23.1338ZM361.193 18.9985C361.45 19.0425 361.53 18.8249 361.507 18.6435C361.491 18.5191 361.265 18.3999 361.09 18.4414C361.008 18.4595 360.961 18.6694 360.977 18.7575C360.99 18.8326 361.108 18.9829 361.195 18.9985H361.193Z" fill="#2C1F00"/>
</svg>
