<svg width="2766" height="2260" viewBox="0 0 2766 2260" fill="none" xmlns="http://www.w3.org/2000/svg">
<path d="M0 2221.88L111.489 1810.74L2766 1762L2647.68 2260L0 2221.88Z" fill="black"/>
<path d="M213.211 2131L312.461 1898H312.961L412.211 2131H366.961L350.211 2091H273.711L256.961 2131H213.211ZM288.711 2055H335.211L325.461 2032C322.794 2025.83 320.294 2019.92 317.961 2014.25C315.794 2008.42 313.711 2001.67 311.711 1994C309.878 2001.5 307.878 2008.17 305.711 2014C303.544 2019.83 301.128 2025.83 298.461 2032L288.711 2055ZM540.289 2135.5C523.789 2135.5 508.372 2132.5 494.039 2126.5C479.706 2120.33 467.039 2111.92 456.039 2101.25C445.206 2090.58 436.706 2078.17 430.539 2064C424.372 2049.83 421.289 2034.67 421.289 2018.5C421.289 2002.33 424.372 1987.17 430.539 1973C436.706 1958.83 445.206 1946.42 456.039 1935.75C467.039 1925.08 479.706 1916.75 494.039 1910.75C508.372 1904.58 523.789 1901.5 540.289 1901.5C555.122 1901.5 569.122 1903.92 582.289 1908.75C595.456 1913.58 607.206 1920.42 617.539 1929.25L604.789 1981.75C598.622 1971.42 590.122 1962.75 579.289 1955.75C568.456 1948.58 555.956 1945 541.789 1945C531.622 1945 522.122 1946.92 513.289 1950.75C504.622 1954.58 497.039 1959.83 490.539 1966.5C484.039 1973.17 478.956 1981 475.289 1990C471.622 1998.83 469.789 2008.33 469.789 2018.5C469.789 2028.67 471.622 2038.25 475.289 2047.25C478.956 2056.08 484.039 2063.83 490.539 2070.5C497.039 2077.17 504.622 2082.42 513.289 2086.25C522.122 2090.08 531.622 2092 541.789 2092C555.789 2092 568.206 2088.5 579.039 2081.5C590.039 2074.33 598.622 2065.58 604.789 2055.25L617.539 2107.75C607.039 2116.42 595.206 2123.25 582.039 2128.25C569.039 2133.08 555.122 2135.5 540.289 2135.5ZM750.523 2135.5C734.023 2135.5 718.607 2132.5 704.273 2126.5C689.94 2120.33 677.273 2111.92 666.273 2101.25C655.44 2090.58 646.94 2078.17 640.773 2064C634.607 2049.83 631.523 2034.67 631.523 2018.5C631.523 2002.33 634.607 1987.17 640.773 1973C646.94 1958.83 655.44 1946.42 666.273 1935.75C677.273 1925.08 689.94 1916.75 704.273 1910.75C718.607 1904.58 734.023 1901.5 750.523 1901.5C765.357 1901.5 779.357 1903.92 792.523 1908.75C805.69 1913.58 817.44 1920.42 827.773 1929.25L815.023 1981.75C808.857 1971.42 800.357 1962.75 789.523 1955.75C778.69 1948.58 766.19 1945 752.023 1945C741.857 1945 732.357 1946.92 723.523 1950.75C714.857 1954.58 707.273 1959.83 700.773 1966.5C694.273 1973.17 689.19 1981 685.523 1990C681.857 1998.83 680.023 2008.33 680.023 2018.5C680.023 2028.67 681.857 2038.25 685.523 2047.25C689.19 2056.08 694.273 2063.83 700.773 2070.5C707.273 2077.17 714.857 2082.42 723.523 2086.25C732.357 2090.08 741.857 2092 752.023 2092C766.023 2092 778.44 2088.5 789.273 2081.5C800.273 2074.33 808.857 2065.58 815.023 2055.25L827.773 2107.75C817.273 2116.42 805.44 2123.25 792.273 2128.25C779.273 2133.08 765.357 2135.5 750.523 2135.5ZM859.641 2131V1906H979.641V1945H903.141V1979.5H962.141V2017H903.141V2090.5H979.641V2131H859.641ZM904.641 1886.5L852.891 1835.5H906.891L945.141 1886.5H904.641ZM1074.89 2136C1065.72 2136 1056.81 2134.83 1048.14 2132.5C1039.64 2130.17 1031.81 2127.08 1024.64 2123.25C1017.64 2119.25 1011.64 2114.83 1006.64 2110L1018.89 2060C1022.89 2066.83 1027.97 2072.92 1034.14 2078.25C1040.31 2083.58 1047.06 2087.83 1054.39 2091C1061.72 2094 1069.06 2095.5 1076.39 2095.5C1082.56 2095.5 1087.81 2094.42 1092.14 2092.25C1096.47 2089.92 1099.81 2086.83 1102.14 2083C1104.64 2079 1105.89 2074.58 1105.89 2069.75C1105.89 2063.92 1104.47 2059.08 1101.64 2055.25C1098.97 2051.42 1095.72 2048.25 1091.89 2045.75C1088.22 2043.25 1084.97 2041.33 1082.14 2040L1055.64 2026.75C1047.97 2022.92 1040.64 2018.42 1033.64 2013.25C1026.64 2007.92 1020.89 2001.33 1016.39 1993.5C1012.06 1985.67 1009.89 1976 1009.89 1964.5C1009.89 1955 1011.47 1946.42 1014.64 1938.75C1017.97 1930.92 1022.72 1924.25 1028.89 1918.75C1035.06 1913.08 1042.39 1908.75 1050.89 1905.75C1059.56 1902.58 1069.22 1901 1079.89 1901C1093.22 1901 1105.06 1903.17 1115.39 1907.5C1125.89 1911.67 1134.39 1916.17 1140.89 1921L1129.39 1969.75C1124.89 1963.92 1119.81 1958.92 1114.14 1954.75C1108.47 1950.42 1102.56 1947.08 1096.39 1944.75C1090.22 1942.25 1084.06 1941 1077.89 1941C1072.39 1941 1067.72 1942 1063.89 1944C1060.22 1945.83 1057.39 1948.42 1055.39 1951.75C1053.39 1954.92 1052.39 1958.58 1052.39 1962.75C1052.39 1966.58 1053.22 1970 1054.89 1973C1056.72 1976 1059.31 1978.67 1062.64 1981C1065.97 1983.33 1069.89 1985.67 1074.39 1988L1101.14 2001.25C1105.64 2003.42 1110.56 2006.25 1115.89 2009.75C1121.22 2013.08 1126.39 2017.33 1131.39 2022.5C1136.39 2027.67 1140.47 2033.92 1143.64 2041.25C1146.81 2048.42 1148.39 2057 1148.39 2067C1148.39 2080 1145.39 2091.75 1139.39 2102.25C1133.39 2112.58 1124.89 2120.83 1113.89 2127C1103.06 2133 1090.06 2136 1074.89 2136ZM1257.66 2131V1906H1326.41C1342.74 1906 1356.66 1909.25 1368.16 1915.75C1379.82 1922.25 1388.74 1930.92 1394.91 1941.75C1401.07 1952.42 1404.16 1964.17 1404.16 1977C1404.16 1984.67 1402.99 1992 1400.66 1999C1398.32 2005.83 1394.99 2012.08 1390.66 2017.75C1386.32 2023.25 1381.07 2028.08 1374.91 2032.25L1434.41 2131H1385.16L1335.16 2045.5H1301.16V2131H1257.66ZM1301.16 2008H1324.41C1332.91 2008 1339.82 2006.42 1345.16 2003.25C1350.49 2000.08 1354.41 1996.08 1356.91 1991.25C1359.41 1986.25 1360.66 1981.25 1360.66 1976.25C1360.66 1970.08 1359.07 1964.67 1355.91 1960C1352.91 1955.33 1348.66 1951.67 1343.16 1949C1337.82 1946.33 1331.57 1945 1324.41 1945H1301.16V2008ZM1456.95 2131V1906H1576.95V1945H1500.45V1979.5H1559.45V2017H1500.45V2090.5H1576.95V2131H1456.95ZM1672.2 2136C1663.03 2136 1654.11 2134.83 1645.45 2132.5C1636.95 2130.17 1629.11 2127.08 1621.95 2123.25C1614.95 2119.25 1608.95 2114.83 1603.95 2110L1616.2 2060C1620.2 2066.83 1625.28 2072.92 1631.45 2078.25C1637.61 2083.58 1644.36 2087.83 1651.7 2091C1659.03 2094 1666.36 2095.5 1673.7 2095.5C1679.86 2095.5 1685.11 2094.42 1689.45 2092.25C1693.78 2089.92 1697.11 2086.83 1699.45 2083C1701.95 2079 1703.2 2074.58 1703.2 2069.75C1703.2 2063.92 1701.78 2059.08 1698.95 2055.25C1696.28 2051.42 1693.03 2048.25 1689.2 2045.75C1685.53 2043.25 1682.28 2041.33 1679.45 2040L1652.95 2026.75C1645.28 2022.92 1637.95 2018.42 1630.95 2013.25C1623.95 2007.92 1618.2 2001.33 1613.7 1993.5C1609.36 1985.67 1607.2 1976 1607.2 1964.5C1607.2 1955 1608.78 1946.42 1611.95 1938.75C1615.28 1930.92 1620.03 1924.25 1626.2 1918.75C1632.36 1913.08 1639.7 1908.75 1648.2 1905.75C1656.86 1902.58 1666.53 1901 1677.2 1901C1690.53 1901 1702.36 1903.17 1712.7 1907.5C1723.2 1911.67 1731.7 1916.17 1738.2 1921L1726.7 1969.75C1722.2 1963.92 1717.11 1958.92 1711.45 1954.75C1705.78 1950.42 1699.86 1947.08 1693.7 1944.75C1687.53 1942.25 1681.36 1941 1675.2 1941C1669.7 1941 1665.03 1942 1661.2 1944C1657.53 1945.83 1654.7 1948.42 1652.7 1951.75C1650.7 1954.92 1649.7 1958.58 1649.7 1962.75C1649.7 1966.58 1650.53 1970 1652.2 1973C1654.03 1976 1656.61 1978.67 1659.95 1981C1663.28 1983.33 1667.2 1985.67 1671.7 1988L1698.45 2001.25C1702.95 2003.42 1707.86 2006.25 1713.2 2009.75C1718.53 2013.08 1723.7 2017.33 1728.7 2022.5C1733.7 2027.67 1737.78 2033.92 1740.95 2041.25C1744.11 2048.42 1745.7 2057 1745.7 2067C1745.7 2080 1742.7 2091.75 1736.7 2102.25C1730.7 2112.58 1722.2 2120.83 1711.2 2127C1700.36 2133 1687.36 2136 1672.2 2136ZM1779.33 2131V1906H1899.33V1945H1822.83V1979.5H1881.83V2017H1822.83V2090.5H1899.33V2131H1779.33ZM1937.58 2131V1906H2006.33C2022.66 1906 2036.58 1909.25 2048.08 1915.75C2059.74 1922.25 2068.66 1930.92 2074.83 1941.75C2080.99 1952.42 2084.08 1964.17 2084.08 1977C2084.08 1984.67 2082.91 1992 2080.58 1999C2078.24 2005.83 2074.91 2012.08 2070.58 2017.75C2066.24 2023.25 2060.99 2028.08 2054.83 2032.25L2114.33 2131H2065.08L2015.08 2045.5H1981.08V2131H1937.58ZM1981.08 2008H2004.33C2012.83 2008 2019.74 2006.42 2025.08 2003.25C2030.41 2000.08 2034.33 1996.08 2036.83 1991.25C2039.33 1986.25 2040.58 1981.25 2040.58 1976.25C2040.58 1970.08 2038.99 1964.67 2035.83 1960C2032.83 1955.33 2028.58 1951.67 2023.08 1949C2017.74 1946.33 2011.49 1945 2004.33 1945H1981.08V2008ZM2193.75 2138.5L2099.25 1906H2146.75L2183.5 1998.5C2185.5 2003.67 2187.5 2008.75 2189.5 2013.75C2191.5 2018.58 2193.42 2024 2195.25 2030C2196.92 2024.17 2198.67 2018.92 2200.5 2014.25C2202.5 2009.42 2204.58 2004.17 2206.75 1998.5L2243.5 1906H2288.75L2194.25 2138.5H2193.75ZM2314.41 2131V1906H2434.41V1945H2357.91V1979.5H2416.91V2017H2357.91V2090.5H2434.41V2131H2314.41ZM2355.16 1886.5L2393.16 1835.5H2447.16L2395.66 1886.5H2355.16ZM2529.66 2136C2520.49 2136 2511.57 2134.83 2502.91 2132.5C2494.41 2130.17 2486.57 2127.08 2479.41 2123.25C2472.41 2119.25 2466.41 2114.83 2461.41 2110L2473.66 2060C2477.66 2066.83 2482.74 2072.92 2488.91 2078.25C2495.07 2083.58 2501.82 2087.83 2509.16 2091C2516.49 2094 2523.82 2095.5 2531.16 2095.5C2537.32 2095.5 2542.57 2094.42 2546.91 2092.25C2551.24 2089.92 2554.57 2086.83 2556.91 2083C2559.41 2079 2560.66 2074.58 2560.66 2069.75C2560.66 2063.92 2559.24 2059.08 2556.41 2055.25C2553.74 2051.42 2550.49 2048.25 2546.66 2045.75C2542.99 2043.25 2539.74 2041.33 2536.91 2040L2510.41 2026.75C2502.74 2022.92 2495.41 2018.42 2488.41 2013.25C2481.41 2007.92 2475.66 2001.33 2471.16 1993.5C2466.82 1985.67 2464.66 1976 2464.66 1964.5C2464.66 1955 2466.24 1946.42 2469.41 1938.75C2472.74 1930.92 2477.49 1924.25 2483.66 1918.75C2489.82 1913.08 2497.16 1908.75 2505.66 1905.75C2514.32 1902.58 2523.99 1901 2534.66 1901C2547.99 1901 2559.82 1903.17 2570.16 1907.5C2580.66 1911.67 2589.16 1916.17 2595.66 1921L2584.16 1969.75C2579.66 1963.92 2574.57 1958.92 2568.91 1954.75C2563.24 1950.42 2557.32 1947.08 2551.16 1944.75C2544.99 1942.25 2538.82 1941 2532.66 1941C2527.16 1941 2522.49 1942 2518.66 1944C2514.99 1945.83 2512.16 1948.42 2510.16 1951.75C2508.16 1954.92 2507.16 1958.58 2507.16 1962.75C2507.16 1966.58 2507.99 1970 2509.66 1973C2511.49 1976 2514.07 1978.67 2517.41 1981C2520.74 1983.33 2524.66 1985.67 2529.16 1988L2555.91 2001.25C2560.41 2003.42 2565.32 2006.25 2570.66 2009.75C2575.99 2013.08 2581.16 2017.33 2586.16 2022.5C2591.16 2027.67 2595.24 2033.92 2598.41 2041.25C2601.57 2048.42 2603.16 2057 2603.16 2067C2603.16 2080 2600.16 2091.75 2594.16 2102.25C2588.16 2112.58 2579.66 2120.83 2568.66 2127C2557.82 2133 2544.82 2136 2529.66 2136Z" fill="white"/>
<g clip-path="url(#clip0_596_1532)">
<path d="M699.727 323.741L1146.81 78.3549L1651.87 0L1935.78 82.7305L2190 595.42L2005.91 1541.92L1182.82 1669L699.727 1484.96L577 889.53L699.727 323.741Z" fill="black"/>
<path d="M1061.78 392.469H1029.69C997.631 392.469 971.64 420.459 971.64 454.987V1149.87C971.64 1184.4 997.631 1212.39 1029.69 1212.39H1061.78C1093.85 1212.39 1119.84 1184.4 1119.84 1149.87V454.987C1119.84 420.459 1093.85 392.469 1061.78 392.469Z" fill="white"/>
<path d="M1247.2 281.635H1215.11C1183.05 281.635 1157.05 309.625 1157.05 344.153V1039.04C1157.05 1073.57 1183.05 1101.56 1215.11 1101.56H1247.2C1279.26 1101.56 1305.25 1073.57 1305.25 1039.04V344.153C1305.25 309.625 1279.26 281.635 1247.2 281.635Z" fill="white"/>
<path d="M1859.93 714.766C1859.93 670.695 1826.76 634.969 1785.84 634.969C1744.91 634.969 1711.74 670.695 1711.74 714.766V1041.3C1711.74 1085.37 1744.91 1121.1 1785.84 1121.1C1826.76 1121.1 1859.93 1085.37 1859.93 1041.3V714.766Z" fill="white"/>
<path d="M1432.6 225H1400.51C1368.45 225 1342.46 252.991 1342.46 287.519V982.406C1342.46 1016.93 1368.45 1044.92 1400.51 1044.92H1432.6C1464.66 1044.92 1490.66 1016.93 1490.66 982.406V287.519C1490.66 252.991 1464.66 225 1432.6 225Z" fill="white"/>
<path d="M971.64 802.436H1789.22V1147.08C1789.22 1270.83 1695.93 1371.29 1581.03 1371.29H1179.84C1064.92 1371.29 971.64 1270.81 971.64 1147.08V802.436Z" fill="white"/>
<path d="M1527.1 802.437V363.71C1527.1 329.184 1553.1 301.191 1585.16 301.191H1617.26C1649.32 301.191 1675.31 329.184 1675.31 363.71V802.437H1527.11H1527.1Z" fill="white"/>
<path d="M1693.54 799.393V997.258C1693.54 997.258 1398.68 922.823 1398.68 1170.57" stroke="black" stroke-width="36.89" stroke-linejoin="round"/>
<path d="M1859.93 1041.29C1859.93 1223.54 1722.74 1371.28 1553.51 1371.28H1464.6" fill="white"/>
</g>
<defs>
<clipPath id="clip0_596_1532">
<rect width="1613" height="1669" fill="white" transform="translate(577)"/>
</clipPath>
</defs>
</svg>
