<svg width="2534" height="2530" viewBox="0 0 2534 2530" fill="none" xmlns="http://www.w3.org/2000/svg">
<path d="M0 2491.88L102.138 2080.74L2534 2032L2425.61 2530L0 2491.88Z" fill="black"/>
<path d="M213.254 2401L312.504 2168H313.004L412.254 2401H367.004L350.254 2361H273.754L257.004 2401H213.254ZM288.754 2325H335.254L325.504 2302C322.837 2295.83 320.337 2289.92 318.004 2284.25C315.837 2278.42 313.754 2271.67 311.754 2264C309.921 2271.5 307.921 2278.17 305.754 2284C303.587 2289.83 301.171 2295.83 298.504 2302L288.754 2325ZM440.715 2401V2176H487.215V2401H440.715ZM537.348 2401V2176H606.098C622.431 2176 636.348 2179.25 647.848 2185.75C659.514 2192.25 668.431 2200.92 674.598 2211.75C680.764 2222.42 683.848 2234.17 683.848 2247C683.848 2254.67 682.681 2262 680.348 2269C678.014 2275.83 674.681 2282.08 670.348 2287.75C666.014 2293.25 660.764 2298.08 654.598 2302.25L714.098 2401H664.848L614.848 2315.5H580.848V2401H537.348ZM580.848 2278H604.098C612.598 2278 619.514 2276.42 624.848 2273.25C630.181 2270.08 634.098 2266.08 636.598 2261.25C639.098 2256.25 640.348 2251.25 640.348 2246.25C640.348 2240.08 638.764 2234.67 635.598 2230C632.598 2225.33 628.348 2221.67 622.848 2219C617.514 2216.33 611.264 2215 604.098 2215H580.848V2278ZM736.637 2401V2176H856.637V2215H780.137V2249.5H839.137V2287H780.137V2360.5H856.637V2401H736.637ZM969.02 2401V2176H1045.52C1063.52 2176 1079.85 2178.92 1094.52 2184.75C1109.35 2190.58 1122.1 2198.67 1132.77 2209C1143.6 2219.17 1151.94 2231.08 1157.77 2244.75C1163.6 2258.42 1166.52 2273 1166.52 2288.5C1166.52 2304 1163.6 2318.58 1157.77 2332.25C1151.94 2345.92 1143.6 2357.92 1132.77 2368.25C1122.1 2378.42 1109.35 2386.42 1094.52 2392.25C1079.85 2398.08 1063.52 2401 1045.52 2401H969.02ZM1012.52 2360.5H1041.52C1054.19 2360.5 1065.35 2358.67 1075.02 2355C1084.69 2351.17 1092.77 2346 1099.27 2339.5C1105.94 2332.83 1110.94 2325.17 1114.27 2316.5C1117.77 2307.83 1119.52 2298.5 1119.52 2288.5C1119.52 2278.5 1117.77 2269.17 1114.27 2260.5C1110.94 2251.67 1105.94 2244 1099.27 2237.5C1092.77 2230.83 1084.69 2225.67 1075.02 2222C1065.35 2218.33 1054.19 2216.5 1041.52 2216.5H1012.52V2360.5ZM1203.86 2401V2176H1323.86V2215H1247.36V2249.5H1306.36V2287H1247.36V2360.5H1323.86V2401H1203.86ZM1437 2401V2176H1505.75C1522.08 2176 1536 2179.25 1547.5 2185.75C1559.16 2192.25 1568.08 2200.92 1574.25 2211.75C1580.41 2222.42 1583.5 2234.17 1583.5 2247C1583.5 2254.67 1582.33 2262 1580 2269C1577.66 2275.83 1574.33 2282.08 1570 2287.75C1565.66 2293.25 1560.41 2298.08 1554.25 2302.25L1613.75 2401H1564.5L1514.5 2315.5H1480.5V2401H1437ZM1480.5 2278H1503.75C1512.25 2278 1519.16 2276.42 1524.5 2273.25C1529.83 2270.08 1533.75 2266.08 1536.25 2261.25C1538.75 2256.25 1540 2251.25 1540 2246.25C1540 2240.08 1538.41 2234.67 1535.25 2230C1532.25 2225.33 1528 2221.67 1522.5 2219C1517.16 2216.33 1510.91 2215 1503.75 2215H1480.5V2278ZM1636.29 2401V2176H1756.29V2215H1679.79V2249.5H1738.79V2287H1679.79V2360.5H1756.29V2401H1636.29ZM1793.79 2401V2176H1861.79C1877.45 2176 1890.7 2178.33 1901.54 2183C1912.54 2187.67 1921.37 2193.83 1928.04 2201.5C1934.7 2209 1939.54 2217.25 1942.54 2226.25C1945.7 2235.08 1947.29 2243.83 1947.29 2252.5C1947.29 2261 1945.79 2269.75 1942.79 2278.75C1939.79 2287.58 1934.87 2295.83 1928.04 2303.5C1921.37 2311 1912.62 2317.08 1901.79 2321.75C1890.95 2326.42 1877.62 2328.75 1861.79 2328.75H1837.29V2401H1793.79ZM1837.29 2289.75H1859.29C1869.95 2289.75 1878.37 2287.92 1884.54 2284.25C1890.87 2280.42 1895.37 2275.67 1898.04 2270C1900.87 2264.33 1902.29 2258.5 1902.29 2252.5C1902.29 2246.67 1900.95 2240.92 1898.29 2235.25C1895.62 2229.42 1891.12 2224.58 1884.79 2220.75C1878.62 2216.92 1870.12 2215 1859.29 2215H1837.29V2289.75ZM2087.21 2405.5C2070.71 2405.5 2055.29 2402.5 2040.96 2396.5C2026.62 2390.33 2013.96 2381.92 2002.96 2371.25C1992.12 2360.58 1983.62 2348.17 1977.46 2334C1971.29 2319.83 1968.21 2304.67 1968.21 2288.5C1968.21 2272.33 1971.29 2257.17 1977.46 2243C1983.62 2228.83 1992.12 2216.42 2002.96 2205.75C2013.96 2195.08 2026.62 2186.75 2040.96 2180.75C2055.29 2174.58 2070.71 2171.5 2087.21 2171.5C2103.71 2171.5 2119.12 2174.58 2133.46 2180.75C2147.79 2186.75 2160.37 2195.08 2171.21 2205.75C2182.21 2216.42 2190.79 2228.83 2196.96 2243C2203.12 2257.17 2206.21 2272.33 2206.21 2288.5C2206.21 2304.67 2203.12 2319.83 2196.96 2334C2190.79 2348.17 2182.21 2360.58 2171.21 2371.25C2160.37 2381.92 2147.79 2390.33 2133.46 2396.5C2119.12 2402.5 2103.71 2405.5 2087.21 2405.5ZM2087.21 2362C2097.37 2362 2106.79 2360.08 2115.46 2356.25C2124.12 2352.42 2131.71 2347.17 2138.21 2340.5C2144.87 2333.83 2150.04 2326.08 2153.71 2317.25C2157.37 2308.25 2159.21 2298.67 2159.21 2288.5C2159.21 2278.33 2157.37 2268.83 2153.71 2260C2150.04 2251 2144.87 2243.17 2138.21 2236.5C2131.71 2229.83 2124.12 2224.58 2115.46 2220.75C2106.79 2216.92 2097.37 2215 2087.21 2215C2077.04 2215 2067.62 2216.92 2058.96 2220.75C2050.29 2224.58 2042.62 2229.83 2035.96 2236.5C2029.46 2243.17 2024.37 2251 2020.71 2260C2017.04 2268.83 2015.21 2278.33 2015.21 2288.5C2015.21 2298.67 2017.04 2308.25 2020.71 2317.25C2024.37 2326.08 2029.46 2333.83 2035.96 2340.5C2042.62 2347.17 2050.29 2352.42 2058.96 2356.25C2067.62 2360.08 2077.04 2362 2087.21 2362ZM2296.61 2406C2287.45 2406 2278.53 2404.83 2269.86 2402.5C2261.36 2400.17 2253.53 2397.08 2246.36 2393.25C2239.36 2389.25 2233.36 2384.83 2228.36 2380L2240.61 2330C2244.61 2336.83 2249.7 2342.92 2255.86 2348.25C2262.03 2353.58 2268.78 2357.83 2276.11 2361C2283.45 2364 2290.78 2365.5 2298.11 2365.5C2304.28 2365.5 2309.53 2364.42 2313.86 2362.25C2318.2 2359.92 2321.53 2356.83 2323.86 2353C2326.36 2349 2327.61 2344.58 2327.61 2339.75C2327.61 2333.92 2326.2 2329.08 2323.36 2325.25C2320.7 2321.42 2317.45 2318.25 2313.61 2315.75C2309.95 2313.25 2306.7 2311.33 2303.86 2310L2277.36 2296.75C2269.7 2292.92 2262.36 2288.42 2255.36 2283.25C2248.36 2277.92 2242.61 2271.33 2238.11 2263.5C2233.78 2255.67 2231.61 2246 2231.61 2234.5C2231.61 2225 2233.2 2216.42 2236.36 2208.75C2239.7 2200.92 2244.45 2194.25 2250.61 2188.75C2256.78 2183.08 2264.11 2178.75 2272.61 2175.75C2281.28 2172.58 2290.95 2171 2301.61 2171C2314.95 2171 2326.78 2173.17 2337.11 2177.5C2347.61 2181.67 2356.11 2186.17 2362.61 2191L2351.11 2239.75C2346.61 2233.92 2341.53 2228.92 2335.86 2224.75C2330.2 2220.42 2324.28 2217.08 2318.11 2214.75C2311.95 2212.25 2305.78 2211 2299.61 2211C2294.11 2211 2289.45 2212 2285.61 2214C2281.95 2215.83 2279.11 2218.42 2277.11 2221.75C2275.11 2224.92 2274.11 2228.58 2274.11 2232.75C2274.11 2236.58 2274.95 2240 2276.61 2243C2278.45 2246 2281.03 2248.67 2284.36 2251C2287.7 2253.33 2291.61 2255.67 2296.11 2258L2322.86 2271.25C2327.36 2273.42 2332.28 2276.25 2337.61 2279.75C2342.95 2283.08 2348.11 2287.33 2353.11 2292.5C2358.11 2297.67 2362.2 2303.92 2365.36 2311.25C2368.53 2318.42 2370.11 2327 2370.11 2337C2370.11 2350 2367.11 2361.75 2361.11 2372.25C2355.11 2382.58 2346.61 2390.83 2335.61 2397C2324.78 2403 2311.78 2406 2296.61 2406Z" fill="white"/>
<g clip-path="url(#clip0_948_7)">
<g clip-path="url(#clip1_948_7)">
<path d="M297 1666.23L329.06 1110.51L796.27 960.95L987.38 913.23L999.64 622.17L1438.29 0L2002.52 503.32L1957.64 602.7L2233.34 1269.76L2092.28 1458.67L1753.73 1631.78L1675.52 1901.08L1178.62 1865.81L649.64 1945.96L297 1666.23Z" fill="black"/>
<path d="M1510.25 1316.61C1394.09 1316.61 1276.41 1299.25 1160.49 1265L1093.78 1245.29L1510.25 348.141L1926.73 1245.29L1860.02 1265C1744.1 1299.24 1626.42 1316.61 1510.26 1316.61H1510.25Z" fill="white"/>
<path d="M1510.25 490.641L1843.01 1207.46C1732.09 1240.23 1621.17 1256.61 1510.25 1256.61C1399.33 1256.61 1288.41 1240.23 1177.49 1207.46L1510.25 490.641ZM1510.25 205.641L1401.41 440.111L1068.65 1156.93L1010.07 1283.13L1143.5 1322.55C1204.08 1340.45 1265.6 1354.07 1326.34 1363.04C1387.33 1372.05 1449.21 1376.62 1510.25 1376.62C1571.29 1376.62 1633.18 1372.05 1694.17 1363.04C1754.92 1354.07 1816.43 1340.44 1877.01 1322.55L2010.44 1283.13L1951.86 1156.93L1619.1 440.111L1510.26 205.641H1510.25Z" fill="black"/>
<path d="M1510.25 321.721L1288.41 799.601C1436.3 843.291 1584.2 843.291 1732.09 799.601L1510.25 321.721Z" fill="white"/>
<path d="M1510.25 406.18L1232.95 1003.53C1417.82 1058.14 1602.69 1058.14 1787.55 1003.53L1510.25 406.18Z" fill="white"/>
<path d="M1571.08 1378.26H1449.42V1721.26H1571.08V1378.26Z" fill="white"/>
<path d="M938.698 1721.27V1378.27H817.038V1721.27H938.698Z" fill="white"/>
<path d="M1099.11 1299.38H656.64V1421.04H1099.11V1299.38Z" fill="white"/>
<path d="M1182.46 1721.27V1549.77H1121.63V1721.27H1182.46Z" fill="white"/>
<path d="M1262.65 1510.32H1041.42V1571.15H1262.65V1510.32Z" fill="white"/>
<path d="M634.121 1721.27V1549.77H573.291V1721.27H634.121Z" fill="white"/>
<path d="M714.32 1510.32H493.09V1571.15H714.32V1510.32Z" fill="white"/>
</g>
</g>
<defs>
<clipPath id="clip0_948_7">
<rect width="1936.34" height="1945.96" fill="white" transform="translate(297)"/>
</clipPath>
<clipPath id="clip1_948_7">
<rect width="1936.34" height="1945.96" fill="white" transform="translate(297)"/>
</clipPath>
</defs>
</svg>
