<svg width="2250" height="2640" viewBox="0 0 2250 2640" fill="none" xmlns="http://www.w3.org/2000/svg">
<g clip-path="url(#clip0_794_2970)">
<path d="M949.517 0L1455.04 100.009L1593.93 638.366L1966.13 1233.47L2155 1883.54L1255.23 2028L94 1994.66L177.334 1327.93L627.306 800.096L699.529 392.35L949.517 0Z" fill="black"/>
<path d="M1624.41 1654.61H516.966V1736.22H1624.41V1654.61Z" fill="white"/>
<path d="M659.957 1735.56L454.506 1734.91L1070.68 638.365L1686.86 1736.22L1479.74 1734.26L1069.85 1093.14L659.957 1735.56Z" fill="white"/>
<path d="M1500.16 1507.64C1488.19 1507.64 1476.59 1501.31 1470.39 1490.11L890.402 442.837C881.305 426.407 887.248 405.72 903.675 396.621C920.102 387.522 940.786 393.466 949.884 409.896L1529.87 1457.16C1538.97 1473.59 1533.03 1494.28 1516.6 1503.38C1511.38 1506.28 1505.74 1507.65 1500.16 1507.65V1507.64Z" fill="white"/>
<path d="M641.204 1507.64C635.628 1507.64 629.985 1506.26 624.763 1503.37C608.335 1494.27 602.393 1473.58 611.49 1457.15L1191.48 409.882C1200.58 393.452 1221.28 387.508 1237.69 396.607C1254.12 405.706 1260.06 426.394 1250.96 442.824L670.972 1490.09C664.771 1501.3 653.157 1507.62 641.204 1507.62V1507.64Z" fill="white"/>
</g>
<path d="M0 2598.73L90.691 2153.53L2250 2100.76L2153.76 2640L0 2598.73Z" fill="black"/>
<path d="M546.908 2475.02C530.408 2475.02 514.991 2472.02 500.658 2466.02C486.325 2459.86 473.658 2451.44 462.658 2440.77C451.825 2430.11 443.325 2417.69 437.158 2403.52C430.991 2389.36 427.908 2374.19 427.908 2358.02C427.908 2341.86 430.991 2326.69 437.158 2312.52C443.325 2298.36 451.825 2285.94 462.658 2275.27C473.658 2264.61 486.325 2256.27 500.658 2250.27C514.991 2244.11 530.408 2241.02 546.908 2241.02C561.741 2241.02 575.741 2243.44 588.908 2248.27C602.075 2253.11 613.825 2259.94 624.158 2268.77L611.408 2321.27C605.241 2310.94 596.741 2302.27 585.908 2295.27C575.075 2288.11 562.575 2284.52 548.408 2284.52C538.241 2284.52 528.741 2286.44 519.908 2290.27C511.241 2294.11 503.658 2299.36 497.158 2306.02C490.658 2312.69 485.575 2320.52 481.908 2329.52C478.241 2338.36 476.408 2347.86 476.408 2358.02C476.408 2368.19 478.241 2377.77 481.908 2386.77C485.575 2395.61 490.658 2403.36 497.158 2410.02C503.658 2416.69 511.241 2421.94 519.908 2425.77C528.741 2429.61 538.241 2431.52 548.408 2431.52C562.408 2431.52 574.825 2428.02 585.658 2421.02C596.658 2413.86 605.241 2405.11 611.408 2394.77L624.158 2447.27C613.658 2455.94 601.825 2462.77 588.658 2467.77C575.658 2472.61 561.741 2475.02 546.908 2475.02ZM635.025 2470.52L734.275 2237.52H734.775L834.025 2470.52H788.775L772.025 2430.52H695.525L678.775 2470.52H635.025ZM710.525 2394.52H757.025L747.275 2371.52C744.609 2365.36 742.109 2359.44 739.775 2353.77C737.609 2347.94 735.525 2341.19 733.525 2333.52C731.692 2341.02 729.692 2347.69 727.525 2353.52C725.359 2359.36 722.942 2365.36 720.275 2371.52L710.525 2394.52ZM860.986 2470.52V2238.02H861.486L967.986 2371.02L1072.49 2238.02H1072.99V2470.52H1029.49V2406.02C1029.49 2398.69 1029.57 2390.44 1029.74 2381.27C1030.07 2372.11 1030.9 2361.61 1032.24 2349.77C1027.07 2358.44 1022.07 2365.94 1017.24 2372.27C1012.57 2378.61 1008.24 2384.44 1004.24 2389.77L967.236 2439.27L928.986 2389.77C925.153 2384.77 920.57 2378.77 915.236 2371.77C910.07 2364.61 905.07 2357.02 900.236 2349.02C901.57 2361.19 902.32 2371.86 902.486 2381.02C902.82 2390.19 902.986 2398.52 902.986 2406.02V2470.52H860.986ZM1121.14 2470.52V2245.52H1189.14C1204.81 2245.52 1218.06 2247.86 1228.89 2252.52C1239.89 2257.19 1248.73 2263.36 1255.39 2271.02C1262.06 2278.52 1266.89 2286.77 1269.89 2295.77C1273.06 2304.61 1274.64 2313.36 1274.64 2322.02C1274.64 2330.52 1273.14 2339.27 1270.14 2348.27C1267.14 2357.11 1262.23 2365.36 1255.39 2373.02C1248.73 2380.52 1239.98 2386.61 1229.14 2391.27C1218.31 2395.94 1204.98 2398.27 1189.14 2398.27H1164.64V2470.52H1121.14ZM1164.64 2359.27H1186.64C1197.31 2359.27 1205.73 2357.44 1211.89 2353.77C1218.23 2349.94 1222.73 2345.19 1225.39 2339.52C1228.23 2333.86 1229.64 2328.02 1229.64 2322.02C1229.64 2316.19 1228.31 2310.44 1225.64 2304.77C1222.98 2298.94 1218.48 2294.11 1212.14 2290.27C1205.98 2286.44 1197.48 2284.52 1186.64 2284.52H1164.64V2359.27ZM1307.56 2470.52V2245.52H1354.06V2470.52H1307.56ZM1579.95 2478.02L1445.45 2343.27V2470.52H1403.45V2238.02H1403.95L1538.45 2372.52V2245.52H1580.45V2478.02H1579.95ZM1739.45 2475.02C1722.45 2475.02 1706.53 2472.19 1691.7 2466.52C1677.03 2460.69 1664.11 2452.52 1652.95 2442.02C1641.95 2431.52 1633.36 2419.19 1627.2 2405.02C1621.03 2390.86 1617.95 2375.36 1617.95 2358.52C1617.95 2341.69 1621.03 2326.19 1627.2 2312.02C1633.36 2297.69 1641.95 2285.27 1652.95 2274.77C1664.11 2264.11 1676.95 2255.86 1691.45 2250.02C1706.11 2244.02 1721.95 2241.02 1738.95 2241.02C1754.28 2241.02 1768.61 2243.44 1781.95 2248.27C1795.28 2253.11 1807.11 2259.94 1817.45 2268.77L1804.7 2320.27C1798.36 2309.94 1789.61 2301.27 1778.45 2294.27C1767.45 2287.11 1754.28 2283.52 1738.95 2283.52C1728.28 2283.52 1718.45 2285.44 1709.45 2289.27C1700.45 2292.94 1692.61 2298.19 1685.95 2305.02C1679.28 2311.69 1674.11 2319.61 1670.45 2328.77C1666.78 2337.77 1664.95 2347.69 1664.95 2358.52C1664.95 2369.52 1666.78 2379.61 1670.45 2388.77C1674.11 2397.94 1679.28 2405.86 1685.95 2412.52C1692.61 2419.19 1700.45 2424.36 1709.45 2428.02C1718.45 2431.69 1728.2 2433.52 1738.7 2433.52C1745.53 2433.52 1751.86 2432.86 1757.7 2431.52C1763.53 2430.19 1768.78 2428.19 1773.45 2425.52V2382.02H1727.7V2344.52H1814.45V2453.77C1804.11 2460.44 1792.53 2465.69 1779.7 2469.52C1767.03 2473.19 1753.61 2475.02 1739.45 2475.02Z" fill="white"/>
<defs>
<clipPath id="clip0_794_2970">
<rect width="2061" height="2028" fill="white" transform="translate(94)"/>
</clipPath>
</defs>
</svg>
