<svg width="2536" height="2190" viewBox="0 0 2536 2190" fill="none" xmlns="http://www.w3.org/2000/svg">
<path d="M0 2151.88L102.219 1740.74L2536 1692L2427.52 2190L0 2151.88Z" fill="black"/>
<path d="M342.523 2065.5C326.023 2065.5 310.607 2062.5 296.273 2056.5C281.94 2050.33 269.273 2041.92 258.273 2031.25C247.44 2020.58 238.94 2008.17 232.773 1994C226.607 1979.83 223.523 1964.67 223.523 1948.5C223.523 1932.33 226.607 1917.17 232.773 1903C238.94 1888.83 247.44 1876.42 258.273 1865.75C269.273 1855.08 281.94 1846.75 296.273 1840.75C310.607 1834.58 326.023 1831.5 342.523 1831.5C357.357 1831.5 371.357 1833.92 384.523 1838.75C397.69 1843.58 409.44 1850.42 419.773 1859.25L407.023 1911.75C400.857 1901.42 392.357 1892.75 381.523 1885.75C370.69 1878.58 358.19 1875 344.023 1875C333.857 1875 324.357 1876.92 315.523 1880.75C306.857 1884.58 299.273 1889.83 292.773 1896.5C286.273 1903.17 281.19 1911 277.523 1920C273.857 1928.83 272.023 1938.33 272.023 1948.5C272.023 1958.67 273.857 1968.25 277.523 1977.25C281.19 1986.08 286.273 1993.83 292.773 2000.5C299.273 2007.17 306.857 2012.42 315.523 2016.25C324.357 2020.08 333.857 2022 344.023 2022C358.023 2022 370.44 2018.5 381.273 2011.5C392.273 2004.33 400.857 1995.58 407.023 1985.25L419.773 2037.75C409.273 2046.42 397.44 2053.25 384.273 2058.25C371.273 2063.08 357.357 2065.5 342.523 2065.5ZM451.641 2061V1836H571.641V1875H495.141V1909.5H554.141V1947H495.141V2020.5H571.641V2061H451.641ZM785.641 2068.5L651.141 1933.75V2061H609.141V1828.5H609.641L744.141 1963V1836H786.141V2068.5H785.641ZM875.641 2061V1876.5H820.641V1836H977.141V1876.5H922.141V2061H875.641ZM1012.43 2061V1836H1081.18C1097.51 1836 1111.43 1839.25 1122.93 1845.75C1134.6 1852.25 1143.51 1860.92 1149.68 1871.75C1155.85 1882.42 1158.93 1894.17 1158.93 1907C1158.93 1914.67 1157.76 1922 1155.43 1929C1153.1 1935.83 1149.76 1942.08 1145.43 1947.75C1141.1 1953.25 1135.85 1958.08 1129.68 1962.25L1189.18 2061H1139.93L1089.93 1975.5H1055.93V2061H1012.43ZM1055.93 1938H1079.18C1087.68 1938 1094.6 1936.42 1099.93 1933.25C1105.26 1930.08 1109.18 1926.08 1111.68 1921.25C1114.18 1916.25 1115.43 1911.25 1115.43 1906.25C1115.43 1900.08 1113.85 1894.67 1110.68 1890C1107.68 1885.33 1103.43 1881.67 1097.93 1879C1092.6 1876.33 1086.35 1875 1079.18 1875H1055.93V1938ZM1211.72 2061V1836H1331.72V1875H1255.22V1909.5H1314.22V1947H1255.22V2020.5H1331.72V2061H1211.72ZM1444.1 2061V1836H1520.6C1538.6 1836 1554.93 1838.92 1569.6 1844.75C1584.43 1850.58 1597.18 1858.67 1607.85 1869C1618.68 1879.17 1627.02 1891.08 1632.85 1904.75C1638.68 1918.42 1641.6 1933 1641.6 1948.5C1641.6 1964 1638.68 1978.58 1632.85 1992.25C1627.02 2005.92 1618.68 2017.92 1607.85 2028.25C1597.18 2038.42 1584.43 2046.42 1569.6 2052.25C1554.93 2058.08 1538.6 2061 1520.6 2061H1444.1ZM1487.6 2020.5H1516.6C1529.27 2020.5 1540.43 2018.67 1550.1 2015C1559.77 2011.17 1567.85 2006 1574.35 1999.5C1581.02 1992.83 1586.02 1985.17 1589.35 1976.5C1592.85 1967.83 1594.6 1958.5 1594.6 1948.5C1594.6 1938.5 1592.85 1929.17 1589.35 1920.5C1586.02 1911.67 1581.02 1904 1574.35 1897.5C1567.85 1890.83 1559.77 1885.67 1550.1 1882C1540.43 1878.33 1529.27 1876.5 1516.6 1876.5H1487.6V2020.5ZM1651.7 1918.5C1656.53 1911.67 1660.78 1904.17 1664.45 1896C1668.11 1887.67 1671.03 1878.5 1673.2 1868.5C1675.36 1858.5 1676.45 1847.67 1676.45 1836H1718.45C1718.45 1851.67 1716.53 1866.42 1712.7 1880.25C1709.03 1894.08 1703.28 1906.83 1695.45 1918.5H1651.7ZM1690.29 2061L1789.54 1828H1790.04L1889.29 2061H1844.04L1827.29 2021H1750.79L1734.04 2061H1690.29ZM1765.79 1985H1812.29L1802.54 1962C1799.87 1955.83 1797.37 1949.92 1795.04 1944.25C1792.87 1938.42 1790.79 1931.67 1788.79 1924C1786.96 1931.5 1784.96 1938.17 1782.79 1944C1780.62 1949.83 1778.21 1955.83 1775.54 1962L1765.79 1985ZM1917.75 2061V1836H1964.25V2061H1917.75ZM2013.63 2061V1836H2090.13C2108.13 1836 2124.47 1838.92 2139.13 1844.75C2153.97 1850.58 2166.72 1858.67 2177.38 1869C2188.22 1879.17 2196.55 1891.08 2202.38 1904.75C2208.22 1918.42 2211.13 1933 2211.13 1948.5C2211.13 1964 2208.22 1978.58 2202.38 1992.25C2196.55 2005.92 2188.22 2017.92 2177.38 2028.25C2166.72 2038.42 2153.97 2046.42 2139.13 2052.25C2124.47 2058.08 2108.13 2061 2090.13 2061H2013.63ZM2057.13 2020.5H2086.13C2098.8 2020.5 2109.97 2018.67 2119.63 2015C2129.3 2011.17 2137.38 2006 2143.88 1999.5C2150.55 1992.83 2155.55 1985.17 2158.88 1976.5C2162.38 1967.83 2164.13 1958.5 2164.13 1948.5C2164.13 1938.5 2162.38 1929.17 2158.88 1920.5C2155.55 1911.67 2150.55 1904 2143.88 1897.5C2137.38 1890.83 2129.3 1885.67 2119.63 1882C2109.97 1878.33 2098.8 1876.5 2086.13 1876.5H2057.13V2020.5ZM2248.48 2061V1836H2368.48V1875H2291.98V1909.5H2350.98V1947H2291.98V2020.5H2368.48V2061H2248.48Z" fill="white"/>
<g clip-path="url(#clip0_596_1499)">
<path d="M537.09 0L2019.02 58.37L1979.79 1349.57L894.75 1325.45L681.77 1570.59L705.88 1294.56H517L537.09 0Z" fill="black"/>
<path d="M1128.41 1003.13L1139.97 1122.4L1208.45 1143.79L1291.56 1117.13L1313.93 1054.17L1274.74 988.939L1174.89 959.029L1128.41 1003.13Z" fill="white"/>
<path d="M1339.25 205.549C1338.57 205.609 1080.45 198.069 1079.85 198.119L1032.19 286.909L1074.95 387.669L1371.98 366.759L1334.64 547.319L1129.08 620.239L1156.61 711.319L1156.46 912.729L1293.13 912.829L1293.27 713.389L1484.35 667.339L1507.29 415.629C1521.43 377.469 1538.7 293.249 1548.04 252.809C1548.04 252.809 1339.24 205.599 1339.24 205.559L1339.25 205.549Z" fill="white"/>
</g>
<defs>
<clipPath id="clip0_596_1499">
<rect width="1502.02" height="1570.59" fill="white" transform="translate(517)"/>
</clipPath>
</defs>
</svg>
