<svg width="2250" height="2627" viewBox="0 0 2250 2627" fill="none" xmlns="http://www.w3.org/2000/svg">
<path d="M0 2592.67L90.691 2222.31L2250 2178.41L2153.76 2627L0 2592.67Z" fill="black"/>
<path d="M312.684 2551.03C296.184 2551.03 280.768 2548.03 266.434 2542.03C252.101 2535.87 239.434 2527.45 228.434 2516.78C217.601 2506.12 209.101 2493.7 202.934 2479.53C196.768 2465.37 193.684 2450.2 193.684 2434.03C193.684 2417.87 196.768 2402.7 202.934 2388.53C209.101 2374.37 217.601 2361.95 228.434 2351.28C239.434 2340.62 252.101 2332.28 266.434 2326.28C280.768 2320.12 296.184 2317.03 312.684 2317.03C327.518 2317.03 341.518 2319.45 354.684 2324.28C367.851 2329.12 379.601 2335.95 389.934 2344.78L377.184 2397.28C371.018 2386.95 362.518 2378.28 351.684 2371.28C340.851 2364.12 328.351 2360.53 314.184 2360.53C304.018 2360.53 294.518 2362.45 285.684 2366.28C277.018 2370.12 269.434 2375.37 262.934 2382.03C256.434 2388.7 251.351 2396.53 247.684 2405.53C244.018 2414.37 242.184 2423.87 242.184 2434.03C242.184 2444.2 244.018 2453.78 247.684 2462.78C251.351 2471.62 256.434 2479.37 262.934 2486.03C269.434 2492.7 277.018 2497.95 285.684 2501.78C294.518 2505.62 304.018 2507.53 314.184 2507.53C328.184 2507.53 340.601 2504.03 351.434 2497.03C362.434 2489.87 371.018 2481.12 377.184 2470.78L389.934 2523.28C379.434 2531.95 367.601 2538.78 354.434 2543.78C341.434 2548.62 327.518 2551.03 312.684 2551.03ZM522.919 2551.03C506.419 2551.03 491.002 2548.03 476.669 2542.03C462.335 2535.87 449.669 2527.45 438.669 2516.78C427.835 2506.12 419.335 2493.7 413.169 2479.53C407.002 2465.37 403.919 2450.2 403.919 2434.03C403.919 2417.87 407.002 2402.7 413.169 2388.53C419.335 2374.37 427.835 2361.95 438.669 2351.28C449.669 2340.62 462.335 2332.28 476.669 2326.28C491.002 2320.12 506.419 2317.03 522.919 2317.03C539.419 2317.03 554.835 2320.12 569.169 2326.28C583.502 2332.28 596.086 2340.62 606.919 2351.28C617.919 2361.95 626.502 2374.37 632.669 2388.53C638.836 2402.7 641.919 2417.87 641.919 2434.03C641.919 2450.2 638.836 2465.37 632.669 2479.53C626.502 2493.7 617.919 2506.12 606.919 2516.78C596.086 2527.45 583.502 2535.87 569.169 2542.03C554.835 2548.03 539.419 2551.03 522.919 2551.03ZM522.919 2507.53C533.085 2507.53 542.502 2505.62 551.169 2501.78C559.835 2497.95 567.419 2492.7 573.919 2486.03C580.585 2479.37 585.752 2471.62 589.419 2462.78C593.085 2453.78 594.919 2444.2 594.919 2434.03C594.919 2423.87 593.085 2414.37 589.419 2405.53C585.752 2396.53 580.585 2388.7 573.919 2382.03C567.419 2375.37 559.835 2370.12 551.169 2366.28C542.502 2362.45 533.085 2360.53 522.919 2360.53C512.752 2360.53 503.335 2362.45 494.669 2366.28C486.002 2370.12 478.335 2375.37 471.669 2382.03C465.169 2388.7 460.085 2396.53 456.419 2405.53C452.752 2414.37 450.919 2423.87 450.919 2434.03C450.919 2444.2 452.752 2453.78 456.419 2462.78C460.085 2471.62 465.169 2479.37 471.669 2486.03C478.335 2492.7 486.002 2497.95 494.669 2501.78C503.335 2505.62 512.752 2507.53 522.919 2507.53ZM679.497 2546.53V2314.03H679.997L786.497 2447.03L890.997 2314.03H891.497V2546.53H847.997V2482.03C847.997 2474.7 848.08 2466.45 848.247 2457.28C848.58 2448.12 849.414 2437.62 850.747 2425.78C845.58 2434.45 840.58 2441.95 835.747 2448.28C831.08 2454.62 826.747 2460.45 822.747 2465.78L785.747 2515.28L747.497 2465.78C743.664 2460.78 739.08 2454.78 733.747 2447.78C728.58 2440.62 723.58 2433.03 718.747 2425.03C720.08 2437.2 720.83 2447.87 720.997 2457.03C721.33 2466.2 721.497 2474.53 721.497 2482.03V2546.53H679.497ZM939.653 2546.53V2314.03H940.153L1046.65 2447.03L1151.15 2314.03H1151.65V2546.53H1108.15V2482.03C1108.15 2474.7 1108.24 2466.45 1108.4 2457.28C1108.74 2448.12 1109.57 2437.62 1110.9 2425.78C1105.74 2434.45 1100.74 2441.95 1095.9 2448.28C1091.24 2454.62 1086.9 2460.45 1082.9 2465.78L1045.9 2515.28L1007.65 2465.78C1003.82 2460.78 999.237 2454.78 993.903 2447.78C988.737 2440.62 983.737 2433.03 978.903 2425.03C980.237 2437.2 980.987 2447.87 981.153 2457.03C981.487 2466.2 981.653 2474.53 981.653 2482.03V2546.53H939.653ZM1199.81 2546.53V2321.53H1319.81V2360.53H1243.31V2395.03H1302.31V2432.53H1243.31V2506.03H1319.81V2546.53H1199.81ZM1358.06 2546.53V2321.53H1426.81C1443.14 2321.53 1457.06 2324.78 1468.56 2331.28C1480.23 2337.78 1489.14 2346.45 1495.31 2357.28C1501.48 2367.95 1504.56 2379.7 1504.56 2392.53C1504.56 2400.2 1503.39 2407.53 1501.06 2414.53C1498.73 2421.37 1495.39 2427.62 1491.06 2433.28C1486.73 2438.78 1481.48 2443.62 1475.31 2447.78L1534.81 2546.53H1485.56L1435.56 2461.03H1401.56V2546.53H1358.06ZM1401.56 2423.53H1424.81C1433.31 2423.53 1440.23 2421.95 1445.56 2418.78C1450.89 2415.62 1454.81 2411.62 1457.31 2406.78C1459.81 2401.78 1461.06 2396.78 1461.06 2391.78C1461.06 2385.62 1459.48 2380.2 1456.31 2375.53C1453.31 2370.87 1449.06 2367.2 1443.56 2364.53C1438.23 2361.87 1431.98 2360.53 1424.81 2360.53H1401.56V2423.53ZM1658.47 2551.03C1641.97 2551.03 1626.55 2548.03 1612.22 2542.03C1597.88 2535.87 1585.22 2527.45 1574.22 2516.78C1563.38 2506.12 1554.88 2493.7 1548.72 2479.53C1542.55 2465.37 1539.47 2450.2 1539.47 2434.03C1539.47 2417.87 1542.55 2402.7 1548.72 2388.53C1554.88 2374.37 1563.38 2361.95 1574.22 2351.28C1585.22 2340.62 1597.88 2332.28 1612.22 2326.28C1626.55 2320.12 1641.97 2317.03 1658.47 2317.03C1673.3 2317.03 1687.3 2319.45 1700.47 2324.28C1713.63 2329.12 1725.38 2335.95 1735.72 2344.78L1722.97 2397.28C1716.8 2386.95 1708.3 2378.28 1697.47 2371.28C1686.63 2364.12 1674.13 2360.53 1659.97 2360.53C1649.8 2360.53 1640.3 2362.45 1631.47 2366.28C1622.8 2370.12 1615.22 2375.37 1608.72 2382.03C1602.22 2388.7 1597.13 2396.53 1593.47 2405.53C1589.8 2414.37 1587.97 2423.87 1587.97 2434.03C1587.97 2444.2 1589.8 2453.78 1593.47 2462.78C1597.13 2471.62 1602.22 2479.37 1608.72 2486.03C1615.22 2492.7 1622.8 2497.95 1631.47 2501.78C1640.3 2505.62 1649.8 2507.53 1659.97 2507.53C1673.97 2507.53 1686.38 2504.03 1697.22 2497.03C1708.22 2489.87 1716.8 2481.12 1722.97 2470.78L1735.72 2523.28C1725.22 2531.95 1713.38 2538.78 1700.22 2543.78C1687.22 2548.62 1673.3 2551.03 1658.47 2551.03ZM1767.58 2546.53V2321.53H1887.58V2360.53H1811.08V2395.03H1870.08V2432.53H1811.08V2506.03H1887.58V2546.53H1767.58ZM1982.83 2551.53C1973.67 2551.53 1964.75 2550.37 1956.08 2548.03C1947.58 2545.7 1939.75 2542.62 1932.58 2538.78C1925.58 2534.78 1919.58 2530.37 1914.58 2525.53L1926.83 2475.53C1930.83 2482.37 1935.92 2488.45 1942.08 2493.78C1948.25 2499.12 1955 2503.37 1962.33 2506.53C1969.67 2509.53 1977 2511.03 1984.33 2511.03C1990.5 2511.03 1995.75 2509.95 2000.08 2507.78C2004.42 2505.45 2007.75 2502.37 2010.08 2498.53C2012.58 2494.53 2013.83 2490.12 2013.83 2485.28C2013.83 2479.45 2012.42 2474.62 2009.58 2470.78C2006.92 2466.95 2003.67 2463.78 1999.83 2461.28C1996.17 2458.78 1992.92 2456.87 1990.08 2455.53L1963.58 2442.28C1955.92 2438.45 1948.58 2433.95 1941.58 2428.78C1934.58 2423.45 1928.83 2416.87 1924.33 2409.03C1920 2401.2 1917.83 2391.53 1917.83 2380.03C1917.83 2370.53 1919.42 2361.95 1922.58 2354.28C1925.92 2346.45 1930.67 2339.78 1936.83 2334.28C1943 2328.62 1950.33 2324.28 1958.83 2321.28C1967.5 2318.12 1977.17 2316.53 1987.83 2316.53C2001.17 2316.53 2013 2318.7 2023.33 2323.03C2033.83 2327.2 2042.33 2331.7 2048.83 2336.53L2037.33 2385.28C2032.83 2379.45 2027.75 2374.45 2022.08 2370.28C2016.42 2365.95 2010.5 2362.62 2004.33 2360.28C1998.17 2357.78 1992 2356.53 1985.83 2356.53C1980.33 2356.53 1975.67 2357.53 1971.83 2359.53C1968.17 2361.37 1965.33 2363.95 1963.33 2367.28C1961.33 2370.45 1960.33 2374.12 1960.33 2378.28C1960.33 2382.12 1961.17 2385.53 1962.83 2388.53C1964.67 2391.53 1967.25 2394.2 1970.58 2396.53C1973.92 2398.87 1977.83 2401.2 1982.33 2403.53L2009.08 2416.78C2013.58 2418.95 2018.5 2421.78 2023.83 2425.28C2029.17 2428.62 2034.33 2432.87 2039.33 2438.03C2044.33 2443.2 2048.42 2449.45 2051.58 2456.78C2054.75 2463.95 2056.33 2472.53 2056.33 2482.53C2056.33 2495.53 2053.33 2507.28 2047.33 2517.78C2041.33 2528.12 2032.83 2536.37 2021.83 2542.53C2011 2548.53 1998 2551.53 1982.83 2551.53Z" fill="white"/>
<g clip-path="url(#clip0_789_3443)">
<path d="M690.678 2064L175 1814.06L191.12 1136.81L473.133 596.631L513.42 201.561L980.75 0L1454 78.3112L1791.26 380.715L1992.74 1222.2L2111 1528.98L1940.18 1940.95L1265.66 2028.6L690.678 2064Z" fill="black"/>
<path d="M1683.83 1607.33H785.086V1750.01H1683.83V1607.33Z" fill="white"/>
<path d="M1678.88 1612.26V1745.07H790.009V1612.26H1678.88ZM1688.76 1602.39H780.15V1754.93H1688.76V1602.39Z" fill="white"/>
<path d="M1452.84 1114.43C1415.05 1114.43 1384.31 1083.67 1384.31 1045.86V1040.33C1384.31 1002.52 1415.05 971.758 1452.84 971.758C1490.63 971.758 1521.37 1002.52 1521.37 1040.33V1045.86C1521.37 1083.67 1490.63 1114.43 1452.84 1114.43Z" fill="white"/>
<path d="M1452.84 976.684C1487.97 976.684 1516.43 1005.17 1516.43 1040.32V1045.84C1516.43 1080.99 1487.96 1109.47 1452.84 1109.47C1417.71 1109.47 1389.25 1080.98 1389.25 1045.84V1040.32C1389.25 1005.17 1417.73 976.684 1452.84 976.684ZM1452.84 966.818C1412.33 966.818 1379.38 999.791 1379.38 1040.33V1045.85C1379.38 1086.39 1412.33 1119.36 1452.84 1119.36C1493.35 1119.36 1526.31 1086.39 1526.31 1045.85V1040.33C1526.31 999.791 1493.35 966.818 1452.84 966.818Z" fill="white"/>
<path d="M1035.37 1114.43C997.583 1114.43 966.842 1083.67 966.842 1045.86V1040.33C966.842 1002.52 997.583 971.758 1035.37 971.758C1073.16 971.758 1103.9 1002.52 1103.9 1040.33V1045.86C1103.9 1083.67 1073.16 1114.43 1035.37 1114.43Z" fill="white"/>
<path d="M1035.37 976.684C1070.5 976.684 1098.96 1005.17 1098.96 1040.32V1045.84C1098.96 1080.99 1070.5 1109.47 1035.37 1109.47C1000.24 1109.47 971.778 1080.99 971.778 1045.84V1040.32C971.778 1005.17 1000.24 976.684 1035.37 976.684ZM1035.37 966.818C994.859 966.818 961.906 999.791 961.906 1040.33V1045.85C961.906 1086.39 994.859 1119.36 1035.37 1119.36C1075.88 1119.36 1108.84 1086.39 1108.84 1045.85V1040.33C1108.84 999.791 1075.88 966.818 1035.37 966.818Z" fill="white"/>
<path d="M1694.97 765.195L1553.49 782.928L1674.71 1751.19L1816.18 1733.46L1694.97 765.195Z" fill="white"/>
<path d="M1690.72 770.622L1810.76 1729.09L1679.07 1745.6L1559.03 787.14L1690.72 770.622ZM1699.28 759.594L1689.49 760.819L1557.81 777.337L1548.02 778.562L1549.25 788.352L1669.29 1746.82L1670.51 1756.61L1680.3 1755.38L1811.98 1738.87L1821.76 1737.64L1820.54 1727.85L1700.5 769.384L1699.28 759.594Z" fill="white"/>
<path d="M775.769 765.111L654.505 1733.37L795.979 1751.11L917.243 782.851L775.769 765.111Z" fill="white"/>
<path d="M780.05 770.622L911.734 787.14L791.696 1745.6L660.012 1729.09L780.05 770.622ZM771.49 759.594L770.266 769.384L650.228 1727.85L649.003 1737.64L658.788 1738.87L790.472 1755.38L800.256 1756.61L801.481 1746.82L921.519 788.352L922.743 778.562L912.959 777.337L781.275 760.819L771.49 759.594Z" fill="white"/>
<path d="M1693.43 765.871H779.5V908.552H1693.43V765.871Z" fill="white"/>
<path d="M1688.49 770.81V903.612H784.424V770.81H1688.49ZM1698.37 760.932H774.564V913.478H1698.37V760.932Z" fill="white"/>
<path d="M1470.04 908.551L1470.69 903.037C1473.62 878.305 1475.18 852.884 1475.33 827.477C1475.33 826.201 1475.33 824.938 1475.33 823.663C1475.33 806.083 1474.66 788.427 1473.31 771.197C1465.96 676.293 1438.45 588.354 1395.83 523.572C1353.37 459.028 1298.56 421.716 1241.51 418.515C1238.83 418.365 1236.07 418.278 1233.28 418.278C1196.27 418.278 1160.72 431.982 1127.62 459.015C1092.13 487.986 1061.03 531.6 1037.68 585.141C1013.8 639.882 998.445 704.214 993.271 771.185C991.934 788.427 991.247 806.07 991.247 823.651C991.247 850.359 992.809 877.067 995.896 903.025L996.558 908.551H876.47L876.045 904.075C873.696 879.042 872.509 853.435 872.509 827.977C872.509 812.797 872.934 797.58 873.758 782.726C873.958 778.887 874.208 774.873 874.521 770.459C879.507 699.538 893.527 631.867 916.195 569.324C938.313 508.305 967.642 454.864 1003.38 410.488C1038.77 366.525 1078.81 333.565 1122.36 312.496C1158.08 295.216 1195.4 286.463 1233.28 286.463C1323.33 286.463 1409.53 336.416 1475.98 427.13C1541.56 516.645 1582.79 638.569 1592.05 770.447C1592.34 774.523 1592.61 778.837 1592.84 783.238C1593.65 797.905 1594.06 812.96 1594.06 827.952C1594.06 853.422 1592.87 879.03 1590.52 904.05L1590.1 908.526H1470.01L1470.04 908.551Z" fill="white"/>
<path d="M1233.31 291.401C1417.03 291.401 1568.22 501.34 1587.15 770.797C1587.45 775.023 1587.71 779.262 1587.94 783.513C1588.75 798.167 1589.15 812.997 1589.15 827.964C1589.15 853.634 1587.95 878.892 1585.64 903.612H1475.6C1478.52 878.954 1480.13 853.522 1480.28 827.501C1480.28 826.226 1480.28 824.95 1480.28 823.663C1480.28 805.757 1479.6 788.114 1478.25 770.809C1462.99 573.724 1363.58 420.428 1241.81 413.588C1239 413.426 1236.16 413.351 1233.31 413.351C1194.27 413.351 1157.35 428.393 1124.53 455.201C1051.74 514.632 999.132 631.842 988.373 770.809C987.023 788.102 986.336 805.745 986.336 823.663C986.336 851.021 987.948 877.754 991.022 903.612H880.981C878.669 878.892 877.47 853.647 877.47 827.964C877.47 812.822 877.882 797.817 878.707 783C878.919 778.924 879.182 774.86 879.469 770.809C889.554 627.266 937.164 500.615 1007.24 413.588C1041.54 370.988 1081.23 337.891 1124.52 316.947C1158.81 300.367 1195.37 291.401 1233.3 291.401M1233.31 281.536C1194.67 281.536 1156.63 290.464 1120.23 308.056C1076.02 329.438 1035.42 362.861 999.557 407.387C963.481 452.188 933.877 506.104 911.572 567.635C888.741 630.604 874.633 698.737 869.622 770.109C869.31 774.61 869.06 778.649 868.848 782.475C868.01 797.38 867.598 812.697 867.598 827.964C867.598 853.584 868.797 879.354 871.159 904.525L871.997 913.477H1002.13L1000.82 902.436C997.758 876.666 996.196 850.158 996.196 823.65C996.196 806.207 996.87 788.677 998.195 771.559C1003.33 705.139 1018.55 641.357 1042.22 587.103C1065.26 534.287 1095.86 491.312 1130.75 462.828C1162.94 436.533 1197.45 423.204 1233.3 423.204C1236 423.204 1238.66 423.279 1241.22 423.429C1269.21 425.004 1296.51 434.845 1322.37 452.688C1347.82 470.256 1371.15 495.013 1391.72 526.273C1433.88 590.367 1461.11 677.481 1468.4 771.559C1469.72 788.677 1470.4 806.195 1470.4 823.65C1470.4 824.913 1470.4 826.163 1470.4 827.426C1470.26 852.659 1468.7 877.891 1465.79 902.436L1464.48 913.477H1594.61L1595.45 904.525C1597.81 879.342 1599.01 853.584 1599.01 827.964C1599.01 812.884 1598.6 797.742 1597.78 782.963C1597.55 778.549 1597.28 774.21 1596.98 770.096C1587.66 637.319 1546.1 514.469 1479.98 424.217C1412.57 332.201 1324.97 281.523 1233.31 281.523V281.536Z" fill="white"/>
<path d="M1466.25 1607.32H567.503V1750H1466.25V1607.32Z" fill="white"/>
<path d="M1461.31 1612.26V1745.07H572.439V1612.26H1461.31ZM1471.19 1602.38H562.58V1754.93H1471.19V1602.38Z" fill="white"/>
<path d="M1351.7 908.551L1335.95 782.851L1477.31 765.133L1478.05 770.084L1495.39 908.551H1351.7Z" fill="white"/>
<path d="M1473.14 770.622L1473.16 770.797L1480.26 827.489L1489.79 903.599H1356.05L1341.45 787.127L1370.34 783.501L1470.91 770.884L1471.67 770.784L1473.12 770.609M1481.52 759.631L1471.92 760.831L1470.47 761.006L1469.72 761.094L1369.14 773.71L1340.25 777.336L1330.45 778.562L1331.68 788.365L1346.27 904.837L1347.36 913.477H1501L1499.61 902.374L1490.08 826.264L1482.98 769.571V769.471L1482.96 769.384L1482.93 769.209L1481.55 759.631H1481.52Z" fill="white"/>
<path d="M1456.53 1745.7L1439.21 1607.32H1582.9L1598.68 1733.37L1457.24 1751.11L1456.53 1745.7Z" fill="white"/>
<path d="M1578.54 1612.26L1593.17 1729.09L1465.76 1745.07L1461.5 1745.6L1461.43 1745.07L1461.31 1744.15L1444.79 1612.26H1578.54ZM1587.25 1602.38H1433.61L1435 1613.49L1451.52 1745.38L1451.63 1746.27L1451.7 1746.85L1452.97 1756.61L1462.73 1755.38L1466.99 1754.84L1594.4 1738.86L1604.18 1737.64L1602.96 1727.85L1588.32 1611.02L1587.24 1602.38H1587.25Z" fill="white"/>
<path d="M558.193 765.117L436.929 1733.38L578.404 1751.12L699.667 782.857L558.193 765.117Z" fill="white"/>
<path d="M562.48 770.62L694.164 787.138L574.126 1745.6L442.442 1729.09L562.48 770.62ZM553.92 759.592L552.696 769.382L432.658 1727.85L431.433 1737.64L441.218 1738.86L572.902 1755.38L582.686 1756.61L583.911 1746.82L703.949 788.351L705.173 778.56L695.389 777.335L563.705 760.817L553.92 759.592Z" fill="white"/>
<path d="M1475.85 765.869H561.918V908.55H1475.85V765.869Z" fill="white"/>
<path d="M1470.92 770.808V903.61H566.854V770.808H1470.92ZM1480.8 760.93H556.994V913.476H1480.8V760.93Z" fill="white"/>
<path d="M1252.45 908.55L1253.12 903.023C1256.2 877.078 1257.76 850.37 1257.76 823.649C1257.76 806.069 1257.09 788.426 1255.74 771.183L1255.33 765.869H1374.15L1374.48 770.458C1374.77 774.547 1375.04 778.848 1375.27 783.262C1376.08 797.941 1376.49 812.983 1376.49 827.975C1376.49 853.446 1375.3 879.041 1372.95 904.073L1372.53 908.55H1252.44H1252.45ZM658.912 908.55L658.488 904.073C656.138 879.053 654.951 853.446 654.951 827.975C654.951 812.808 655.376 797.579 656.201 782.737C656.401 778.948 656.651 774.934 656.963 770.47C666.223 638.593 707.447 516.669 773.027 427.154C839.482 336.439 925.68 286.486 1015.71 286.486C1053.6 286.486 1090.93 295.251 1126.65 312.519C1170.2 333.576 1210.24 366.548 1245.63 410.511L1252.62 419.177L1241.51 418.526C1238.85 418.376 1236.07 418.289 1233.3 418.289C1196.28 418.289 1160.73 431.993 1127.63 459.026L1124.51 461.577L1121.38 459.026C1088.28 431.993 1052.72 418.289 1015.71 418.289C1012.94 418.289 1010.18 418.364 1007.52 418.526C950.447 421.727 895.652 459.039 853.19 523.583C810.565 588.365 783.049 676.304 775.714 771.208C774.377 788.451 773.689 806.094 773.689 823.674C773.689 834.065 773.927 844.543 774.402 854.846C775.139 870.988 776.464 887.206 778.35 903.048L779 908.562H658.912V908.55Z" fill="white"/>
<path d="M1015.73 291.401C1053.67 291.401 1090.23 300.366 1124.52 316.946C1167.82 337.877 1207.51 370.987 1241.79 413.588C1238.98 413.425 1236.15 413.35 1233.3 413.35C1194.26 413.35 1157.33 428.392 1124.52 455.2C1091.69 428.405 1054.76 413.35 1015.73 413.35C1012.88 413.35 1010.05 413.425 1007.24 413.588C885.467 420.415 786.048 573.724 770.79 770.808C769.441 788.101 768.754 805.744 768.754 823.662C768.754 834.227 768.991 844.706 769.466 855.059C770.216 871.539 771.553 887.744 773.44 903.611H663.399C661.074 878.891 659.887 853.646 659.887 827.963C659.887 812.821 660.3 797.817 661.124 783C661.337 778.923 661.599 774.86 661.887 770.808C680.806 501.352 832.009 291.413 1015.73 291.413M1369.57 770.808C1369.87 775.035 1370.13 779.273 1370.35 783.525C1371.17 798.179 1371.57 813.009 1371.57 827.976C1371.57 853.646 1370.37 878.904 1368.06 903.624H1258.01C1261.09 877.766 1262.7 851.033 1262.7 823.674C1262.7 805.769 1262.01 788.126 1260.66 770.821H1369.57M1015.73 281.535C924.068 281.535 836.47 332.213 769.053 424.228C702.924 514.493 661.374 637.33 652.052 770.121C651.74 774.584 651.49 778.623 651.277 782.487C650.44 797.391 650.028 812.708 650.028 827.976C650.028 853.608 651.227 879.366 653.589 904.536L654.426 913.489H784.561L783.249 902.448C781.387 886.743 780.062 870.638 779.338 854.609C778.875 844.393 778.638 833.977 778.638 823.662C778.638 806.219 779.313 788.689 780.637 771.571C787.923 677.493 815.152 590.379 857.326 526.284C877.895 495.025 901.225 470.267 926.68 452.699C952.534 434.857 979.826 425.016 1007.8 423.453C1010.39 423.303 1013.05 423.228 1015.74 423.228C1051.59 423.228 1086.09 436.557 1118.3 462.853L1124.53 467.942L1130.77 462.853C1162.96 436.557 1197.46 423.228 1233.31 423.228C1236.01 423.228 1238.67 423.303 1241.23 423.453L1263.45 424.741L1249.49 407.398C1213.64 362.86 1173.04 329.45 1128.82 308.068C1092.42 290.463 1054.38 281.548 1015.73 281.548V281.535ZM1378.75 760.93H1249.99L1250.82 771.571C1252.14 788.676 1252.82 806.194 1252.82 823.662C1252.82 850.182 1251.27 876.69 1248.19 902.448L1246.88 913.489H1377.01L1377.85 904.536C1380.21 879.354 1381.41 853.596 1381.41 827.976C1381.41 812.884 1381 797.741 1380.19 782.974C1379.95 778.573 1379.69 774.234 1379.39 770.108L1378.74 760.943L1378.75 760.93Z" fill="white"/>
</g>
<defs>
<clipPath id="clip0_789_3443">
<rect width="1936" height="2064" fill="white" transform="translate(175)"/>
</clipPath>
</defs>
</svg>
