<svg width="2382" height="2610" viewBox="0 0 2382 2610" fill="none" xmlns="http://www.w3.org/2000/svg">
<path d="M144 2573.84L223.246 2183.79L2110.07 2137.55L2025.97 2610L144 2573.84Z" fill="black"/>
<path d="M430.135 2506.1V2281.1H506.635C524.635 2281.1 540.968 2284.02 555.635 2289.85C570.468 2295.69 583.218 2303.77 593.885 2314.1C604.718 2324.27 613.051 2336.19 618.885 2349.85C624.718 2363.52 627.635 2378.1 627.635 2393.6C627.635 2409.1 624.718 2423.69 618.885 2437.35C613.051 2451.02 604.718 2463.02 593.885 2473.35C583.218 2483.52 570.468 2491.52 555.635 2497.35C540.968 2503.19 524.635 2506.1 506.635 2506.1H430.135ZM473.635 2465.6H502.635C515.301 2465.6 526.468 2463.77 536.135 2460.1C545.801 2456.27 553.885 2451.1 560.385 2444.6C567.051 2437.94 572.051 2430.27 575.385 2421.6C578.885 2412.94 580.635 2403.6 580.635 2393.6C580.635 2383.6 578.885 2374.27 575.385 2365.6C572.051 2356.77 567.051 2349.1 560.385 2342.6C553.885 2335.94 545.801 2330.77 536.135 2327.1C526.468 2323.44 515.301 2321.6 502.635 2321.6H473.635V2465.6ZM773.478 2510.6C756.978 2510.6 741.562 2507.6 727.228 2501.6C712.895 2495.44 700.228 2487.02 689.228 2476.35C678.395 2465.69 669.895 2453.27 663.728 2439.1C657.562 2424.94 654.478 2409.77 654.478 2393.6C654.478 2377.44 657.562 2362.27 663.728 2348.1C669.895 2333.94 678.395 2321.52 689.228 2310.85C700.228 2300.19 712.895 2291.85 727.228 2285.85C741.562 2279.69 756.978 2276.6 773.478 2276.6C789.978 2276.6 805.395 2279.69 819.728 2285.85C834.062 2291.85 846.645 2300.19 857.478 2310.85C868.478 2321.52 877.062 2333.94 883.228 2348.1C889.395 2362.27 892.478 2377.44 892.478 2393.6C892.478 2409.77 889.395 2424.94 883.228 2439.1C877.062 2453.27 868.478 2465.69 857.478 2476.35C846.645 2487.02 834.062 2495.44 819.728 2501.6C805.395 2507.6 789.978 2510.6 773.478 2510.6ZM773.478 2467.1C783.645 2467.1 793.062 2465.19 801.728 2461.35C810.395 2457.52 817.978 2452.27 824.478 2445.6C831.145 2438.94 836.312 2431.19 839.978 2422.35C843.645 2413.35 845.478 2403.77 845.478 2393.6C845.478 2383.44 843.645 2373.94 839.978 2365.1C836.312 2356.1 831.145 2348.27 824.478 2341.6C817.978 2334.94 810.395 2329.69 801.728 2325.85C793.062 2322.02 783.645 2320.1 773.478 2320.1C763.312 2320.1 753.895 2322.02 745.228 2325.85C736.562 2329.69 728.895 2334.94 722.228 2341.6C715.728 2348.27 710.645 2356.1 706.978 2365.1C703.312 2373.94 701.478 2383.44 701.478 2393.6C701.478 2403.77 703.312 2413.35 706.978 2422.35C710.645 2431.19 715.728 2438.94 722.228 2445.6C728.895 2452.27 736.562 2457.52 745.228 2461.35C753.895 2465.19 763.312 2467.1 773.478 2467.1ZM1006.06 2511.35C990.223 2511.35 976.14 2508.1 963.807 2501.6C951.473 2495.1 941.723 2485.85 934.557 2473.85C927.557 2461.69 924.057 2447.19 924.057 2430.35V2281.1H970.557V2428.1C970.557 2436.1 972.057 2443.1 975.057 2449.1C978.223 2455.1 982.557 2459.77 988.057 2463.1C993.557 2466.27 999.807 2467.85 1006.81 2467.85C1013.81 2467.85 1020.06 2466.27 1025.56 2463.1C1031.06 2459.94 1035.31 2455.52 1038.31 2449.85C1041.47 2444.02 1043.06 2437.27 1043.06 2429.6V2281.1H1088.06V2429.6C1088.06 2446.6 1084.56 2461.27 1077.56 2473.6C1070.56 2485.77 1060.89 2495.1 1048.56 2501.6C1036.39 2508.1 1022.22 2511.35 1006.06 2511.35ZM1238.6 2510.6C1222.1 2510.6 1206.68 2507.6 1192.35 2501.6C1178.01 2495.44 1165.35 2487.02 1154.35 2476.35C1143.51 2465.69 1135.01 2453.27 1128.85 2439.1C1122.68 2424.94 1119.6 2409.77 1119.6 2393.6C1119.6 2377.44 1122.68 2362.27 1128.85 2348.1C1135.01 2333.94 1143.51 2321.52 1154.35 2310.85C1165.35 2300.19 1178.01 2291.85 1192.35 2285.85C1206.68 2279.69 1222.1 2276.6 1238.6 2276.6C1253.43 2276.6 1267.43 2279.02 1280.6 2283.85C1293.76 2288.69 1305.51 2295.52 1315.85 2304.35L1303.1 2356.85C1296.93 2346.52 1288.43 2337.85 1277.6 2330.85C1266.76 2323.69 1254.26 2320.1 1240.1 2320.1C1229.93 2320.1 1220.43 2322.02 1211.6 2325.85C1202.93 2329.69 1195.35 2334.94 1188.85 2341.6C1182.35 2348.27 1177.26 2356.1 1173.6 2365.1C1169.93 2373.94 1168.1 2383.44 1168.1 2393.6C1168.1 2403.77 1169.93 2413.35 1173.6 2422.35C1177.26 2431.19 1182.35 2438.94 1188.85 2445.6C1195.35 2452.27 1202.93 2457.52 1211.6 2461.35C1220.43 2465.19 1229.93 2467.1 1240.1 2467.1C1254.1 2467.1 1266.51 2463.6 1277.35 2456.6C1288.35 2449.44 1296.93 2440.69 1303.1 2430.35L1315.85 2482.85C1305.35 2491.52 1293.51 2498.35 1280.35 2503.35C1267.35 2508.19 1253.43 2510.6 1238.6 2510.6ZM1347.71 2506.1V2281.1H1391.21V2353.1H1456.21V2281.1H1499.71V2506.1H1456.21V2393.6H1391.21V2506.1H1347.71ZM1547.75 2506.1V2281.1H1667.75V2320.1H1591.25V2354.6H1650.25V2392.1H1591.25V2465.6H1667.75V2506.1H1547.75ZM1763 2511.1C1753.84 2511.1 1744.92 2509.94 1736.25 2507.6C1727.75 2505.27 1719.92 2502.19 1712.75 2498.35C1705.75 2494.35 1699.75 2489.94 1694.75 2485.1L1707 2435.1C1711 2441.94 1716.09 2448.02 1722.25 2453.35C1728.42 2458.69 1735.17 2462.94 1742.5 2466.1C1749.84 2469.1 1757.17 2470.6 1764.5 2470.6C1770.67 2470.6 1775.92 2469.52 1780.25 2467.35C1784.59 2465.02 1787.92 2461.94 1790.25 2458.1C1792.75 2454.1 1794 2449.69 1794 2444.85C1794 2439.02 1792.59 2434.19 1789.75 2430.35C1787.09 2426.52 1783.84 2423.35 1780 2420.85C1776.34 2418.35 1773.09 2416.44 1770.25 2415.1L1743.75 2401.85C1736.09 2398.02 1728.75 2393.52 1721.75 2388.35C1714.75 2383.02 1709 2376.44 1704.5 2368.6C1700.17 2360.77 1698 2351.1 1698 2339.6C1698 2330.1 1699.59 2321.52 1702.75 2313.85C1706.09 2306.02 1710.84 2299.35 1717 2293.85C1723.17 2288.19 1730.5 2283.85 1739 2280.85C1747.67 2277.69 1757.34 2276.1 1768 2276.1C1781.34 2276.1 1793.17 2278.27 1803.5 2282.6C1814 2286.77 1822.5 2291.27 1829 2296.1L1817.5 2344.85C1813 2339.02 1807.92 2334.02 1802.25 2329.85C1796.59 2325.52 1790.67 2322.19 1784.5 2319.85C1778.34 2317.35 1772.17 2316.1 1766 2316.1C1760.5 2316.1 1755.84 2317.1 1752 2319.1C1748.34 2320.94 1745.5 2323.52 1743.5 2326.85C1741.5 2330.02 1740.5 2333.69 1740.5 2337.85C1740.5 2341.69 1741.34 2345.1 1743 2348.1C1744.84 2351.1 1747.42 2353.77 1750.75 2356.1C1754.09 2358.44 1758 2360.77 1762.5 2363.1L1789.25 2376.35C1793.75 2378.52 1798.67 2381.35 1804 2384.85C1809.34 2388.19 1814.5 2392.44 1819.5 2397.6C1824.5 2402.77 1828.59 2409.02 1831.75 2416.35C1834.92 2423.52 1836.5 2432.1 1836.5 2442.1C1836.5 2455.1 1833.5 2466.85 1827.5 2477.35C1821.5 2487.69 1813 2495.94 1802 2502.1C1791.17 2508.1 1778.17 2511.1 1763 2511.1Z" fill="white"/>
<path d="M1275.57 0.0114136L606.073 89.8517L352.375 426.75L28.1934 881.561L0 1325.13L422.844 1684.48L838.632 1954C1107.2 1952.95 1375.77 1951.9 1644.33 1950.84C1751.81 1811.23 1859.28 1671.62 1966.76 1532C2105.17 1393.8 2243.58 1255.59 2382 1117.38C2255.27 900.033 2128.53 682.702 2001.8 465.359C2032.22 345.804 2062.64 226.248 2093.05 106.682L1275.56 0L1275.57 0.0114136Z" fill="black"/>
<path d="M1206 726V321H1026V726H1206Z" fill="white"/>
<path d="M822.502 1471.93C863.094 1471.93 896 1442.38 896 1405.93C896 1369.48 863.094 1339.93 822.502 1339.93H812.499C771.907 1339.93 739 1369.48 739 1405.93C739 1442.38 771.907 1471.93 812.499 1471.93H822.502Z" fill="white"/>
<path d="M1116.5 1471.93C1157.09 1471.93 1190 1442.38 1190 1405.93C1190 1369.48 1157.09 1339.93 1116.5 1339.93H1106.5C1065.91 1339.93 1033 1369.48 1033 1405.93C1033 1442.38 1065.91 1471.93 1106.5 1471.93H1116.5Z" fill="white"/>
<path d="M1420.97 1471.93C1461.3 1471.93 1494 1442.38 1494 1405.93C1494 1369.48 1461.3 1339.93 1420.97 1339.93H1411.03C1370.7 1339.93 1338 1369.48 1338 1405.93C1338 1442.38 1370.7 1471.93 1411.03 1471.93H1420.97Z" fill="white"/>
<path d="M961.97 1679.93C1002.3 1679.93 1035 1650.38 1035 1613.93C1035 1577.48 1002.3 1547.93 961.97 1547.93H952.031C911.697 1547.93 879 1577.48 879 1613.93C879 1650.38 911.697 1679.93 952.031 1679.93H961.97Z" fill="white"/>
<path d="M1255.97 1679.93C1296.3 1679.93 1329 1650.38 1329 1613.93C1329 1577.48 1296.3 1547.93 1255.97 1547.93H1246.03C1205.7 1547.93 1173 1577.48 1173 1613.93C1173 1650.38 1205.7 1679.93 1246.03 1679.93H1255.97Z" fill="white"/>
<path d="M1026 456L1694 456V276L1026 276V456Z" fill="white"/>
<path d="M530.001 1261L1717 1261V1081H530.001V1261Z" fill="white"/>
<path d="M614.001 897L1634 897V717L614.001 717V897Z" fill="white"/>
<path d="M1888.13 1203.96L1632.79 717L1462 773.857L1717.34 1260.82L1888.13 1203.96Z" fill="white"/>
<path d="M529.784 1260.82L785.125 773.857L614.34 717.001L359 1203.96L529.784 1260.82Z" fill="white"/>
</svg>
