<svg width="2250" height="2502" viewBox="0 0 2250 2502" fill="none" xmlns="http://www.w3.org/2000/svg">
<path d="M247.828 2457.75L318.585 1980.48L2003.28 1923.9L1928.19 2502L247.828 2457.75Z" fill="black"/>
<path d="M216.242 2457.75L289.546 1980.48L2034.86 1923.9L1957.07 2502L216.242 2457.75Z" fill="black"/>
<path d="M611.406 2294.37V2069.37H731.406V2108.37H654.906V2142.87H713.906V2180.37H654.906V2253.87H731.406V2294.37H611.406ZM945.406 2301.87L810.906 2167.12V2294.37H768.906V2061.87H769.406L903.906 2196.37V2069.37H945.906V2301.87H945.406ZM1035.41 2294.37V2109.87H980.406V2069.37H1136.91V2109.87H1081.91V2294.37H1035.41ZM1172.2 2294.37V2069.37H1240.95C1257.28 2069.37 1271.2 2072.62 1282.7 2079.12C1294.36 2085.62 1303.28 2094.29 1309.45 2105.12C1315.61 2115.79 1318.7 2127.54 1318.7 2140.37C1318.7 2148.04 1317.53 2155.37 1315.2 2162.37C1312.86 2169.2 1309.53 2175.45 1305.2 2181.12C1300.86 2186.62 1295.61 2191.45 1289.45 2195.62L1348.95 2294.37H1299.7L1249.7 2208.87H1215.7V2294.37H1172.2ZM1215.7 2171.37H1238.95C1247.45 2171.37 1254.36 2169.79 1259.7 2166.62C1265.03 2163.45 1268.95 2159.45 1271.45 2154.62C1273.95 2149.62 1275.2 2144.62 1275.2 2139.62C1275.2 2133.45 1273.61 2128.04 1270.45 2123.37C1267.45 2118.7 1263.2 2115.04 1257.7 2112.37C1252.36 2109.7 1246.11 2108.37 1238.95 2108.37H1215.7V2171.37ZM1371.48 2294.37V2069.37H1491.48V2108.37H1414.98V2142.87H1473.98V2180.37H1414.98V2253.87H1491.48V2294.37H1371.48ZM1412.23 2049.87L1450.23 1998.87H1504.23L1452.73 2049.87H1412.23ZM1528.98 2294.37V2069.37H1648.98V2108.37H1572.48V2142.87H1631.48V2180.37H1572.48V2253.87H1648.98V2294.37H1528.98Z" fill="white"/>
<g clip-path="url(#clip0_541_1429)">
<path d="M2203.97 117.609L1975.02 0L1312.03 92.6589L612.281 257.086L0 540.158L22.3288 1116.97L560.177 1247.82L1158.44 1429.08L1460.91 1625.09H2250V958.658L2203.97 117.609Z" fill="black"/>
<path d="M1708.07 1191.1H1926.74V398.97H1708.07V1191.1Z" fill="white"/>
<path d="M1926.94 1296.07V1086.7H1398.29V1296.07H1926.94Z" fill="white"/>
<path d="M1926.95 538.38V329.008H1398.29V538.38H1926.95Z" fill="white"/>
<path d="M1338.37 864.886V725.305H450.625V864.886H1338.37Z" fill="white"/>
<path d="M1394.28 684.518L1140.08 451.021L1039.17 551.741L1297.93 789.437L1061.4 1047L1170.88 1139.17L1403.23 886.156L1499.58 781.237L1394.28 684.518Z" fill="white"/>
</g>
<defs>
<clipPath id="clip0_541_1429">
<rect width="2250" height="1625.09" fill="white"/>
</clipPath>
</defs>
</svg>
