<svg width="1932" height="2071" viewBox="0 0 1932 2071" fill="none" xmlns="http://www.w3.org/2000/svg">
<path d="M269.028 595.216C415.756 485.947 562.497 376.677 709.225 267.421C831.499 322.049 953.786 376.69 1076.06 431.319C1073.35 290.421 1070.62 149.524 1067.91 8.62688C1301.6 5.74693 1535.29 2.87995 1768.96 0C1823.31 212.779 1877.65 425.559 1932 638.351C1872.22 782.128 1812.44 925.892 1752.66 1069.67L1785.26 1500.99L1263.54 1518.24C1206.48 1636.14 1149.41 1754.02 1092.35 1871.92C956.484 1938.05 820.627 2004.19 684.758 2070.32C456.505 1771.28 228.253 1472.23 0 1173.19C89.6716 980.534 179.343 787.888 269.015 595.229L269.028 595.216Z" fill="black"/>
<path d="M1453 1054H480V1234H1453V1054Z" fill="white"/>
<path d="M894.522 1567.53L497.333 1023.98L352 1130.18L749.189 1673.73L894.522 1567.53Z" fill="white"/>
<path d="M742.495 596.999L352.229 1131.08L497.563 1237.28L887.828 703.199L742.495 596.999Z" fill="white"/>
<path d="M1453 1135V298H1273V1135H1453Z" fill="white"/>
</svg>
