<svg width="1726" height="1923" viewBox="0 0 1726 1923" fill="none" xmlns="http://www.w3.org/2000/svg">
<path d="M0 545.446C141.423 493.495 282.832 441.557 424.254 389.606C545.47 259.742 666.686 129.864 787.902 0C995.702 51.951 1203.5 103.889 1411.3 155.84C1516.2 344.218 1621.1 532.597 1726 720.975C1577.82 953.948 1429.62 1186.93 1281.43 1419.91C1330.5 1584.41 1379.56 1748.91 1428.62 1913.41C1238.37 1891.82 1048.12 1870.22 857.865 1848.64C675.803 1873.12 493.755 1897.6 311.693 1922.08C300.154 1696.97 288.601 1471.87 277.062 1246.76C184.708 1012.99 92.3542 779.225 0 545.459V545.446Z" fill="black"/>
<path d="M953 1566L953 527H773V1566H953Z" fill="white"/>
<path d="M394.199 961.349L974.461 537.334L868.262 392.001L288 816.015L394.199 961.349Z" fill="white"/>
<path d="M1438.52 810.639L868.368 394.016L762.169 539.349L1332.32 955.972L1438.52 810.639Z" fill="white"/>
</svg>
