<svg width="1486" height="1704" viewBox="0 0 1486 1704" fill="none" xmlns="http://www.w3.org/2000/svg">
<path d="M1107.07 171.913L1411.7 276.544C1436.47 528.154 1461.23 779.765 1486 1031.38C1451.33 1148.46 1416.66 1265.55 1381.98 1382.63C1302.73 1410.03 1223.48 1437.44 1144.22 1464.84L1047.63 1704L349.202 1681.58C309.576 1641.72 269.95 1601.86 230.324 1562C185.745 1544.56 141.166 1527.12 96.5872 1509.69C96.5872 1397.58 96.5872 1285.47 96.5872 1173.37C64.3912 1068.74 32.196 964.106 0 859.475C96.5879 722.458 193.176 585.44 289.775 448.423C324.447 313.894 359.12 179.376 393.792 44.8468C557.249 29.8979 720.717 14.9489 884.173 0C958.471 57.2968 1032.77 114.594 1107.08 171.89L1107.07 171.913Z" fill="black"/>
<path d="M1242.12 414.357L1168.47 339L975.578 527.53L1049.23 602.888L1242.12 414.357Z" fill="white"/>
<path d="M1066.37 589.385C1015.96 483.175 907.721 409.744 782.34 409.744C608.793 409.744 468.098 550.428 468.098 723.975C468.098 725.501 468.108 727.017 468.129 728.543H551.815C551.783 727.027 551.762 725.501 551.762 723.975C551.762 596.639 654.983 493.408 782.329 493.408C909.675 493.408 1007.41 591.235 1012.67 713.899C1012.82 717.243 1012.89 720.599 1012.89 723.975C1012.89 743.793 1010.39 763.027 1005.68 781.371C1005.2 783.232 1004.85 784.538 1004.44 786.002C1000.24 801.242 993.632 821.29 982.834 845.258C922.981 979.984 863.129 1114.71 803.266 1249.44L802.765 1249.02C793.483 1271.06 778.012 1289.89 758.538 1303.29C738.532 1317.06 714.281 1325.12 688.16 1325.12C633.952 1325.12 587.835 1290.41 570.849 1242H484.018C502.655 1337.74 586.967 1410 688.15 1410C696.616 1410 704.957 1409.49 713.163 1408.51C723.438 1407.27 733.484 1405.3 743.236 1402.62C800.005 1387.08 847.073 1348.07 873.393 1296.68C873.393 1296.67 873.404 1296.66 873.415 1296.65L884.212 1271.6C939.518 1145.71 994.813 1019.83 1050.12 893.937C1061.93 872.498 1096.96 804.419 1096.54 723.975C1096.3 676.342 1087.11 633.151 1066.33 589.375L1066.37 589.385Z" fill="white"/>
<path d="M963.631 755.114C963.631 770.981 961.854 786.441 958.478 801.295H870.591C876.612 786.702 879.935 770.699 879.935 753.933C879.935 685.29 824.286 629.639 755.642 629.639C740.559 629.639 726.102 632.325 712.723 637.249V551.567C726.562 548.651 740.925 547.125 755.642 547.125C870.508 547.125 963.631 640.249 963.631 755.114Z" fill="white"/>
<path d="M800.154 846.33L726.5 770.973L233.023 1253.29L306.677 1328.65L800.154 846.33Z" fill="white"/>
</svg>
