<svg width="1652" height="1449" viewBox="0 0 1652 1449" fill="none" xmlns="http://www.w3.org/2000/svg">
<path d="M166.639 369.502L268.075 72.4534L999.885 0C1113.4 33.8056 1226.92 67.6224 1340.43 101.428L1420.14 333.27L1652 427.451L1630.26 1108.48L1514.33 1224.4C1497.42 1267.87 1480.52 1311.34 1463.61 1354.82H1137.56C1036.12 1386.21 934.683 1417.61 833.247 1449C700.406 1354.82 567.577 1260.63 434.736 1166.44C304.311 1132.64 173.897 1098.82 43.4716 1065.02C28.9774 905.628 14.4942 746.239 0 586.851C55.5498 514.398 111.1 441.956 166.65 369.502H166.639Z" fill="black"/>
<path d="M1324.5 598.381C1213.97 456.661 1041.6 365.531 847.951 365.531C815.911 365.531 784.451 368.021 753.761 372.831C745.991 374.051 738.271 375.411 730.611 376.921L762.541 446.301L767.911 457.981C775.641 456.771 783.421 455.741 791.251 454.881C809.881 452.841 828.791 451.801 847.961 451.801C1028.19 451.801 1186.81 544.291 1278.95 684.391C1212.53 785.371 1111.59 861.611 992.911 896.311C986.071 898.311 979.171 900.181 972.211 901.891C946.921 908.151 920.881 912.541 894.261 914.911L933.891 1001.67C960.081 997.941 985.721 992.531 1010.71 985.561C1017.5 983.671 1024.24 981.661 1030.93 979.541C1149.09 942.031 1251.5 869.151 1325.72 773.351C1346.77 746.201 1365.54 717.201 1381.77 686.641C1365.23 655.501 1346.05 625.981 1324.52 598.381H1324.5ZM314.941 685.171H316.611L315.841 683.501C315.541 684.061 315.241 684.621 314.941 685.171Z" fill="white"/>
<path d="M767.902 457.98C742.412 461.95 717.542 467.79 693.432 475.36C684.432 478.18 675.551 481.25 666.771 484.54C657.571 488 648.492 491.7 639.552 495.66C635.222 497.58 630.912 499.55 626.642 501.59C599.622 514.45 573.902 529.59 549.722 546.78C545.782 549.57 541.881 552.43 538.021 555.34C533.641 558.63 529.322 562 525.062 565.43C519.952 569.54 514.922 573.75 509.972 578.04C506.322 581.21 502.722 584.43 499.172 587.7C480.582 604.79 463.262 623.21 447.342 642.84C442.852 648.38 438.472 654.01 434.222 659.73C430.892 664.19 427.652 668.7 424.482 673.27L453.442 736.2L533.342 909.82L536.512 916.72C470.682 877.95 412.842 827.04 366.082 767.08C354.002 751.59 342.662 735.5 332.102 718.85L316.602 685.16L315.832 683.49C331.982 653.5 350.592 625.05 371.402 598.38C374.202 594.78 377.052 591.23 379.922 587.7C381.022 586.35 382.132 585.01 383.242 583.67C386.642 579.57 390.112 575.52 393.622 571.52C417.572 544.2 443.952 519.05 472.422 496.43C481.752 489.01 491.302 481.87 501.062 475.01C529.192 455.23 559.092 437.8 590.472 423C603.582 416.81 616.942 411.08 630.552 405.84C639.362 402.43 648.272 399.23 657.282 396.24C681.092 388.32 705.572 381.85 730.592 376.92L762.521 446.3L766.122 454.12L767.902 457.97V457.98Z" fill="white"/>
<path d="M730.6 376.921C705.58 381.851 681.1 388.321 657.29 396.241C648.28 399.231 639.37 402.431 630.56 405.841L620.84 384.721L559.91 252.331L653.69 209.801L722.88 360.141L730.6 376.921Z" fill="white"/>
<path d="M1055.97 1083.95L962.201 1126.48L913.411 1020.46L871.491 929.36L666.781 484.54C675.561 481.25 684.441 478.18 693.441 475.36C717.551 467.79 742.421 461.95 767.911 457.98L972.201 901.901L975.851 909.82L1010.7 985.561L1016.06 997.21L1055.98 1083.95H1055.97Z" fill="white"/>
<path d="M871.311 999.261C861.811 999.701 852.251 999.931 842.631 999.931C813.001 999.931 783.881 997.791 755.391 993.671L721.581 920.211L710.721 896.621L549.721 546.781L549.451 546.201C576.971 525.461 606.641 507.411 638.071 492.451L639.551 495.661L825.941 900.681L831.861 913.551L866.151 988.071L871.301 999.261H871.311Z" fill="white"/>
<path d="M709.211 984.661C665.191 974.931 623.041 959.761 583.401 939.851L568.831 906.131L521.791 797.301L453.891 640.191L452.301 636.511C462.681 621.651 473.801 607.421 485.601 593.851H485.611C494.461 583.661 503.701 573.861 513.301 564.471C516.641 561.201 520.021 557.981 523.451 554.811L524.501 557.241L526.891 562.771L664.901 882.091L666.841 886.581L704.611 973.971L709.221 984.651L709.211 984.661Z" fill="white"/>
<path d="M868.421 865.821C967.495 865.821 1047.81 785.505 1047.81 686.431C1047.81 587.357 967.495 507.041 868.421 507.041C769.347 507.041 689.031 587.357 689.031 686.431C689.031 785.505 769.347 865.821 868.421 865.821Z" fill="white"/>
</svg>
