<svg width="1336" height="1580" viewBox="0 0 1336 1580" fill="none" xmlns="http://www.w3.org/2000/svg">
<path d="M563.372 1569.06L203.885 1492.52V1202.77L0 639.656L402.414 185.88L1105.29 0L1336 224.154L1239.42 967.682L1073.09 1317.58L1057 1580L563.372 1569.06Z" fill="black"/>
<path d="M638.724 757.279H480.65V1352.72H638.724V757.279Z" fill="white"/>
<path d="M591.377 885.209L480.291 756.303L824.833 474.365L935.919 603.272L591.377 885.209Z" fill="white"/>
<path d="M798.256 864.463H936.246V604.388H798.256V864.463Z" fill="white"/>
<path d="M798.068 864.095L922.309 805.256L1016.88 969.927L892.638 1028.77L798.068 864.095Z" fill="white"/>
<path d="M1028.75 548.566C1094.53 548.566 1147.86 495.216 1147.86 429.405C1147.86 363.594 1094.53 310.244 1028.75 310.244C962.966 310.244 909.639 363.594 909.639 429.405C909.639 495.216 962.966 548.566 1028.75 548.566Z" fill="white"/>
<path d="M368.492 414.586L432.958 342.565L502.379 424.191L621.393 299.354L656.107 582.635L581.724 496.212L477.589 587.438L368.492 414.586Z" fill="white"/>
</svg>
