<svg width="1593" height="1517" viewBox="0 0 1593 1517" fill="none" xmlns="http://www.w3.org/2000/svg">
<path d="M425.947 0.0113002L783.724 119.328L1354.47 8.53632L1593 417.613L1567.45 1303.94L1022.25 1517L630.387 1448.82C451.499 1440.3 272.61 1431.77 93.7105 1423.26C62.4736 1281.22 31.2369 1139.17 0 997.133C39.758 869.291 79.5045 741.461 119.263 613.62C110.741 474.416 102.22 335.223 93.7105 196.019L425.936 0L425.947 0.0113002Z" fill="black"/>
<path d="M518.399 659.441C559.925 659.441 593.589 625.777 593.589 584.251C593.589 542.724 559.925 509.061 518.399 509.061C476.873 509.061 443.209 542.724 443.209 584.251C443.209 625.777 476.873 659.441 518.399 659.441Z" fill="white"/>
<path d="M933.86 659.441C975.386 659.441 1009.05 625.777 1009.05 584.251C1009.05 542.724 975.386 509.061 933.86 509.061C892.334 509.061 858.67 542.724 858.67 584.251C858.67 625.777 892.334 659.441 933.86 659.441Z" fill="white"/>
<path d="M754.444 300.449L646.84 317L715.408 762.777L823.012 746.226L754.444 300.449Z" fill="white"/>
<path d="M822.592 850.063V741.193H624.452V850.063H822.592Z" fill="white"/>
<path d="M750.223 998.599V903.408H552.083V998.599H750.223Z" fill="white"/>
<path d="M821.129 969.52V903.41C846.459 908.52 879.599 918.22 918.549 918.35C959.009 918.48 993.329 908.64 1019.28 903.41C1019.28 925.45 1019.28 947.48 1019.28 969.52C997.009 976.29 961.299 989.67 916.659 989.22C875.609 988.8 842.589 976.05 821.139 969.52H821.129Z" fill="white"/>
<path d="M641.349 1179.98H750.219V981.837H641.349V1179.98Z" fill="white"/>
<path d="M750.22 1071.11V1179.98C709.97 1193.31 632.87 1214.13 532.89 1211.99C448.29 1210.18 382.61 1192.7 344.27 1179.98C344.27 1143.69 344.27 1107.4 344.27 1071.11C390.15 1086.32 458.4 1103.23 542.31 1103.87C631.11 1104.55 703.05 1086.74 750.22 1071.11Z" fill="white"/>
<path d="M1192.29 1076.21L1173.71 1191.17C1173.3 1191.28 1172.89 1191.39 1172.47 1191.5C1130.48 1202.69 1073.88 1213.14 1006.67 1213.52C922.05 1213.98 855.93 1198.27 817.25 1186.59L814.32 1077.76C860.59 1091.73 929.28 1106.81 1013.17 1105.2C1035.98 1104.76 1057.65 1103.13 1078.04 1100.66C1122.62 1095.27 1161.13 1085.89 1192.27 1076.21H1192.29Z" fill="white"/>
<path d="M1162.23 530.75L1271.06 527.82C1285.16 556.06 1307.44 610.29 1307.21 681.39C1307.02 741.56 1290.8 788.7 1278.81 816.28C1242.53 817.26 1206.26 818.23 1169.98 819.21C1181.86 782.51 1192.53 733.7 1191.26 676.32C1189.95 617.07 1176.33 567.47 1162.22 530.74L1162.23 530.75Z" fill="white"/>
<path d="M1166.76 297.162L1060.37 320.277L1119.11 590.61L1225.5 567.495L1166.76 297.162Z" fill="white"/>
<path d="M1235.82 806.729L1192.29 1076.21L1173.71 1191.18L1173.63 1191.69L1172.47 1191.51L1066.15 1174.33L1078.06 1100.66L1128.35 789.369L1235.82 806.729Z" fill="white"/>
<path d="M624.365 940.088H719.555V787.828H624.365V940.088Z" fill="white"/>
</svg>
