<svg width="1622" height="1645" viewBox="0 0 1622 1645" fill="none" xmlns="http://www.w3.org/2000/svg">
<path d="M22.6352 498.035L362.126 279.196H603.539L860.039 0L1622 286.747L1282.51 709.311L1478.66 1509.17L875.125 1524.26L482.827 1645L0 1275.25L22.6352 498.035Z" fill="black"/>
<path d="M741.789 1060.06C710.429 1115.24 651.119 1152.45 583.119 1152.45C482.399 1152.45 400.749 1070.79 400.749 970.069C400.749 869.349 479.929 790.189 578.509 787.749L682.939 683.319C651.659 672.499 618.079 666.619 583.119 666.619C414.569 666.619 277.949 803.259 277.949 971.809C277.949 1140.36 414.579 1276.98 583.119 1276.98C720.979 1276.98 837.489 1185.58 875.349 1060.05H741.789V1060.06Z" fill="white"/>
<path d="M1093.61 877.43H584.078V999.38H1093.61V877.43Z" fill="white"/>
<path d="M968.6 485.418H476.52V600.438H968.6V485.418Z" fill="white"/>
<path d="M1093.61 1246.47V985.428H975.561V1246.47H1093.61Z" fill="white"/>
<path d="M582.979 879.579L895.249 519.289L967.458 602.609L655.199 962.899L582.979 879.579Z" fill="white"/>
<path d="M1014.74 467.129C1074.29 467.129 1122.57 418.852 1122.57 359.299C1122.57 299.746 1074.29 251.469 1014.74 251.469C955.187 251.469 906.91 299.746 906.91 359.299C906.91 418.852 955.187 467.129 1014.74 467.129Z" fill="white"/>
</svg>
