<svg width="1791" height="1825" viewBox="0 0 1791 1825" fill="none" xmlns="http://www.w3.org/2000/svg">
<path d="M179.581 276.671L688.564 51.9972L1029.94 0L1370.97 175.617L1602.89 374.872L1769.94 483.271L1758.11 1101.23L1790.8 1477.66L1619.94 1699.58L902.252 1825L433.121 1684.61L71.5719 1601.86L0 1217.81L179.581 276.671Z" fill="black"/>
<path d="M1144.95 1058.16H657.873C709.359 1208.61 629.857 1332.86 496.857 1446.43H1305.96C1172.96 1332.86 1093.46 1208.61 1144.95 1058.16Z" fill="white"/>
<path d="M909.852 1171.02C863.47 1171.02 818.59 1159.1 776.444 1135.56C736.501 1113.27 700.779 1081.54 670.277 1041.27C608.848 960.191 575.027 852.865 575.027 739.06C575.027 680.994 583.768 624.663 601 571.626L613.536 533.057L1215.05 919.471L1205 943.638C1146.66 1083.89 1033.57 1171.01 909.861 1171.01L909.852 1171.02Z" fill="white"/>
<path d="M630.741 581.292L1176.11 931.638C1124.51 1055.68 1024.62 1139.75 909.851 1139.75C742.205 1139.75 606.295 960.359 606.295 739.069C606.295 683.047 615.011 629.709 630.741 581.292ZM596.311 484.832L571.248 561.961C552.998 618.126 543.74 677.71 543.74 739.061C543.74 800.413 552.773 858.537 570.58 914.109C588.029 968.573 613.184 1017.71 645.345 1060.15C678.474 1103.88 717.458 1138.44 761.196 1162.87C783.983 1175.59 807.929 1185.38 832.358 1191.99C857.672 1198.83 883.745 1202.3 909.851 1202.3C979.595 1202.3 1047.32 1177.68 1105.69 1131.1C1159.74 1087.96 1204.07 1027.3 1233.87 955.655L1253.98 907.321L1209.92 879.026L664.554 528.68L596.311 484.84V484.832Z" fill="black"/>
<path d="M1182.39 604.242L734.43 372.637C780.103 336.319 833.616 315.43 890.824 315.43C1029.05 315.43 1145.7 437.399 1182.39 604.25V604.242Z" fill="white"/>
<path d="M606.293 536.126L1139.25 877L1159.44 814.114L612.69 491.145L606.293 536.126Z" fill="white"/>
<path d="M1202.81 767.841L731.862 466.629L714.021 522.193L1197.15 807.586L1202.81 767.841Z" fill="white"/>
<path d="M720.627 438.007L732.854 399.955L1226 687.166L1212.57 725.86L720.627 438.007Z" fill="white"/>
<path d="M343.783 1395.47L377.078 985.084L521.204 843.109C538.294 829.416 548.87 809.194 550.354 787.345C550.596 783.817 547.068 781.274 543.799 782.6L380.039 849.455C377.645 735.433 543.382 762.019 585.16 696.081C588.237 691.219 589.755 685.531 589.689 679.777C589.413 666.468 587.845 665.943 570.038 666.318L362.999 687.408C349.805 688.525 337.319 693.912 327.477 702.769C243.17 778.639 238.416 884.405 265.197 1002.03L193.66 1395.47H343.791H343.783Z" fill="white"/>
<path d="M1373.24 1395.47L1437.43 945.364L1288.16 815.998C1271.61 801.654 1261.83 781.04 1261.19 759.149V759.141C1261.11 755.613 1264.73 753.22 1267.94 754.679L1428.97 827.806C1435.77 714.017 1269.3 734.098 1229.99 666.726C1227.08 661.722 1225.74 655.943 1226.04 650.156C1226.83 636.871 1228.42 636.404 1246.2 637.464L1452.26 666.534C1465.41 668.16 1477.67 674.023 1487.17 683.254C1568.47 762.318 1569.14 868.201 1537.83 984.7L1523.85 1395.46H1373.24V1395.47Z" fill="white"/>
</svg>
