<svg width="2250" height="2544" viewBox="0 0 2250 2544" fill="none" xmlns="http://www.w3.org/2000/svg">
<path d="M0 2507.63L90.691 2115.34L2250 2068.84L2153.76 2544L0 2507.63Z" fill="black"/>
<path d="M327.325 2437.45V2212.45H373.825V2437.45H327.325ZM599.708 2444.95L465.208 2310.2V2437.45H423.208V2204.95H423.708L558.208 2339.45V2212.45H600.208V2444.95H599.708ZM648.208 2437.45V2212.45H768.208V2251.45H691.708V2285.95H760.708V2323.45H691.708V2437.45H648.208ZM799.825 2437.45V2212.45H846.325V2437.45H799.825ZM896.458 2437.45V2212.45H965.208C981.541 2212.45 995.458 2215.7 1006.96 2222.2C1018.62 2228.7 1027.54 2237.36 1033.71 2248.2C1039.87 2258.86 1042.96 2270.61 1042.96 2283.45C1042.96 2291.11 1041.79 2298.45 1039.46 2305.45C1037.12 2312.28 1033.79 2318.53 1029.46 2324.2C1025.12 2329.7 1019.87 2334.53 1013.71 2338.7L1073.21 2437.45H1023.96L973.958 2351.95H939.958V2437.45H896.458ZM939.958 2314.45H963.208C971.708 2314.45 978.624 2312.86 983.958 2309.7C989.291 2306.53 993.208 2302.53 995.708 2297.7C998.208 2292.7 999.458 2287.7 999.458 2282.7C999.458 2276.53 997.874 2271.11 994.708 2266.45C991.708 2261.78 987.458 2258.11 981.958 2255.45C976.624 2252.78 970.374 2251.45 963.208 2251.45H939.958V2314.45ZM1095.75 2437.45V2204.95H1096.25L1202.75 2337.95L1307.25 2204.95H1307.75V2437.45H1264.25V2372.95C1264.25 2365.61 1264.33 2357.36 1264.5 2348.2C1264.83 2339.03 1265.66 2328.53 1267 2316.7C1261.83 2325.36 1256.83 2332.86 1252 2339.2C1247.33 2345.53 1243 2351.36 1239 2356.7L1202 2406.2L1163.75 2356.7C1159.91 2351.7 1155.33 2345.7 1150 2338.7C1144.83 2331.53 1139.83 2323.95 1135 2315.95C1136.33 2328.11 1137.08 2338.78 1137.25 2347.95C1137.58 2357.11 1137.75 2365.45 1137.75 2372.95V2437.45H1095.75ZM1355.9 2437.45V2212.45H1475.9V2251.45H1399.4V2285.95H1458.4V2323.45H1399.4V2396.95H1475.9V2437.45H1355.9ZM1514.15 2437.45V2212.45H1582.9C1599.24 2212.45 1613.15 2215.7 1624.65 2222.2C1636.32 2228.7 1645.24 2237.36 1651.4 2248.2C1657.57 2258.86 1660.65 2270.61 1660.65 2283.45C1660.65 2291.11 1659.49 2298.45 1657.15 2305.45C1654.82 2312.28 1651.49 2318.53 1647.15 2324.2C1642.82 2329.7 1637.57 2334.53 1631.4 2338.7L1690.9 2437.45H1641.65L1591.65 2351.95H1557.65V2437.45H1514.15ZM1557.65 2314.45H1580.9C1589.4 2314.45 1596.32 2312.86 1601.65 2309.7C1606.99 2306.53 1610.9 2302.53 1613.4 2297.7C1615.9 2292.7 1617.15 2287.7 1617.15 2282.7C1617.15 2276.53 1615.57 2271.11 1612.4 2266.45C1609.4 2261.78 1605.15 2258.11 1599.65 2255.45C1594.32 2252.78 1588.07 2251.45 1580.9 2251.45H1557.65V2314.45ZM1714.94 2437.45V2212.45H1761.44V2437.45H1714.94ZM1810.82 2437.45V2212.45H1930.82V2251.45H1854.32V2285.95H1913.32V2323.45H1854.32V2396.95H1930.82V2437.45H1810.82Z" fill="white"/>
<g clip-path="url(#clip0_596_1502)">
<path d="M499.976 262.236L606.887 0L1577.31 37.4729L1667.78 322.178L2111.88 307.196L2153 831.658L2136.55 1423.55L1750.02 1483.49L1593.77 1948.01L1026.3 1918.05L631.555 1903.05L582.208 1550.92L105.216 1438.52L97 936.538L236.806 524.473L467.091 442.052L499.986 262.236H499.976Z" fill="black"/>
<path d="M1654.95 724.315V1223.69H1374.69V1503.94H875.312V1223.69H595.055V724.315H875.312V444.061H1374.69V724.315H1654.95Z" stroke="white" stroke-width="180" stroke-miterlimit="10"/>
</g>
<defs>
<clipPath id="clip0_596_1502">
<rect width="2056" height="1948" fill="white" transform="translate(97)"/>
</clipPath>
</defs>
</svg>
