<svg width="1760" height="2260" viewBox="0 0 1760 2260" fill="none" xmlns="http://www.w3.org/2000/svg">
<path d="M14 2221.88L83.8119 1810.74L1746 1762L1671.91 2260L14 2221.88Z" fill="black"/>
<path d="M249.887 2131V1906H296.387V2131H249.887ZM522.27 2138.5L387.77 2003.75V2131H345.77V1898.5H346.27L480.77 2033V1906H522.77V2138.5H522.27ZM612.27 2131V1946.5H557.27V1906H713.77V1946.5H658.77V2131H612.27ZM748.309 2131V1906H868.309V1945H791.809V1979.5H850.809V2017H791.809V2090.5H868.309V2131H748.309ZM906.559 2131V1906H975.309C991.642 1906 1005.56 1909.25 1017.06 1915.75C1028.73 1922.25 1037.64 1930.92 1043.81 1941.75C1049.98 1952.42 1053.06 1964.17 1053.06 1977C1053.06 1984.67 1051.89 1992 1049.56 1999C1047.23 2005.83 1043.89 2012.08 1039.56 2017.75C1035.23 2023.25 1029.98 2028.08 1023.81 2032.25L1083.31 2131H1034.06L984.059 2045.5H950.059V2131H906.559ZM950.059 2008H973.309C981.809 2008 988.725 2006.42 994.059 2003.25C999.392 2000.08 1003.31 1996.08 1005.81 1991.25C1008.31 1986.25 1009.56 1981.25 1009.56 1976.25C1009.56 1970.08 1007.98 1964.67 1004.81 1960C1001.81 1955.33 997.559 1951.67 992.059 1949C986.725 1946.33 980.475 1945 973.309 1945H950.059V2008ZM1105.85 2131V1906H1182.35C1200.35 1906 1216.68 1908.92 1231.35 1914.75C1246.18 1920.58 1258.93 1928.67 1269.6 1939C1280.43 1949.17 1288.76 1961.08 1294.6 1974.75C1300.43 1988.42 1303.35 2003 1303.35 2018.5C1303.35 2034 1300.43 2048.58 1294.6 2062.25C1288.76 2075.92 1280.43 2087.92 1269.6 2098.25C1258.93 2108.42 1246.18 2116.42 1231.35 2122.25C1216.68 2128.08 1200.35 2131 1182.35 2131H1105.85ZM1149.35 2090.5H1178.35C1191.01 2090.5 1202.18 2088.67 1211.85 2085C1221.51 2081.17 1229.6 2076 1236.1 2069.5C1242.76 2062.83 1247.76 2055.17 1251.1 2046.5C1254.6 2037.83 1256.35 2028.5 1256.35 2018.5C1256.35 2008.5 1254.6 1999.17 1251.1 1990.5C1247.76 1981.67 1242.76 1974 1236.1 1967.5C1229.6 1960.83 1221.51 1955.67 1211.85 1952C1202.18 1948.33 1191.01 1946.5 1178.35 1946.5H1149.35V2090.5ZM1342.19 2131V1906H1388.69V2131H1342.19ZM1479.57 2131V1946.5H1424.57V1906H1581.07V1946.5H1526.07V2131H1479.57Z" fill="white"/>
<g clip-path="url(#clip0_596_1533)">
<path d="M0 791.41L203.38 207.8L1127.44 0L1759.7 428.86L1638.5 1669L605.72 1627.05L168 1507.67L0 791.41Z" fill="black"/>
<path d="M571.99 774.639L773.43 782.469L1201.02 769.949L1195.31 848.209L1201.02 902.999L1185.82 949.959L1010.98 943.689L572 949.959L558.69 854.489L572 774.659L571.99 774.639Z" fill="white"/>
<path d="M633.19 407.09H1136.09L1368.15 773.97L1313.21 1184.39L1026.38 1311.42L590.85 1278.15L388.21 1048.29V643L633.19 407.09Z" stroke="white" stroke-width="170" stroke-miterlimit="10"/>
</g>
<defs>
<clipPath id="clip0_596_1533">
<rect width="1759.7" height="1719.9" fill="white"/>
</clipPath>
</defs>
</svg>
