<svg width="3789" height="2757" viewBox="0 0 3789 2757" fill="none" xmlns="http://www.w3.org/2000/svg">
<path d="M104 2718.88L245.196 2307.74L3607 2259L3457.16 2757L104 2718.88Z" fill="black"/>
<path d="M548.461 2628V2403H594.961V2587.5H662.461V2628H548.461ZM700.078 2628V2403H746.578V2628H700.078ZM795.961 2628V2403H915.961V2442H839.461V2476.5H898.461V2514H839.461V2587.5H915.961V2628H795.961ZM1029.46 2633.25C1013.63 2633.25 999.544 2630 987.211 2623.5C974.878 2617 965.128 2607.75 957.961 2595.75C950.961 2583.58 947.461 2569.08 947.461 2552.25V2403H993.961V2550C993.961 2558 995.461 2565 998.461 2571C1001.63 2577 1005.96 2581.67 1011.46 2585C1016.96 2588.17 1023.21 2589.75 1030.21 2589.75C1037.21 2589.75 1043.46 2588.17 1048.96 2585C1054.46 2581.83 1058.71 2577.42 1061.71 2571.75C1064.88 2565.92 1066.46 2559.17 1066.46 2551.5V2403H1111.46V2551.5C1111.46 2568.5 1107.96 2583.17 1100.96 2595.5C1093.96 2607.67 1084.29 2617 1071.96 2623.5C1059.79 2630 1045.63 2633.25 1029.46 2633.25ZM1228.38 2628V2403H1304.88C1322.88 2403 1339.22 2405.92 1353.88 2411.75C1368.72 2417.58 1381.47 2425.67 1392.13 2436C1402.97 2446.17 1411.3 2458.08 1417.13 2471.75C1422.97 2485.42 1425.88 2500 1425.88 2515.5C1425.88 2531 1422.97 2545.58 1417.13 2559.25C1411.3 2572.92 1402.97 2584.92 1392.13 2595.25C1381.47 2605.42 1368.72 2613.42 1353.88 2619.25C1339.22 2625.08 1322.88 2628 1304.88 2628H1228.38ZM1271.88 2587.5H1300.88C1313.55 2587.5 1324.72 2585.67 1334.38 2582C1344.05 2578.17 1352.13 2573 1358.63 2566.5C1365.3 2559.83 1370.3 2552.17 1373.63 2543.5C1377.13 2534.83 1378.88 2525.5 1378.88 2515.5C1378.88 2505.5 1377.13 2496.17 1373.63 2487.5C1370.3 2478.67 1365.3 2471 1358.63 2464.5C1352.13 2457.83 1344.05 2452.67 1334.38 2449C1324.72 2445.33 1313.55 2443.5 1300.88 2443.5H1271.88V2587.5ZM1463.23 2628V2403H1583.23V2442H1506.73V2476.5H1565.73V2514H1506.73V2587.5H1583.23V2628H1463.23ZM1804.11 2632.5C1787.61 2632.5 1772.19 2629.5 1757.86 2623.5C1743.53 2617.33 1730.86 2608.92 1719.86 2598.25C1709.03 2587.58 1700.53 2575.17 1694.36 2561C1688.19 2546.83 1685.11 2531.67 1685.11 2515.5C1685.11 2499.33 1688.19 2484.17 1694.36 2470C1700.53 2455.83 1709.03 2443.42 1719.86 2432.75C1730.86 2422.08 1743.53 2413.75 1757.86 2407.75C1772.19 2401.58 1787.61 2398.5 1804.11 2398.5C1818.94 2398.5 1832.94 2400.92 1846.11 2405.75C1859.28 2410.58 1871.03 2417.42 1881.36 2426.25L1868.61 2478.75C1862.44 2468.42 1853.94 2459.75 1843.11 2452.75C1832.28 2445.58 1819.78 2442 1805.61 2442C1795.44 2442 1785.94 2443.92 1777.11 2447.75C1768.44 2451.58 1760.86 2456.83 1754.36 2463.5C1747.86 2470.17 1742.78 2478 1739.11 2487C1735.44 2495.83 1733.61 2505.33 1733.61 2515.5C1733.61 2525.67 1735.44 2535.25 1739.11 2544.25C1742.78 2553.08 1747.86 2560.83 1754.36 2567.5C1760.86 2574.17 1768.44 2579.42 1777.11 2583.25C1785.94 2587.08 1795.44 2589 1805.61 2589C1819.61 2589 1832.03 2585.5 1842.86 2578.5C1853.86 2571.33 1862.44 2562.58 1868.61 2552.25L1881.36 2604.75C1870.86 2613.42 1859.03 2620.25 1845.86 2625.25C1832.86 2630.08 1818.94 2632.5 1804.11 2632.5ZM2014.34 2632.5C1997.84 2632.5 1982.43 2629.5 1968.09 2623.5C1953.76 2617.33 1941.09 2608.92 1930.09 2598.25C1919.26 2587.58 1910.76 2575.17 1904.59 2561C1898.43 2546.83 1895.34 2531.67 1895.34 2515.5C1895.34 2499.33 1898.43 2484.17 1904.59 2470C1910.76 2455.83 1919.26 2443.42 1930.09 2432.75C1941.09 2422.08 1953.76 2413.75 1968.09 2407.75C1982.43 2401.58 1997.84 2398.5 2014.34 2398.5C2030.84 2398.5 2046.26 2401.58 2060.59 2407.75C2074.93 2413.75 2087.51 2422.08 2098.34 2432.75C2109.34 2443.42 2117.93 2455.83 2124.09 2470C2130.26 2484.17 2133.34 2499.33 2133.34 2515.5C2133.34 2531.67 2130.26 2546.83 2124.09 2561C2117.93 2575.17 2109.34 2587.58 2098.34 2598.25C2087.51 2608.92 2074.93 2617.33 2060.59 2623.5C2046.26 2629.5 2030.84 2632.5 2014.34 2632.5ZM2014.34 2589C2024.51 2589 2033.93 2587.08 2042.59 2583.25C2051.26 2579.42 2058.84 2574.17 2065.34 2567.5C2072.01 2560.83 2077.18 2553.08 2080.84 2544.25C2084.51 2535.25 2086.34 2525.67 2086.34 2515.5C2086.34 2505.33 2084.51 2495.83 2080.84 2487C2077.18 2478 2072.01 2470.17 2065.34 2463.5C2058.84 2456.83 2051.26 2451.58 2042.59 2447.75C2033.93 2443.92 2024.51 2442 2014.34 2442C2004.18 2442 1994.76 2443.92 1986.09 2447.75C1977.43 2451.58 1969.76 2456.83 1963.09 2463.5C1956.59 2470.17 1951.51 2478 1947.84 2487C1944.18 2495.83 1942.34 2505.33 1942.34 2515.5C1942.34 2525.67 1944.18 2535.25 1947.84 2544.25C1951.51 2553.08 1956.59 2560.83 1963.09 2567.5C1969.76 2574.17 1977.43 2579.42 1986.09 2583.25C1994.76 2587.08 2004.18 2589 2014.34 2589ZM2347.42 2635.5L2212.92 2500.75V2628H2170.92V2395.5H2171.42L2305.92 2530V2403H2347.92V2635.5H2347.42ZM2504.42 2632.5C2487.92 2632.5 2472.51 2629.5 2458.17 2623.5C2443.84 2617.33 2431.17 2608.92 2420.17 2598.25C2409.34 2587.58 2400.84 2575.17 2394.67 2561C2388.51 2546.83 2385.42 2531.67 2385.42 2515.5C2385.42 2499.33 2388.51 2484.17 2394.67 2470C2400.84 2455.83 2409.34 2443.42 2420.17 2432.75C2431.17 2422.08 2443.84 2413.75 2458.17 2407.75C2472.51 2401.58 2487.92 2398.5 2504.42 2398.5C2519.26 2398.5 2533.26 2400.92 2546.42 2405.75C2559.59 2410.58 2571.34 2417.42 2581.67 2426.25L2568.92 2478.75C2562.76 2468.42 2554.26 2459.75 2543.42 2452.75C2532.59 2445.58 2520.09 2442 2505.92 2442C2495.76 2442 2486.26 2443.92 2477.42 2447.75C2468.76 2451.58 2461.17 2456.83 2454.67 2463.5C2448.17 2470.17 2443.09 2478 2439.42 2487C2435.76 2495.83 2433.92 2505.33 2433.92 2515.5C2433.92 2525.67 2435.76 2535.25 2439.42 2544.25C2443.09 2553.08 2448.17 2560.83 2454.67 2567.5C2461.17 2574.17 2468.76 2579.42 2477.42 2583.25C2486.26 2587.08 2495.76 2589 2505.92 2589C2519.92 2589 2532.34 2585.5 2543.17 2578.5C2554.17 2571.33 2562.76 2562.58 2568.92 2552.25L2581.67 2604.75C2571.17 2613.42 2559.34 2620.25 2546.17 2625.25C2533.17 2630.08 2519.26 2632.5 2504.42 2632.5ZM2613.54 2628V2403H2733.54V2442H2657.04V2476.5H2716.04V2514H2657.04V2587.5H2733.54V2628H2613.54ZM2771.79 2628V2403H2840.54C2856.87 2403 2870.79 2406.25 2882.29 2412.75C2893.96 2419.25 2902.87 2427.92 2909.04 2438.75C2915.21 2449.42 2918.29 2461.17 2918.29 2474C2918.29 2481.67 2917.12 2489 2914.79 2496C2912.46 2502.83 2909.12 2509.08 2904.79 2514.75C2900.46 2520.25 2895.21 2525.08 2889.04 2529.25L2948.54 2628H2899.29L2849.29 2542.5H2815.29V2628H2771.79ZM2815.29 2505H2838.54C2847.04 2505 2853.96 2503.42 2859.29 2500.25C2864.62 2497.08 2868.54 2493.08 2871.04 2488.25C2873.54 2483.25 2874.79 2478.25 2874.79 2473.25C2874.79 2467.08 2873.21 2461.67 2870.04 2457C2867.04 2452.33 2862.79 2448.67 2857.29 2446C2851.96 2443.33 2845.71 2442 2838.54 2442H2815.29V2505ZM2995 2628V2443.5H2940V2403H3096.5V2443.5H3041.5V2628H2995ZM3181.41 2633C3172.24 2633 3163.32 2631.83 3154.66 2629.5C3146.16 2627.17 3138.32 2624.08 3131.16 2620.25C3124.16 2616.25 3118.16 2611.83 3113.16 2607L3125.41 2557C3129.41 2563.83 3134.49 2569.92 3140.66 2575.25C3146.82 2580.58 3153.57 2584.83 3160.91 2588C3168.24 2591 3175.57 2592.5 3182.91 2592.5C3189.07 2592.5 3194.32 2591.42 3198.66 2589.25C3202.99 2586.92 3206.32 2583.83 3208.66 2580C3211.16 2576 3212.41 2571.58 3212.41 2566.75C3212.41 2560.92 3210.99 2556.08 3208.16 2552.25C3205.49 2548.42 3202.24 2545.25 3198.41 2542.75C3194.74 2540.25 3191.49 2538.33 3188.66 2537L3162.16 2523.75C3154.49 2519.92 3147.16 2515.42 3140.16 2510.25C3133.16 2504.92 3127.41 2498.33 3122.91 2490.5C3118.57 2482.67 3116.41 2473 3116.41 2461.5C3116.41 2452 3117.99 2443.42 3121.16 2435.75C3124.49 2427.92 3129.24 2421.25 3135.41 2415.75C3141.57 2410.08 3148.91 2405.75 3157.41 2402.75C3166.07 2399.58 3175.74 2398 3186.41 2398C3199.74 2398 3211.57 2400.17 3221.91 2404.5C3232.41 2408.67 3240.91 2413.17 3247.41 2418L3235.91 2466.75C3231.41 2460.92 3226.32 2455.92 3220.66 2451.75C3214.99 2447.42 3209.07 2444.08 3202.91 2441.75C3196.74 2439.25 3190.57 2438 3184.41 2438C3178.91 2438 3174.24 2439 3170.41 2441C3166.74 2442.83 3163.91 2445.42 3161.91 2448.75C3159.91 2451.92 3158.91 2455.58 3158.91 2459.75C3158.91 2463.58 3159.74 2467 3161.41 2470C3163.24 2473 3165.82 2475.67 3169.16 2478C3172.49 2480.33 3176.41 2482.67 3180.91 2485L3207.66 2498.25C3212.16 2500.42 3217.07 2503.25 3222.41 2506.75C3227.74 2510.08 3232.91 2514.33 3237.91 2519.5C3242.91 2524.67 3246.99 2530.92 3250.16 2538.25C3253.32 2545.42 3254.91 2554 3254.91 2564C3254.91 2577 3251.91 2588.75 3245.91 2599.25C3239.91 2609.58 3231.41 2617.83 3220.41 2624C3209.57 2630 3196.57 2633 3181.41 2633Z" fill="white"/>
<g clip-path="url(#clip0_948_8)">
<path d="M1189.16 1416.93L800 437.524L1315.97 0L2164.48 41.9119L2656 848.818L2266.86 1468.83L2656 1877.94V2187H1036.81L937.323 1751.31L1454.26 1581.32L1189.16 1416.93Z" fill="black"/>
<path d="M1772.74 177.73C1890.24 179.185 2009.33 208.766 2108.11 261.071C2223.29 322.063 2306.8 411.107 2349.62 518.764L2350.63 521.311C2376.1 586.499 2386.59 657.937 2381.83 733.663L2381.59 737.272C2376.03 817.998 2353.03 904.363 2313.32 993.964H2313.32C2227.33 1187.95 2061.05 1402.19 1819.29 1630.77L1773.6 1673.97L1772.59 1672.91L1771.9 1674.65H1771.88L1771.19 1672.91L1770.18 1673.97L1724.49 1630.77C1482.73 1402.19 1316.45 1187.95 1230.46 993.964C1190.75 904.363 1167.75 817.998 1162.19 737.272C1156.87 660.207 1167.28 587.534 1193.15 521.311L1194.16 518.764C1236.98 411.108 1320.49 322.073 1435.67 261.071H1435.67C1534.45 208.766 1653.54 179.175 1771.04 177.73H1772.74ZM1771.91 315.73C1676.18 317.039 1579.73 340.95 1500.26 383.029L1500.26 383.03C1458.13 405.341 1421.74 432.247 1392.06 462.978L1392.06 462.977C1360.9 495.251 1337.23 531.774 1321.7 571.53C1303.32 618.556 1295.96 671.112 1299.86 727.769C1304.32 792.293 1323.39 863.036 1356.64 938.027C1429.52 1102.45 1569.04 1286.21 1771.91 1484.88C1974.78 1286.21 2114.3 1102.45 2187.18 938.027C2220.43 863.036 2239.5 792.293 2243.96 727.769C2247.86 671.112 2240.5 618.556 2222.12 571.53C2206.59 531.773 2182.92 495.251 2151.76 462.977C2122.08 432.237 2085.68 405.34 2043.56 383.029C1964.09 340.94 1867.64 317.039 1771.91 315.73Z" fill="white" stroke="white" stroke-width="5" stroke-linejoin="bevel"/>
<path d="M2374 1821H1165V2028H2374V1821Z" fill="white"/>
<path d="M1932.44 884.689C1883.24 884.689 1841.96 918.316 1841.96 961.371C1841.96 1004.43 1883.24 1038.05 1932.44 1038.05C1981.64 1038.05 2022.91 1004.43 2022.91 961.371C2022.91 918.316 1981.64 884.69 1932.44 884.689Z" fill="white" stroke="white" stroke-width="9"/>
<path d="M1611.36 957.498C1562.16 957.498 1520.88 991.124 1520.88 1034.18C1520.88 1077.24 1562.16 1110.86 1611.36 1110.86C1660.56 1110.86 1701.84 1077.23 1701.84 1034.18C1701.84 991.125 1660.56 957.498 1611.36 957.498Z" fill="white" stroke="white" stroke-width="9"/>
<path d="M1931.75 620.984V960.685H2021.51V620.984H1931.75Z" fill="white" stroke="white" stroke-width="9"/>
<path d="M1606.86 542.99V1038.68H1696.62V542.99H1606.86Z" fill="white" stroke="white" stroke-width="9"/>
<path d="M1606.87 668.676L1610.06 669.646C1655.04 683.326 1728.1 710.677 1819.34 710.182L1821.5 710.165C1906.36 709.292 1974.72 682.92 2018.33 669.646L2017.69 665.341H2021.51V524.503L2016.12 525.589C1963.83 536.128 1896.71 555.824 1817.56 556.078L1813.72 556.076C1733.16 555.728 1664.93 536.208 1612.26 525.589L1606.87 524.502V668.676Z" fill="white" stroke="white" stroke-width="9"/>
</g>
<defs>
<clipPath id="clip0_948_8">
<rect width="1855.82" height="2216.12" fill="white" transform="translate(800)"/>
</clipPath>
</defs>
</svg>
