<svg width="2250" height="2502" viewBox="0 0 2250 2502" fill="none" xmlns="http://www.w3.org/2000/svg">
<g clip-path="url(#clip0_596_1506)">
<path d="M1817.72 860.672L1372.96 1660.8L622.412 1735.39L142.898 1718.43L292.318 782.69L261.129 410.799L447.804 46.498L1372.96 87.6521L1817.72 860.672Z" fill="black"/>
<path d="M778.648 1457.51H597.088V310.996H966.525C1014.97 310.996 1062.02 320.269 1106.35 338.572C1149.13 356.222 1187.53 381.486 1220.49 413.643C1253.44 445.801 1279.32 483.27 1297.42 525.011C1316.18 568.267 1325.69 614.18 1325.69 661.442C1325.69 708.704 1316.18 754.617 1297.42 797.874C1279.34 839.614 1253.44 877.083 1220.49 909.241C1187.53 941.398 1149.13 966.651 1106.35 984.312C1062.02 1002.61 1014.96 1011.89 966.525 1011.89H778.648V1457.52V1457.51ZM778.648 834.734H966.525C1064.46 834.734 1144.13 756.996 1144.13 661.442C1144.13 565.888 1064.46 488.15 966.525 488.15H778.648V834.723V834.734Z" fill="white"/>
<path d="M2250 869.005L2138.69 1063.18L2027.37 869.005L1555.81 0H1797.86L2138.69 674.832L2250 869.005Z" fill="black"/>
<path d="M2250 869.005L2138.69 1063.18L1800.76 1738H1555.81L2027.37 869.005L2138.69 674.832L2250 869.005Z" fill="black"/>
</g>
<path d="M0 2459.91L79.586 2005.85L1974.49 1952.03L1890.03 2502L0 2459.91Z" fill="black"/>
<path d="M350.897 2321.98V2096.98H418.897C434.564 2096.98 447.814 2099.32 458.647 2103.98C469.647 2108.65 478.48 2114.82 485.147 2122.48C491.814 2129.98 496.647 2138.23 499.647 2147.23C502.814 2156.07 504.397 2164.82 504.397 2173.48C504.397 2181.98 502.897 2190.73 499.897 2199.73C496.897 2208.57 491.98 2216.82 485.147 2224.48C478.48 2231.98 469.73 2238.07 458.897 2242.73C448.064 2247.4 434.73 2249.73 418.897 2249.73H394.397V2321.98H350.897ZM394.397 2210.73H416.397C427.064 2210.73 435.48 2208.9 441.647 2205.23C447.98 2201.4 452.48 2196.65 455.147 2190.98C457.98 2185.32 459.397 2179.48 459.397 2173.48C459.397 2167.65 458.064 2161.9 455.397 2156.23C452.73 2150.4 448.23 2145.57 441.897 2141.73C435.73 2137.9 427.23 2135.98 416.397 2135.98H394.397V2210.73ZM492.319 2321.98L591.569 2088.98H592.069L691.319 2321.98H646.069L629.319 2281.98H552.819L536.069 2321.98H492.319ZM567.819 2245.98H614.319L604.569 2222.98C601.902 2216.82 599.402 2210.9 597.069 2205.23C594.902 2199.4 592.819 2192.65 590.819 2184.98C588.986 2192.48 586.986 2199.15 584.819 2204.98C582.652 2210.82 580.236 2216.82 577.569 2222.98L567.819 2245.98ZM719.03 2321.98V2096.98H787.78C804.113 2096.98 818.03 2100.23 829.53 2106.73C841.197 2113.23 850.113 2121.9 856.28 2132.73C862.447 2143.4 865.53 2155.15 865.53 2167.98C865.53 2175.65 864.363 2182.98 862.03 2189.98C859.697 2196.82 856.363 2203.07 852.03 2208.73C847.697 2214.23 842.447 2219.07 836.28 2223.23L895.78 2321.98H846.53L796.53 2236.48H762.53V2321.98H719.03ZM762.53 2198.98H785.78C794.28 2198.98 801.197 2197.4 806.53 2194.23C811.863 2191.07 815.78 2187.07 818.28 2182.23C820.78 2177.23 822.03 2172.23 822.03 2167.23C822.03 2161.07 820.447 2155.65 817.28 2150.98C814.28 2146.32 810.03 2142.65 804.53 2139.98C799.197 2137.32 792.947 2135.98 785.78 2135.98H762.53V2198.98ZM1043.07 2321.98L961.069 2183.23L1023.32 2096.98H1074.82L1012.32 2182.48L1095.82 2321.98H1043.07ZM918.319 2321.98V2096.98H963.319V2321.98H918.319ZM1119.86 2321.98V2096.98H1166.36V2321.98H1119.86ZM1392.24 2329.48L1257.74 2194.73V2321.98H1215.74V2089.48H1216.24L1350.74 2223.98V2096.98H1392.74V2329.48H1392.24ZM1551.74 2326.48C1534.74 2326.48 1518.82 2323.65 1503.99 2317.98C1489.32 2312.15 1476.41 2303.98 1465.24 2293.48C1454.24 2282.98 1445.66 2270.65 1439.49 2256.48C1433.32 2242.32 1430.24 2226.82 1430.24 2209.98C1430.24 2193.15 1433.32 2177.65 1439.49 2163.48C1445.66 2149.15 1454.24 2136.73 1465.24 2126.23C1476.41 2115.57 1489.24 2107.32 1503.74 2101.48C1518.41 2095.48 1534.24 2092.48 1551.24 2092.48C1566.57 2092.48 1580.91 2094.9 1594.24 2099.73C1607.57 2104.57 1619.41 2111.4 1629.74 2120.23L1616.99 2171.73C1610.66 2161.4 1601.91 2152.73 1590.74 2145.73C1579.74 2138.57 1566.57 2134.98 1551.24 2134.98C1540.57 2134.98 1530.74 2136.9 1521.74 2140.73C1512.74 2144.4 1504.91 2149.65 1498.24 2156.48C1491.57 2163.15 1486.41 2171.07 1482.74 2180.23C1479.07 2189.23 1477.24 2199.15 1477.24 2209.98C1477.24 2220.98 1479.07 2231.07 1482.74 2240.23C1486.41 2249.4 1491.57 2257.32 1498.24 2263.98C1504.91 2270.65 1512.74 2275.82 1521.74 2279.48C1530.74 2283.15 1540.49 2284.98 1550.99 2284.98C1557.82 2284.98 1564.16 2284.32 1569.99 2282.98C1575.82 2281.65 1581.07 2279.65 1585.74 2276.98V2233.48H1539.99V2195.98H1626.74V2305.23C1616.41 2311.9 1604.82 2317.15 1591.99 2320.98C1579.32 2324.65 1565.91 2326.48 1551.74 2326.48Z" fill="white"/>
<defs>
<clipPath id="clip0_596_1506">
<rect width="2107.1" height="1738" fill="white" transform="translate(142.898)"/>
</clipPath>
</defs>
</svg>
