<svg width="2250" height="2502" viewBox="0 0 2250 2502" fill="none" xmlns="http://www.w3.org/2000/svg">
<path d="M317.464 2459.91L395.359 2005.85L2250 1952.02L2167.34 2502L317.464 2459.91Z" fill="black"/>
<path d="M647.394 2321.98V2096.98H715.394C731.061 2096.98 744.311 2099.32 755.144 2103.98C766.144 2108.65 774.977 2114.82 781.644 2122.48C788.311 2129.98 793.144 2138.23 796.144 2147.23C799.311 2156.07 800.894 2164.82 800.894 2173.48C800.894 2181.98 799.394 2190.73 796.394 2199.73C793.394 2208.57 788.477 2216.82 781.644 2224.48C774.977 2231.98 766.227 2238.07 755.394 2242.73C744.561 2247.4 731.227 2249.73 715.394 2249.73H690.894V2321.98H647.394ZM690.894 2210.73H712.894C723.561 2210.73 731.977 2208.9 738.144 2205.23C744.477 2201.4 748.977 2196.65 751.644 2190.98C754.477 2185.32 755.894 2179.48 755.894 2173.48C755.894 2167.65 754.561 2161.9 751.894 2156.23C749.227 2150.4 744.727 2145.57 738.394 2141.73C732.227 2137.9 723.727 2135.98 712.894 2135.98H690.894V2210.73ZM788.816 2321.98L888.066 2088.98H888.566L987.816 2321.98H942.566L925.816 2281.98H849.316L832.566 2321.98H788.816ZM864.316 2245.98H910.816L901.066 2222.98C898.399 2216.82 895.899 2210.9 893.566 2205.23C891.399 2199.4 889.316 2192.65 887.316 2184.98C885.482 2192.48 883.482 2199.15 881.316 2204.98C879.149 2210.82 876.732 2216.82 874.066 2222.98L864.316 2245.98ZM1015.53 2321.98V2096.98H1084.28C1100.61 2096.98 1114.53 2100.23 1126.03 2106.73C1137.69 2113.23 1146.61 2121.9 1152.78 2132.73C1158.94 2143.4 1162.03 2155.15 1162.03 2167.98C1162.03 2175.65 1160.86 2182.98 1158.53 2189.98C1156.19 2196.82 1152.86 2203.07 1148.53 2208.73C1144.19 2214.23 1138.94 2219.07 1132.78 2223.23L1192.28 2321.98H1143.03L1093.03 2236.48H1059.03V2321.98H1015.53ZM1059.03 2198.98H1082.28C1090.78 2198.98 1097.69 2197.4 1103.03 2194.23C1108.36 2191.07 1112.28 2187.07 1114.78 2182.23C1117.28 2177.23 1118.53 2172.23 1118.53 2167.23C1118.53 2161.07 1116.94 2155.65 1113.78 2150.98C1110.78 2146.32 1106.53 2142.65 1101.03 2139.98C1095.69 2137.32 1089.44 2135.98 1082.28 2135.98H1059.03V2198.98ZM1339.57 2321.98L1257.57 2183.23L1319.82 2096.98H1371.32L1308.82 2182.48L1392.32 2321.98H1339.57ZM1214.82 2321.98V2096.98H1259.82V2321.98H1214.82ZM1416.35 2321.98V2096.98H1462.85V2321.98H1416.35ZM1688.74 2329.48L1554.24 2194.73V2321.98H1512.24V2089.48H1512.74L1647.24 2223.98V2096.98H1689.24V2329.48H1688.74ZM1848.24 2326.48C1831.24 2326.48 1815.32 2323.65 1800.49 2317.98C1785.82 2312.15 1772.9 2303.98 1761.74 2293.48C1750.74 2282.98 1742.15 2270.65 1735.99 2256.48C1729.82 2242.32 1726.74 2226.82 1726.74 2209.98C1726.74 2193.15 1729.82 2177.65 1735.99 2163.48C1742.15 2149.15 1750.74 2136.73 1761.74 2126.23C1772.9 2115.57 1785.74 2107.32 1800.24 2101.48C1814.9 2095.48 1830.74 2092.48 1847.74 2092.48C1863.07 2092.48 1877.4 2094.9 1890.74 2099.73C1904.07 2104.57 1915.9 2111.4 1926.24 2120.23L1913.49 2171.73C1907.15 2161.4 1898.4 2152.73 1887.24 2145.73C1876.24 2138.57 1863.07 2134.98 1847.74 2134.98C1837.07 2134.98 1827.24 2136.9 1818.24 2140.73C1809.24 2144.4 1801.4 2149.65 1794.74 2156.48C1788.07 2163.15 1782.9 2171.07 1779.24 2180.23C1775.57 2189.23 1773.74 2199.15 1773.74 2209.98C1773.74 2220.98 1775.57 2231.07 1779.24 2240.23C1782.9 2249.4 1788.07 2257.32 1794.74 2263.98C1801.4 2270.65 1809.24 2275.82 1818.24 2279.48C1827.24 2283.15 1836.99 2284.98 1847.49 2284.98C1854.32 2284.98 1860.65 2284.32 1866.49 2282.98C1872.32 2281.65 1877.57 2279.65 1882.24 2276.98V2233.48H1836.49V2195.98H1923.24V2305.23C1912.9 2311.9 1901.32 2317.15 1888.49 2320.98C1875.82 2324.65 1862.4 2326.48 1848.24 2326.48Z" fill="white"/>
<g clip-path="url(#clip0_596_1505)">
<path d="M423.093 860.672L858.408 1660.8L1593 1735.39L2062.33 1718.43L1916.09 782.69L1946.61 410.799L1763.9 46.498L858.408 87.6521L423.093 860.672Z" fill="black"/>
<path d="M0 869.005L108.948 1063.18L217.896 869.005L679.44 0H442.53L108.948 674.832L0 869.005Z" fill="black"/>
<path d="M0 869.005L108.948 1063.18L439.699 1738H679.44L217.896 869.005L108.948 674.832L0 869.005Z" fill="black"/>
<path d="M1142.66 1457.51H964.958V310.996H1326.55C1373.97 310.996 1420.01 320.269 1463.4 338.572C1505.27 356.222 1542.85 381.486 1575.11 413.643C1607.37 445.801 1632.7 483.27 1650.41 525.011C1668.77 568.267 1678.08 614.18 1678.08 661.442C1678.08 708.704 1668.77 754.617 1650.41 797.874C1632.71 839.614 1607.37 877.083 1575.11 909.241C1542.85 941.398 1505.27 966.651 1463.4 984.312C1420.01 1002.61 1373.95 1011.89 1326.55 1011.89H1142.66V1457.52V1457.51ZM1142.66 834.734H1326.55C1422.4 834.734 1500.37 756.996 1500.37 661.442C1500.37 565.888 1422.4 488.15 1326.55 488.15H1142.66V834.723V834.734Z" fill="white"/>
</g>
<defs>
<clipPath id="clip0_596_1505">
<rect width="2062.33" height="1738" fill="white"/>
</clipPath>
</defs>
</svg>
