<svg width="2363" height="2363" viewBox="0 0 2363 2363" fill="none" xmlns="http://www.w3.org/2000/svg">
<rect width="2363" height="2363" rx="200" fill="#F2EDE3"/>
<path d="M1546.07 1997.59L1508.15 1961.48L1458.14 1909.77L1325.4 1778.41L1276.45 1729.94L1182.37 1638.93L1153.53 1664.49L1089.3 1728.88L1056.48 1761.7L1026.09 1793.15L962.343 1856.95L911.326 1907.07L822.708 1996.27L796.828 2021.46L729.159 2088.12L663.823 2157.06C661.489 2159.5 647.489 2155.63 648.337 2152.82L652.845 2138.29L653.534 2061.39L653.11 1966.2L651.095 1861.14L652.368 1810.65L651.944 1738.47C651.944 1733.6 653.163 1721.61 649.875 1719.06C645.792 1715.83 634.443 1712.22 629.033 1712.28L582.418 1712.86L530.817 1713.5L495.922 1713.71L447.291 1714.03L350.241 1714.24L200 1713.39L308.133 1603.98L374.371 1537.38L455.458 1456.29L542.272 1370.32L567.728 1344.81L625.586 1285.79L684.93 1227.66C699.62 1213.29 713.833 1198.66 725.182 1181.79L652.792 1106.86L632.48 1085.54L582.63 1038.18C581.039 1036.64 583.637 1024.82 585.122 1023.12C586.607 1021.42 577.645 1024.76 572.077 1026.88L518.142 971.359L487.649 941.289L443.791 897.431L284.693 737.962L255.843 710.332L200.795 653.428L286.019 652.527H349.976L505.998 652.792L649.981 653.375L650.936 587.88L652.368 496.982L650.724 288.67L650.618 200L704.976 255.79L768.615 319.641L986.261 534.795L1049.16 598.964L1089.3 640.86L1117.46 667.694L1158.09 703.862C1166.52 711.393 1173.09 719.507 1179.67 730.113L1199.03 713.037L1216.74 696.279L1285.95 627.283L1331.77 581.41L1382.57 530.711L1420.81 492.687L1479.68 434.351L1514.52 398.554L1549.94 362.227L1616.98 297.05L1642.49 271.647L1669.21 242.744C1682.52 228.319 1692.87 216.652 1712.86 205.038V328.975L1713.5 377.765L1712.7 586.448L1713.34 652.686L1791.51 652.792L1961.79 652.686L2161.62 653.906C2150.33 673.422 2136.43 682.384 2122.91 696.173L2072.53 747.614L2016.47 802.927L1962.96 857.126L1921.44 896.158L1891.63 928.349L1657.65 1162.06C1652.88 1166.78 1642.43 1173.47 1640.58 1178.56C1638.72 1183.65 1645.4 1194.25 1650.23 1198.97L1760.54 1307.48L1843.43 1392.49L1878.69 1428.5L1971.13 1519.93L1995.47 1550.1C2019.6 1564.42 2035.88 1583.78 2054.92 1603.72L2084.56 1634.8L2127.36 1678.18L2163 1713.97L2087.38 1714.19L1906.91 1713.55L1878.32 1715.56L1762.02 1714.93L1713.6 1715.41L1712.65 2053.86L1712.17 2163L1604.78 2058.84L1546.13 1997.8L1546.07 1997.59ZM1590.35 377.553L1596.19 385.508C1597.35 387.099 1604.46 384.288 1603.82 382.485L1601.23 374.954C1600.59 373.098 1589.24 376.015 1590.35 377.606V377.553ZM845.936 469.883C845.936 465.693 842.542 462.299 838.353 462.299C834.163 462.299 830.769 465.693 830.769 469.883C830.769 474.072 834.163 477.466 838.353 477.466C842.542 477.466 845.936 474.072 845.936 469.883ZM1550.16 497.301L1550.05 500.642V504.089L1550.16 507.43L1550.26 504.089V500.642L1550.16 497.301ZM1580.6 1810.17L1579.64 1693.82L1579.75 1525.39L1580.01 1429.19L1579.75 1386.13L1578.95 1322.54C1578.79 1310.13 1555.14 1292.26 1546.18 1283.35L1487.1 1224.75L1448.86 1185.29L1483.71 1146.31L1517.12 1112.69L1566.28 1066.61C1582.45 1051.44 1577.94 1045.66 1578.16 1026.94L1579.11 945.373L1579.27 888.893L1580.38 852.247L1639.2 851.611L1713.87 850.816L1713.28 915.833L1784.51 845.937L1842.47 785.426L1750.94 787.017L1679.98 786.54L1634.27 787.972L1424.95 785.639L1320.68 784.896L1260.01 839.997L1211.54 889.582L1183.91 920.659L1080.66 817.405C1077.05 813.799 1070.53 808.283 1071.06 804.73L1073.39 789.881L1021.9 787.389L976.078 786.434L914.455 785.851L852.3 785.161L850.497 710.969L851.505 654.542L913.606 651.996L863.543 601.191L828.807 565.925L784.896 521.377L785.373 649.239L784.578 833.315L785.745 940.6C786.116 976.025 781.767 1015.48 789.033 1048.79C795.45 1078.22 831.989 1094.71 849.755 1112.58L918.909 1182.16L785.798 1317.5L783.411 1447.91L787.177 1514.25L747.349 1513.72L653.693 1515.26L653.216 1471.99C653.216 1467.9 652.103 1454.54 648.496 1456.34C645.473 1457.88 640.011 1461.75 637.253 1464.51L554.682 1545.6C544.499 1555.62 536.12 1567.02 527.211 1582.4L670.982 1580.07L749.788 1579.85L813.162 1580.65L888.575 1580.23L947.07 1580.38L1050.48 1579.91C1056.85 1573.23 1064.38 1568.45 1069.79 1567.66C1081.14 1548.51 1099.43 1529.69 1117.04 1512.13L1183.12 1446.37L1211.7 1479.68L1242.14 1510.81L1317.29 1579.27L1372.66 1581.29L1410.57 1580.17L1509.96 1581.66C1515.31 1598.42 1514.68 1622.01 1514.68 1643.33V1691.65C1514.68 1696.58 1511.02 1709.2 1506.78 1710.26L1493.09 1713.71L1453.85 1717.31C1460.21 1726.12 1470.02 1737.25 1479.41 1746.11L1511.87 1776.66L1536.79 1804.34C1551 1820.09 1558.91 1823.8 1576.46 1843.37C1578.74 1834.83 1580.86 1820.62 1580.76 1810.33L1580.6 1810.17ZM1532.55 525.726C1533.29 528.325 1539.66 540.31 1540.13 537.764L1542.68 524.718C1543 523.021 1532.07 524.029 1532.55 525.726ZM1506.88 653.587L1580.17 651.36L1579.54 589.1L1578.95 520.051L1501.74 598.54L1451.94 649.186L1506.83 653.534L1506.88 653.587ZM695.165 532.885L695.059 536.226V539.674L695.165 543.015L695.271 539.674V536.226L695.165 532.885ZM1430.99 611.692C1431.89 617.048 1435.98 627.867 1436.72 625.215L1439.58 614.821C1440.06 613.071 1430.67 609.942 1430.99 611.745V611.692ZM1049.32 636.829C1049.32 632.64 1045.92 629.246 1041.73 629.246C1037.54 629.246 1034.15 632.64 1034.15 636.829C1034.15 641.019 1037.54 644.413 1041.73 644.413C1045.92 644.413 1049.32 641.019 1049.32 636.829ZM1430.2 640.435L1427.01 651.095C1426.27 653.587 1436.29 656.345 1436.98 653.8L1439.58 643.989C1440.06 642.292 1430.67 638.738 1430.2 640.435ZM1652.83 677.346L1631.56 682.543L1635.11 697.127L1656.38 691.93L1652.83 677.346ZM720.09 706.408L712.295 718.446C711.446 719.772 716.908 719.772 718.022 718.658L723.06 713.62C724.174 712.507 720.939 705.029 720.09 706.408ZM1058.86 722.583C1058.86 718.499 1055.57 715.211 1051.49 715.211C1047.41 715.211 1044.12 718.499 1044.12 722.583C1044.12 726.666 1047.41 729.954 1051.49 729.954C1055.57 729.954 1058.86 726.666 1058.86 722.583ZM1163.81 736.106L1151.88 745.917L1162.06 758.327L1174 748.516L1163.81 736.106ZM413.35 772.009C413.35 765.327 407.941 759.865 401.206 759.865C394.47 759.865 389.061 765.274 389.061 772.009C389.061 778.744 394.47 784.154 401.206 784.154C407.941 784.154 413.35 778.744 413.35 772.009ZM649.504 915.568L654.012 860.308L650.246 785.904L526.946 785.692C533.628 810.617 553.939 819.155 569.001 834.322L649.504 915.515V915.568ZM718.871 790.73C716.59 793.646 712.348 802.291 714.469 803.988C716.59 805.685 724.863 810.246 725.553 807.594L728.575 795.662C729.265 792.957 720.568 788.608 718.871 790.73ZM1906.38 797.571L1906.27 800.912V804.359L1906.38 807.7L1906.48 804.359V800.912L1906.38 797.571ZM1922.5 800.01L1919.16 800.116L1922.5 800.222H1925.94L1929.29 800.116L1925.94 800.01H1922.5ZM1724.95 1034.73C1724.95 1030.65 1721.66 1027.31 1717.53 1027.31C1713.39 1027.31 1710.1 1030.65 1710.1 1034.73C1710.1 1038.82 1713.39 1042.16 1717.53 1042.16C1721.66 1042.16 1724.95 1038.82 1724.95 1034.73ZM788.29 1178.5L780.07 1195.1L792.692 1201.36L800.912 1184.76L788.29 1178.5ZM1559.75 1197.01L1565.64 1204.97C1566.81 1206.56 1573.86 1203.91 1573.28 1202.05L1570.68 1194.47C1570.04 1192.61 1558.59 1195.47 1559.75 1197.07V1197.01ZM756.205 1245.48L756.099 1248.82V1252.27L756.205 1255.61L756.312 1252.27V1248.82L756.205 1245.48ZM1712.49 1282.34L1717.9 1291.25C1718.75 1292.63 1726.28 1290.14 1725.22 1288.92L1720.55 1283.56C1719.49 1282.34 1711.75 1281.07 1712.49 1282.29V1282.34ZM1643.12 1335.11C1643.12 1330.76 1639.62 1327.26 1635.27 1327.26C1630.92 1327.26 1627.42 1330.76 1627.42 1335.11C1627.42 1339.46 1630.92 1342.96 1635.27 1342.96C1639.62 1342.96 1643.12 1339.46 1643.12 1335.11ZM1711.06 1337.07C1711.06 1333.94 1708.51 1331.4 1705.38 1331.4C1702.25 1331.4 1699.71 1333.94 1699.71 1337.07C1699.71 1340.2 1702.25 1342.75 1705.38 1342.75C1708.51 1342.75 1711.06 1340.2 1711.06 1337.07ZM702.961 1426.91C703.65 1430.99 706.143 1439.69 707.15 1437.67L711.552 1428.5C712.188 1427.17 702.749 1425.58 702.961 1426.91ZM1697.75 1438.89L1697.64 1442.23V1445.68L1697.75 1449.02L1697.85 1445.68V1442.23L1697.75 1438.89ZM1842.74 1580.17L1781.54 1519.61L1738.95 1477.08L1714.56 1452.68L1712.44 1580.6L1747.44 1581.76L1801.64 1580.12H1842.79L1842.74 1580.17ZM1771.35 1452.2L1765.26 1463.24L1780.79 1471.77L1786.89 1460.74L1771.35 1452.2ZM469.511 1536.84L473.065 1548.99C473.86 1551.59 482.027 1548.78 481.868 1546.02L481.179 1534.88C481.073 1533.08 468.981 1535.04 469.458 1536.79L469.511 1536.84ZM527.211 1540.72L527.105 1544.06V1547.5L527.211 1550.85L527.317 1547.5V1544.06L527.211 1540.72ZM1662.11 1576.35L1662 1579.69V1583.14L1662.11 1586.48L1662.21 1583.14V1579.69L1662.11 1576.35ZM1850.43 1596.72L1850.32 1600.06V1603.51L1850.43 1606.85L1850.53 1603.51V1600.06L1850.43 1596.72ZM1886.01 1617.03L1885.9 1620.37V1623.82L1886.01 1627.16L1886.12 1623.82V1620.37L1886.01 1617.03ZM961.335 1642.54C961.6 1630.45 954.388 1626.05 946.645 1628.17L961.335 1642.54ZM1395.09 1641.16L1402.3 1652.99C1403.26 1654.52 1410.73 1651.82 1410.1 1650.07L1406.23 1638.93C1405.64 1637.24 1394.19 1639.67 1395.09 1641.16ZM734.091 1659.4C734.144 1661.95 735.841 1668.31 737.432 1666.4L743.107 1659.67C744.167 1658.4 734.038 1657.71 734.091 1659.4ZM1393.18 1665.29L1389.84 1665.4L1393.18 1665.5H1396.63L1399.97 1665.4L1396.63 1665.29H1393.18ZM761.297 1703.58L761.19 1706.92V1710.37L761.297 1713.71L761.403 1710.37V1706.92L761.297 1703.58ZM786.858 1845.49L848.694 1783.18L885.87 1744.47L917.743 1711.96L867.521 1714.72L784.949 1713.71L783.941 1739.43L784.525 1809.96C784.631 1821.31 778.267 1836.8 786.858 1845.49ZM1634.21 1727.39C1634.21 1721.82 1629.7 1717.31 1624.14 1717.31C1618.57 1717.31 1614.06 1721.82 1614.06 1727.39C1614.06 1732.96 1618.57 1737.47 1624.14 1737.47C1629.7 1737.47 1634.21 1732.96 1634.21 1727.39ZM1463.29 1796.97C1464.35 1798.77 1468.8 1807.1 1469.23 1805.19L1470.98 1797.29C1471.4 1795.43 1462.33 1795.33 1463.29 1796.97ZM1656.64 1815.32C1658.82 1812.67 1658.45 1794.74 1656.22 1794.74C1646.14 1796.07 1646.46 1815.42 1656.64 1815.32ZM761.297 1810.49L761.19 1813.83V1817.28L761.297 1820.62L761.403 1817.28V1813.83L761.297 1810.49ZM1500.09 1823.06L1496.75 1823.17L1500.09 1823.27H1503.54L1506.88 1823.17L1503.54 1823.06H1500.09ZM739.023 1846.77C739.023 1844.01 736.796 1841.78 734.038 1841.78C731.28 1841.78 729.053 1844.01 729.053 1846.77C729.053 1849.52 731.28 1851.75 734.038 1851.75C736.796 1851.75 739.023 1849.52 739.023 1846.77ZM798.207 1913.91L787.389 1908.55C784.525 1907.12 779.911 1915.5 780.918 1918.57L785.851 1933.74L798.207 1913.91ZM1583.67 1940.79L1591.15 1952.67C1592.37 1954.58 1591.89 1944.77 1591.42 1942.6C1591.1 1941.11 1582.93 1939.57 1583.67 1940.85V1940.79Z" fill="#2C1F00"/>
</svg>
