<svg width="2254" height="2349" viewBox="0 0 2254 2349" fill="none" xmlns="http://www.w3.org/2000/svg">
<path d="M0 2310.88L90.8522 1899.74L2254 1851L2157.59 2349L0 2310.88Z" fill="black"/>
<path d="M234.176 2220V1995H302.176C317.842 1995 331.092 1997.33 341.926 2002C352.926 2006.67 361.759 2012.83 368.426 2020.5C375.092 2028 379.926 2036.25 382.926 2045.25C386.092 2054.08 387.676 2062.83 387.676 2071.5C387.676 2080 386.176 2088.75 383.176 2097.75C380.176 2106.58 375.259 2114.83 368.426 2122.5C361.759 2130 353.009 2136.08 342.176 2140.75C331.342 2145.42 318.009 2147.75 302.176 2147.75H277.676V2220H234.176ZM277.676 2108.75H299.676C310.342 2108.75 318.759 2106.92 324.926 2103.25C331.259 2099.42 335.759 2094.67 338.426 2089C341.259 2083.33 342.676 2077.5 342.676 2071.5C342.676 2065.67 341.342 2059.92 338.676 2054.25C336.009 2048.42 331.509 2043.58 325.176 2039.75C319.009 2035.92 310.509 2034 299.676 2034H277.676V2108.75ZM527.598 2224.5C511.098 2224.5 495.681 2221.5 481.348 2215.5C467.014 2209.33 454.348 2200.92 443.348 2190.25C432.514 2179.58 424.014 2167.17 417.848 2153C411.681 2138.83 408.598 2123.67 408.598 2107.5C408.598 2091.33 411.681 2076.17 417.848 2062C424.014 2047.83 432.514 2035.42 443.348 2024.75C454.348 2014.08 467.014 2005.75 481.348 1999.75C495.681 1993.58 511.098 1990.5 527.598 1990.5C544.098 1990.5 559.514 1993.58 573.848 1999.75C588.181 2005.75 600.764 2014.08 611.598 2024.75C622.598 2035.42 631.181 2047.83 637.348 2062C643.514 2076.17 646.598 2091.33 646.598 2107.5C646.598 2123.67 643.514 2138.83 637.348 2153C631.181 2167.17 622.598 2179.58 611.598 2190.25C600.764 2200.92 588.181 2209.33 573.848 2215.5C559.514 2221.5 544.098 2224.5 527.598 2224.5ZM527.598 2181C537.764 2181 547.181 2179.08 555.848 2175.25C564.514 2171.42 572.098 2166.17 578.598 2159.5C585.264 2152.83 590.431 2145.08 594.098 2136.25C597.764 2127.25 599.598 2117.67 599.598 2107.5C599.598 2097.33 597.764 2087.83 594.098 2079C590.431 2070 585.264 2062.17 578.598 2055.5C572.098 2048.83 564.514 2043.58 555.848 2039.75C547.181 2035.92 537.764 2034 527.598 2034C517.431 2034 508.014 2035.92 499.348 2039.75C490.681 2043.58 483.014 2048.83 476.348 2055.5C469.848 2062.17 464.764 2070 461.098 2079C457.431 2087.83 455.598 2097.33 455.598 2107.5C455.598 2117.67 457.431 2127.25 461.098 2136.25C464.764 2145.08 469.848 2152.83 476.348 2159.5C483.014 2166.17 490.681 2171.42 499.348 2175.25C508.014 2179.08 517.431 2181 527.598 2181ZM685.676 2220V1995H732.176V2220H685.676ZM958.059 2227.5L823.559 2092.75V2220H781.559V1987.5H782.059L916.559 2122V1995H958.559V2227.5H958.059ZM1048.06 2220V2035.5H993.059V1995H1149.56V2035.5H1094.56V2220H1048.06ZM1258.98 2220V1995H1335.48C1353.48 1995 1369.81 1997.92 1384.48 2003.75C1399.31 2009.58 1412.06 2017.67 1422.73 2028C1433.56 2038.17 1441.9 2050.08 1447.73 2063.75C1453.56 2077.42 1456.48 2092 1456.48 2107.5C1456.48 2123 1453.56 2137.58 1447.73 2151.25C1441.9 2164.92 1433.56 2176.92 1422.73 2187.25C1412.06 2197.42 1399.31 2205.42 1384.48 2211.25C1369.81 2217.08 1353.48 2220 1335.48 2220H1258.98ZM1302.48 2179.5H1331.48C1344.15 2179.5 1355.31 2177.67 1364.98 2174C1374.65 2170.17 1382.73 2165 1389.23 2158.5C1395.9 2151.83 1400.9 2144.17 1404.23 2135.5C1407.73 2126.83 1409.48 2117.5 1409.48 2107.5C1409.48 2097.5 1407.73 2088.17 1404.23 2079.5C1400.9 2070.67 1395.9 2063 1389.23 2056.5C1382.73 2049.83 1374.65 2044.67 1364.98 2041C1355.31 2037.33 1344.15 2035.5 1331.48 2035.5H1302.48V2179.5ZM1466.57 2077.5C1471.41 2070.67 1475.66 2063.17 1479.32 2055C1482.99 2046.67 1485.91 2037.5 1488.07 2027.5C1490.24 2017.5 1491.32 2006.67 1491.32 1995H1533.32C1533.32 2010.67 1531.41 2025.42 1527.57 2039.25C1523.91 2053.08 1518.16 2065.83 1510.32 2077.5H1466.57ZM1568.71 2220V1995H1688.71V2034H1612.21V2068.5H1671.21V2106H1612.21V2179.5H1688.71V2220H1568.71ZM1705.21 2220L1804.46 1987H1804.96L1904.21 2220H1858.96L1842.21 2180H1765.71L1748.96 2220H1705.21ZM1780.71 2144H1827.21L1817.46 2121C1814.79 2114.83 1812.29 2108.92 1809.96 2103.25C1807.79 2097.42 1805.71 2090.67 1803.71 2083C1801.87 2090.5 1799.87 2097.17 1797.71 2103C1795.54 2108.83 1793.12 2114.83 1790.46 2121L1780.71 2144ZM1999.79 2225.25C1983.95 2225.25 1969.87 2222 1957.54 2215.5C1945.2 2209 1935.45 2199.75 1928.29 2187.75C1921.29 2175.58 1917.79 2161.08 1917.79 2144.25V1995H1964.29V2142C1964.29 2150 1965.79 2157 1968.79 2163C1971.95 2169 1976.29 2173.67 1981.79 2177C1987.29 2180.17 1993.54 2181.75 2000.54 2181.75C2007.54 2181.75 2013.79 2180.17 2019.29 2177C2024.79 2173.83 2029.04 2169.42 2032.04 2163.75C2035.2 2157.92 2036.79 2151.17 2036.79 2143.5V1995H2081.79V2143.5C2081.79 2160.5 2078.29 2175.17 2071.29 2187.5C2064.29 2199.67 2054.62 2209 2042.29 2215.5C2030.12 2222 2015.95 2225.25 1999.79 2225.25Z" fill="white"/>
<g clip-path="url(#clip0_895_5292)">
<path d="M267.84 724.85L357.74 262.33H698.05L1359.42 0L1892.36 517.75L2110.68 1422.08L1847.41 1718.92L974.15 1594.66L563.21 1380.66L255 1359.95L267.84 724.85Z" fill="#1D1D1B"/>
<path d="M1390.53 1175.62V1134.82L1390.44 1126.82V1036.6H810.03V1109.8H808.82V1175.62H494.76V1109.8H493.43V569.49H494.76V478.4H808.83V569.49H810.04V640.04H994.65V578.25C994.65 562.93 1007.12 550.46 1022.45 550.46H1101.63V474.07H1053.94C1009.14 474.07 972.7 437.63 972.7 392.83C972.7 371.14 981.15 350.74 996.49 335.39C1011.83 320.05 1032.23 311.6 1053.94 311.6H1278.36C1323.16 311.6 1359.6 348.04 1359.6 392.83C1359.6 414.53 1351.15 434.93 1335.81 450.28C1320.47 465.62 1300.07 474.07 1278.37 474.07H1229.48V550.46H1292.05C1307.37 550.46 1319.84 562.92 1319.84 578.25V640.04H1413.25V640.21H1510.51C1583.79 640.21 1652.68 668.74 1704.5 720.56C1756.32 772.38 1784.86 841.27 1784.86 914.56V999.77L1784.96 1007.77V1047.78H1785.57V1175.63H1390.56L1390.53 1175.62ZM1657.03 1047.77V914.55C1657.03 833.74 1591.29 768 1510.49 768H1338.36V767.89H810.03V908.75H1368.75V908.27H1415.25C1442.06 908.27 1467.46 918.55 1486.79 937.22C1506.06 955.84 1517.22 980.78 1518.2 1007.45C1518.25 1008.63 1518.27 1009.9 1518.27 1011.28V1047.75H1657.03V1047.77ZM682.18 1047.77V606.25H621.28V1047.77H682.18Z" fill="white"/>
<path d="M1278.36 319.609C1318.81 319.609 1351.6 352.399 1351.6 392.839C1351.6 413.069 1343.4 431.369 1330.15 444.629C1316.9 457.879 1298.59 466.079 1278.36 466.079H1221.47V558.469H1292.04C1302.97 558.469 1311.83 567.329 1311.83 578.259V648.049H1405.24V648.219H1510.5C1581.64 648.219 1648.53 675.919 1698.83 726.219C1749.14 776.529 1776.84 843.409 1776.84 914.559V1007.77H1776.94V1055.78H1777.55V1167.63H1398.54V1126.83H1398.45V1028.61H802.04V1101.81H800.83V1167.63H502.76V1101.81H501.43V577.499H502.76V486.409H800.83V577.499H802.04V648.049H1002.65V578.259C1002.65 567.329 1011.52 558.469 1022.45 558.469H1109.63V466.079H1053.94C1013.49 466.079 980.7 433.289 980.7 392.839C980.7 372.619 988.9 354.309 1002.15 341.059C1015.4 327.809 1033.71 319.609 1053.94 319.609H1278.36ZM613.28 1055.77H690.18V598.249H613.28V1055.77ZM802.03 916.759H1376.75V916.279H1415.25C1466.46 916.279 1508.34 956.999 1510.2 1007.76C1510.25 1008.94 1510.27 1010.11 1510.27 1011.3V1055.77H1665.08V1049.72H1665.03V914.549C1665.03 829.329 1595.7 759.999 1510.49 759.999H1346.36V759.889H802.03V916.749M1278.36 303.609H1053.94C1030.1 303.609 1007.69 312.889 990.84 329.749C973.99 346.599 964.7 369.009 964.7 392.839C964.7 442.049 1004.73 482.079 1053.94 482.079H1093.63V542.469H1022.45C1002.71 542.469 986.65 558.519 986.65 578.259V632.049H818.04V561.499H816.83V470.409H486.76V561.499H485.43V1117.81H486.76V1183.63H816.83V1117.81H818.04V1044.61H1382.45V1142.83H1382.54V1183.63H1793.55V1039.78H1792.94V991.769H1792.84V914.559C1792.84 839.139 1763.47 768.239 1710.14 714.909C1656.82 661.589 1585.92 632.219 1510.5 632.219H1421.24V632.049H1327.83V578.259C1327.83 558.529 1311.78 542.469 1292.04 542.469H1237.47V482.079H1278.36C1302.2 482.079 1324.61 472.799 1341.46 455.939C1358.31 439.089 1367.6 416.679 1367.6 392.839C1367.6 343.639 1327.57 303.609 1278.36 303.609ZM629.28 614.249H674.18V1039.77H629.28V614.249ZM818.03 775.899H1330.36V776.009H1510.49C1586.88 776.009 1649.03 838.159 1649.03 914.559V1039.78H1526.27V1011.31C1526.27 1009.83 1526.24 1008.47 1526.19 1007.16C1525.13 978.419 1513.11 951.549 1492.35 931.489C1471.53 911.369 1444.15 900.289 1415.25 900.289H1360.75V900.769H818.03V775.909V775.899Z" fill="white"/>
<path d="M1510.3 1007.77V1055.78H1510.27V1011.31C1510.27 1010.12 1510.25 1008.95 1510.2 1007.77H1510.3Z" fill="white" stroke="white" stroke-width="16" stroke-miterlimit="10"/>
<path d="M1586.53 1562.87C1585.85 1562.87 1585.16 1562.87 1584.48 1562.85C1540.4 1561.97 1504.49 1533.71 1488.46 1506.09C1471.19 1476.34 1469.25 1434.08 1482.99 1387.11C1497.17 1338.64 1526.25 1289.59 1567.08 1245.26C1572.74 1239.11 1580.3 1235.72 1588.34 1235.72C1596.38 1235.72 1604.78 1239.53 1610.44 1246.18C1650.07 1292.72 1677.76 1343.3 1690.52 1392.48C1702.9 1440.18 1699.65 1482.32 1681.38 1511.15C1665.07 1536.89 1629.41 1562.87 1586.53 1562.87Z" fill="white"/>
<path d="M1588.34 1243.71C1594.18 1243.71 1600.01 1246.27 1604.35 1251.36C1685.42 1346.57 1708.98 1452.64 1674.62 1506.86C1658.53 1532.26 1624.29 1554.86 1586.53 1554.86C1585.9 1554.86 1585.27 1554.86 1584.64 1554.84C1545.31 1554.05 1510.84 1528.7 1495.38 1502.06C1462.86 1446.03 1489.48 1341.32 1572.97 1250.66C1577.25 1246.01 1582.8 1243.7 1588.35 1243.7M1588.34 1227.71C1578.03 1227.71 1568.39 1232.01 1561.19 1239.83C1540.13 1262.7 1521.98 1287.05 1507.24 1312.23C1493.08 1336.4 1482.34 1360.84 1475.31 1384.86C1460.94 1433.95 1463.16 1478.43 1481.54 1510.1C1490.82 1526.09 1505.37 1540.85 1522.51 1551.68C1541.69 1563.79 1563.06 1570.42 1584.32 1570.85C1585.06 1570.86 1585.79 1570.87 1586.53 1570.87C1632.45 1570.87 1670.65 1543.03 1688.14 1515.43C1707.61 1484.71 1711.2 1440.33 1698.26 1390.47C1691.94 1366.11 1681.91 1341.13 1668.44 1316.22C1654.42 1290.29 1636.95 1264.98 1616.53 1240.99C1609.35 1232.55 1599.07 1227.71 1588.34 1227.71Z" fill="white"/>
<path d="M695.72 576.381H596.08V1078.26H695.72V576.381Z" fill="#1D1D1B" stroke="#1D1D1B" stroke-width="18" stroke-miterlimit="10"/>
</g>
<defs>
<clipPath id="clip0_895_5292">
<rect width="1855.68" height="1718.92" fill="white" transform="translate(255)"/>
</clipPath>
</defs>
</svg>
