<svg width="2620" height="2525" viewBox="0 0 2620 2525" fill="none" xmlns="http://www.w3.org/2000/svg">
<path d="M0 2481.91L105.605 2017.1L2620 1962L2507.93 2525L0 2481.91Z" fill="black"/>
<path d="M234.035 2364V2139H302.785C319.118 2139 333.035 2142.25 344.535 2148.75C356.202 2155.25 365.118 2163.92 371.285 2174.75C377.452 2185.42 380.535 2197.17 380.535 2210C380.535 2217.67 379.368 2225 377.035 2232C374.702 2238.83 371.368 2245.08 367.035 2250.75C362.702 2256.25 357.452 2261.08 351.285 2265.25L410.785 2364H361.535L311.535 2278.5H277.535V2364H234.035ZM277.535 2241H300.785C309.285 2241 316.202 2239.42 321.535 2236.25C326.868 2233.08 330.785 2229.08 333.285 2224.25C335.785 2219.25 337.035 2214.25 337.035 2209.25C337.035 2203.08 335.452 2197.67 332.285 2193C329.285 2188.33 325.035 2184.67 319.535 2182C314.202 2179.33 307.952 2178 300.785 2178H277.535V2241ZM433.324 2364V2139H553.324V2178H476.824V2212.5H535.824V2250H476.824V2323.5H553.324V2364H433.324ZM648.574 2369C639.408 2369 630.491 2367.83 621.824 2365.5C613.324 2363.17 605.491 2360.08 598.324 2356.25C591.324 2352.25 585.324 2347.83 580.324 2343L592.574 2293C596.574 2299.83 601.658 2305.92 607.824 2311.25C613.991 2316.58 620.741 2320.83 628.074 2324C635.408 2327 642.741 2328.5 650.074 2328.5C656.241 2328.5 661.491 2327.42 665.824 2325.25C670.158 2322.92 673.491 2319.83 675.824 2316C678.324 2312 679.574 2307.58 679.574 2302.75C679.574 2296.92 678.158 2292.08 675.324 2288.25C672.658 2284.42 669.408 2281.25 665.574 2278.75C661.908 2276.25 658.658 2274.33 655.824 2273L629.324 2259.75C621.658 2255.92 614.324 2251.42 607.324 2246.25C600.324 2240.92 594.574 2234.33 590.074 2226.5C585.741 2218.67 583.574 2209 583.574 2197.5C583.574 2188 585.158 2179.42 588.324 2171.75C591.658 2163.92 596.408 2157.25 602.574 2151.75C608.741 2146.08 616.074 2141.75 624.574 2138.75C633.241 2135.58 642.908 2134 653.574 2134C666.908 2134 678.741 2136.17 689.074 2140.5C699.574 2144.67 708.074 2149.17 714.574 2154L703.074 2202.75C698.574 2196.92 693.491 2191.92 687.824 2187.75C682.158 2183.42 676.241 2180.08 670.074 2177.75C663.908 2175.25 657.741 2174 651.574 2174C646.074 2174 641.408 2175 637.574 2177C633.908 2178.83 631.074 2181.42 629.074 2184.75C627.074 2187.92 626.074 2191.58 626.074 2195.75C626.074 2199.58 626.908 2203 628.574 2206C630.408 2209 632.991 2211.67 636.324 2214C639.658 2216.33 643.574 2218.67 648.074 2221L674.824 2234.25C679.324 2236.42 684.241 2239.25 689.574 2242.75C694.908 2246.08 700.074 2250.33 705.074 2255.5C710.074 2260.67 714.158 2266.92 717.324 2274.25C720.491 2281.42 722.074 2290 722.074 2300C722.074 2313 719.074 2324.75 713.074 2335.25C707.074 2345.58 698.574 2353.83 687.574 2360C676.741 2366 663.741 2369 648.574 2369ZM789.824 2364V2179.5H734.824V2139H891.324V2179.5H836.324V2364H789.824ZM874.98 2364L974.23 2131H974.73L1073.98 2364H1028.73L1011.98 2324H935.48L918.73 2364H874.98ZM950.48 2288H996.98L987.23 2265C984.564 2258.83 982.064 2252.92 979.73 2247.25C977.564 2241.42 975.48 2234.67 973.48 2227C971.647 2234.5 969.647 2241.17 967.48 2247C965.314 2252.83 962.897 2258.83 960.23 2265L950.48 2288ZM1169.56 2369.25C1153.73 2369.25 1139.64 2366 1127.31 2359.5C1114.98 2353 1105.23 2343.75 1098.06 2331.75C1091.06 2319.58 1087.56 2305.08 1087.56 2288.25V2139H1134.06V2286C1134.06 2294 1135.56 2301 1138.56 2307C1141.73 2313 1146.06 2317.67 1151.56 2321C1157.06 2324.17 1163.31 2325.75 1170.31 2325.75C1177.31 2325.75 1183.56 2324.17 1189.06 2321C1194.56 2317.83 1198.81 2313.42 1201.81 2307.75C1204.98 2301.92 1206.56 2295.17 1206.56 2287.5V2139H1251.56V2287.5C1251.56 2304.5 1248.06 2319.17 1241.06 2331.5C1234.06 2343.67 1224.39 2353 1212.06 2359.5C1199.89 2366 1185.73 2369.25 1169.56 2369.25ZM1294.35 2364V2139H1363.1C1379.43 2139 1393.35 2142.25 1404.85 2148.75C1416.51 2155.25 1425.43 2163.92 1431.6 2174.75C1437.76 2185.42 1440.85 2197.17 1440.85 2210C1440.85 2217.67 1439.68 2225 1437.35 2232C1435.01 2238.83 1431.68 2245.08 1427.35 2250.75C1423.01 2256.25 1417.76 2261.08 1411.6 2265.25L1471.1 2364H1421.85L1371.85 2278.5H1337.85V2364H1294.35ZM1337.85 2241H1361.1C1369.6 2241 1376.51 2239.42 1381.85 2236.25C1387.18 2233.08 1391.1 2229.08 1393.6 2224.25C1396.1 2219.25 1397.35 2214.25 1397.35 2209.25C1397.35 2203.08 1395.76 2197.67 1392.6 2193C1389.6 2188.33 1385.35 2184.67 1379.85 2182C1374.51 2179.33 1368.26 2178 1361.1 2178H1337.85V2241ZM1472.64 2364L1571.89 2131H1572.39L1671.64 2364H1626.39L1609.64 2324H1533.14L1516.39 2364H1472.64ZM1548.14 2288H1594.64L1584.89 2265C1582.22 2258.83 1579.72 2252.92 1577.39 2247.25C1575.22 2241.42 1573.14 2234.67 1571.14 2227C1569.3 2234.5 1567.3 2241.17 1565.14 2247C1562.97 2252.83 1560.55 2258.83 1557.89 2265L1548.14 2288ZM1710.21 2364V2179.5H1655.21V2139H1811.71V2179.5H1756.71V2364H1710.21ZM1847.75 2364V2139H1894.25V2364H1847.75ZM2052.14 2368.5C2035.64 2368.5 2020.22 2365.5 2005.89 2359.5C1991.55 2353.33 1978.89 2344.92 1967.89 2334.25C1957.05 2323.58 1948.55 2311.17 1942.39 2297C1936.22 2282.83 1933.14 2267.67 1933.14 2251.5C1933.14 2235.33 1936.22 2220.17 1942.39 2206C1948.55 2191.83 1957.05 2179.42 1967.89 2168.75C1978.89 2158.08 1991.55 2149.75 2005.89 2143.75C2020.22 2137.58 2035.64 2134.5 2052.14 2134.5C2068.64 2134.5 2084.05 2137.58 2098.39 2143.75C2112.72 2149.75 2125.3 2158.08 2136.14 2168.75C2147.14 2179.42 2155.72 2191.83 2161.89 2206C2168.05 2220.17 2171.14 2235.33 2171.14 2251.5C2171.14 2267.67 2168.05 2282.83 2161.89 2297C2155.72 2311.17 2147.14 2323.58 2136.14 2334.25C2125.3 2344.92 2112.72 2353.33 2098.39 2359.5C2084.05 2365.5 2068.64 2368.5 2052.14 2368.5ZM2052.14 2325C2062.3 2325 2071.72 2323.08 2080.39 2319.25C2089.05 2315.42 2096.64 2310.17 2103.14 2303.5C2109.8 2296.83 2114.97 2289.08 2118.64 2280.25C2122.3 2271.25 2124.14 2261.67 2124.14 2251.5C2124.14 2241.33 2122.3 2231.83 2118.64 2223C2114.97 2214 2109.8 2206.17 2103.14 2199.5C2096.64 2192.83 2089.05 2187.58 2080.39 2183.75C2071.72 2179.92 2062.3 2178 2052.14 2178C2041.97 2178 2032.55 2179.92 2023.89 2183.75C2015.22 2187.58 2007.55 2192.83 2000.89 2199.5C1994.39 2206.17 1989.3 2214 1985.64 2223C1981.97 2231.83 1980.14 2241.33 1980.14 2251.5C1980.14 2261.67 1981.97 2271.25 1985.64 2280.25C1989.3 2289.08 1994.39 2296.83 2000.89 2303.5C2007.55 2310.17 2015.22 2315.42 2023.89 2319.25C2032.55 2323.08 2041.97 2325 2052.14 2325ZM2385.21 2371.5L2250.71 2236.75V2364H2208.71V2131.5H2209.21L2343.71 2266V2139H2385.71V2371.5H2385.21Z" fill="white"/>
<path d="M644.177 113.45L945.772 0L1445.12 25.2215L1895.05 81.9466L1855.49 907.602L1924.71 1493.75L1855.49 1815.19L1281.97 1821.5L846.89 1789.98L520.571 1273.16L609.566 617.668L644.177 113.45Z" fill="black"/>
<path d="M1111.7 1493.42V989.297H976.432V1493.42H1111.7Z" fill="white"/>
<path d="M1229.04 992.8V826.719H844.624V992.8H1229.04Z" fill="white"/>
<path d="M844.538 871.266H939.537V381.154H844.538V871.266Z" fill="white"/>
<path d="M992.255 871.266H1087.25V381.154H992.255V871.266Z" fill="white"/>
<path d="M1133.78 871.266H1228.77V381.154H1133.78V871.266Z" fill="white"/>
<path d="M1629.62 1493.42V330.02H1494.35V1493.42H1629.62Z" fill="white"/>
<path d="M1498.92 831.045V495.346H1363.65V831.045H1498.92Z" fill="white"/>
<path d="M1363.18 497.165L1494.95 330.006V497.165H1363.18Z" fill="white"/>
<path d="M1364.13 830.547H1499.4V997.706L1364.13 830.547Z" fill="white"/>
</svg>
