<svg width="2250" height="2502" viewBox="0 0 2250 2502" fill="none" xmlns="http://www.w3.org/2000/svg">
<path d="M234.355 2457.75L306.092 1980.48L2014.1 1923.9L1937.97 2502L234.355 2457.75Z" fill="black"/>
<path d="M683.666 2299.37C674.499 2299.37 665.582 2298.2 656.916 2295.87C648.416 2293.54 640.582 2290.45 633.416 2286.62C626.416 2282.62 620.416 2278.2 615.416 2273.37L627.666 2223.37C631.666 2230.2 636.749 2236.29 642.916 2241.62C649.082 2246.95 655.832 2251.2 663.166 2254.37C670.499 2257.37 677.832 2258.87 685.166 2258.87C691.332 2258.87 696.582 2257.79 700.916 2255.62C705.249 2253.29 708.582 2250.2 710.916 2246.37C713.416 2242.37 714.666 2237.95 714.666 2233.12C714.666 2227.29 713.249 2222.45 710.416 2218.62C707.749 2214.79 704.499 2211.62 700.666 2209.12C696.999 2206.62 693.749 2204.7 690.916 2203.37L664.416 2190.12C656.749 2186.29 649.416 2181.79 642.416 2176.62C635.416 2171.29 629.666 2164.7 625.166 2156.87C620.832 2149.04 618.666 2139.37 618.666 2127.87C618.666 2118.37 620.249 2109.79 623.416 2102.12C626.749 2094.29 631.499 2087.62 637.666 2082.12C643.832 2076.45 651.166 2072.12 659.666 2069.12C668.332 2065.95 677.999 2064.37 688.666 2064.37C701.999 2064.37 713.832 2066.54 724.166 2070.87C734.666 2075.04 743.166 2079.54 749.666 2084.37L738.166 2133.12C733.666 2127.29 728.582 2122.29 722.916 2118.12C717.249 2113.79 711.332 2110.45 705.166 2108.12C698.999 2105.62 692.832 2104.37 686.666 2104.37C681.166 2104.37 676.499 2105.37 672.666 2107.37C668.999 2109.2 666.166 2111.79 664.166 2115.12C662.166 2118.29 661.166 2121.95 661.166 2126.12C661.166 2129.95 661.999 2133.37 663.666 2136.37C665.499 2139.37 668.082 2142.04 671.416 2144.37C674.749 2146.7 678.666 2149.04 683.166 2151.37L709.916 2164.62C714.416 2166.79 719.332 2169.62 724.666 2173.12C729.999 2176.45 735.166 2180.7 740.166 2185.87C745.166 2191.04 749.249 2197.29 752.416 2204.62C755.582 2211.79 757.166 2220.37 757.166 2230.37C757.166 2243.37 754.166 2255.12 748.166 2265.62C742.166 2275.95 733.666 2284.2 722.666 2290.37C711.832 2296.37 698.832 2299.37 683.666 2299.37ZM899.299 2298.87C882.799 2298.87 867.382 2295.87 853.049 2289.87C838.715 2283.7 826.049 2275.29 815.049 2264.62C804.215 2253.95 795.715 2241.54 789.549 2227.37C783.382 2213.2 780.299 2198.04 780.299 2181.87C780.299 2165.7 783.382 2150.54 789.549 2136.37C795.715 2122.2 804.215 2109.79 815.049 2099.12C826.049 2088.45 838.715 2080.12 853.049 2074.12C867.382 2067.95 882.799 2064.87 899.299 2064.87C915.799 2064.87 931.215 2067.95 945.549 2074.12C959.882 2080.12 972.465 2088.45 983.299 2099.12C994.299 2109.79 1002.88 2122.2 1009.05 2136.37C1015.22 2150.54 1018.3 2165.7 1018.3 2181.87C1018.3 2198.04 1015.22 2213.2 1009.05 2227.37C1002.88 2241.54 994.299 2253.95 983.299 2264.62C972.465 2275.29 959.882 2283.7 945.549 2289.87C931.215 2295.87 915.799 2298.87 899.299 2298.87ZM899.299 2255.37C909.465 2255.37 918.882 2253.45 927.549 2249.62C936.215 2245.79 943.799 2240.54 950.299 2233.87C956.965 2227.2 962.132 2219.45 965.799 2210.62C969.465 2201.62 971.299 2192.04 971.299 2181.87C971.299 2171.7 969.465 2162.2 965.799 2153.37C962.132 2144.37 956.965 2136.54 950.299 2129.87C943.799 2123.2 936.215 2117.95 927.549 2114.12C918.882 2110.29 909.465 2108.37 899.299 2108.37C889.132 2108.37 879.715 2110.29 871.049 2114.12C862.382 2117.95 854.715 2123.2 848.049 2129.87C841.549 2136.54 836.465 2144.37 832.799 2153.37C829.132 2162.2 827.299 2171.7 827.299 2181.87C827.299 2192.04 829.132 2201.62 832.799 2210.62C836.465 2219.45 841.549 2227.2 848.049 2233.87C854.715 2240.54 862.382 2245.79 871.049 2249.62C879.715 2253.45 889.132 2255.37 899.299 2255.37ZM1056.63 2294.37V2069.37H1125.38C1141.71 2069.37 1155.63 2072.62 1167.13 2079.12C1178.79 2085.62 1187.71 2094.29 1193.88 2105.12C1200.04 2115.79 1203.13 2127.54 1203.13 2140.37C1203.13 2148.04 1201.96 2155.37 1199.63 2162.37C1197.29 2169.2 1193.96 2175.45 1189.63 2181.12C1185.29 2186.62 1180.04 2191.45 1173.88 2195.62L1233.38 2294.37H1184.13L1134.13 2208.87H1100.13V2294.37H1056.63ZM1100.13 2171.37H1123.38C1131.88 2171.37 1138.79 2169.79 1144.13 2166.62C1149.46 2163.45 1153.38 2159.45 1155.88 2154.62C1158.38 2149.62 1159.63 2144.62 1159.63 2139.62C1159.63 2133.45 1158.04 2128.04 1154.88 2123.37C1151.88 2118.7 1147.63 2115.04 1142.13 2112.37C1136.79 2109.7 1130.54 2108.37 1123.38 2108.37H1100.13V2171.37ZM1279.84 2294.37V2109.87H1224.84V2069.37H1381.34V2109.87H1326.34V2294.37H1279.84ZM1417.38 2294.37V2069.37H1463.88V2294.37H1417.38ZM1513.26 2294.37V2069.37H1633.26V2108.37H1556.76V2142.87H1615.76V2180.37H1556.76V2253.87H1633.26V2294.37H1513.26Z" fill="white"/>
<g clip-path="url(#clip0_596_1507)">
<path d="M46.0304 117.609L274.98 0L937.969 92.6589L1637.72 257.086L2250 540.158L2227.66 1116.97L1689.82 1247.82L1091.55 1429.08L789.078 1625.09H0V958.658L46.0304 117.609Z" fill="black"/>
<path d="M541.711 398.971H323.039V1191.1H541.711V398.971Z" fill="white"/>
<path d="M851.708 1296.07V1086.7H323.056V1296.07H851.708Z" fill="white"/>
<path d="M851.715 538.378V329.006H323.063V538.378H851.715Z" fill="white"/>
<path d="M1638.17 864.882V725.301H750.418V864.882H1638.17Z" fill="white"/>
<path d="M1694.06 684.52L1439.87 451.023L1338.95 551.743L1597.73 789.439L1361.2 1047L1470.68 1139.17L1703.02 886.157L1799.37 781.239L1694.06 684.52Z" fill="white"/>
</g>
<path d="M234.355 2457.75L306.092 1980.48L2014.1 1923.9L1937.97 2502L234.355 2457.75Z" fill="black"/>
<path d="M683.666 2299.37C674.499 2299.37 665.582 2298.2 656.916 2295.87C648.416 2293.54 640.582 2290.45 633.416 2286.62C626.416 2282.62 620.416 2278.2 615.416 2273.37L627.666 2223.37C631.666 2230.2 636.749 2236.29 642.916 2241.62C649.082 2246.95 655.832 2251.2 663.166 2254.37C670.499 2257.37 677.832 2258.87 685.166 2258.87C691.332 2258.87 696.582 2257.79 700.916 2255.62C705.249 2253.29 708.582 2250.2 710.916 2246.37C713.416 2242.37 714.666 2237.95 714.666 2233.12C714.666 2227.29 713.249 2222.45 710.416 2218.62C707.749 2214.79 704.499 2211.62 700.666 2209.12C696.999 2206.62 693.749 2204.7 690.916 2203.37L664.416 2190.12C656.749 2186.29 649.416 2181.79 642.416 2176.62C635.416 2171.29 629.666 2164.7 625.166 2156.87C620.832 2149.04 618.666 2139.37 618.666 2127.87C618.666 2118.37 620.249 2109.79 623.416 2102.12C626.749 2094.29 631.499 2087.62 637.666 2082.12C643.832 2076.45 651.166 2072.12 659.666 2069.12C668.332 2065.95 677.999 2064.37 688.666 2064.37C701.999 2064.37 713.832 2066.54 724.166 2070.87C734.666 2075.04 743.166 2079.54 749.666 2084.37L738.166 2133.12C733.666 2127.29 728.582 2122.29 722.916 2118.12C717.249 2113.79 711.332 2110.45 705.166 2108.12C698.999 2105.62 692.832 2104.37 686.666 2104.37C681.166 2104.37 676.499 2105.37 672.666 2107.37C668.999 2109.2 666.166 2111.79 664.166 2115.12C662.166 2118.29 661.166 2121.95 661.166 2126.12C661.166 2129.95 661.999 2133.37 663.666 2136.37C665.499 2139.37 668.082 2142.04 671.416 2144.37C674.749 2146.7 678.666 2149.04 683.166 2151.37L709.916 2164.62C714.416 2166.79 719.332 2169.62 724.666 2173.12C729.999 2176.45 735.166 2180.7 740.166 2185.87C745.166 2191.04 749.249 2197.29 752.416 2204.62C755.582 2211.79 757.166 2220.37 757.166 2230.37C757.166 2243.37 754.166 2255.12 748.166 2265.62C742.166 2275.95 733.666 2284.2 722.666 2290.37C711.832 2296.37 698.832 2299.37 683.666 2299.37ZM899.299 2298.87C882.799 2298.87 867.382 2295.87 853.049 2289.87C838.715 2283.7 826.049 2275.29 815.049 2264.62C804.215 2253.95 795.715 2241.54 789.549 2227.37C783.382 2213.2 780.299 2198.04 780.299 2181.87C780.299 2165.7 783.382 2150.54 789.549 2136.37C795.715 2122.2 804.215 2109.79 815.049 2099.12C826.049 2088.45 838.715 2080.12 853.049 2074.12C867.382 2067.95 882.799 2064.87 899.299 2064.87C915.799 2064.87 931.215 2067.95 945.549 2074.12C959.882 2080.12 972.465 2088.45 983.299 2099.12C994.299 2109.79 1002.88 2122.2 1009.05 2136.37C1015.22 2150.54 1018.3 2165.7 1018.3 2181.87C1018.3 2198.04 1015.22 2213.2 1009.05 2227.37C1002.88 2241.54 994.299 2253.95 983.299 2264.62C972.465 2275.29 959.882 2283.7 945.549 2289.87C931.215 2295.87 915.799 2298.87 899.299 2298.87ZM899.299 2255.37C909.465 2255.37 918.882 2253.45 927.549 2249.62C936.215 2245.79 943.799 2240.54 950.299 2233.87C956.965 2227.2 962.132 2219.45 965.799 2210.62C969.465 2201.62 971.299 2192.04 971.299 2181.87C971.299 2171.7 969.465 2162.2 965.799 2153.37C962.132 2144.37 956.965 2136.54 950.299 2129.87C943.799 2123.2 936.215 2117.95 927.549 2114.12C918.882 2110.29 909.465 2108.37 899.299 2108.37C889.132 2108.37 879.715 2110.29 871.049 2114.12C862.382 2117.95 854.715 2123.2 848.049 2129.87C841.549 2136.54 836.465 2144.37 832.799 2153.37C829.132 2162.2 827.299 2171.7 827.299 2181.87C827.299 2192.04 829.132 2201.62 832.799 2210.62C836.465 2219.45 841.549 2227.2 848.049 2233.87C854.715 2240.54 862.382 2245.79 871.049 2249.62C879.715 2253.45 889.132 2255.37 899.299 2255.37ZM1056.63 2294.37V2069.37H1125.38C1141.71 2069.37 1155.63 2072.62 1167.13 2079.12C1178.79 2085.62 1187.71 2094.29 1193.88 2105.12C1200.04 2115.79 1203.13 2127.54 1203.13 2140.37C1203.13 2148.04 1201.96 2155.37 1199.63 2162.37C1197.29 2169.2 1193.96 2175.45 1189.63 2181.12C1185.29 2186.62 1180.04 2191.45 1173.88 2195.62L1233.38 2294.37H1184.13L1134.13 2208.87H1100.13V2294.37H1056.63ZM1100.13 2171.37H1123.38C1131.88 2171.37 1138.79 2169.79 1144.13 2166.62C1149.46 2163.45 1153.38 2159.45 1155.88 2154.62C1158.38 2149.62 1159.63 2144.62 1159.63 2139.62C1159.63 2133.45 1158.04 2128.04 1154.88 2123.37C1151.88 2118.7 1147.63 2115.04 1142.13 2112.37C1136.79 2109.7 1130.54 2108.37 1123.38 2108.37H1100.13V2171.37ZM1279.84 2294.37V2109.87H1224.84V2069.37H1381.34V2109.87H1326.34V2294.37H1279.84ZM1417.38 2294.37V2069.37H1463.88V2294.37H1417.38ZM1513.26 2294.37V2069.37H1633.26V2108.37H1556.76V2142.87H1615.76V2180.37H1556.76V2253.87H1633.26V2294.37H1513.26Z" fill="white"/>
<defs>
<clipPath id="clip0_596_1507">
<rect width="2250" height="1625.09" fill="white"/>
</clipPath>
</defs>
</svg>
