<svg width="2058" height="2230" viewBox="0 0 2058 2230" fill="none" xmlns="http://www.w3.org/2000/svg">
<path d="M0 2191.88L82.952 1780.74L2058 1732L1969.97 2230L0 2191.88Z" fill="black"/>
<path d="M349.113 2106C339.947 2106 331.03 2104.83 322.363 2102.5C313.863 2100.17 306.03 2097.08 298.863 2093.25C291.863 2089.25 285.863 2084.83 280.863 2080L293.113 2030C297.113 2036.83 302.197 2042.92 308.363 2048.25C314.53 2053.58 321.28 2057.83 328.613 2061C335.947 2064 343.28 2065.5 350.613 2065.5C356.78 2065.5 362.03 2064.42 366.363 2062.25C370.697 2059.92 374.03 2056.83 376.363 2053C378.863 2049 380.113 2044.58 380.113 2039.75C380.113 2033.92 378.697 2029.08 375.863 2025.25C373.197 2021.42 369.947 2018.25 366.113 2015.75C362.447 2013.25 359.197 2011.33 356.363 2010L329.863 1996.75C322.197 1992.92 314.863 1988.42 307.863 1983.25C300.863 1977.92 295.113 1971.33 290.613 1963.5C286.28 1955.67 284.113 1946 284.113 1934.5C284.113 1925 285.697 1916.42 288.863 1908.75C292.197 1900.92 296.947 1894.25 303.113 1888.75C309.28 1883.08 316.613 1878.75 325.113 1875.75C333.78 1872.58 343.447 1871 354.113 1871C367.447 1871 379.28 1873.17 389.613 1877.5C400.113 1881.67 408.613 1886.17 415.113 1891L403.613 1939.75C399.113 1933.92 394.03 1928.92 388.363 1924.75C382.697 1920.42 376.78 1917.08 370.613 1914.75C364.447 1912.25 358.28 1911 352.113 1911C346.613 1911 341.947 1912 338.113 1914C334.447 1915.83 331.613 1918.42 329.613 1921.75C327.613 1924.92 326.613 1928.58 326.613 1932.75C326.613 1936.58 327.447 1940 329.113 1943C330.947 1946 333.53 1948.67 336.863 1951C340.197 1953.33 344.113 1955.67 348.613 1958L375.363 1971.25C379.863 1973.42 384.78 1976.25 390.113 1979.75C395.447 1983.08 400.613 1987.33 405.613 1992.5C410.613 1997.67 414.697 2003.92 417.863 2011.25C421.03 2018.42 422.613 2027 422.613 2037C422.613 2050 419.613 2061.75 413.613 2072.25C407.613 2082.58 399.113 2090.83 388.113 2097C377.28 2103 364.28 2106 349.113 2106ZM490.363 2101V1916.5H435.363V1876H591.863V1916.5H536.863V2101H490.363ZM712.402 2105.5C695.902 2105.5 680.486 2102.5 666.152 2096.5C651.819 2090.33 639.152 2081.92 628.152 2071.25C617.319 2060.58 608.819 2048.17 602.652 2034C596.486 2019.83 593.402 2004.67 593.402 1988.5C593.402 1972.33 596.486 1957.17 602.652 1943C608.819 1928.83 617.319 1916.42 628.152 1905.75C639.152 1895.08 651.819 1886.75 666.152 1880.75C680.486 1874.58 695.902 1871.5 712.402 1871.5C728.902 1871.5 744.319 1874.58 758.652 1880.75C772.986 1886.75 785.569 1895.08 796.402 1905.75C807.402 1916.42 815.986 1928.83 822.152 1943C828.319 1957.17 831.402 1972.33 831.402 1988.5C831.402 2004.67 828.319 2019.83 822.152 2034C815.986 2048.17 807.402 2060.58 796.402 2071.25C785.569 2081.92 772.986 2090.33 758.652 2096.5C744.319 2102.5 728.902 2105.5 712.402 2105.5ZM712.402 2062C722.569 2062 731.986 2060.08 740.652 2056.25C749.319 2052.42 756.902 2047.17 763.402 2040.5C770.069 2033.83 775.236 2026.08 778.902 2017.25C782.569 2008.25 784.402 1998.67 784.402 1988.5C784.402 1978.33 782.569 1968.83 778.902 1960C775.236 1951 770.069 1943.17 763.402 1936.5C756.902 1929.83 749.319 1924.58 740.652 1920.75C731.986 1916.92 722.569 1915 712.402 1915C702.236 1915 692.819 1916.92 684.152 1920.75C675.486 1924.58 667.819 1929.83 661.152 1936.5C654.652 1943.17 649.569 1951 645.902 1960C642.236 1968.83 640.402 1978.33 640.402 1988.5C640.402 1998.67 642.236 2008.25 645.902 2017.25C649.569 2026.08 654.652 2033.83 661.152 2040.5C667.819 2047.17 675.486 2052.42 684.152 2056.25C692.819 2060.08 702.236 2062 712.402 2062ZM977.48 2105.5C960.98 2105.5 945.564 2102.5 931.23 2096.5C916.897 2090.33 904.23 2081.92 893.23 2071.25C882.397 2060.58 873.897 2048.17 867.73 2034C861.564 2019.83 858.48 2004.67 858.48 1988.5C858.48 1972.33 861.564 1957.17 867.73 1943C873.897 1928.83 882.397 1916.42 893.23 1905.75C904.23 1895.08 916.897 1886.75 931.23 1880.75C945.564 1874.58 960.98 1871.5 977.48 1871.5C992.314 1871.5 1006.31 1873.92 1019.48 1878.75C1032.65 1883.58 1044.4 1890.42 1054.73 1899.25L1041.98 1951.75C1035.81 1941.42 1027.31 1932.75 1016.48 1925.75C1005.65 1918.58 993.147 1915 978.98 1915C968.814 1915 959.314 1916.92 950.48 1920.75C941.814 1924.58 934.23 1929.83 927.73 1936.5C921.23 1943.17 916.147 1951 912.48 1960C908.814 1968.83 906.98 1978.33 906.98 1988.5C906.98 1998.67 908.814 2008.25 912.48 2017.25C916.147 2026.08 921.23 2033.83 927.73 2040.5C934.23 2047.17 941.814 2052.42 950.48 2056.25C959.314 2060.08 968.814 2062 978.98 2062C992.98 2062 1005.4 2058.5 1016.23 2051.5C1027.23 2044.33 1035.81 2035.58 1041.98 2025.25L1054.73 2077.75C1044.23 2086.42 1032.4 2093.25 1019.23 2098.25C1006.23 2103.08 992.314 2105.5 977.48 2105.5ZM1211.35 2101L1129.35 1962.25L1191.6 1876H1243.1L1180.6 1961.5L1264.1 2101H1211.35ZM1086.6 2101V1876H1131.6V2101H1086.6ZM1265.64 2101L1364.89 1868H1365.39L1464.64 2101H1419.39L1402.64 2061H1326.14L1309.39 2101H1265.64ZM1341.14 2025H1387.64L1377.89 2002C1375.22 1995.83 1372.72 1989.92 1370.39 1984.25C1368.22 1978.42 1366.14 1971.67 1364.14 1964C1362.3 1971.5 1360.3 1978.17 1358.14 1984C1355.97 1989.83 1353.55 1995.83 1350.89 2002L1341.14 2025ZM1595.21 2105.5C1578.21 2105.5 1562.3 2102.67 1547.46 2097C1532.8 2091.17 1519.88 2083 1508.71 2072.5C1497.71 2062 1489.13 2049.67 1482.96 2035.5C1476.8 2021.33 1473.71 2005.83 1473.71 1989C1473.71 1972.17 1476.8 1956.67 1482.96 1942.5C1489.13 1928.17 1497.71 1915.75 1508.71 1905.25C1519.88 1894.58 1532.71 1886.33 1547.21 1880.5C1561.88 1874.5 1577.71 1871.5 1594.71 1871.5C1610.05 1871.5 1624.38 1873.92 1637.71 1878.75C1651.05 1883.58 1662.88 1890.42 1673.21 1899.25L1660.46 1950.75C1654.13 1940.42 1645.38 1931.75 1634.21 1924.75C1623.21 1917.58 1610.05 1914 1594.71 1914C1584.05 1914 1574.21 1915.92 1565.21 1919.75C1556.21 1923.42 1548.38 1928.67 1541.71 1935.5C1535.05 1942.17 1529.88 1950.08 1526.21 1959.25C1522.55 1968.25 1520.71 1978.17 1520.71 1989C1520.71 2000 1522.55 2010.08 1526.21 2019.25C1529.88 2028.42 1535.05 2036.33 1541.71 2043C1548.38 2049.67 1556.21 2054.83 1565.21 2058.5C1574.21 2062.17 1583.96 2064 1594.46 2064C1601.3 2064 1607.63 2063.33 1613.46 2062C1619.3 2060.67 1624.55 2058.67 1629.21 2056V2012.5H1583.46V1975H1670.21V2084.25C1659.88 2090.92 1648.3 2096.17 1635.46 2100C1622.8 2103.67 1609.38 2105.5 1595.21 2105.5ZM1714.14 2101V1876H1834.14V1915H1757.64V1949.5H1816.64V1987H1757.64V2060.5H1834.14V2101H1714.14Z" fill="white"/>
<g clip-path="url(#clip0_596_1529)">
<path d="M710.4 62.81L1430.48 0L1867.56 510.89L1808.41 1296.02L947.23 1650.94L190 1309.54L281.72 328.49L710.4 62.81Z" fill="black"/>
<path d="M822.32 745.67L994.86 863.09V1323.28L560.11 1060.56L569.84 573.84L742.6 691.42L743.39 817.37L823.06 859.57L822.32 745.67Z" fill="black"/>
<path d="M753.7 635.35L589.71 523.75L1031.68 280.23L1174.26 366.39L753.7 635.35Z" fill="black"/>
<path d="M1444.15 529.5L1021.16 817.37L827.05 685.26L1252.33 413.57L1444.15 529.5Z" fill="black"/>
<path d="M1481.9 567.42L1471.68 1078.78L1047.46 1312.53V863.09L1481.9 567.42Z" fill="black"/>
<path d="M1174.26 366.39L753.7 635.35L589.71 523.75L1031.68 280.23L1174.26 366.39Z" fill="white"/>
<path d="M1444.15 529.5L1021.16 817.37L827.05 685.26L1257.5 411.5L1444.15 529.5Z" fill="white"/>
<path d="M994.86 863.09V1323.28L560.11 1060.56L569.84 573.84L742.6 691.42L743.39 817.37L823.06 859.57L822.32 745.67L994.86 863.09Z" fill="white"/>
<path d="M1481.9 567.42L1471.68 1078.78L1047.46 1312.53V863.09L1481.9 567.42Z" fill="white"/>
</g>
<defs>
<clipPath id="clip0_596_1529">
<rect width="1677.56" height="1650.94" fill="white" transform="translate(190)"/>
</clipPath>
</defs>
</svg>
