<svg width="2768" height="2502" viewBox="0 0 2768 2502" fill="none" xmlns="http://www.w3.org/2000/svg">
<g clip-path="url(#clip0_596_1504)">
<path d="M690.132 0C670.955 146.084 651.764 292.168 632.587 438.253C553.015 490.877 473.443 543.502 393.886 596.126C500.642 633.031 607.398 669.951 714.154 706.857L1044.16 814.277L1638.16 793.624L2024.73 781.228C2062.23 675.506 2099.72 569.799 2137.22 464.077C2074.03 323.4 2010.84 182.738 1947.64 42.0612C1528.46 28.0408 1109.3 14.0204 690.132 0Z" fill="black"/>
<path d="M1227.03 2261.72L500.835 2252.07L0 1663.63L112.68 1239.17L137.722 563.903C459.424 587.482 781.11 611.076 1102.81 634.655C1436.36 559.619 1769.91 484.582 2103.48 409.561L2767.07 930.488L2604.31 1943.39C2448.7 2059.27 2293.08 2175.17 2137.47 2291.06C1934.89 2263.61 1732.31 2236.16 1529.72 2208.71C1428.83 2226.38 1327.94 2244.05 1227.03 2261.72Z" fill="black"/>
<path d="M2251.72 1831.57H1643.39V1929.13H2251.72V1831.57Z" fill="white"/>
<path d="M2096.5 1035.19H2014.57C1990.95 1035.19 1971.81 1054.33 1971.81 1077.94C1971.81 1101.55 1990.95 1120.69 2014.57 1120.69H2096.5C2120.12 1120.69 2139.26 1101.55 2139.26 1077.94C2139.26 1054.33 2120.12 1035.19 2096.5 1035.19Z" fill="white"/>
<path d="M2272.02 897.807H1620.16V995.359H2272.02V897.807Z" fill="white"/>
<path d="M2369.82 1361.71H1526.1V1459.26H2369.82V1361.71Z" fill="white"/>
<path d="M1715.98 1441.97V903.137H1618.42V1441.97H1715.98Z" fill="white"/>
<path d="M1624.39 1651.34V1388.93H1526.83V1651.34H1624.39Z" fill="white"/>
<path d="M1732.68 1890.75L1616.72 1613.21L1526.71 1650.82L1642.67 1928.35L1732.68 1890.75Z" fill="white"/>
<path d="M2370.84 1651.34V1388.93H2273.29V1651.34H2370.84Z" fill="white"/>
<path d="M2275.75 1441.98V903.148H2178.2V1441.98H2275.75Z" fill="white"/>
<path d="M2254.9 1928.84L2370.86 1651.31L2280.85 1613.7L2164.89 1891.23L2254.9 1928.84Z" fill="white"/>
<path d="M1158.51 1726.67H467.106V1837.54H1158.51V1726.67Z" fill="white"/>
<path d="M916.144 1833.76H697.904V1944.64H916.144V1833.76Z" fill="white"/>
<path d="M631.23 975.883H999.321V865.005H631.23V975.883Z" fill="white"/>
<path d="M709.466 840.74H927.706V729.862H709.466V840.74Z" fill="white"/>
<path d="M764.898 1648.36H872.274C902.888 1648.36 927.706 1623.54 927.706 1592.93V1592.91C927.706 1562.3 902.888 1537.48 872.274 1537.48H764.898C734.284 1537.48 709.466 1562.3 709.466 1592.91V1592.93C709.466 1623.54 734.284 1648.36 764.898 1648.36Z" fill="white"/>
<path d="M568.587 1793.94L436.798 1478.51L334.49 1521.25L466.28 1836.68L568.587 1793.94Z" fill="white"/>
<path d="M1162.12 1837.21L1293.91 1521.78L1191.6 1479.03L1059.81 1794.46L1162.12 1837.21Z" fill="white"/>
<path d="M438.356 1563.49L731.765 909.243L629.456 869.412L336.062 1523.66L438.356 1563.49Z" fill="white"/>
<path d="M1190.6 1563.49L897.188 909.243L999.498 869.412L1292.89 1523.66L1190.6 1563.49Z" fill="white"/>
<path d="M1383.15 811.084V1762.85" stroke="white" stroke-width="19.2208" stroke-miterlimit="10"/>
<path d="M1150.95 615.049L1018.45 280.38H1086.68L1141.26 418.269C1143.89 424.733 1146.41 431.556 1148.8 438.737C1151.43 445.68 1154.31 454.178 1157.42 464.233C1160.53 454.178 1163.52 445.68 1166.39 438.737C1169.51 431.556 1172.38 424.733 1175.01 418.269L1236.42 269.607H1237.13L1299.26 418.269C1301.89 424.733 1304.76 431.556 1307.87 438.737C1310.99 445.68 1314.1 454.178 1317.21 464.233C1320.32 454.178 1323.2 445.68 1325.83 438.737C1328.46 431.556 1330.98 424.733 1333.37 418.269L1387.23 280.38H1452.23L1319.72 615.049H1319.01L1252.58 455.615C1249.94 449.151 1247.19 442.328 1244.32 435.147C1241.44 427.965 1238.45 419.347 1235.34 409.292C1232.23 419.347 1229.23 427.965 1226.36 435.147C1223.49 442.089 1220.74 448.792 1218.1 455.255L1151.67 615.049H1150.95ZM1634.32 610.022C1610.62 610.022 1588.48 605.713 1567.89 597.095C1547.3 588.238 1529.11 576.148 1513.31 560.827C1497.75 545.506 1485.54 527.671 1476.68 507.323C1467.82 486.975 1463.39 465.19 1463.39 441.969C1463.39 418.748 1467.82 396.964 1476.68 376.615C1485.54 356.267 1497.75 338.432 1513.31 323.111C1529.11 307.79 1547.3 295.821 1567.89 287.202C1588.48 278.345 1610.62 273.916 1634.32 273.916C1655.63 273.916 1675.73 277.387 1694.65 284.33C1713.56 291.272 1730.44 301.087 1745.28 313.775L1726.96 389.183C1718.11 374.341 1705.9 361.893 1690.34 351.838C1674.78 341.544 1656.82 336.397 1636.47 336.397C1621.87 336.397 1608.23 339.15 1595.54 344.656C1583.09 350.162 1572.2 357.703 1562.86 367.279C1553.52 376.855 1546.22 388.106 1540.96 401.033C1535.69 413.721 1533.06 427.366 1533.06 441.969C1533.06 456.572 1535.69 470.337 1540.96 483.264C1546.22 495.952 1553.52 507.084 1562.86 516.659C1572.2 526.235 1583.09 533.776 1595.54 539.282C1608.23 544.788 1621.87 547.541 1636.47 547.541C1656.58 547.541 1674.42 542.514 1689.98 532.459C1705.78 522.165 1718.11 509.597 1726.96 494.755L1745.28 570.163C1730.2 582.612 1713.2 592.427 1694.29 599.609C1675.61 606.551 1655.63 610.022 1634.32 610.022Z" fill="white"/>
</g>
<path d="M1412.93 1978.53L948.063 2024.25L845.037 2249.04L869.328 2416.38C954.345 2435.67 1126.81 2478.53 1136.52 2495.65C1146.24 2512.76 1585.9 2488.52 1804.52 2474.26L1923.04 2394.99L1889.53 2024.25L1412.93 1978.53Z" fill="black"/>
<path d="M1085.48 2367.53V2142.53H1153.48C1169.15 2142.53 1182.4 2144.86 1193.23 2149.53C1204.23 2154.2 1213.06 2160.36 1219.73 2168.03C1226.4 2175.53 1231.23 2183.78 1234.23 2192.78C1237.4 2201.61 1238.98 2210.36 1238.98 2219.03C1238.98 2227.53 1237.48 2236.28 1234.48 2245.28C1231.48 2254.11 1226.56 2262.36 1219.73 2270.03C1213.06 2277.53 1204.31 2283.61 1193.48 2288.28C1182.65 2292.95 1169.31 2295.28 1153.48 2295.28H1128.98V2367.53H1085.48ZM1128.98 2256.28H1150.98C1161.65 2256.28 1170.06 2254.45 1176.23 2250.78C1182.56 2246.95 1187.06 2242.2 1189.73 2236.53C1192.56 2230.86 1193.98 2225.03 1193.98 2219.03C1193.98 2213.2 1192.65 2207.45 1189.98 2201.78C1187.31 2195.95 1182.81 2191.11 1176.48 2187.28C1170.31 2183.45 1161.81 2181.53 1150.98 2181.53H1128.98V2256.28ZM1270.4 2367.53V2135.03H1270.9L1377.4 2268.03L1481.9 2135.03H1482.4V2367.53H1438.9V2303.03C1438.9 2295.7 1438.98 2287.45 1439.15 2278.28C1439.48 2269.11 1440.32 2258.61 1441.65 2246.78C1436.48 2255.45 1431.48 2262.95 1426.65 2269.28C1421.98 2275.61 1417.65 2281.45 1413.65 2286.78L1376.65 2336.28L1338.4 2286.78C1334.57 2281.78 1329.98 2275.78 1324.65 2268.78C1319.48 2261.61 1314.48 2254.03 1309.65 2246.03C1310.98 2258.2 1311.73 2268.86 1311.9 2278.03C1312.23 2287.2 1312.4 2295.53 1312.4 2303.03V2367.53H1270.4ZM1531.31 2367.53V2142.53H1600.06C1616.39 2142.53 1630.31 2145.78 1641.81 2152.28C1653.47 2158.78 1662.39 2167.45 1668.56 2178.28C1674.72 2188.95 1677.81 2200.7 1677.81 2213.53C1677.81 2221.2 1676.64 2228.53 1674.31 2235.53C1671.97 2242.36 1668.64 2248.61 1664.31 2254.28C1659.97 2259.78 1654.72 2264.61 1648.56 2268.78L1708.06 2367.53H1658.81L1608.81 2282.03H1574.81V2367.53H1531.31ZM1574.81 2244.53H1598.06C1606.56 2244.53 1613.47 2242.95 1618.81 2239.78C1624.14 2236.61 1628.06 2232.61 1630.56 2227.78C1633.06 2222.78 1634.31 2217.78 1634.31 2212.78C1634.31 2206.61 1632.72 2201.2 1629.56 2196.53C1626.56 2191.86 1622.31 2188.2 1616.81 2185.53C1611.47 2182.86 1605.22 2181.53 1598.06 2181.53H1574.81V2244.53Z" fill="white"/>
<defs>
<clipPath id="clip0_596_1504">
<rect width="2767.07" height="2291.06" fill="white"/>
</clipPath>
</defs>
</svg>
